<svg xmlns="http://www.w3.org/2000/svg" fill="none" viewBox="0 0 100 75"><path stroke="#000" stroke-width="2" d="M8.62 60.834c12.548-12.152 17.137-16.347 17.863-16.925 1.017-.434 3.834-1.042 6.97 0 3.138 1.041 11.764 11.138 15.685 16.057"/><path stroke="#000" stroke-width="2" d="M36.207 45.833l19.598-18.508c2.672-2.383 9.442-5.72 15.143 0 5.702 5.721 14.847 14.723 18.707 18.508m-58.621 20c10.711-4.166 37.43-12.5 58.62-12.5"/><rect width="98" height="73" x="1" y="1" stroke="#000" stroke-width="2" rx="2"/><path stroke="#000" stroke-width="2" d="M8.759 9.334h80.759v56.333H8.759z"/><path stroke="#000" stroke-width="2" d="M31.759 25.833c0 3.098-2.608 5.667-5.897 5.667-3.288 0-5.896-2.569-5.896-5.667s2.608-5.666 5.896-5.666c3.29 0 5.897 2.568 5.897 5.666z"/></svg>