<svg xmlns="http://www.w3.org/2000/svg" xmlns:xlink="http://www.w3.org/1999/xlink"><symbol id="sprite-arrow-right" viewBox="0 0 1024 1024"><title/><path d="M1007.632 472.214L637.83 102.402c-10.558-10.556-24.627-16.351-39.629-16.351-15.017 0-29.077 5.803-39.634 16.351l-33.577 33.584c-10.547 10.54-16.357 24.618-16.357 39.627 0 15.003 5.81 29.555 16.357 40.095L740.731 431.92H55.32c-30.903 0-55.321 24.193-55.321 55.104v47.479c0 30.911 24.418 57.543 55.321 57.543h687.858L524.999 809.468c-10.547 10.552-16.359 24.248-16.359 39.26 0 14.991 5.811 28.887 16.359 39.434l33.577 33.475c10.552 10.558 24.617 16.312 39.634 16.312 15.002 0 29.072-5.832 39.629-16.384l369.802-369.805c10.583-10.589 16.399-24.726 16.358-39.753.031-15.076-5.776-29.22-16.368-39.794z"/></symbol><symbol id="sprite-arrow" viewBox="0 0 1024 1024"><title/><path d="M512 674.191l452.427-443.554L1024 291.402l-511.999 501.96L0 291.402l59.574-60.765 452.427 443.554z"/></symbol><symbol id="sprite-check" viewBox="0 0 1024 1024"><title/><path d="M435.664 650.973l480.378-504.687 107.959 113.371-588.337 618.058L.001 420.202l107.956-113.371 327.706 344.142z"/></symbol><symbol id="sprite-chevron-down" viewBox="0 0 1024 1024"><title/><path d="M511.999 803.855c-18.352 0-36.702-7.007-50.694-20.993L21.007 342.559c-28.009-28.008-28.009-73.42 0-101.417 27.997-27.997 73.4-27.997 101.41 0l389.582 389.604 389.582-389.59c28.01-27.997 73.412-27.997 101.406 0 28.018 27.997 28.018 73.409 0 101.418L562.693 782.876c-13.999 13.988-32.348 20.979-50.694 20.979z"/></symbol><symbol fill="none" id="sprite-facebook" viewBox="0 0 10 18"><title>facebook</title><path d="M8.878 10.041l.463-3.016H6.447V5.068c0-.825.404-1.63 1.7-1.63h1.316V.87S8.27.667 7.127.667c-2.383 0-3.941 1.444-3.941 4.06v2.298H.536v3.016h2.65v7.292h3.26v-7.291h2.432z" fill="#222349"/></symbol><symbol fill="none" id="sprite-favicon-logo" viewBox="0 0 57 57"><title>favicon-logo</title><rect width="57" height="57" rx="9" fill="#212248"/><path d="M5.588 16.765V40.39h17.728v-4.546H10.663v-5.24h9.604v-4.546h-9.604v-4.73H21.08l-1.5-4.563H5.588z" fill="#EB5B58"/><path d="M32.65 23.832h-.013l-2.759 9.128-4.893-16.195h-5.404l1.5 4.563 6.26 19.062h4.728L35 31.205l-2.35-7.373z" fill="#F6F3EA"/><path d="M45.012 16.765L40.12 32.96l-2.759-9.128H32.65L35 31.205l2.93 9.185h4.727l7.76-23.625h-5.404z" fill="#00B6F8"/></symbol><symbol fill="none" id="sprite-instagram" viewBox="0 0 18 18"><title>instagram</title><path d="M9.002 4.728A4.265 4.265 0 004.73 9a4.265 4.265 0 004.272 4.272A4.265 4.265 0 0013.274 9a4.265 4.265 0 00-4.272-4.272zm0 7.05A2.783 2.783 0 016.224 9a2.78 2.78 0 012.778-2.778A2.78 2.78 0 0111.779 9a2.783 2.783 0 01-2.777 2.777zm5.443-7.225a.994.994 0 01-.996.996.996.996 0 11.996-.996zm2.83 1.011c-.064-1.334-.368-2.517-1.346-3.491-.975-.974-2.157-1.28-3.492-1.346-1.375-.078-5.499-.078-6.875 0-1.33.063-2.513.368-3.491 1.342C1.093 3.043.792 4.226.725 5.561c-.078 1.375-.078 5.499 0 6.874.063 1.335.368 2.518 1.346 3.492.978.974 2.157 1.279 3.491 1.346 1.376.078 5.5.078 6.875 0 1.335-.063 2.518-.368 3.492-1.346.974-.974 1.279-2.157 1.346-3.492.078-1.375.078-5.495 0-6.87zm-1.778 8.348a2.812 2.812 0 01-1.584 1.584c-1.097.435-3.7.334-4.911.334-1.212 0-3.819.097-4.912-.334a2.812 2.812 0 01-1.584-1.584c-.435-1.097-.335-3.7-.335-4.912 0-1.212-.096-3.819.335-4.912.29-.729.852-1.29 1.584-1.584 1.097-.435 3.7-.334 4.912-.334 1.212 0 3.818-.097 4.911.334.73.29 1.29.852 1.584 1.584.435 1.097.335 3.7.335 4.912 0 1.212.1 3.819-.335 4.912z" fill="#222349"/></symbol><symbol fill="none" id="sprite-linkedin" viewBox="0 0 18 18"><title>linkedin</title><path d="M4.397 17.333H.942V6.206h3.455v11.127zM2.667 4.688c-1.104 0-2-.915-2-2.02a2.001 2.001 0 114.002 0c0 1.105-.897 2.02-2.001 2.02zM17.33 17.333h-3.447v-5.416c0-1.291-.027-2.947-1.797-2.947-1.796 0-2.072 1.403-2.072 2.854v5.51H6.562V6.205h3.314v1.518h.048c.461-.874 1.588-1.797 3.27-1.797 3.496 0 4.14 2.303 4.14 5.294v6.112h-.005z" fill="#222349"/></symbol><symbol id="sprite-logo" viewBox="0 0 7050 1024"><title/><path d="M1635.757 291.577c-97.315 0-181.09 35.792-251.325 107.377-70.239 71.582-104.932 158.007-104.932 258.399s35.541 186.817 105.779 258.402c71.081 71.582 156.55 107.374 256.402 107.374 35.541 0 69.392-4.364 103.239-12.221 33.004-8.732 60.081-18.334 81.239-28.81 21.153-11.347 40.617-23.568 59.234-37.537 18.617-13.966 30.464-23.568 36.387-29.68l12.694-13.095-97.315-129.197-19.464 21.823c-11.847 14.84-33.847 28.806-63.464 42.776-30.464 13.966-62.622 21.823-98.162 21.823-49.081 0-89.698-13.095-121.856-39.282-32.158-26.191-51.617-58.49-59.234-96.902h495.037l6.77-78.568c0-100.391-32.158-184.198-97.315-251.415-65.158-68.092-146.397-101.265-243.712-101.265zm-160.78 294.194c11-38.412 31.311-69.841 59.234-93.408 27.924-23.572 61.775-35.793 101.545-35.793 39.775 0 73.622 12.221 100.703 36.663 27.077 24.446 44.847 54.997 52.464 92.538h-313.947zm919.82-294.194c-37.23 0-72.775 9.603-106.622 27.935s-55.851 33.173-66.005 44.522c-10.153 11.349-17.77 20.078-22.847 27.935v-86.424h-187.861v704.49h187.861V643.388c0-53.252 12.694-93.408 38.077-122.218 25.387-28.806 59.238-42.776 101.549-42.776 38.924 0 71.081 13.095 95.622 39.286 24.541 26.187 37.234 61.105 37.234 103.881v388.474h187.861V599.738c0-94.283-24.541-169.358-73.622-225.228-49.928-55.87-113.392-82.933-191.248-82.933zm2635.13 0c-33.004 0-65.182 5.238-97.319 14.841-32.177 10.476-57.541 20.951-77.036 33.173-19.456 12.221-37.218 25.316-54.154 41.03-16.896 15.715-27.057 26.191-32.138 32.3-5.081 6.112-8.468 11.351-10.988 14.84l104.054 107.378 15.242-16.589c10.161-12.221 28.79-25.316 54.154-36.663 25.403-12.221 53.327-18.334 84.638-18.334 37.218 0 66.009 9.602 87.158 27.936s31.311 42.776 31.311 72.456l-216.655 40.157c-63.449 11.351-112.522 36.667-148.086 75.079-35.525 38.408-54.154 86.422-54.154 144.037 0 55.871 21.15 103.014 64.315 142.297 42.299 39.282 98.186 58.49 165.849 58.49 35.564 0 69.396-7.857 102.4-23.572s54.154-27.936 63.488-37.537c10.122-9.602 17.762-17.459 22.843-24.442v71.582h187.865V570.929c0-80.313-27.097-147.531-81.25-200.782-55.02-52.379-125.243-78.568-211.535-78.568zm104.921 416.409c0 49.759-12.721 88.17-38.085 116.106-25.403 27.936-59.234 41.901-101.534 41.901-60.101 0-90.545-23.568-90.545-71.582 0-44.52 25.364-70.711 76.997-79.443l153.167-28.806v21.823zm459.5-704.496h-188.692v1006.54h188.692V3.49zm278.41 0h-188.731v1006.54h188.731V3.49zm396.879 288.087c-97.319 0-181.09 35.792-251.313 107.377-70.262 71.582-104.921 158.007-104.921 258.399s35.525 186.817 105.748 258.402c71.089 71.582 156.554 107.374 256.433 107.374 35.525 0 69.356-4.364 103.227-12.221 33.004-8.732 60.062-18.334 81.25-28.81 21.15-11.347 40.606-23.568 59.234-37.537 18.59-13.966 30.444-23.568 36.352-29.68l12.721-13.095-97.319-129.197-19.456 21.823c-11.855 14.84-33.871 28.806-63.488 42.776-30.444 13.966-62.622 21.823-98.146 21.823-49.073 0-89.718-13.095-121.856-39.282-32.177-26.191-51.633-58.49-59.234-96.902h495.025l6.774-78.568c0-100.391-32.138-184.198-97.319-251.415-65.142-68.092-146.393-101.265-243.712-101.265zm-160.768 294.194c10.988-38.412 31.311-69.841 59.234-93.408 27.924-23.572 61.755-35.793 101.534-35.793s73.61 12.221 100.706 36.663c27.097 24.446 44.859 54.997 52.46 92.538h-313.935z"/><path d="M7041.378 839.798c-5.908 2.619-14.375 5.238-26.23 7.857s-23.71 3.493-35.525 3.493c-23.71 0-44.032-7.857-59.234-23.572-15.242-15.714-23.71-34.048-23.71-55.871V492.354h138.791V320.377h-138.791V97.768h-167.542v129.2c0 27.935-7.641 49.76-22.843 67.219-15.242 17.46-33.004 26.19-54.193 26.19h-62.582v172.847h118.469v287.212c0 163.245 71.916 244.433 215.749 244.433 46.553.87 88.852-6.987 126.11-20.953V838.052l-8.468 1.745zM1117.007 304.667l-113.392 388.475L801.371 3.491H0v1006.54h731.979v-193.8H209.862v-223.48h396.031V398.947H209.862V198.164H639.74l258.942 811.867h195.478l217.478-705.363h-194.631zM4617.807 0l-202.24 689.652-114.255-388.476h-194.599l-113.428 388.476L3791.057 0h-223.401l320.717 1006.541h195.458l120.162-390.219 121.029 390.219h195.466L4840.37 0h-222.562zM3550.72 626.79c-31.311-13.091-62.622-24.442-93.086-34.044s-56.694-20.078-77.852-32.299c-21.153-12.221-32.154-27.061-32.154-45.395 0-14.84 7.613-27.936 22.847-39.286 15.23-11.347 35.541-17.459 60.928-17.459 20.307 0 40.617 5.238 60.081 15.714s32.154 19.204 38.081 25.316c5.923 6.983 10.153 11.351 13.536 15.714l97.315-114.361-23.694-27.062c-15.23-17.459-43.158-34.919-82.928-53.251-39.775-18.333-82.928-27.062-130.32-27.062-74.464 0-137.086 22.697-187.861 68.965-50.771 46.268-76.158 96.901-76.158 153.642 0 43.65 11 79.443 32.158 108.253 21.153 28.806 47.388 49.759 77.852 62.854 30.464 13.966 61.775 25.316 93.082 34.918 31.311 9.602 57.545 20.949 78.698 34.044 21.157 13.095 32.158 28.81 32.158 48.014 0 19.208-7.617 34.918-22.847 46.269-13.54 10.476-32.158 15.714-57.545 16.585h-302.946c-44.847 0-81.235-36.663-82.928-82.058 0-3.493-.847-290.702-.847-290.702h138.78V320.377h-137.933V97.768h-167.55v129.2c0 27.935-7.617 49.76-22.847 67.219-15.234 17.46-33.004 26.19-54.158 26.19h-62.622v172.847h118.469v287.212c0 157.133 66.851 237.446 199.708 243.558v.874l411.262-.874c75.315-2.619 135.396-23.572 180.248-62.854 48.234-42.776 72.771-95.153 72.771-158.881 0-43.65-11-81.187-32.154-110.868-21.157-30.555-48.234-51.507-79.545-64.603z"/></symbol><symbol class="ldi-47ibm8" preserveAspectRatio="xMidYMid" style="width:525px;webkit-user-select:none;webkit-transform-origin:262.5px 262.5px;webkit-perspective-origin:262.5px 262.5px;webkit-logical-width:525px;webkit-logical-height:525px;user-select:none;transform-origin:262.5px 262.5px;r:0;perspective-origin:262.5px 262.5px;overflow-y:hidden;overflow-x:hidden;inline-size:525px;height:525px;d:none;block-size:525px;background:0 0/auto padding-box border-box" pointer-events="all" overflow="hidden" display="block" id="sprite-ok" viewBox="0 0 100 100"><title>ok</title><svg version="1.1" id="圖層_1" xmlns="http://www.w3.org/2000/svg" x="0" y="0" viewBox="0 0 100 100" xml:space="preserve" style="x:0;webkit-user-select:none;webkit-transform-origin:50px 50px;webkit-perspective-origin:0 0;user-select:none;transform-origin:50px 50px;r:0;perspective-origin:0 0;overflow-y:hidden;overflow-x:hidden" pointer-events="all" overflow="hidden" display="block"><g style="x:0;webkit-user-select:none;webkit-transform-origin:50px 50px;webkit-perspective-origin:0 0;user-select:none;transform-origin:50px 50px;r:0;perspective-origin:0 0"><g style="x:0;webkit-user-select:none;webkit-transform-origin:50px 50px;webkit-transform:matrix(.7,0,0,.7,0,0);webkit-perspective-origin:0 0;user-select:none;transform-origin:50px 50px;r:0;perspective-origin:0 0"><g style="x:0;webkit-user-select:none;webkit-transform-origin:50px 50px;webkit-perspective-origin:0 0;user-select:none;transform-origin:50px 50px;r:0;perspective-origin:0 0"><g style="webkit-user-select:none;webkit-perspective-origin:0 0;user-select:none;perspective-origin:0 0" transform="scale(.7)"><style/><g style="y:0;x:0;webkit-user-select:none;webkit-transform-origin:50px 50px;webkit-perspective-origin:0 0;webkit-animation-duration:2.2s;webkit-animation-delay:.169231s;webkit-animation:2.2s ease .169231s 1 normal none running none;user-select:none;transform-origin:50px 50px;r:0;perspective-origin:0 0;d:none"><circle cx="50" cy="50" r="40" stroke="#3c3" style="webkit-user-select:none;webkit-perspective-origin:0 0;user-select:none;r:40px;perspective-origin:0 0;cy:50px;cx:50px" stroke-width="8" stroke-miterlimit="10" fill="none"/></g><g style="x:0;webkit-user-select:none;webkit-transform-origin:50px 50px;webkit-perspective-origin:0 0;user-select:none;transform-origin:50px 50px;r:0;perspective-origin:0 0"><g style="webkit-user-select:none;webkit-perspective-origin:0 0;user-select:none;perspective-origin:0 0"><g style="y:0;x:0;webkit-user-select:none;webkit-transform-origin:50px 50px;webkit-perspective-origin:0 0;webkit-animation-duration:2.2s;webkit-animation-delay:.338462s;webkit-animation:2.2s ease .338462s 1 normal none running none;user-select:none;transform-origin:50px 50px;r:0;perspective-origin:0 0;d:none" class="ld"><path fill="#3c3" style="webkit-user-select:none;webkit-perspective-origin:0 0;user-select:none;r:0;perspective-origin:0 0" d="M43.7 69.4L25 47.7l3.9-3.9 14.8 12.6 28.6-25.8 2.7 2.7z"/></g></g></g></g></g></g></g><style>@keyframes ldt-bounce-in{0%{-webkit-transform:scale(0);transform:scale(0)}5%{-webkit-transform:scale(.0846);transform:scale(.0846)}6%{-webkit-transform:scale(.191);transform:scale(.191)}7%{-webkit-transform:scale(.3255);transform:scale(.3255)}8%{-webkit-transform:scale(.4804);transform:scale(.4804)}9%{-webkit-transform:scale(.646);transform:scale(.646)}10%{-webkit-transform:scale(.8116);transform:scale(.8116)}11%{-webkit-transform:scale(.9665);transform:scale(.9665)}12%{-webkit-transform:scale(1.1);transform:scale(1.1)}13%{-webkit-transform:scale(1.2069);transform:scale(1.2069)}14%{-webkit-transform:scale(1.2796);transform:scale(1.2796)}19%{-webkit-transform:scale(1.1558);transform:scale(1.1558)}20%{-webkit-transform:scale(1.07);transform:scale(1.07)}21%{-webkit-transform:scale(.9823);transform:scale(.9823)}22%{-webkit-transform:scale(.901);transform:scale(.901)}23%{-webkit-transform:scale(.8328);transform:scale(.8328)}25%{-webkit-transform:scale(.7551);transform:scale(.7551)}29%{-webkit-transform:scale(.8516);transform:scale(.8516)}31%{-webkit-transform:scale(.973);transform:scale(.973)}33%{-webkit-transform:scale(1.0857);transform:scale(1.0857)}35%{-webkit-transform:scale(1.1538);transform:scale(1.1538)}40%{-webkit-transform:scale(1.0771);transform:scale(1.0771)}42%{-webkit-transform:scale(.9954);transform:scale(.9954)}45%{-webkit-transform:scale(.9057);transform:scale(.9057)}52%{-webkit-transform:scale(.9908);transform:scale(.9908)}56%{-webkit-transform:scale(1.0623);transform:scale(1.0623)}64%{-webkit-transform:scale(.9845);transform:scale(.9845)}}@-webkit-keyframes ldt-bounce-in{0%{-webkit-transform:scale(0);transform:scale(0)}5%{-webkit-transform:scale(.0846);transform:scale(.0846)}6%{-webkit-transform:scale(.191);transform:scale(.191)}7%{-webkit-transform:scale(.3255);transform:scale(.3255)}8%{-webkit-transform:scale(.4804);transform:scale(.4804)}9%{-webkit-transform:scale(.646);transform:scale(.646)}10%{-webkit-transform:scale(.8116);transform:scale(.8116)}11%{-webkit-transform:scale(.9665);transform:scale(.9665)}12%{-webkit-transform:scale(1.1);transform:scale(1.1)}13%{-webkit-transform:scale(1.2069);transform:scale(1.2069)}14%{-webkit-transform:scale(1.2796);transform:scale(1.2796)}19%{-webkit-transform:scale(1.1558);transform:scale(1.1558)}20%{-webkit-transform:scale(1.07);transform:scale(1.07)}21%{-webkit-transform:scale(.9823);transform:scale(.9823)}22%{-webkit-transform:scale(.901);transform:scale(.901)}23%{-webkit-transform:scale(.8328);transform:scale(.8328)}25%{-webkit-transform:scale(.7551);transform:scale(.7551)}29%{-webkit-transform:scale(.8516);transform:scale(.8516)}31%{-webkit-transform:scale(.973);transform:scale(.973)}33%{-webkit-transform:scale(1.0857);transform:scale(1.0857)}35%{-webkit-transform:scale(1.1538);transform:scale(1.1538)}40%{-webkit-transform:scale(1.0771);transform:scale(1.0771)}42%{-webkit-transform:scale(.9954);transform:scale(.9954)}45%{-webkit-transform:scale(.9057);transform:scale(.9057)}52%{-webkit-transform:scale(.9908);transform:scale(.9908)}56%{-webkit-transform:scale(1.0623);transform:scale(1.0623)}64%{-webkit-transform:scale(.9845);transform:scale(.9845)}}</style></svg></symbol><symbol id="sprite-quote" viewBox="0 0 1024 1024"><title/><path d="M1024 72.259c-148.595-24.022-258.963 4.368-331.104 85.171-72.144 80.804-108.215 199.824-108.215 357.062V960h439.318V514.492H797.881c-11.847-78.62-1.075-142.497 32.301-191.634 34.457-49.136 90.451-70.43 167.974-63.878l25.843-186.72zm-584.681 0c-148.592-24.022-258.96 4.368-331.104 85.171S0 357.254 0 514.492V960h439.318V514.492H213.199c-11.845-78.62-1.076-142.497 32.302-191.634 34.457-49.136 90.448-70.43 167.974-63.878l25.842-186.72z"/></symbol><symbol id="sprite-site-arrow" viewBox="0 0 3000 2000"><title>site-arrow</title><path d="M1605.48 1015.06h-262.3l6.76-31.25h-26.05l-9.72 44.86h262.3l-40.15 39.52h61.39l13.11-13.61h-45.49zm-5.89-69.64h-37.03l14.6 24.78h37.02z" fill="#e75b58"/><path d="M1577.16 970.2h-224.27l-2.95 13.61h235.24zm108.67 22.99l-32.88-61.38h-61.39l8.03 13.61h24.35l32.88 61.39-46 47.77h15.89z" fill="#59a8e6"/><path fill="#f4f0e6" d="M1623.94 945.42h-24.35l14.59 24.78h-37.02l8.02 13.61h-235.24l-6.76 31.25h262.3l-40.15 39.52h45.49l46-47.77z"/></symbol><symbol id="sprite-star" viewBox="0 0 1024 1024"><title/><path d="M1023.096 395.487a18.37 18.37 0 00-14.812-12.482l-331.575-48.187-148.28-300.452a18.309 18.309 0 00-16.425-10.228c-6.965 0-13.362 3.959-16.423 10.228l-148.302 300.47-331.575 48.188a18.361 18.361 0 00-14.81 12.482c-2.145 6.617-.367 13.912 4.637 18.769l239.947 233.88-56.655 330.254a18.367 18.367 0 007.277 17.925c5.664 4.142 13.16 4.675 19.301 1.393l296.603-155.904 296.565 155.904a18.332 18.332 0 008.545 2.109 18.314 18.314 0 0018.054-21.427l-56.637-330.234 239.948-233.901c4.982-4.894 6.779-12.171 4.618-18.788z"/></symbol><symbol fill="none" id="sprite-twitter" viewBox="0 0 18 14"><title>twitter</title><path d="M15.62 3.605c.01.148.01.297.01.445 0 4.515-3.436 9.718-9.718 9.718a9.653 9.653 0 01-5.245-1.533c.274.032.539.042.824.042a6.84 6.84 0 004.241-1.46A3.422 3.422 0 012.538 8.45a3.67 3.67 0 001.545-.063 3.416 3.416 0 01-2.74-3.353v-.042a3.44 3.44 0 001.544.433A3.413 3.413 0 011.364 2.58c0-.635.17-1.217.466-1.724A9.71 9.71 0 008.873 4.43a3.856 3.856 0 01-.085-.782A3.414 3.414 0 0112.204.232c.984 0 1.872.412 2.496 1.079a6.725 6.725 0 002.168-.825 3.407 3.407 0 01-1.502 1.882 6.848 6.848 0 001.967-.529 7.343 7.343 0 01-1.713 1.766z" fill="#222349"/></symbol><symbol fill="none" id="sprite-vkontakte" viewBox="0 0 18 10"><title>vkontakte</title><path d="M16.953.721c.115-.387 0-.671-.55-.671H14.58c-.464 0-.677.244-.792.517 0 0-.928 2.261-2.24 3.728-.424.424-.619.56-.85.56-.115 0-.292-.136-.292-.523V.722c0-.465-.13-.672-.513-.672H7.028c-.291 0-.464.216-.464.417 0 .44.656.542.724 1.78v2.685c0 .588-.106.696-.338.696-.618 0-2.122-2.27-3.013-4.87C3.757.254 3.58.05 3.114.05H1.29C.771.05.667.294.667.567c0 .482.618 2.88 2.88 6.048 1.507 2.163 3.63 3.336 5.56 3.336 1.16 0 1.303-.26 1.303-.709 0-2.067-.106-2.262.476-2.262.27 0 .733.136 1.816 1.18 1.238 1.237 1.442 1.79 2.135 1.79h1.822c.52 0 .783-.26.632-.773-.347-1.08-2.69-3.301-2.794-3.45-.27-.346-.192-.5 0-.81.003-.003 2.227-3.135 2.456-4.196z" fill="#222349"/></symbol></svg>