<svg xmlns="http://www.w3.org/2000/svg" xmlns:xlink="http://www.w3.org/1999/xlink"><symbol id="sprite-app-store" viewBox="0 0 3405 1024"><title/><path d="M2934.424 265.301c-21.658 0-29.414 17.065-32.486 31.03h60.339c0-12.411-4.634-31.03-27.853-31.03zM2233.349 346c13.929 0 26.312-7.757 30.953-21.722 0-3.103 1.549-4.654 1.549-7.757v-17.068c0-3.103 0-6.205-1.549-7.757-3.095-12.413-13.929-21.722-29.404-21.722-21.668 0-34.048 17.068-34.048 38.789 0 20.168 10.834 37.235 32.499 37.235zm-100.621-15.523c0-1.554 1.549-4.657 1.549-6.208v-18.616c-23.214 0-47.977 3.103-47.977 23.27 0 12.413 9.285 18.619 18.57 18.619 15.478 0 24.763-7.757 27.858-17.065zm284.794 17.077c20.119 0 34.048-17.068 34.048-40.34 0-17.068-9.285-38.787-34.048-38.787s-35.597 20.168-35.597 40.338c1.549 21.722 15.478 38.789 35.597 38.789zm-425.627-80.678c-24.763 0-35.594 20.17-35.594 40.34 0 23.273 13.929 40.338 34.048 40.338s34.048-17.065 34.048-40.338c1.546-18.619-7.739-40.34-32.502-40.34zm-78.907 274.601c-26.312 0-47.977 18.616-55.716 44.992v3.105c-1.546 4.654-1.546 7.757-1.546 10.86v37.235c0 6.208 0 10.862 1.546 15.516 6.19 24.824 27.858 43.443 54.167 43.443 37.143 0 60.357-29.478 60.357-79.127 0-37.238-18.57-76.024-58.808-76.024zm-408.581-274.601c-24.76 0-35.594 20.17-35.594 40.34 0 23.273 13.929 40.338 34.048 40.338s34.048-17.065 34.048-40.338c1.546-18.619-9.285-40.34-32.502-40.34zm1388.238 271.501c-34.048 0-51.072 29.478-55.731 55.854h103.706c0-9.308-3.098-29.478-15.488-43.443-6.17-9.308-18.56-12.411-32.486-12.411z"/><path d="M3267.173.001H137.838C62.004.001.098 63.613.098 139.637v744.729c0 77.576 61.905 139.635 137.74 139.635h3129.335c75.827 0 137.728-63.611 137.728-139.635V139.637C3404.901 63.613 3343 .001 3267.173.001zM2935.96 252.898c37.146 0 46.438 29.479 46.438 49.649v9.308h-78.925c0 24.824 18.56 35.686 38.682 35.686 15.488 0 24.755-3.105 30.95-4.657l3.098 12.413c-7.731 3.103-20.122 6.205-38.682 6.205-35.61 0-55.731-21.722-55.731-52.751s20.122-55.854 54.17-55.854zm-176.435-44.994h20.122v65.165c3.098-4.657 7.757-10.862 15.488-12.413 6.195-3.103 13.926-4.654 21.658-4.654 15.488 0 40.243 7.757 40.243 44.995v62.06h-20.122v-60.508c0-17.068-6.195-31.03-26.317-31.03-13.926 0-23.194 7.757-27.853 18.616-1.536 3.103-1.536 4.657-1.536 9.311v62.06h-20.122v-153.6h-1.562zm-241.418 46.545l1.546 17.068c6.19-9.311 18.573-18.619 37.143-18.619 15.465 0 40.246 7.757 40.246 44.995v62.06h-20.122v-58.957c0-17.068-6.195-31.03-26.314-31.03-13.929 0-24.763 9.308-27.858 18.616-1.546 3.103-1.546 6.208-1.546 9.311v62.06h-20.122v-76.024c0-10.86 0-18.619-1.546-27.927h18.573v-1.552zm-99.049-1.551c32.499 0 54.167 21.722 54.167 52.752 0 38.787-29.407 55.854-57.262 55.854-30.953 0-54.17-20.17-54.17-52.751 1.549-35.684 26.312-55.854 57.265-55.854zm-188.814 0c17.024 0 29.404 7.757 34.048 15.516v-60.51h20.119v124.121c0 9.308 0 20.17 1.549 26.376h-18.573l-1.546-18.619c-6.193 10.862-20.122 20.17-38.692 20.17-27.858 0-49.526-21.722-49.526-52.751 1.549-34.132 24.763-54.303 52.621-54.303zm-340.48-44.994h20.119v152.048h-20.119V207.904zm-547.863 6.206c29.404 0 51.072 6.206 65.001 17.066 13.929 12.412 23.214 27.927 23.214 52.751 0 23.273-7.739 41.892-23.214 55.854-15.478 13.965-40.238 20.17-69.645 20.17-15.475 0-26.309 0-37.143-1.551V217.212c10.834-1.552 26.309-3.103 41.787-3.103zm-625.245 41.891c21.665-27.927 60.357-48.097 92.856-51.2 6.19 37.236-9.285 72.922-29.404 99.297-21.668 27.927-58.811 49.649-94.405 48.097-6.193-34.135 10.831-71.37 30.953-96.195zM916.3 729.212c-26.309 38.789-61.906 88.438-106.788 88.438-40.238 0-49.523-26.376-103.69-26.376s-65.001 26.376-105.239 26.376c-44.882 0-78.93-44.995-105.239-83.781-71.194-110.159-78.93-238.935-35.597-307.2 30.953-49.649 80.476-77.576 126.907-77.576 47.977 0 77.381 26.376 116.073 26.376 38.689 0 61.903-26.376 116.073-26.376 41.784 0 85.12 23.273 116.07 62.06-102.144 57.405-86.666 203.249 17.024 243.589-10.831 31.03-17.024 46.543-35.594 74.47zm589.651 0l-30.953-93.089h-99.049l-30.953 93.089h-46.428l102.144-304.095h51.072l103.69 304.095h-49.523zm-3.095-367.708c-30.953 0-54.167-20.17-54.167-52.751 0-34.132 24.76-55.854 57.262-55.854 32.499 0 54.167 21.722 54.167 52.752 0 38.787-29.407 55.854-57.262 55.854zm89.761-107.055l15.478 52.752c3.095 10.86 6.19 21.722 7.736 32.581 3.098-10.86 6.193-21.722 10.834-32.581l18.573-52.752h17.024l17.024 51.2c4.644 12.411 7.739 23.273 10.834 34.132 1.546-10.86 4.641-21.722 9.285-34.132l15.475-52.752h20.119l-37.143 103.952h-18.57l-17.024-49.649c-4.644-12.411-7.739-21.722-10.834-34.132-3.095 12.411-6.19 23.273-10.834 34.132l-18.57 49.649h-18.573l-34.048-103.952h23.214v1.551zm157.86 449.941c-18.573 18.616-41.787 29.478-69.645 29.478-26.309 0-47.977-9.311-61.903-26.376v108.605h-46.431V581.819c0-29.478 0-51.2-1.546-69.819v-3.103h41.784l1.549 29.478c17.024-23.273 41.787-35.684 72.74-35.684 26.309 0 49.523 10.86 66.547 31.03s26.309 48.097 26.309 80.678c1.549 38.789-9.285 68.268-29.404 89.989zm29.404-417.359c-1.546 3.103-1.546 6.205-1.546 9.311v62.06h-20.119v-76.024c0-10.86 0-18.619-1.549-27.927h18.573l1.546 17.068c6.19-9.311 18.573-18.619 37.143-18.619 15.478 0 40.241 7.757 40.241 44.995v62.06h-20.122v-58.957c0-17.068-6.19-31.03-26.309-31.03-12.38-1.554-23.214 7.757-27.858 17.065zm207.383 417.359c-18.57 18.616-41.784 29.478-69.642 29.478-26.309 0-47.977-9.311-61.906-26.376v108.605h-46.428V581.819c0-29.478 0-51.2-1.549-69.819v-3.103h41.787l1.546 29.478c17.024-23.273 41.787-35.684 72.74-35.684 26.309 0 49.526 10.86 66.55 31.03s26.309 48.097 26.309 80.678c1.546 38.789-9.288 68.268-29.407 89.989zm3.098-342.886c-30.953 0-54.17-20.17-54.17-52.751 0-34.132 24.763-55.854 57.265-55.854 32.499 0 54.167 21.722 54.167 52.752 0 38.787-29.407 55.854-57.262 55.854zm74.286-29.479c0-24.824 24.76-38.789 68.096-38.789v-1.551c0-7.757-3.095-23.27-26.312-23.27-10.831 0-21.665 3.103-29.404 7.757l-4.644-12.413c9.288-4.654 23.217-9.308 37.146-9.308 35.594 0 43.333 21.722 43.333 41.892v37.235c0 9.308 0 17.068 1.546 24.824h-18.57l-1.549-12.411c-6.19 7.757-18.57 15.514-35.594 15.514-21.668 0-34.048-13.962-34.048-29.478zm125.358 401.844c-27.858 0-60.357-7.759-77.381-20.17l-1.549-1.551 12.38-38.789 4.644 3.103c18.573 12.413 43.333 18.619 66.547 18.619 35.597 0 58.811-17.065 58.811-46.546 0-24.824-13.929-40.338-52.618-55.854-54.167-20.17-80.479-48.097-80.479-88.435 0-49.649 40.238-83.784 99.049-83.784 37.143 0 58.811 10.862 66.55 15.516l3.095 1.551-12.383 38.789-4.641-3.105c-4.644-3.103-24.763-13.962-54.167-13.962-35.597 0-52.621 20.17-52.621 41.892 0 24.824 13.929 37.235 55.716 54.303 54.167 21.722 77.381 48.097 75.832 89.987-1.546 38.789-29.404 88.438-106.785 88.438zm244.527-189.287h-55.716v111.711c0 26.376 7.739 37.235 24.763 37.235 9.285 0 15.478-1.551 21.668-3.103l4.641-1.551 1.549 37.235-1.549 3.103c-6.19 1.554-18.57 6.208-35.594 6.208-18.573 0-34.048-6.205-44.882-17.068-10.834-12.411-15.475-31.03-15.475-58.957V546.133h-32.502v-37.235h32.502v-38.789l44.879-13.962v52.751h55.716v35.684zm109.883 189.287c-61.906 0-105.239-46.546-105.239-113.262 0-69.816 44.879-116.362 108.334-116.362 30.945 0 57.262 10.86 77.384 31.03 18.56 20.17 29.414 49.649 29.414 82.23 0 79.127-57.267 116.365-109.893 116.365zm123.819-479.42h17.024v-18.618l20.122-4.655V256h29.389v13.965h-29.389v55.854c0 12.411 4.634 20.17 15.462 20.17 6.195 0 9.293 0 12.39-1.554l1.536 13.965c-4.634 1.551-10.829 3.103-18.56 3.103-9.293 0-17.024-3.103-21.683-7.757-6.17-6.205-7.731-15.516-7.731-26.376v-57.405h-17.024v-15.516h-1.536zm108.314 291.684c-23.194 0-43.315 18.619-47.974 46.546 0 4.654-1.536 10.862-1.536 17.068v117.914h-46.438V577.166c0-27.93 0-48.097-1.536-66.716v-3.103h40.243l1.536 32.581c12.39-23.273 34.048-37.235 57.267-37.235 4.634 0 7.731 0 10.829 1.551h3.098v41.889h-4.634c-3.098 1.551-6.195 0-10.854 0zm208.947 80.679v3.105h-148.582c3.098 60.508 49.536 66.714 68.096 66.714 27.853 0 44.877-4.654 57.267-10.86l3.098-1.551 9.293 34.132-3.098 1.551c-13.926 6.205-37.146 13.965-72.755 13.965-64.998 0-108.314-43.443-108.314-111.711 0-69.816 41.779-119.465 103.68-119.465 66.56 0 91.315 55.854 91.315 103.951 1.536 9.308 1.536 15.514 0 20.168z"/><path d="M1677.737 541.477c-26.309 0-47.977 18.616-55.713 44.992v3.105c-1.549 4.654-1.549 7.757-1.549 10.86v37.235c0 6.208 0 10.862 1.549 15.516 6.19 24.824 27.855 43.443 54.167 43.443 37.143 0 60.357-29.478 60.357-79.127 0-37.238-18.573-76.024-58.811-76.024zM1340.342 345.99c43.333 0 68.096-21.722 68.096-60.511 0-34.132-21.668-55.853-65.001-55.853-10.834 0-18.57 1.551-24.763 1.551v113.261c6.193 1.551 13.929 1.551 21.668 1.551zm1205.615 193.935c-41.787 0-60.357 40.34-61.906 79.127 0 46.546 24.763 79.127 60.357 79.127 35.584 0 60.365-32.581 60.365-79.127 1.536-38.787-17.024-79.127-58.816-79.127zm-1120.48-65.149c-3.095 15.516-7.736 29.478-10.831 41.892l-27.858 80.678h78.93l-27.858-80.678c-4.644-13.965-9.285-27.927-12.383-41.892z"/></symbol><symbol id="sprite-arrow-right" viewBox="0 0 1024 1024"><title/><path d="M1007.632 472.214L637.83 102.402c-10.558-10.556-24.627-16.351-39.629-16.351-15.017 0-29.077 5.803-39.634 16.351l-33.577 33.584c-10.547 10.54-16.357 24.618-16.357 39.627 0 15.003 5.81 29.555 16.357 40.095L740.731 431.92H55.32c-30.903 0-55.321 24.193-55.321 55.104v47.479c0 30.911 24.418 57.543 55.321 57.543h687.858L524.999 809.468c-10.547 10.552-16.359 24.248-16.359 39.26 0 14.991 5.811 28.887 16.359 39.434l33.577 33.475c10.552 10.558 24.617 16.312 39.634 16.312 15.002 0 29.072-5.832 39.629-16.384l369.802-369.805c10.583-10.589 16.399-24.726 16.358-39.753.031-15.076-5.776-29.22-16.368-39.794z"/></symbol><symbol id="sprite-arrow" viewBox="0 0 1024 1024"><title/><path d="M512 674.191l452.427-443.554L1024 291.402l-511.999 501.96L0 291.402l59.574-60.765 452.427 443.554z"/></symbol><symbol id="sprite-check" viewBox="0 0 1024 1024"><title/><path d="M435.664 650.973l480.378-504.687 107.959 113.371-588.337 618.058L.001 420.202l107.956-113.371 327.706 344.142z"/></symbol><symbol id="sprite-chevron-down" viewBox="0 0 1024 1024"><title/><path d="M511.999 803.855c-18.352 0-36.702-7.007-50.694-20.993L21.007 342.559c-28.009-28.008-28.009-73.42 0-101.417 27.997-27.997 73.4-27.997 101.41 0l389.582 389.604 389.582-389.59c28.01-27.997 73.412-27.997 101.406 0 28.018 27.997 28.018 73.409 0 101.418L562.693 782.876c-13.999 13.988-32.348 20.979-50.694 20.979z"/></symbol><symbol fill="none" id="sprite-facebook" viewBox="0 0 10 18"><title>facebook</title><path d="M8.878 10.041l.463-3.016H6.447V5.068c0-.825.404-1.63 1.7-1.63h1.316V.87S8.27.667 7.127.667c-2.383 0-3.941 1.444-3.941 4.06v2.298H.536v3.016h2.65v7.292h3.26v-7.291h2.432z" fill="#222349"/></symbol><symbol fill="none" id="sprite-favicon-logo" viewBox="0 0 57 57"><title>favicon-logo</title><rect width="57" height="57" rx="9" fill="#212248"/><path d="M5.588 16.765V40.39h17.728v-4.546H10.663v-5.24h9.604v-4.546h-9.604v-4.73H21.08l-1.5-4.563H5.588z" fill="#EB5B58"/><path d="M32.65 23.832h-.013l-2.759 9.128-4.893-16.195h-5.404l1.5 4.563 6.26 19.062h4.728L35 31.205l-2.35-7.373z" fill="#F6F3EA"/><path d="M45.012 16.765L40.12 32.96l-2.759-9.128H32.65L35 31.205l2.93 9.185h4.727l7.76-23.625h-5.404z" fill="#00B6F8"/></symbol><symbol id="sprite-google-play" viewBox="0 0 3405 1024"><title/><path d="M2516.571 462.35h-69.645v113.262h69.645c30.953 0 55.716-26.376 55.716-57.405 0-31.032-24.763-55.857-55.716-55.857zm-657.752 108.6c-30.953 0-61.906 26.376-61.906 69.819 0 41.892 29.404 68.268 61.906 68.268 29.404 0 60.357-24.824 60.357-68.268-1.549-43.443-30.953-69.819-60.357-69.819zm-246.093 0c-35.597 0-63.452 29.481-65.001 68.268 0 40.34 27.858 69.819 63.452 69.819 32.502 0 63.455-26.376 63.455-68.268 0-43.443-29.407-69.819-61.906-69.819zm567.997-1.549c-32.499 0-63.452 34.132-58.808 66.714l100.595-41.889c-6.19-12.413-21.668-24.824-41.787-24.824zm-554.045-294.786c29.404 0 55.713-24.824 55.713-57.406s-24.76-57.406-55.713-58.958c-30.953 0-55.716 26.376-55.716 58.958s26.309 57.406 55.716 57.406z"/><path d="M3267.173.001H137.838C62.004.001.098 63.613.098 139.637v744.729c0 77.576 61.905 139.635 137.74 139.635h3129.335c75.827 0 137.728-63.611 137.728-139.635V139.637C3404.901 63.613 3343 .001 3267.173.001zM1626.665 136.534c44.882 0 78.93 38.788 78.93 80.679 0 40.339-32.499 79.128-78.93 80.68-47.977 0-78.93-40.34-78.93-80.68 0-41.891 34.048-80.679 78.93-80.679zm-273.93 4.655h23.214v152.047h-23.214V141.189zm-270.839 0h86.669v23.273h-63.455v41.891h55.716v23.273h-55.716v41.892h63.455v23.273h-86.669V141.19zm-97.5-4.655c35.594 0 54.167 21.721 54.167 21.721l-15.475 15.515s-13.929-15.515-38.692-15.515c-30.953 0-57.262 24.824-57.262 58.958s26.309 57.407 57.262 57.407c23.214 0 49.523-12.413 51.072-43.443h-51.072v-21.721h72.74s1.546 4.655 1.546 15.515c0 43.441-30.953 72.922-72.74 72.922-47.974 0-80.476-40.34-80.476-80.68-1.546-41.891 34.048-80.679 78.93-80.679zM623.797 502.693l-66.55 68.265-77.381-76.024-156.311-159.805c38.692 21.722 252.265 141.189 300.242 167.565zM291.056 812.996c0-12.413 0-110.159-1.549-212.559 0-111.708-1.549-229.624-1.549-246.689 0-10.862 3.098-17.068 9.288-20.17l247.621 249.795-7.739 9.308-238.336 242.038c-6.19-4.657-7.736-13.965-7.736-21.722zm43.333 9.308L555.701 592.68l66.547 68.268c-102.144 57.405-239.882 133.43-287.859 161.357zm408.576-228.073c-3.095 1.551-18.573 10.862-44.882 24.824l-61.906 34.135-71.191-71.37 69.645-71.37c37.143 20.17 68.096 38.787 88.215 48.097l18.57 10.86c4.644 3.103 10.834 7.759 10.834 12.413 1.549 4.654-3.095 9.308-9.285 12.411zm328.097 158.254c-105.239 0-177.976-86.884-177.976-176.873 0-91.538 75.832-175.319 174.881-175.319 77.384 0 120.717 48.097 120.717 48.097l-32.502 35.684s-30.95-34.132-85.12-34.132c-69.642 0-125.358 55.854-125.358 128.776 0 74.473 58.811 127.224 125.358 127.224 52.621 0 106.788-29.481 112.978-96.195h-112.978V561.65h159.409s3.095 12.411 3.095 31.03c-1.549 96.195-69.645 159.805-162.504 159.805zm179.529-459.249h-21.668V162.91h-37.143v-21.721h95.954v23.273h-37.143v128.775zm116.073 460.8c-68.096 0-112.978-52.751-112.978-114.811 0-60.508 46.428-113.26 112.978-113.26 54.167 0 112.975 38.787 111.429 113.26 0 66.716-51.072 114.811-111.429 114.811zm123.809-589.574h-37.143v130.329h-21.665V164.462h-37.146v-23.273h95.954v23.273zm122.263 589.574c-68.096 0-112.975-52.751-112.975-114.811 0-60.508 46.428-113.26 112.975-113.26 54.167 0 111.432 38.787 111.432 113.26 0 66.716-49.526 114.811-111.432 114.811zm116.073-612.847h21.668l71.191 110.158V141.189h23.214v152.047h-23.214l-71.191-110.156v110.156h-21.668V141.189zm232.146 595.782c0 80.678-44.882 117.914-105.239 117.914-54.167 0-85.12-34.132-100.595-66.714l43.333-18.619c6.19 13.965 23.214 40.34 57.262 40.34 35.597 0 58.811-23.273 58.811-62.062v-21.722c-12.383 13.965-29.407 27.927-61.906 27.927-51.072 0-106.788-44.992-106.788-113.26 0-60.508 47.977-113.26 106.788-113.26 26.309 0 46.428 10.86 60.357 26.376v-18.619h46.431v201.697h1.546zm86.669 9.308h-49.526V412.703h49.526v333.576zm137.738-37.235c27.858 0 44.882-15.516 54.167-31.032l38.692 26.378c-17.024 23.27-46.428 49.646-94.405 49.646-57.262 0-109.883-41.889-109.883-113.26 0-68.268 47.977-113.26 103.69-113.26 44.882 0 78.93 31.03 92.859 66.714l7.739 18.619L2128.1 676.46c10.834 15.516 26.309 32.584 57.262 32.584zm331.196-83.783h-69.645V746.28h-49.523V412.704h119.168c57.265 0 105.239 48.097 105.239 107.054 0 57.408-47.974 105.503-105.239 105.503zm190.359 121.018h-49.536V412.703h49.536v333.576zm250.726-119.467V746.28h-49.536v-26.376c-10.829 13.965-24.755 24.824-43.341 29.478-30.95 9.311-69.632 4.654-92.851-20.17-15.462-17.065-20.122-43.441-17.024-65.162 4.634-40.34 37.146-65.165 75.827-68.268 24.781-3.103 51.072 1.551 75.853 9.311-6.195-54.303-86.682-66.716-116.07-15.516l-40.243-26.376c60.339-89.989 215.117-60.508 207.386 63.611zm112.973 228.073h-54.17l51.072-117.914-91.315-211.005h54.17l64.998 148.943 64.998-148.943h54.17l-143.923 328.919z"/><path d="M1366.651 570.95c-35.597 0-63.452 29.481-65.001 68.268 0 40.34 27.858 69.819 63.452 69.819 32.502 0 63.455-26.376 63.455-68.268 0-43.443-30.953-69.819-61.906-69.819zm1487.287 133.44c26.317-7.757 47.974-27.927 54.17-55.854-13.926-4.654-26.317-7.757-41.779-9.308-83.584-12.413-69.658 82.23-12.39 65.162z"/></symbol><symbol fill="none" id="sprite-ico-01" viewBox="0 0 30 25"><title>ico-01</title><g clip-path="url(#clip0_1_487)"><path d="M28.184 8.834L15.988.567c-2.362-1.59-5.314.341-5.428 3.498l7.063 4.769c2.408 1.635 2.408 5.7 0 7.335l-7.063 4.77c.114 3.133 3.066 5.064 5.428 3.474l12.218-8.244c2.385-1.635 2.385-5.723-.022-7.335z" fill="#E95B58"/><path d="M10.56 4.247v-.182L5.428.568C3.02-1.044 0 .977 0 4.247v16.51c0 3.248 3.02 5.292 5.428 3.656l5.155-3.474V4.247h-.023z" fill="#59AAE8"/><path d="M17.623 8.834l-7.063-4.77v16.874l7.063-4.77c2.408-1.634 2.408-5.722 0-7.334z" fill="#222349"/></g><defs><clipPath id="clip0_1_487"><path fill="#fff" d="M0 0h30v24.981H0z"/></clipPath></defs></symbol><symbol fill="none" id="sprite-ico-02" viewBox="0 0 31 30"><title>ico-02</title><g clip-path="url(#clip0_1_582)"><path d="M22.44 11.362l4.465.638.189-.19c1.063-1.039.472-2.857-.992-3.07l-6.26-.898 1.252 2.528c.26.543.756.898 1.346.992zm-18.118.922l6.45-.945a1.777 1.777 0 001.346-.992L15 4.512c.354-.709 1.039-1.016 1.7-.992L15.425.992c-.662-1.346-2.575-1.346-3.213 0L9.33 6.827a1.83 1.83 0 01-1.346.992l-6.449.945C.07 8.977-.52 10.772.543 11.81l2.22 2.173a1.807 1.807 0 011.56-1.7zm3.662 7.629l-2.245-2.197v.236l-1.11 6.402c-.26 1.465 1.3 2.599 2.599 1.89l.496-.26.756-4.488a1.702 1.702 0 00-.496-1.583z" fill="#59AAE8"/><path d="M5.196 16.37l-2.433-2.362c-.024.472.142.968.543 1.37l2.41 2.362c.023-.52-.142-1.016-.52-1.37zm14.481-8.551l.165.024-1.63-3.307c-.307-.638-.898-.945-1.512-.993l1.63 3.284c.236.543.756.898 1.347.992zm10.204 7.535c1.063-1.039.473-2.858-.992-3.07L26.929 12l-4.489 4.37a1.798 1.798 0 00-.52 1.583l1.11 6.401c.26 1.465-1.299 2.599-2.598 1.89l-5.763-3.023a1.76 1.76 0 00-1.678 0l-5.267 2.763-.331 1.914c-.26 1.464 1.3 2.598 2.598 1.89l5.764-3.024a1.76 1.76 0 011.677 0l5.764 3.023c1.323.685 2.858-.425 2.598-1.89l-1.086-6.4a1.777 1.777 0 01.52-1.584l4.653-4.559z" fill="#E95B58"/><path d="M14.67 23.22l5.763 3.024c1.323.685 2.858-.425 2.598-1.89l-1.11-6.401a1.777 1.777 0 01.52-1.583l4.464-4.347-4.464-.661a1.777 1.777 0 01-1.347-.992l-1.252-2.528-.165-.023a1.777 1.777 0 01-1.346-.993L16.7 3.543c-.685-.047-1.37.283-1.701.992l-2.906 5.835c-.26.52-.755.897-1.346.992l-6.449.945c-.921.141-1.488.897-1.535 1.7l2.433 2.363c.378.354.543.85.52 1.346l2.244 2.197c.425.402.614 1.016.52 1.583l-.78 4.512 5.291-2.788a1.9 1.9 0 011.677 0z" fill="#59AAE8"/><path d="M14.67 23.22l5.763 3.024c1.323.685 2.858-.425 2.598-1.89l-1.11-6.401a1.777 1.777 0 01.52-1.583l4.464-4.347-4.464-.661a1.777 1.777 0 01-1.347-.992l-1.252-2.528-.165-.023a1.777 1.777 0 01-1.346-.993L16.7 3.543c-.685-.047-1.37.283-1.701.992l-2.906 5.835c-.26.52-.755.897-1.346.992l-6.449.945c-.921.141-1.488.897-1.535 1.7l2.433 2.363c.378.354.543.85.52 1.346l2.244 2.197c.425.402.614 1.016.52 1.583l-.78 4.512 5.291-2.788a1.9 1.9 0 011.677 0z" fill="#222349"/></g><defs><clipPath id="clip0_1_582"><path fill="#fff" d="M0 0h30.425v30H0z"/></clipPath></defs></symbol><symbol fill="none" id="sprite-ico-03" viewBox="0 0 29 30"><title>ico-03</title><g clip-path="url(#clip0_1_509)"><path d="M2.427 13.228L12 6.9a4.2 4.2 0 014.691 0l9.573 6.3c.709.464 1.227 1.091 1.636 1.773 1.446-2.563.9-6.3-1.636-7.963L16.69.71a4.2 4.2 0 00-4.69 0L2.426 7.037C-.136 8.727-.654 12.437.791 15c.41-.71.927-1.337 1.636-1.773z" fill="#59AAE8"/><path d="M26.291 16.773l-9.6 6.327a4.2 4.2 0 01-4.69 0l-9.574-6.327C1.718 16.309 1.2 15.682.791 15c-1.445 2.564-.9 6.3 1.636 7.964L12 29.29a4.2 4.2 0 004.691 0l9.573-6.3c2.536-1.691 3.082-5.4 1.636-7.964-.382.682-.927 1.31-1.609 1.746z" fill="#E95B58"/><path d="M2.427 16.773L12 23.1a4.2 4.2 0 004.691 0l9.573-6.3c.709-.464 1.227-1.09 1.636-1.773-.409-.709-.927-1.336-1.636-1.772L16.69 6.9a4.2 4.2 0 00-4.69 0l-9.574 6.327C1.718 13.691 1.2 14.318.791 15c.41.71.927 1.336 1.636 1.773z" fill="#222349"/></g><defs><clipPath id="clip0_1_509"><path fill="#fff" d="M0 0h28.718v30H0z"/></clipPath></defs></symbol><symbol fill="none" id="sprite-ico-04" viewBox="0 0 25 22"><title>ico-04</title><path d="M18.079 3.923l-.058.047a2.21 2.21 0 00.058-.047zm-.06 5.241zm-.045.036l.03-.026a.433.433 0 00-.03.026zm.092-.07a.49.49 0 01.037-.023l-.037.023zm.022-5.215zm.239 5.105zm-.067-5.288zm-.094 5.343zm.052-.022l.048-.017a.556.556 0 00-.048.017zm.053-.019zm-.156.066zm-.302.29l.023-.038a1.257 1.257 0 01-.023.037zm-.042.074zm.079-.129l.025-.033a.454.454 0 00-.024.033zm.08-.093l.029-.029-.029.029zM2.775 2.603h13.994c.696 0 1.3.399 1.594.98a1.36 1.36 0 00.192-.7v-.54c0-.757-.614-1.372-1.373-1.372H2.362c-.76 0-1.374.615-1.374 1.373v.54c0 .256.07.495.192.7a1.787 1.787 0 011.595-.981zM17.89 9.286l.025-.03-.026.03zm.473-5.703zm-.501.493zm.015-.008zm-1.508 8.182a.825.825 0 00.112-.171l1.29-2.615-1.29 2.615a.85.85 0 01-.112.17zm1.42-8.135z" fill="#EB5B58"/><path d="M24.553 14.391a.84.84 0 00-.466-1.433l-2.886-.42a.84.84 0 01-.633-.46l-1.29-2.615a.83.83 0 00-.723-.467v4.995c0 .987-.8 1.786-1.786 1.786h-2.85l-1.422-1.386 2.088 2.036a.84.84 0 01.241.743l-.492 2.874a.84.84 0 001.219.886l2.58-1.357a.839.839 0 01.783 0l2.581 1.357a.84.84 0 001.22-.886l-.493-2.874a.84.84 0 01.241-.743l2.088-2.036zM17.638 4.178zm-15.386.074l-.062-.007a.73.73 0 00.062.007zm-.086-.009zm-.08-.014zm15.472-.025l.06-.019-.06.02zm-15.572 0zm10.39 10.042zm-.131-.382zm5.046-9.612l.061-.007a.728.728 0 01-.061.007zm.086-.009zm.08-.014zm-.191.025a1.35 1.35 0 01-.084.003H2.362h14.82c.029 0 .056-.002.084-.003zM1.53 3.975zm-.253-.25zm.056.068zm.002.003zm17.048 5.212zM1.74 4.108zm-.275-.185l.057.047a1.533 1.533 0 01-.057-.047zm.365.227zm.074.028zM18.439 9z" fill="#EB5B58"/><path d="M17.28 2.678zm-.114-.03zm.224.066zm-.474-.104zm.596.155zm-.482-.143zm1.135.655zm.001.001zM2.775 2.603h13.994H2.775zm14.837.211zM2.534 2.62zm15.286.326zm-.097-.066zM2.052 2.756zm.349-.113zm16.153 11.349zm-.717 1.431zm.459-.505zm.067-11.334c-.24.402-.679.673-1.181.673H2.362c-.503 0-.942-.27-1.182-.673a1.788 1.788 0 01-.192.806v9.602c0 .987.8 1.786 1.787 1.786h11.144l-1.422-1.386a.84.84 0 01.466-1.433l2.885-.42a.84.84 0 00.633-.46l1.29-2.615a.832.832 0 01.784-.467V4.39c0-.29-.07-.563-.192-.806zm.155 10.768zM1.538 3.102zm.618-.389zm-.222.1zm.355-.142zm-.558.269zm.1-.067zm-.288.223z" fill="#59ACEA"/><path d="M18.555 8.997a.831.831 0 00-.784.467l-1.29 2.615a.841.841 0 01-.633.46l-2.886.42a.84.84 0 00-.466 1.433l1.423 1.386h2.849c.987 0 1.787-.8 1.787-1.786V8.997zM1.18 3.584c.24.402.68.673 1.181.673h14.821c.502 0 .942-.27 1.18-.673a1.786 1.786 0 00-1.594-.981H2.775c-.697 0-1.3.399-1.594.98z" fill="#222349"/></symbol><symbol fill="none" id="sprite-ico-05" viewBox="0 0 18 24"><title>ico-05</title><path d="M7.716 4.374h4.144v-2.01A1.58 1.58 0 0010.285.79h-8.15A1.58 1.58 0 00.558 2.365v15.684a1.58 1.58 0 001.575 1.576H6.14V5.95a1.58 1.58 0 011.575-1.576z" fill="#59ACEA"/><path d="M15.866 4.374h-4.005V18.05a1.58 1.58 0 01-1.576 1.576H6.14v2.01c0 .866.71 1.575 1.576 1.575h8.15a1.58 1.58 0 001.576-1.575V5.95a1.58 1.58 0 00-1.576-1.576z" fill="#EB5B58"/><path d="M11.86 18.05V4.373H7.716A1.58 1.58 0 006.141 5.95v13.675h4.144a1.58 1.58 0 001.575-1.576z" fill="#59ACEA"/><path d="M11.86 18.05V4.373H7.716A1.58 1.58 0 006.141 5.95v13.675h4.144a1.58 1.58 0 001.575-1.576z" fill="#222349"/></symbol><symbol fill="none" id="sprite-ico-06" viewBox="0 0 21 23"><title>ico-06</title><path d="M13.234 13.044a6.95 6.95 0 00-.28-.181l-.013-.008-.041-.024a8.903 8.903 0 00-.576-.318 5.791 5.791 0 00-3.634-10.3h-.014a5.778 5.778 0 00-5.778 5.778v.014a5.78 5.78 0 002.14 4.495 5.878 5.878 0 00-.723.409l.004.002A8.47 8.47 0 00.31 20.127c0 .856 1.589 1.447 3.784 1.776 4.935.739 12.947.148 12.947-1.776a8.468 8.468 0 00-3.808-7.083z" fill="#59ACEA"/><path d="M18.794 4.92V2.423h-2.495L14.535.66 12.77 2.424h-2.495V4.92L8.512 6.682l1.764 1.765v2.495h2.495l.79.789.974.974 1.764-1.763h2.495V8.448l1.764-1.765-1.764-1.764z" fill="#EB5B58"/><path d="M12.77 10.942l.546.546a5.795 5.795 0 00-3.04-9.055V4.92L8.512 6.684l1.764 1.764v2.495h2.495z" fill="#222349"/></symbol><symbol fill="none" id="sprite-ico-07" viewBox="0 0 22 22"><title>ico-07</title><path d="M17.369 5.318h-7.95a4.041 4.041 0 00-4.042 4.04v5.153h1.162a.964.964 0 010 1.928H5.377v1.186a4.041 4.041 0 004.041 4.042h7.95a4.041 4.041 0 004.042-4.042V9.358c0-2.231-1.81-4.04-4.041-4.04zm-.754 10.157a.964.964 0 01-.964.964h-4.986a.964.964 0 010-1.927h4.022v-4.277a.964.964 0 111.927 0v5.24zm0-8.937a.964.964 0 01-1.928 0v-1.22h1.928v1.22z" fill="#59ACEA"/><path d="M14.687 10.234zm-9.31 4.276H2.518v-4.276a.964.964 0 10-1.928 0v5.24c0 .533.432.965.964.965h3.823V14.51zm10.887-5.02zm-1.152-2.153zm-7.801 8.714zM15.651.333h-4.986a.964.964 0 000 1.928h4.022v3.056h1.928v-4.02a.964.964 0 00-.964-.964zm.964 9.901zm-6.913 5.241zM6.54.333H1.553a.964.964 0 00-.964.964v5.241a.964.964 0 001.928 0V2.261h4.02A.964.964 0 006.54.333zm10.075 15.142z" fill="#EB5B58"/><path d="M14.687 5.318v1.22a.964.964 0 001.927 0v-1.22h-1.928zM10.665 16.44h4.986a.964.964 0 00.964-.965v-5.24a.964.964 0 10-1.928 0v4.277h-4.021a.964.964 0 000 1.927zM6.54 14.511H5.376v1.928H6.54a.964.964 0 000-1.928z" fill="#222349"/></symbol><symbol fill="none" id="sprite-ico-08" viewBox="0 0 26 26"><title>ico-08</title><path d="M17.819 16.54a3.74 3.74 0 012.172-3.406 2.503 2.503 0 01.468-4.156 8.526 8.526 0 00-5.65-4.214 3.746 3.746 0 011.886 3.262c0 1.228-7.391 1.228-7.391 0 0-1.401.76-2.62 1.886-3.262a8.522 8.522 0 00-5.614 4.154 2.505 2.505 0 011.493 2.29c0 .803-.378 1.515-.964 1.973a3.742 3.742 0 012.075 3.36c0 .479-1.128.77-2.501.875a8.513 8.513 0 005.754 4.032 2.506 2.506 0 114.15-1.887 2.5 2.5 0 01-.821 1.852 8.517 8.517 0 005.557-3.997c-1.372-.105-2.5-.397-2.5-.876z" fill="#59ACEA"/><path d="M21.515 12.797c.582 0 1.13.14 1.62.383.587-.458.965-1.17.965-1.972a2.506 2.506 0 00-3.64-2.232 8.466 8.466 0 011.041 3.822h.014z" fill="#EB5B58"/><path d="M19.089 11.208a2.5 2.5 0 00.902 1.925 3.63 3.63 0 011.51-.334 8.464 8.464 0 00-1.042-3.822 2.502 2.502 0 00-1.37 2.231z" fill="#222349"/><path d="M23.136 13.18c-.425.333-.96.534-1.541.534-.038 0-.074-.004-.112-.006a8.452 8.452 0 01-1.163 3.708c2.145.164 4.89-.128 4.89-.876 0-1.477-.847-2.75-2.074-3.36z" fill="#EB5B58"/><path d="M19.992 13.133a3.742 3.742 0 00-2.172 3.407c0 .479 1.127.77 2.501.875a8.444 8.444 0 001.163-3.707 2.489 2.489 0 01-1.492-.575z" fill="#EB5B58"/><path d="M21.5 12.799c.004.095.015.187.015.283 0 .211-.016.419-.032.626.037.002.074.006.112.006.582 0 1.116-.2 1.54-.533a3.643 3.643 0 00-1.62-.383h-.014z" fill="#EB5B58"/><path d="M21.501 12.799a3.644 3.644 0 00-1.51.334c.408.34.926.55 1.493.575.015-.207.031-.415.031-.626 0-.096-.01-.189-.014-.283zm-17.001 0a8.465 8.465 0 011.077-3.882 2.506 2.506 0 00-2.616 4.216c.466-.214.98-.336 1.524-.336l.015.002z" fill="#EB5B58"/><path d="M6.106 13.18c.586-.458.964-1.17.964-1.972a2.505 2.505 0 00-1.493-2.29 8.463 8.463 0 00-1.077 3.88c.576.003 1.12.142 1.606.383z" fill="#222349"/><path d="M2.962 13.133A3.742 3.742 0 00.79 16.54c0 .748 2.746 1.04 4.89.875a8.45 8.45 0 01-1.163-3.704 2.489 2.489 0 01-1.555-.578z" fill="#EB5B58"/><path d="M8.181 16.54c0-1.477-.847-2.75-2.075-3.36a2.49 2.49 0 01-1.54.534c-.017 0-.033-.002-.048-.003a8.447 8.447 0 001.163 3.705c1.372-.105 2.5-.397 2.5-.876z" fill="#222349"/><path d="M4.485 13.082c0-.096.011-.188.014-.283h-.014c-.544 0-1.058.121-1.523.335.423.352.964.567 1.555.578-.016-.21-.032-.418-.032-.63z" fill="#EB5B58"/><path d="M4.485 13.082c0 .212.017.42.032.63l.048.002c.582 0 1.116-.2 1.541-.533a3.633 3.633 0 00-1.606-.382c-.003.094-.015.187-.015.283z" fill="#222349"/><path d="M14.62 4.666a2.506 2.506 0 10-3.144-.048 3.635 3.635 0 013.145.048z" fill="#EB5B58"/><path d="M11.477 4.618a3.603 3.603 0 00-.286.146c.128-.028.257-.047.387-.069-.034-.026-.07-.05-.101-.077zm3.333.146c-.062-.035-.126-.066-.19-.098a2.462 2.462 0 01-.065.05c.085.015.17.03.254.048z" fill="#EB5B58"/><path d="M9.305 8.025c0 1.228 7.392 1.228 7.392 0 0-1.4-.762-2.62-1.887-3.261-.085-.019-.17-.033-.255-.05a2.493 2.493 0 01-2.977-.02c-.129.023-.258.042-.386.07a3.743 3.743 0 00-1.887 3.26z" fill="#222349"/><path d="M13 4.567c.532 0 1.05.055 1.555.148l.066-.05A3.642 3.642 0 0013 4.283a3.63 3.63 0 00-1.524.336c.033.027.067.051.1.077A8.533 8.533 0 0113 4.567z" fill="#EB5B58"/><path d="M11.578 4.695a2.49 2.49 0 002.977.02A8.554 8.554 0 0013 4.567c-.486 0-.96.05-1.422.128z" fill="#222349"/><path d="M14.62 21.532c.05-.038.097-.078.143-.12-.095.02-.194.032-.29.049.05.022.099.047.148.072zm-3.185-.085c.014.012.027.026.042.038.017-.007.033-.017.05-.024-.03-.005-.062-.008-.092-.014z" fill="#EB5B58"/><path d="M15.585 19.56a2.506 2.506 0 00-5.011 0c0 .754.334 1.427.86 1.887l.092.014a3.639 3.639 0 012.948 0c.096-.017.194-.03.29-.05a2.497 2.497 0 00.821-1.851z" fill="#222349"/><path d="M11.477 21.485a3.742 3.742 0 00-2.172 3.406c0 1.228 7.392 1.228 7.392 0 0-1.477-.848-2.75-2.075-3.36a2.495 2.495 0 01-3.144-.047z" fill="#EB5B58"/><path d="M13 21.597c-.503 0-.993-.052-1.473-.137l-.05.025a2.496 2.496 0 003.143.047c-.048-.024-.097-.05-.147-.072a8.503 8.503 0 01-1.473.137z" fill="#EB5B58"/><path d="M14.474 21.46a3.639 3.639 0 00-2.948 0c.48.084.97.137 1.474.137s.994-.053 1.474-.136z" fill="#EB5B58"/></symbol><symbol fill="none" id="sprite-ico-09" viewBox="0 0 24 22"><title>ico-09</title><path d="M17.868 10.478zm.092.314zm-.19-.607zm-.508-1.152zm.274.565zm.118.28zm.59 2.508zm-.136-.971zm.102.639zm-.045-.32zm-.125-.637zM13.819 5.5zm-.559-.29zm-.581-.249zm5.586 7.745l-3.978.174c-.06.003-.121.008-.209.014.157.267.3.517.449.765.537.904 1.077 1.806 1.612 2.71a1.1 1.1 0 01.141.34c.052.267-.095.505-.376.633-.693.315-1.387.628-2.082.94-.349.155-.624.072-.83-.251-.862-1.357-1.722-2.715-2.582-4.072-.033-.052-.07-.102-.13-.188-.302.136-.594.308-.91.402-.725.217-1.357.066-1.824-.574-.007-.008-.022-.011-.033-.017l-1.1-2.437c-.002-.036-.001-.072-.009-.107-.18-.82.2-1.635.96-1.995.748-.355 1.51-.683 2.263-1.032a1.17 1.17 0 00.344-.24l2.708-2.81A8.745 8.745 0 00.79 13.12a8.743 8.743 0 1017.476-.415zm-3.911-6.879zm1.859 1.655zM14.862 6.19zm2.087 2.3zm-.35-.518zm-.818-.965zm.013.013z" fill="#59ACEA"/><path d="M7.545 13.6c-.006-.01-.021-.012-.032-.018l-.55-1.218.55 1.218c.011.006.026.009.032.017zm-1.177-2.791c.008.076.02.153.036.23.007.026.007.053.008.08a.49.49 0 00-.008-.08 1.878 1.878 0 01-.036-.23zm4.042 3.15l.43.678c-.144-.225-.287-.452-.43-.678zM7.362 9.044l.283-.131-.283.13zM9.97 7.772l.836-.867-.836.867c-.012.013-.026.024-.038.036l.038-.036zm-.868 6.465zm7.155 2.383zm6.86-5.042L18.16.597c-.023-.051-.036-.114-.074-.148-.11-.101-.218-.228-.351-.278-.28-.105-.492.044-.684.245a4370.783 4370.783 0 01-4.373 4.545 8.747 8.747 0 015.586 7.745c1.427-.062 2.854-.125 4.28-.19a.885.885 0 00.388-.095c.296-.17.353-.468.184-.843zm-7.907 6.078l.693-.314-.693.314zm-2.864-.643l.646 1.018-.646-1.018zm1.732-4.119l.115-.008a5.07 5.07 0 00-.115.008z" fill="#EB5B58"/><path d="M18.265 12.706a8.747 8.747 0 00-5.586-7.745c-.903.938-1.806 1.875-2.71 2.811a1.17 1.17 0 01-.343.24c-.753.349-1.514.677-2.264 1.032-.758.36-1.138 1.176-.958 1.995.007.035.006.072.009.108l1.1 2.437c.01.005.025.008.032.016.467.64 1.099.791 1.824.575.316-.094.609-.267.91-.403.06.086.097.136.13.188.86 1.358 1.72 2.715 2.583 4.072.206.323.481.405.83.25.695-.31 1.388-.624 2.08-.94.282-.127.429-.365.378-.631a1.098 1.098 0 00-.142-.34c-.535-.905-1.075-1.807-1.612-2.71-.148-.248-.292-.498-.448-.766.088-.005.148-.011.208-.014l3.979-.175z" fill="#222349"/></symbol><symbol fill="none" id="sprite-ico-10" viewBox="0 0 26 20"><title>ico-10</title><path d="M6.218 13.67zm-.142.289zm.453-.836zm13.808 1.999c.028.1.055.202.079.304a15.792 15.792 0 01-1.651-.15c-1.196-.18-2.06-.501-2.06-.967a4.61 4.61 0 011.135-3.038 7.761 7.761 0 00-.688-.512 7.174 7.174 0 00-.255-.166l-.012-.007-.038-.022a8.095 8.095 0 00-.556-.305 5.27 5.27 0 001.852-2.987c.014-.102.034-.203.057-.302l-.026.152a5.271 5.271 0 10-10.406-.28c.052.182.087.37.105.564a5.27 5.27 0 001.816 2.849c-.431.21-.675.38-.675.38l.003.003a7.735 7.735 0 00-.866.624 4.604 4.604 0 011.145 3.047c0 .665-1.756 1.037-3.727 1.118a7.816 7.816 0 00-.208 1.794c0 .78 1.45 1.32 3.452 1.62 4.503.675 11.812.135 11.812-1.62 0-.729-.101-1.432-.288-2.1zm-14.694.018zm.087-.293zm.227-.617zm.737-1.362zm13.329 1.352zm-1.509-2.316zm-11.248.222zm13.069 2.988zm-.726-1.733zM7.813 7.127zM18.51 11.9zM7.788 6.985z" fill="#EB5B58"/><path d="M7.913 15.151zm-.152.033zm-.003.001zm.298-.068l.096-.025-.096.025zm-.289-8.275zm-2.198 8.585a7.725 7.725 0 012.582-4.164 4.613 4.613 0 00-1.08-.908l-.007-.004-.023-.013a4.856 4.856 0 00-.331-.183 3.139 3.139 0 001.163-2.748 5.225 5.225 0 01-.106-.565 3.146 3.146 0 10-4.997 3.31c-.257.126-.403.228-.403.228h.002a4.613 4.613 0 00-2.182 3.93c0 .466.865.788 2.06.966 1.194.18 2.717.215 4.042.108-.235.018-.476.033-.72.043zm1.907-.189zm1.142-.298l-.075.03.075-.03zm-.104.04l-.08.028.08-.028zm.221-.089zm-.931-7.908zm-1.504 8.4l.17-.015-.17.014zm.519-.052l.153-.018a5.5 5.5 0 01-.153.018zm.172-.021zm-.52.058zm.676-.078zm1.262-.274zm9.18-3.43zm-.322.507zm-.178.365zm-.079.19zm1.158-5.528zm-.025.153zm-1.433 6.841zm.015-.248zM7.833 7.129zm8.878 6.932zm.229-1.215z" fill="#59ACEA"/><path d="M7.857 7.275c.006.043.012.087.015.13-.003-.043-.009-.086-.015-.13zm8.895 6.364zm.131-.61zm-.097.409zm-7.571.005zm.06.427zm-.028-.235zm.042.428zm-.233-1.23zm.112.391zm8.865 1.914zM8.82 14.85zm10.927.536zm.425.028zm.241.012l-.19-.009.19.009zm3.327-4.973a3.32 3.32 0 00-.16-.103l-.022-.013a4.87 4.87 0 00-.332-.182A3.146 3.146 0 1018.2 6.97a6.003 6.003 0 01-.056.302 3.138 3.138 0 001.144 2.879c-.258.126-.403.227-.403.227l.002.001a4.59 4.59 0 00-1.047.89 7.723 7.723 0 012.577 4.156c2.52.105 5.396-.267 5.396-1.117a4.608 4.608 0 00-2.072-3.856zM8.984 12.636zm10.35 2.712zm-.569-.072zm1.217.127l-.188-.013.188.013zM9.117 13.03zm-.299-.77zm.392 2.293zm.039-.061zm-.136.167a.648.648 0 01-.044.036l.044-.036zm-.213.149l-.056.03c.019-.009.037-.02.055-.03zm.158-.103zm-.08.056l-.054.034.054-.034zm.152-.118zm-.61-2.9zm-.121-.173zm.224.334zm.665 2.478zm.008-.072zm-.024.129l-.017.039a.34.34 0 00.017-.039zm.024-.129z" fill="#59ACEA"/><path d="M17.84 11.271a4.608 4.608 0 00-1.135 3.038c0 .467.865.789 2.06.967.504.076 1.068.126 1.65.15a7.724 7.724 0 00-2.575-4.155zm.36-4.301c-.024.1-.043.2-.057.302.021-.099.04-.2.056-.302zm-8.904 7.34a4.6 4.6 0 00-1.145-3.048 7.725 7.725 0 00-2.582 4.165c1.97-.08 3.727-.453 3.727-1.118zM7.873 7.406a3.18 3.18 0 00-.105-.565c.025.192.06.38.105.565z" fill="#222349"/></symbol><symbol fill="none" id="sprite-ico-11" viewBox="0 0 24 20"><title>ico-11</title><path d="M7.063 13.483zm-.126-.498zm8.553-7.782zm-4.699.774zm-3.977 5.832zm16.278 6.845c-.009-.01-.601-.73-1.26-1.681a19.03 19.03 0 01-.938-1.476c.847-1.097 1.293-2.366 1.293-3.688 0-3.185-2.594-5.855-6.047-6.508.272.052.539.116.799.191a5.813 5.813 0 01.125 2.852c-.643 3.113-3.79 5.484-7.564 5.484a8.7 8.7 0 01-2.437-.345c.86 2.865 3.867 4.986 7.437 4.986.904 0 1.791-.136 2.64-.406 2.414 1.414 5.428 1.431 5.559 1.431a.512.512 0 00.393-.84zM16.11 5.295zm-.215-.037l-.144-.022.144.022zm-.205-.031a6.542 6.542 0 00-.144-.018l.145.018z" fill="#59ACEA"/><path d="M17.092 6.133zm-.095-.434zm.051.214zm.081.447c.007.05.014.098.019.147a2.469 2.469 0 00-.02-.147zM6.937 12.985a5.82 5.82 0 01-.123-1.176c0-2.508 1.608-4.696 3.977-5.832a8.575 8.575 0 013.709-.83 8.767 8.767 0 012.438.345c.02.065.038.13.055.196-.492-1.872-1.896-3.447-3.784-4.353a8.575 8.575 0 00-3.71-.83c-.266 0-.53.013-.79.036-3.867.344-6.895 3.184-6.895 6.626 0 1.323.446 2.59 1.293 3.688a19.44 19.44 0 01-.938 1.475c-.66.953-1.252 1.671-1.26 1.683a.513.513 0 00.393.84c.13 0 3.144-.017 5.558-1.432.068.022.136.043.204.062a5.685 5.685 0 01-.127-.498zm10.239-6.139l.005.097c0-.033-.003-.065-.005-.097zm-.019-.25c.004.042.009.084.012.127-.003-.043-.008-.085-.012-.127zM8.588 13.78zm8.476-5.437zM9.5 13.828zm-.32-.006zm-.905-.079zm-.313-.05zm-.899-.21z" fill="#EB5B58"/><path d="M16.938 5.492a8.656 8.656 0 00-2.438-.345 8.567 8.567 0 00-3.709.83C8.422 7.112 6.814 9.3 6.814 11.809a5.82 5.82 0 00.25 1.675 8.725 8.725 0 002.436.345c3.774 0 6.92-2.372 7.563-5.486a5.723 5.723 0 00-.125-2.851z" fill="#222349"/></symbol><symbol fill="none" id="sprite-ico-12" viewBox="0 0 26 18"><title>ico-12</title><path d="M10.474 2.603l.051-.077-.051.077zm-.343.604l.03-.06-.03.06zm.213-.397c.014-.023.027-.047.042-.07l-.042.07zm.258 5.477zm.142-6.055zm-.129.168l.06-.079-.06.079zm.069 5.995l-.062-.082c.02.028.04.055.062.082zm.084.106L10.7 8.42l.067.082zm.126-6.446zm-.04 6.55l-.07-.083.07.083zm-.625-5.59l.045-.084-.045.084zM11.13 8.9l-.083-.083.083.083zM9.672 4.864a.912.912 0 01.004-.04l-.004.04zm-.018.251v-.03.03zm.743 2.867l.052.082a16.633 16.633 0 01-.052-.082zm.56.738c.026.03.052.057.078.084l-.078-.083zm-1.21-4.362l.007-.035-.007.035zm.117-.46l.013-.045-.013.045zm-.161.712l.006-.04a.88.88 0 00-.006.04zm.237-.943zm.09-.232zm-.228.685l.006-.026-.006.025zm9.771.464l.004.031-.005-.031zm-.107-.508zm-.066-.228l.018.055-.017-.055zm-8.876 4.329zm8.699-4.803l.03.072a1.616 1.616 0 00-.03-.072zm.301.946l.011.053-.011-.053zm-9.197 3.547zM18.244 1.9zm.879 1.256l.035.074-.035-.074zm.479 1.659l.005.041a.745.745 0 00-.005-.04zm.021.26l.003.047-.003-.047zm-.309-1.476l.023.064-.023-.064zm-8.44 6.005l-.001-.001.001.001zM11.24 1.7zm-.23 15.72l-.14-.02.14.02zm-.139-7.818l.035-.024-.035.024zm-.001-.979l.073.083-.074-.083zm7.716-6.325zm.291.416l.064.107c-.02-.037-.042-.072-.064-.107zm.123.208l.042.077A3.232 3.232 0 0019 2.922zm-7.826-1.161zm7.107.179zm.466.576l.06.089-.06-.089zm.865 3.286zm.015-.245zM17.738 1.44zm1.85 4.568zm-.036.232zm-8.325 2.754zm-.3.571l-.019.012.019-.012zm7.652.154a6.062 6.062 0 00-.242-.157l-.012-.007-.036-.02a7.728 7.728 0 00-.526-.29c.249-.2.478-.423.684-.666-1.464.784-3.2.795-3.278.795a.318.318 0 01-.244-.521c.006-.007.373-.452.781-1.042.196-.283.4-.596.581-.915a3.712 3.712 0 01-.8-2.285c0-1.384.79-2.61 1.999-3.36A4.97 4.97 0 0014.639.36a4.97 4.97 0 00-3.212 1.171 4.981 4.981 0 011.781 3.821 4.979 4.979 0 01-1.78 3.82 4.382 4.382 0 01.082.07 6.01 6.01 0 00-.09.044c.148.076.296.158.445.248l.036.021.012.007c.087.054.166.106.242.157a7.315 7.315 0 013.289 6.12c0 .833-1.74 1.376-4.012 1.631 4.277.48 10.436-.064 10.436-1.632a7.314 7.314 0 00-3.29-6.118zM10.261 7.75zm.691 1.8c-.009.004-.016.01-.023.014a.367.367 0 01.023-.015zm8.558-3.1zm-.792 1.78l.1-.146-.1.146zm.12-.178zM11.43 17.47l-.19-.021.19.022zm7.017-8.89zm.146-.182zm.362-.536zm.202-.382zm-.104.205zm.27-.604zm.068-.194zm.065-.219zm-.219.632zm-7.911 1.785A4.123 4.123 0 0111.234 9c.03.029.06.057.092.085zM9.845 6.748l.023.075-.023-.075zm-.099-.405zm1.494 11.106zM9.93 7.009c.008.026.018.05.028.077a1.716 1.716 0 01-.028-.077zm-.154-.529l.017.072a13.732 13.732 0 01-.017-.073zm.11.4l.025.075-.025-.076zm.312.752l.042.08-.042-.08zm-.06-.121l.04.08a2.41 2.41 0 01-.04-.08zm-.11-.247l.033.078a2.198 2.198 0 01-.033-.078zm.053.124l.036.079-.036-.08zm-.104-.251l.03.078-.03-.078zm-.167-.523l.02.074a2.775 2.775 0 01-.02-.074zm-.09-.408c.005.023.01.046.013.07l-.013-.07zm-.07-.708l.002.05-.002-.05zm-1.168 6.516zM7.6 16.291c.403.46 1.419.802 2.732 1.026-1.314-.224-2.33-.566-2.732-1.026zm.655-3.876zm0 0zm1.401-6.773l.004.059-.004-.06zm.024.284l.009.067-.009-.067zm.018.141l.01.068-.01-.068zm-.032-.283l.006.065-.006-.065z" fill="#59ACEA"/><path d="M13.2 5.086c.002.01.002.02.002.03l-.001-.03zm-.02-.262l.005.04-.005-.04zm-1.384-2.95zm1.305 2.449l.008.035-.008-.035zm-.053-.229l.007.025-.007-.025zm.098.476l.007.04-.007-.04zm-1.341 4.25l-.078.08.078-.08zm.016-.016c.025-.025.05-.052.074-.079l-.074.08zm1.158-4.951l.014.045-.014-.045zm.144 2.422l.012-.069a2.751 2.751 0 01-.012.07zm-1.378 3.188l-.059-.034.059.034zm.309 7.929zm-.141-8.687zm.001.857l-.012-.007a.588.588 0 00-.018-.01l.018.01.012.007zm1.233-3.427a.742.742 0 00.01-.068l-.01.068zm.057-.588l.002-.049-.002.05zm-1.182-3.423zM13.196 5.7l.004-.058c0 .02-.002.039-.004.058zm-1.342-3.764zm1.329 3.912zm-.016.145l.008-.066-.008.066zm-.837-3.467l.052.077-.051-.077zm.365.622zm-.113-.217l.045.084-.045-.084zm.218.445l.027.06c-.01-.02-.017-.04-.026-.06zm.096.234l.02.056a1.363 1.363 0 01-.02-.056zm-.426-.87l.042.07-.042-.07zm-.289-.419l.06.079-.06-.079zm2.717 6.57zm.832-5.582l.018-.045-.018.045zm-.06.165l.016-.044-.015.044zm.214-.511l.024-.048-.024.048zm-.076.157l.025-.052-.025.053zm-.277.927l.007-.041a1.181 1.181 0 01-.007.041zm-.023.174l.002-.02-.002.02zm.104-.55l.012-.043-.012.043zm-.042.169l.008-.033-.008.034zm.5-1.206c.018-.027.035-.055.054-.082a3.05 3.05 0 00-.054.082zm-.055.089l-.035.06.035-.06zm.622-.797zm-.453.538l.048-.066a4.645 4.645 0 00-.048.066zm.103-.138zm.131-.162l.06-.07-.06.07zm-.238 7.124zm-.668.072c.02 0 .04-.003.061-.004l-.06.004zm.078-.006l.068-.005-.068.005zm-.094.008zm-.174.008l.037-.001a.396.396 0 01-.037.001zm-.019.002h-.028a.433.433 0 01.028 0zm.076-.004l.045-.003-.045.003zm.369-.028l-.074.008.075-.007zm.321-.037zm-.304.037l.08-.009a3.157 3.157 0 00-.08.008zm-.273-4.905zm.796 2.462zm-1.053 2.476h.018-.018zm.727-.056l.093-.012-.093.012zm-.102.013l.088-.01c-.03.002-.06.006-.087.01zm1.071-7.675zM14.85 16.611l-.075.043.074-.043zm.094-.058l-.067.043.067-.043zm-.197.115c-.027.014-.054.029-.082.042.028-.013.055-.027.082-.042zm.365-.238c-.017.015-.034.03-.053.043a.763.763 0 00.053-.043zm.096-.086zm-.177.148c-.019.014-.038.029-.059.043l.06-.043zm-.392.231c-.03.015-.06.03-.092.043l.092-.043zm.543-.356l-.045.042c.016-.013.03-.027.045-.042zm-1.655.741a9.816 9.816 0 01-.157.04l.158-.04zm.318-.088zm-.157.045zm.711-.235zm-.266.098c-.04.014-.082.029-.125.042.043-.013.084-.027.125-.041zm.389-.151l-.1.043.1-.043zm-.252.103l-.117.042.116-.042zm-.279.095a5.614 5.614 0 01-.134.042l.134-.042zm4.455-8.395zm-1.789.624l-.122.024.122-.024zm-.253.048l-.11.019.11-.02zm.126-.023zM22.547.998A5.315 5.315 0 0020.25.484c-.165 0-.328.008-.49.022a5.156 5.156 0 00-2.273.746 4.986 4.986 0 01.96 7.327c.057-.03.112-.06.167-.092a5.403 5.403 0 001.636.252c2.339 0 4.288-1.47 4.687-3.399.048-.237.076-.48.076-.729 0-1.554-.997-2.909-2.465-3.613zm-5.298.412zm-.494.401zm-1.321 14.131c-.003.017-.005.034-.01.05.005-.017.007-.034.01-.05zm-.049.154a.31.31 0 01-.02.041c.008-.013.014-.027.02-.041zm.029-.073l-.015.043.015-.043zm-.066.143l-.027.042.027-.042zm-.046.068c-.011.014-.021.029-.033.042.012-.013.022-.027.033-.042zm.142-.39zm-2.963-7.897l.046-.076-.046.076zm.135-.237zm-.066.12zm.13-.24l.036-.076-.037.075zm-.272.472l.049-.076-.049.076zm.687-1.648l.015-.07-.015.07zm-.763 1.761zm.408-.709a2.87 2.87 0 00.034-.075l-.035.075zm.206-.512l.024-.073-.024.073zm.082-.267l.019-.071-.02.071zm.035-.135l.017-.07-.017.07zm-.075.27l.022-.072-.022.072zm-.139.391l.03-.073-.03.073zm-.053.127l.032-.074-.032.075zm-.541.946a5.22 5.22 0 00.055-.077l-.055.077zm.645-1.201l.025-.074-.026.074zm-1.37 1.999l.09-.081a3.93 3.93 0 01-.09.081zm.922 8.246zm-1.019.14zm1.211-.172zm.184-.035l-.181.034c.06-.01.122-.022.181-.034zm-.655-8.869l.059-.077-.059.077zm-.627.959l.082.044-.082-.044zm1.468 7.873zm.176-.037zm.171-.039l-.165.037.165-.038zM11.533 1.623l.084.076a3.368 3.368 0 00-.084-.076zM12.09 8.5l.062-.077-.063.078zm-.087.104l.066-.078a4.128 4.128 0 01-.066.078zm-.373.389zm-.949 8.381c-1.897-.284-3.27-.796-3.27-1.535a7.32 7.32 0 013.463-6.235l-.003-.002s.198-.138.549-.315l.1.052a8.464 8.464 0 00-.18-.093 5.119 5.119 0 00.088-.073 4.98 4.98 0 01-1.78-3.82 4.98 4.98 0 011.78-3.821 4.992 4.992 0 10-6.34 7.71c-.409.198-.64.36-.64.36l.003.002a7.32 7.32 0 00-3.463 6.235c0 .74 1.373 1.25 3.27 1.535 2.127.318 4.914.35 7.175.097-.258-.029-.51-.061-.752-.097z" fill="#EB5B58"/><path d="M9.648 5.353a4.98 4.98 0 001.78 3.82 4.98 4.98 0 001.781-3.82 4.98 4.98 0 00-1.78-3.821 4.98 4.98 0 00-1.781 3.82zm5.797 10.487a7.314 7.314 0 00-3.29-6.12 6.073 6.073 0 00-.242-.158l-.012-.006-.035-.021a7.273 7.273 0 00-.446-.248c-.351.178-.549.315-.549.315l.003.003a7.32 7.32 0 00-3.463 6.235c0 .74 1.373 1.25 3.27 1.534.243.037.494.069.751.098 2.273-.256 4.013-.8 4.013-1.633zm-.275-6.466c.077 0 1.813-.01 3.277-.794a4.968 4.968 0 001.185-3.228 4.983 4.983 0 00-2.146-4.1c-1.21.75-2 1.976-2 3.36 0 .82.276 1.605.801 2.286-.18.318-.385.631-.58.914-.41.59-.776 1.035-.782 1.042a.319.319 0 00.244.52z" fill="#222349"/></symbol><symbol fill="none" id="sprite-instagram" viewBox="0 0 18 18"><title>instagram</title><path d="M9.002 4.728A4.265 4.265 0 004.73 9a4.265 4.265 0 004.272 4.272A4.265 4.265 0 0013.274 9a4.265 4.265 0 00-4.272-4.272zm0 7.05A2.783 2.783 0 016.224 9a2.78 2.78 0 012.778-2.778A2.78 2.78 0 0111.779 9a2.783 2.783 0 01-2.777 2.777zm5.443-7.225a.994.994 0 01-.996.996.996.996 0 11.996-.996zm2.83 1.011c-.064-1.334-.368-2.517-1.346-3.491-.975-.974-2.157-1.28-3.492-1.346-1.375-.078-5.499-.078-6.875 0-1.33.063-2.513.368-3.491 1.342C1.093 3.043.792 4.226.725 5.561c-.078 1.375-.078 5.499 0 6.874.063 1.335.368 2.518 1.346 3.492.978.974 2.157 1.279 3.491 1.346 1.376.078 5.5.078 6.875 0 1.335-.063 2.518-.368 3.492-1.346.974-.974 1.279-2.157 1.346-3.492.078-1.375.078-5.495 0-6.87zm-1.778 8.348a2.812 2.812 0 01-1.584 1.584c-1.097.435-3.7.334-4.911.334-1.212 0-3.819.097-4.912-.334a2.812 2.812 0 01-1.584-1.584c-.435-1.097-.335-3.7-.335-4.912 0-1.212-.096-3.819.335-4.912.29-.729.852-1.29 1.584-1.584 1.097-.435 3.7-.334 4.912-.334 1.212 0 3.818-.097 4.911.334.73.29 1.29.852 1.584 1.584.435 1.097.335 3.7.335 4.912 0 1.212.1 3.819-.335 4.912z" fill="#222349"/></symbol><symbol fill="none" id="sprite-linkedin" viewBox="0 0 18 18"><title>linkedin</title><path d="M4.397 17.333H.942V6.206h3.455v11.127zM2.667 4.688c-1.104 0-2-.915-2-2.02a2.001 2.001 0 114.002 0c0 1.105-.897 2.02-2.001 2.02zM17.33 17.333h-3.447v-5.416c0-1.291-.027-2.947-1.797-2.947-1.796 0-2.072 1.403-2.072 2.854v5.51H6.562V6.205h3.314v1.518h.048c.461-.874 1.588-1.797 3.27-1.797 3.496 0 4.14 2.303 4.14 5.294v6.112h-.005z" fill="#222349"/></symbol><symbol id="sprite-logo" viewBox="0 0 7050 1024"><title/><path d="M1635.757 291.577c-97.315 0-181.09 35.792-251.325 107.377-70.239 71.582-104.932 158.007-104.932 258.399s35.541 186.817 105.779 258.402c71.081 71.582 156.55 107.374 256.402 107.374 35.541 0 69.392-4.364 103.239-12.221 33.004-8.732 60.081-18.334 81.239-28.81 21.153-11.347 40.617-23.568 59.234-37.537 18.617-13.966 30.464-23.568 36.387-29.68l12.694-13.095-97.315-129.197-19.464 21.823c-11.847 14.84-33.847 28.806-63.464 42.776-30.464 13.966-62.622 21.823-98.162 21.823-49.081 0-89.698-13.095-121.856-39.282-32.158-26.191-51.617-58.49-59.234-96.902h495.037l6.77-78.568c0-100.391-32.158-184.198-97.315-251.415-65.158-68.092-146.397-101.265-243.712-101.265zm-160.78 294.194c11-38.412 31.311-69.841 59.234-93.408 27.924-23.572 61.775-35.793 101.545-35.793 39.775 0 73.622 12.221 100.703 36.663 27.077 24.446 44.847 54.997 52.464 92.538h-313.947zm919.82-294.194c-37.23 0-72.775 9.603-106.622 27.935s-55.851 33.173-66.005 44.522c-10.153 11.349-17.77 20.078-22.847 27.935v-86.424h-187.861v704.49h187.861V643.388c0-53.252 12.694-93.408 38.077-122.218 25.387-28.806 59.238-42.776 101.549-42.776 38.924 0 71.081 13.095 95.622 39.286 24.541 26.187 37.234 61.105 37.234 103.881v388.474h187.861V599.738c0-94.283-24.541-169.358-73.622-225.228-49.928-55.87-113.392-82.933-191.248-82.933zm2635.13 0c-33.004 0-65.182 5.238-97.319 14.841-32.177 10.476-57.541 20.951-77.036 33.173-19.456 12.221-37.218 25.316-54.154 41.03-16.896 15.715-27.057 26.191-32.138 32.3-5.081 6.112-8.468 11.351-10.988 14.84l104.054 107.378 15.242-16.589c10.161-12.221 28.79-25.316 54.154-36.663 25.403-12.221 53.327-18.334 84.638-18.334 37.218 0 66.009 9.602 87.158 27.936s31.311 42.776 31.311 72.456l-216.655 40.157c-63.449 11.351-112.522 36.667-148.086 75.079-35.525 38.408-54.154 86.422-54.154 144.037 0 55.871 21.15 103.014 64.315 142.297 42.299 39.282 98.186 58.49 165.849 58.49 35.564 0 69.396-7.857 102.4-23.572s54.154-27.936 63.488-37.537c10.122-9.602 17.762-17.459 22.843-24.442v71.582h187.865V570.929c0-80.313-27.097-147.531-81.25-200.782-55.02-52.379-125.243-78.568-211.535-78.568zm104.921 416.409c0 49.759-12.721 88.17-38.085 116.106-25.403 27.936-59.234 41.901-101.534 41.901-60.101 0-90.545-23.568-90.545-71.582 0-44.52 25.364-70.711 76.997-79.443l153.167-28.806v21.823zm459.5-704.496h-188.692v1006.54h188.692V3.49zm278.41 0h-188.731v1006.54h188.731V3.49zm396.879 288.087c-97.319 0-181.09 35.792-251.313 107.377-70.262 71.582-104.921 158.007-104.921 258.399s35.525 186.817 105.748 258.402c71.089 71.582 156.554 107.374 256.433 107.374 35.525 0 69.356-4.364 103.227-12.221 33.004-8.732 60.062-18.334 81.25-28.81 21.15-11.347 40.606-23.568 59.234-37.537 18.59-13.966 30.444-23.568 36.352-29.68l12.721-13.095-97.319-129.197-19.456 21.823c-11.855 14.84-33.871 28.806-63.488 42.776-30.444 13.966-62.622 21.823-98.146 21.823-49.073 0-89.718-13.095-121.856-39.282-32.177-26.191-51.633-58.49-59.234-96.902h495.025l6.774-78.568c0-100.391-32.138-184.198-97.319-251.415-65.142-68.092-146.393-101.265-243.712-101.265zm-160.768 294.194c10.988-38.412 31.311-69.841 59.234-93.408 27.924-23.572 61.755-35.793 101.534-35.793s73.61 12.221 100.706 36.663c27.097 24.446 44.859 54.997 52.46 92.538h-313.935z"/><path d="M7041.378 839.798c-5.908 2.619-14.375 5.238-26.23 7.857s-23.71 3.493-35.525 3.493c-23.71 0-44.032-7.857-59.234-23.572-15.242-15.714-23.71-34.048-23.71-55.871V492.354h138.791V320.377h-138.791V97.768h-167.542v129.2c0 27.935-7.641 49.76-22.843 67.219-15.242 17.46-33.004 26.19-54.193 26.19h-62.582v172.847h118.469v287.212c0 163.245 71.916 244.433 215.749 244.433 46.553.87 88.852-6.987 126.11-20.953V838.052l-8.468 1.745zM1117.007 304.667l-113.392 388.475L801.371 3.491H0v1006.54h731.979v-193.8H209.862v-223.48h396.031V398.947H209.862V198.164H639.74l258.942 811.867h195.478l217.478-705.363h-194.631zM4617.807 0l-202.24 689.652-114.255-388.476h-194.599l-113.428 388.476L3791.057 0h-223.401l320.717 1006.541h195.458l120.162-390.219 121.029 390.219h195.466L4840.37 0h-222.562zM3550.72 626.79c-31.311-13.091-62.622-24.442-93.086-34.044s-56.694-20.078-77.852-32.299c-21.153-12.221-32.154-27.061-32.154-45.395 0-14.84 7.613-27.936 22.847-39.286 15.23-11.347 35.541-17.459 60.928-17.459 20.307 0 40.617 5.238 60.081 15.714s32.154 19.204 38.081 25.316c5.923 6.983 10.153 11.351 13.536 15.714l97.315-114.361-23.694-27.062c-15.23-17.459-43.158-34.919-82.928-53.251-39.775-18.333-82.928-27.062-130.32-27.062-74.464 0-137.086 22.697-187.861 68.965-50.771 46.268-76.158 96.901-76.158 153.642 0 43.65 11 79.443 32.158 108.253 21.153 28.806 47.388 49.759 77.852 62.854 30.464 13.966 61.775 25.316 93.082 34.918 31.311 9.602 57.545 20.949 78.698 34.044 21.157 13.095 32.158 28.81 32.158 48.014 0 19.208-7.617 34.918-22.847 46.269-13.54 10.476-32.158 15.714-57.545 16.585h-302.946c-44.847 0-81.235-36.663-82.928-82.058 0-3.493-.847-290.702-.847-290.702h138.78V320.377h-137.933V97.768h-167.55v129.2c0 27.935-7.617 49.76-22.847 67.219-15.234 17.46-33.004 26.19-54.158 26.19h-62.622v172.847h118.469v287.212c0 157.133 66.851 237.446 199.708 243.558v.874l411.262-.874c75.315-2.619 135.396-23.572 180.248-62.854 48.234-42.776 72.771-95.153 72.771-158.881 0-43.65-11-81.187-32.154-110.868-21.157-30.555-48.234-51.507-79.545-64.603z"/></symbol><symbol id="sprite-mobile-mockup" viewBox="0 0 494 1024"><title/><path d="M70.326 1023.94l353.445.025c38.642 0 70.229-32.232 70.229-71.664l-.099-880.576c0-39.406-31.612-71.664-70.229-71.664L70.227.036C31.61.036-.001 32.268-.001 71.7l.099 880.577c0 39.405 31.612 71.664 70.228 71.664zM422.143 18.025c29.577.026 53.79 24.115 53.79 53.576l.103 880.823c0 29.46-24.21 53.576-53.787 53.576l-350.42-.025c-29.577-.027-53.788-24.116-53.788-53.576l-.078-880.824c0-29.461 24.211-53.576 53.789-53.576h71.788c2.489 0 4.511 2.014 4.511 4.493v.026c0 17.222 14.154 31.32 31.444 31.32h132.599c17.292 0 31.446-14.098 31.446-31.32 0-2.479 2.021-4.493 4.509-4.493h74.096z"/></symbol><symbol class="ldi-47ibm8" preserveAspectRatio="xMidYMid" style="width:525px;webkit-user-select:none;webkit-transform-origin:262.5px 262.5px;webkit-perspective-origin:262.5px 262.5px;webkit-logical-width:525px;webkit-logical-height:525px;user-select:none;transform-origin:262.5px 262.5px;r:0;perspective-origin:262.5px 262.5px;overflow-y:hidden;overflow-x:hidden;inline-size:525px;height:525px;d:none;block-size:525px;background:0 0/auto padding-box border-box" pointer-events="all" overflow="hidden" display="block" id="sprite-ok" viewBox="0 0 100 100"><title>ok</title><svg version="1.1" id="_1" xmlns="http://www.w3.org/2000/svg" x="0" y="0" viewBox="0 0 100 100" xml:space="preserve" style="x:0;webkit-user-select:none;webkit-transform-origin:50px 50px;webkit-perspective-origin:0 0;user-select:none;transform-origin:50px 50px;r:0;perspective-origin:0 0;overflow-y:hidden;overflow-x:hidden" pointer-events="all" overflow="hidden" display="block"><g style="x:0;webkit-user-select:none;webkit-transform-origin:50px 50px;webkit-perspective-origin:0 0;user-select:none;transform-origin:50px 50px;r:0;perspective-origin:0 0"><g style="x:0;webkit-user-select:none;webkit-transform-origin:50px 50px;webkit-transform:matrix(.7,0,0,.7,0,0);webkit-perspective-origin:0 0;user-select:none;transform-origin:50px 50px;r:0;perspective-origin:0 0"><g style="x:0;webkit-user-select:none;webkit-transform-origin:50px 50px;webkit-perspective-origin:0 0;user-select:none;transform-origin:50px 50px;r:0;perspective-origin:0 0"><g style="webkit-user-select:none;webkit-perspective-origin:0 0;user-select:none;perspective-origin:0 0" transform="scale(.7)"><style/><g style="y:0;x:0;webkit-user-select:none;webkit-transform-origin:50px 50px;webkit-perspective-origin:0 0;webkit-animation-duration:2.2s;webkit-animation-delay:.169231s;webkit-animation:2.2s ease .169231s 1 normal none running none;user-select:none;transform-origin:50px 50px;r:0;perspective-origin:0 0;d:none"><circle cx="50" cy="50" r="40" stroke="#3c3" style="webkit-user-select:none;webkit-perspective-origin:0 0;user-select:none;r:40px;perspective-origin:0 0;cy:50px;cx:50px" stroke-width="8" stroke-miterlimit="10" fill="none"/></g><g style="x:0;webkit-user-select:none;webkit-transform-origin:50px 50px;webkit-perspective-origin:0 0;user-select:none;transform-origin:50px 50px;r:0;perspective-origin:0 0"><g style="webkit-user-select:none;webkit-perspective-origin:0 0;user-select:none;perspective-origin:0 0"><g style="y:0;x:0;webkit-user-select:none;webkit-transform-origin:50px 50px;webkit-perspective-origin:0 0;webkit-animation-duration:2.2s;webkit-animation-delay:.338462s;webkit-animation:2.2s ease .338462s 1 normal none running none;user-select:none;transform-origin:50px 50px;r:0;perspective-origin:0 0;d:none" class="ld"><path fill="#3c3" style="webkit-user-select:none;webkit-perspective-origin:0 0;user-select:none;r:0;perspective-origin:0 0" d="M43.7 69.4L25 47.7l3.9-3.9 14.8 12.6 28.6-25.8 2.7 2.7z"/></g></g></g></g></g></g></g><style>@keyframes ldt-bounce-in{0%{-webkit-transform:scale(0);transform:scale(0)}5%{-webkit-transform:scale(.0846);transform:scale(.0846)}6%{-webkit-transform:scale(.191);transform:scale(.191)}7%{-webkit-transform:scale(.3255);transform:scale(.3255)}8%{-webkit-transform:scale(.4804);transform:scale(.4804)}9%{-webkit-transform:scale(.646);transform:scale(.646)}10%{-webkit-transform:scale(.8116);transform:scale(.8116)}11%{-webkit-transform:scale(.9665);transform:scale(.9665)}12%{-webkit-transform:scale(1.1);transform:scale(1.1)}13%{-webkit-transform:scale(1.2069);transform:scale(1.2069)}14%{-webkit-transform:scale(1.2796);transform:scale(1.2796)}19%{-webkit-transform:scale(1.1558);transform:scale(1.1558)}20%{-webkit-transform:scale(1.07);transform:scale(1.07)}21%{-webkit-transform:scale(.9823);transform:scale(.9823)}22%{-webkit-transform:scale(.901);transform:scale(.901)}23%{-webkit-transform:scale(.8328);transform:scale(.8328)}25%{-webkit-transform:scale(.7551);transform:scale(.7551)}29%{-webkit-transform:scale(.8516);transform:scale(.8516)}31%{-webkit-transform:scale(.973);transform:scale(.973)}33%{-webkit-transform:scale(1.0857);transform:scale(1.0857)}35%{-webkit-transform:scale(1.1538);transform:scale(1.1538)}40%{-webkit-transform:scale(1.0771);transform:scale(1.0771)}42%{-webkit-transform:scale(.9954);transform:scale(.9954)}45%{-webkit-transform:scale(.9057);transform:scale(.9057)}52%{-webkit-transform:scale(.9908);transform:scale(.9908)}56%{-webkit-transform:scale(1.0623);transform:scale(1.0623)}64%{-webkit-transform:scale(.9845);transform:scale(.9845)}}@-webkit-keyframes ldt-bounce-in{0%{-webkit-transform:scale(0);transform:scale(0)}5%{-webkit-transform:scale(.0846);transform:scale(.0846)}6%{-webkit-transform:scale(.191);transform:scale(.191)}7%{-webkit-transform:scale(.3255);transform:scale(.3255)}8%{-webkit-transform:scale(.4804);transform:scale(.4804)}9%{-webkit-transform:scale(.646);transform:scale(.646)}10%{-webkit-transform:scale(.8116);transform:scale(.8116)}11%{-webkit-transform:scale(.9665);transform:scale(.9665)}12%{-webkit-transform:scale(1.1);transform:scale(1.1)}13%{-webkit-transform:scale(1.2069);transform:scale(1.2069)}14%{-webkit-transform:scale(1.2796);transform:scale(1.2796)}19%{-webkit-transform:scale(1.1558);transform:scale(1.1558)}20%{-webkit-transform:scale(1.07);transform:scale(1.07)}21%{-webkit-transform:scale(.9823);transform:scale(.9823)}22%{-webkit-transform:scale(.901);transform:scale(.901)}23%{-webkit-transform:scale(.8328);transform:scale(.8328)}25%{-webkit-transform:scale(.7551);transform:scale(.7551)}29%{-webkit-transform:scale(.8516);transform:scale(.8516)}31%{-webkit-transform:scale(.973);transform:scale(.973)}33%{-webkit-transform:scale(1.0857);transform:scale(1.0857)}35%{-webkit-transform:scale(1.1538);transform:scale(1.1538)}40%{-webkit-transform:scale(1.0771);transform:scale(1.0771)}42%{-webkit-transform:scale(.9954);transform:scale(.9954)}45%{-webkit-transform:scale(.9057);transform:scale(.9057)}52%{-webkit-transform:scale(.9908);transform:scale(.9908)}56%{-webkit-transform:scale(1.0623);transform:scale(1.0623)}64%{-webkit-transform:scale(.9845);transform:scale(.9845)}}</style></svg></symbol><symbol id="sprite-quote" viewBox="0 0 1024 1024"><title/><path d="M1024 72.259c-148.595-24.022-258.963 4.368-331.104 85.171-72.144 80.804-108.215 199.824-108.215 357.062V960h439.318V514.492H797.881c-11.847-78.62-1.075-142.497 32.301-191.634 34.457-49.136 90.451-70.43 167.974-63.878l25.843-186.72zm-584.681 0c-148.592-24.022-258.96 4.368-331.104 85.171S0 357.254 0 514.492V960h439.318V514.492H213.199c-11.845-78.62-1.076-142.497 32.302-191.634 34.457-49.136 90.448-70.43 167.974-63.878l25.842-186.72z"/></symbol><symbol id="sprite-site-arrow" viewBox="0 0 3000 2000"><title>site-arrow</title><path d="M1605.48 1015.06h-262.3l6.76-31.25h-26.05l-9.72 44.86h262.3l-40.15 39.52h61.39l13.11-13.61h-45.49zm-5.89-69.64h-37.03l14.6 24.78h37.02z" fill="#e75b58"/><path d="M1577.16 970.2h-224.27l-2.95 13.61h235.24zm108.67 22.99l-32.88-61.38h-61.39l8.03 13.61h24.35l32.88 61.39-46 47.77h15.89z" fill="#59a8e6"/><path fill="#f4f0e6" d="M1623.94 945.42h-24.35l14.59 24.78h-37.02l8.02 13.61h-235.24l-6.76 31.25h262.3l-40.15 39.52h45.49l46-47.77z"/></symbol><symbol id="sprite-star" viewBox="0 0 1024 1024"><title/><path d="M1023.096 395.487a18.37 18.37 0 00-14.812-12.482l-331.575-48.187-148.28-300.452a18.309 18.309 0 00-16.425-10.228c-6.965 0-13.362 3.959-16.423 10.228l-148.302 300.47-331.575 48.188a18.361 18.361 0 00-14.81 12.482c-2.145 6.617-.367 13.912 4.637 18.769l239.947 233.88-56.655 330.254a18.367 18.367 0 007.277 17.925c5.664 4.142 13.16 4.675 19.301 1.393l296.603-155.904 296.565 155.904a18.332 18.332 0 008.545 2.109 18.314 18.314 0 0018.054-21.427l-56.637-330.234 239.948-233.901c4.982-4.894 6.779-12.171 4.618-18.788z"/></symbol><symbol fill="none" id="sprite-twitter" viewBox="0 0 18 14"><title>twitter</title><path d="M15.62 3.605c.01.148.01.297.01.445 0 4.515-3.436 9.718-9.718 9.718a9.653 9.653 0 01-5.245-1.533c.274.032.539.042.824.042a6.84 6.84 0 004.241-1.46A3.422 3.422 0 012.538 8.45a3.67 3.67 0 001.545-.063 3.416 3.416 0 01-2.74-3.353v-.042a3.44 3.44 0 001.544.433A3.413 3.413 0 011.364 2.58c0-.635.17-1.217.466-1.724A9.71 9.71 0 008.873 4.43a3.856 3.856 0 01-.085-.782A3.414 3.414 0 0112.204.232c.984 0 1.872.412 2.496 1.079a6.725 6.725 0 002.168-.825 3.407 3.407 0 01-1.502 1.882 6.848 6.848 0 001.967-.529 7.343 7.343 0 01-1.713 1.766z" fill="#222349"/></symbol><symbol fill="none" id="sprite-vkontakte" viewBox="0 0 18 10"><title>vkontakte</title><path d="M16.953.721c.115-.387 0-.671-.55-.671H14.58c-.464 0-.677.244-.792.517 0 0-.928 2.261-2.24 3.728-.424.424-.619.56-.85.56-.115 0-.292-.136-.292-.523V.722c0-.465-.13-.672-.513-.672H7.028c-.291 0-.464.216-.464.417 0 .44.656.542.724 1.78v2.685c0 .588-.106.696-.338.696-.618 0-2.122-2.27-3.013-4.87C3.757.254 3.58.05 3.114.05H1.29C.771.05.667.294.667.567c0 .482.618 2.88 2.88 6.048 1.507 2.163 3.63 3.336 5.56 3.336 1.16 0 1.303-.26 1.303-.709 0-2.067-.106-2.262.476-2.262.27 0 .733.136 1.816 1.18 1.238 1.237 1.442 1.79 2.135 1.79h1.822c.52 0 .783-.26.632-.773-.347-1.08-2.69-3.301-2.794-3.45-.27-.346-.192-.5 0-.81.003-.003 2.227-3.135 2.456-4.196z" fill="#222349"/></symbol></svg>