<svg xmlns="http://www.w3.org/2000/svg" xmlns:xlink="http://www.w3.org/1999/xlink"><symbol fill="none" id="sprite-arrow-right" viewBox="0 0 20 17"><title>arrow-right</title><path d="M19.68 7.542L12.458.32a1.087 1.087 0 00-.774-.32c-.294 0-.568.113-.774.32l-.656.655a1.108 1.108 0 000 1.557l4.213 4.223H1.08C.477 6.755 0 7.228 0 7.831v.928c0 .604.477 1.124 1.08 1.124h13.435l-4.261 4.246a1.07 1.07 0 00-.32.767c0 .293.114.564.32.77l.656.654c.206.206.48.319.774.319.293 0 .568-.114.774-.32l7.222-7.223a1.09 1.09 0 00.32-.777c0-.294-.113-.57-.32-.777z" fill="#F4F1E8"/></symbol><symbol id="sprite-chevron-down" viewBox="0 0 1024 1024"><title/><path d="M511.999 803.855c-18.352 0-36.702-7.007-50.694-20.993L21.007 342.559c-28.009-28.008-28.009-73.42 0-101.417 27.997-27.997 73.4-27.997 101.41 0l389.582 389.604 389.582-389.59c28.01-27.997 73.412-27.997 101.406 0 28.018 27.997 28.018 73.409 0 101.418L562.693 782.876c-13.999 13.988-32.348 20.979-50.694 20.979z"/></symbol><symbol fill="none" id="sprite-favicon-logo" viewBox="0 0 57 57"><title>favicon-logo</title><rect width="57" height="57" rx="9" fill="#212248"/><path d="M5.588 16.765V40.39h17.728v-4.546H10.663v-5.24h9.604v-4.546h-9.604v-4.73H21.08l-1.5-4.563H5.588z" fill="#EB5B58"/><path d="M32.65 23.832h-.013l-2.759 9.128-4.893-16.195h-5.404l1.5 4.563 6.26 19.062h4.728L35 31.205l-2.35-7.373z" fill="#F6F3EA"/><path d="M45.012 16.765L40.12 32.96l-2.759-9.128H32.65L35 31.205l2.93 9.185h4.727l7.76-23.625h-5.404z" fill="#00B6F8"/></symbol><symbol fill="none" id="sprite-logo" viewBox="0 0 179 26"><title>logo</title><path d="M41.533 7.403c-2.471 0-4.598.91-6.381 2.727-1.784 1.817-2.665 4.012-2.665 6.56 0 2.55.903 4.744 2.686 6.562 1.805 1.817 3.975 2.726 6.51 2.726.903 0 1.762-.11 2.622-.31.838-.222 1.525-.466 2.062-.732a11.664 11.664 0 001.504-.953c.473-.355.774-.598.924-.754l.322-.332-2.47-3.28-.495.554c-.3.376-.859.731-1.611 1.086a5.877 5.877 0 01-2.492.554c-1.247 0-2.278-.333-3.094-.998-.817-.665-1.311-1.485-1.504-2.46H50.02l.172-1.995c0-2.549-.817-4.677-2.471-6.383-1.654-1.73-3.717-2.572-6.188-2.572zm-4.082 7.47c.279-.975.795-1.773 1.504-2.372.709-.598 1.568-.908 2.578-.908 1.01 0 1.87.31 2.557.93a4.206 4.206 0 011.332 2.35H37.45zm23.354-7.47c-.945 0-1.847.244-2.707.71-.86.465-1.418.842-1.676 1.13-.258.288-.45.51-.58.71V7.757h-4.77v17.887h4.77v-9.309c0-1.352.322-2.372.967-3.103.645-.732 1.504-1.086 2.578-1.086.989 0 1.805.332 2.428.997s.946 1.552.946 2.638v9.863h4.77V15.228c0-2.394-.624-4.3-1.87-5.719-1.267-1.419-2.879-2.106-4.856-2.106zm66.908 0c-.838 0-1.655.133-2.471.377-.817.266-1.461.532-1.956.842-.494.31-.945.643-1.375 1.042-.429.4-.687.665-.816.82-.129.155-.215.289-.279.377l2.642 2.726.387-.42c.258-.311.731-.643 1.375-.932.645-.31 1.354-.465 2.149-.465.945 0 1.676.244 2.213.71.537.465.795 1.085.795 1.839l-5.501 1.02c-1.611.288-2.857.93-3.76 1.906-.902.975-1.375 2.194-1.375 3.657 0 1.419.537 2.616 1.633 3.613 1.074.997 2.493 1.485 4.211 1.485.903 0 1.762-.2 2.6-.598.838-.4 1.375-.71 1.612-.954.257-.243.451-.443.58-.62v1.817h4.77V14.496c0-2.039-.688-3.746-2.063-5.098-1.397-1.33-3.18-1.995-5.371-1.995zm2.664 10.573c0 1.264-.323 2.239-.967 2.948-.645.71-1.504 1.064-2.578 1.064-1.526 0-2.299-.598-2.299-1.817 0-1.13.644-1.796 1.955-2.017l3.889-.732v.554zM142.044.089h-4.791v25.556h4.791V.09zm7.069 0h-4.792v25.556h4.792V.09zm10.077 7.314c-2.471 0-4.598.91-6.381 2.727-1.784 1.817-2.664 4.012-2.664 6.56 0 2.55.902 4.744 2.685 6.562 1.805 1.817 3.975 2.726 6.511 2.726.902 0 1.761-.11 2.621-.31.838-.222 1.525-.466 2.063-.732a11.692 11.692 0 001.504-.953c.472-.355.773-.598.923-.754l.323-.332-2.471-3.28-.494.554c-.301.376-.86.731-1.612 1.086a5.875 5.875 0 01-2.492.554c-1.246 0-2.278-.333-3.094-.998-.817-.665-1.311-1.485-1.504-2.46h12.569l.172-1.995c0-2.549-.816-4.677-2.471-6.383-1.654-1.73-3.717-2.572-6.188-2.572zm-4.082 7.47c.279-.975.795-1.773 1.504-2.372.709-.598 1.568-.908 2.578-.908 1.01 0 1.869.31 2.557.93a4.2 4.2 0 011.332 2.35h-7.971z" fill="#F4F1E8"/><path d="M178.785 21.323a3.63 3.63 0 01-.666.2 4.156 4.156 0 01-.902.088c-.602 0-1.118-.2-1.504-.598-.387-.4-.602-.865-.602-1.419v-7.093h3.524V8.135h-3.524V2.482h-4.254v3.28c0 .71-.194 1.264-.58 1.708-.387.443-.838.665-1.376.665h-1.589v4.388h3.008v7.293c0 4.145 1.826 6.206 5.478 6.206A8.624 8.624 0 00179 25.49v-4.21l-.215.044zM28.361 7.736l-2.879 9.863L20.347.09H0v25.556h18.585v-4.92H5.33V15.05h10.055v-4.92H5.329v-5.1h10.914l6.575 20.614h4.963l5.522-17.91h-4.941zM117.249 0l-5.135 17.51-2.901-9.863h.022-4.963l-2.88 9.864L96.257 0h-5.672l8.143 25.557h4.963l3.051-9.908 3.073 9.908h4.963L122.9 0h-5.651zM90.155 15.915a27.85 27.85 0 00-2.364-.865c-.773-.244-1.439-.51-1.976-.82-.537-.31-.817-.687-.817-1.152 0-.377.194-.71.58-.998.387-.288.903-.443 1.547-.443.516 0 1.032.133 1.526.399s.816.487.967.643c.15.177.258.288.344.399l2.47-2.904-.601-.687c-.387-.444-1.096-.887-2.106-1.352-1.01-.466-2.105-.688-3.309-.688-1.89 0-3.48.577-4.77 1.752-1.289 1.174-1.933 2.46-1.933 3.9 0 1.109.28 2.018.816 2.75a4.773 4.773 0 001.977 1.595 19.11 19.11 0 002.363.887c.795.244 1.462.532 1.999.864.537.333.816.732.816 1.22 0 .487-.193.886-.58 1.174-.344.266-.817.399-1.461.421H77.95c-1.139 0-2.063-.93-2.106-2.083l-.021-7.381h3.523V8.135h-3.502V2.482H71.59v3.28c0 .71-.193 1.264-.58 1.708-.387.443-.838.665-1.375.665h-1.59v4.388h3.008v7.293c0 3.99 1.697 6.029 5.07 6.184v.022L86.568 26c1.912-.067 3.438-.599 4.576-1.596 1.225-1.086 1.848-2.416 1.848-4.034 0-1.108-.28-2.062-.816-2.815a4.547 4.547 0 00-2.02-1.64z" fill="#F4F1E8"/></symbol><symbol class="ldi-47ibm8" preserveAspectRatio="xMidYMid" style="width:525px;webkit-user-select:none;webkit-transform-origin:262.5px 262.5px;webkit-perspective-origin:262.5px 262.5px;webkit-logical-width:525px;webkit-logical-height:525px;user-select:none;transform-origin:262.5px 262.5px;r:0;perspective-origin:262.5px 262.5px;overflow-y:hidden;overflow-x:hidden;inline-size:525px;height:525px;d:none;block-size:525px;background:0 0/auto padding-box border-box" pointer-events="all" overflow="hidden" display="block" id="sprite-ok" viewBox="0 0 100 100"><title>ok</title><svg version="1.1" id="圖層_1" xmlns="http://www.w3.org/2000/svg" x="0" y="0" viewBox="0 0 100 100" xml:space="preserve" style="x:0;webkit-user-select:none;webkit-transform-origin:50px 50px;webkit-perspective-origin:0 0;user-select:none;transform-origin:50px 50px;r:0;perspective-origin:0 0;overflow-y:hidden;overflow-x:hidden" pointer-events="all" overflow="hidden" display="block"><g style="x:0;webkit-user-select:none;webkit-transform-origin:50px 50px;webkit-perspective-origin:0 0;user-select:none;transform-origin:50px 50px;r:0;perspective-origin:0 0"><g style="x:0;webkit-user-select:none;webkit-transform-origin:50px 50px;webkit-transform:matrix(.7,0,0,.7,0,0);webkit-perspective-origin:0 0;user-select:none;transform-origin:50px 50px;r:0;perspective-origin:0 0"><g style="x:0;webkit-user-select:none;webkit-transform-origin:50px 50px;webkit-perspective-origin:0 0;user-select:none;transform-origin:50px 50px;r:0;perspective-origin:0 0"><g style="webkit-user-select:none;webkit-perspective-origin:0 0;user-select:none;perspective-origin:0 0" transform="scale(.7)"><style/><g style="y:0;x:0;webkit-user-select:none;webkit-transform-origin:50px 50px;webkit-perspective-origin:0 0;webkit-animation-duration:2.2s;webkit-animation-delay:.169231s;webkit-animation:2.2s ease .169231s 1 normal none running none;user-select:none;transform-origin:50px 50px;r:0;perspective-origin:0 0;d:none"><circle cx="50" cy="50" r="40" stroke="#3c3" style="webkit-user-select:none;webkit-perspective-origin:0 0;user-select:none;r:40px;perspective-origin:0 0;cy:50px;cx:50px" stroke-width="8" stroke-miterlimit="10" fill="none"/></g><g style="x:0;webkit-user-select:none;webkit-transform-origin:50px 50px;webkit-perspective-origin:0 0;user-select:none;transform-origin:50px 50px;r:0;perspective-origin:0 0"><g style="webkit-user-select:none;webkit-perspective-origin:0 0;user-select:none;perspective-origin:0 0"><g style="y:0;x:0;webkit-user-select:none;webkit-transform-origin:50px 50px;webkit-perspective-origin:0 0;webkit-animation-duration:2.2s;webkit-animation-delay:.338462s;webkit-animation:2.2s ease .338462s 1 normal none running none;user-select:none;transform-origin:50px 50px;r:0;perspective-origin:0 0;d:none" class="ld"><path fill="#3c3" style="webkit-user-select:none;webkit-perspective-origin:0 0;user-select:none;r:0;perspective-origin:0 0" d="M43.7 69.4L25 47.7l3.9-3.9 14.8 12.6 28.6-25.8 2.7 2.7z"/></g></g></g></g></g></g></g><style>@keyframes ldt-bounce-in{0%{-webkit-transform:scale(0);transform:scale(0)}5%{-webkit-transform:scale(.0846);transform:scale(.0846)}6%{-webkit-transform:scale(.191);transform:scale(.191)}7%{-webkit-transform:scale(.3255);transform:scale(.3255)}8%{-webkit-transform:scale(.4804);transform:scale(.4804)}9%{-webkit-transform:scale(.646);transform:scale(.646)}10%{-webkit-transform:scale(.8116);transform:scale(.8116)}11%{-webkit-transform:scale(.9665);transform:scale(.9665)}12%{-webkit-transform:scale(1.1);transform:scale(1.1)}13%{-webkit-transform:scale(1.2069);transform:scale(1.2069)}14%{-webkit-transform:scale(1.2796);transform:scale(1.2796)}19%{-webkit-transform:scale(1.1558);transform:scale(1.1558)}20%{-webkit-transform:scale(1.07);transform:scale(1.07)}21%{-webkit-transform:scale(.9823);transform:scale(.9823)}22%{-webkit-transform:scale(.901);transform:scale(.901)}23%{-webkit-transform:scale(.8328);transform:scale(.8328)}25%{-webkit-transform:scale(.7551);transform:scale(.7551)}29%{-webkit-transform:scale(.8516);transform:scale(.8516)}31%{-webkit-transform:scale(.973);transform:scale(.973)}33%{-webkit-transform:scale(1.0857);transform:scale(1.0857)}35%{-webkit-transform:scale(1.1538);transform:scale(1.1538)}40%{-webkit-transform:scale(1.0771);transform:scale(1.0771)}42%{-webkit-transform:scale(.9954);transform:scale(.9954)}45%{-webkit-transform:scale(.9057);transform:scale(.9057)}52%{-webkit-transform:scale(.9908);transform:scale(.9908)}56%{-webkit-transform:scale(1.0623);transform:scale(1.0623)}64%{-webkit-transform:scale(.9845);transform:scale(.9845)}}@-webkit-keyframes ldt-bounce-in{0%{-webkit-transform:scale(0);transform:scale(0)}5%{-webkit-transform:scale(.0846);transform:scale(.0846)}6%{-webkit-transform:scale(.191);transform:scale(.191)}7%{-webkit-transform:scale(.3255);transform:scale(.3255)}8%{-webkit-transform:scale(.4804);transform:scale(.4804)}9%{-webkit-transform:scale(.646);transform:scale(.646)}10%{-webkit-transform:scale(.8116);transform:scale(.8116)}11%{-webkit-transform:scale(.9665);transform:scale(.9665)}12%{-webkit-transform:scale(1.1);transform:scale(1.1)}13%{-webkit-transform:scale(1.2069);transform:scale(1.2069)}14%{-webkit-transform:scale(1.2796);transform:scale(1.2796)}19%{-webkit-transform:scale(1.1558);transform:scale(1.1558)}20%{-webkit-transform:scale(1.07);transform:scale(1.07)}21%{-webkit-transform:scale(.9823);transform:scale(.9823)}22%{-webkit-transform:scale(.901);transform:scale(.901)}23%{-webkit-transform:scale(.8328);transform:scale(.8328)}25%{-webkit-transform:scale(.7551);transform:scale(.7551)}29%{-webkit-transform:scale(.8516);transform:scale(.8516)}31%{-webkit-transform:scale(.973);transform:scale(.973)}33%{-webkit-transform:scale(1.0857);transform:scale(1.0857)}35%{-webkit-transform:scale(1.1538);transform:scale(1.1538)}40%{-webkit-transform:scale(1.0771);transform:scale(1.0771)}42%{-webkit-transform:scale(.9954);transform:scale(.9954)}45%{-webkit-transform:scale(.9057);transform:scale(.9057)}52%{-webkit-transform:scale(.9908);transform:scale(.9908)}56%{-webkit-transform:scale(1.0623);transform:scale(1.0623)}64%{-webkit-transform:scale(.9845);transform:scale(.9845)}}</style></svg></symbol></svg>