<!-- Generated by IcoMoon.io -->
<svg version="1.1" xmlns="http://www.w3.org/2000/svg" width="3405" height="1024" viewBox="0 0 3405 1024">
<title></title>
<g id="icomoon-ignore">
</g>
<path d="M2934.424 265.301c-21.658 0-29.414 17.065-32.486 31.030h60.339c0-12.411-4.634-31.030-27.853-31.030z"></path>
<path d="M2233.349 346c13.929 0 26.312-7.757 30.953-21.722 0-3.103 1.549-4.654 1.549-7.757v-17.068c0-3.103 0-6.205-1.549-7.757-3.095-12.413-13.929-21.722-29.404-21.722-21.668 0-34.048 17.068-34.048 38.789 0 20.168 10.834 37.235 32.499 37.235z"></path>
<path d="M2132.728 330.477c0-1.554 1.549-4.657 1.549-6.208v-18.616c-23.214 0-47.977 3.103-47.977 23.27 0 12.413 9.285 18.619 18.57 18.619 15.478 0 24.763-7.757 27.858-17.065z"></path>
<path d="M2417.522 347.554c20.119 0 34.048-17.068 34.048-40.34 0-17.068-9.285-38.787-34.048-38.787s-35.597 20.168-35.597 40.338c1.549 21.722 15.478 38.789 35.597 38.789z"></path>
<path d="M1991.895 266.876c-24.763 0-35.594 20.17-35.594 40.34 0 23.273 13.929 40.338 34.048 40.338s34.048-17.065 34.048-40.338c1.546-18.619-7.739-40.34-32.502-40.34z"></path>
<path d="M1912.988 541.477c-26.312 0-47.977 18.616-55.716 44.992 0 1.554 0 3.105 0 3.105-1.546 4.654-1.546 7.757-1.546 10.86v37.235c0 6.208 0 10.862 1.546 15.516 6.19 24.824 27.858 43.443 54.167 43.443 37.143 0 60.357-29.478 60.357-79.127 0-37.238-18.57-76.024-58.808-76.024z"></path>
<path d="M1504.407 266.876c-24.76 0-35.594 20.17-35.594 40.34 0 23.273 13.929 40.338 34.048 40.338s34.048-17.065 34.048-40.338c1.546-18.619-9.285-40.34-32.502-40.34z"></path>
<path d="M2892.645 538.377c-34.048 0-51.072 29.478-55.731 55.854h103.706c0-9.308-3.098-29.478-15.488-43.443-6.17-9.308-18.56-12.411-32.486-12.411z"></path>
<path d="M3267.173 0.001h-3129.335c-75.834 0-137.74 63.612-137.74 139.636v744.729c0 77.576 61.905 139.635 137.74 139.635h3129.335c75.827 0 137.728-63.611 137.728-139.635v-744.729c0-76.024-61.901-139.636-137.728-139.636zM2935.96 252.898c37.146 0 46.438 29.479 46.438 49.649 0 3.103 0 6.205 0 9.308h-78.925c0 24.824 18.56 35.686 38.682 35.686 15.488 0 24.755-3.105 30.95-4.657l3.098 12.413c-7.731 3.103-20.122 6.205-38.682 6.205-35.61 0-55.731-21.722-55.731-52.751s20.122-55.854 54.17-55.854zM2759.525 207.904h20.122v65.165c3.098-4.657 7.757-10.862 15.488-12.413 6.195-3.103 13.926-4.654 21.658-4.654 15.488 0 40.243 7.757 40.243 44.995v62.060h-20.122v-60.508c0-17.068-6.195-31.030-26.317-31.030-13.926 0-23.194 7.757-27.853 18.616-1.536 3.103-1.536 4.657-1.536 9.311v62.060h-20.122v-153.6h-1.562zM2518.107 254.449l1.546 17.068c6.19-9.311 18.573-18.619 37.143-18.619 15.465 0 40.246 7.757 40.246 44.995v62.060h-20.122v-58.957c0-17.068-6.195-31.030-26.314-31.030-13.929 0-24.763 9.308-27.858 18.616-1.546 3.103-1.546 6.208-1.546 9.311v62.060h-20.122v-76.024c0-10.86 0-18.619-1.546-27.927h18.573v-1.552zM2419.058 252.898c32.499 0 54.167 21.722 54.167 52.752 0 38.787-29.407 55.854-57.262 55.854-30.953 0-54.17-20.17-54.17-52.751 1.549-35.684 26.312-55.854 57.265-55.854zM2230.244 252.898c17.024 0 29.404 7.757 34.048 15.516v-60.51h20.119v124.121c0 9.308 0 20.17 1.549 26.376h-18.573l-1.546-18.619c-6.193 10.862-20.122 20.17-38.692 20.17-27.858 0-49.526-21.722-49.526-52.751 1.549-34.132 24.763-54.303 52.621-54.303zM1889.764 207.904h20.119v152.048h-20.119v-152.048zM1341.901 214.11c29.404 0 51.072 6.206 65.001 17.066 13.929 12.412 23.214 27.927 23.214 52.751 0 23.273-7.739 41.892-23.214 55.854-15.478 13.965-40.238 20.17-69.645 20.17-15.475 0-26.309 0-37.143-1.551v-141.188c10.834-1.552 26.309-3.103 41.787-3.103zM716.656 256.001c21.665-27.927 60.357-48.097 92.856-51.2 6.19 37.236-9.285 72.922-29.404 99.297-21.668 27.927-58.811 49.649-94.405 48.097-6.193-34.135 10.831-71.37 30.953-96.195zM916.3 729.212c-26.309 38.789-61.906 88.438-106.788 88.438-40.238 0-49.523-26.376-103.69-26.376s-65.001 26.376-105.239 26.376c-44.882 0-78.93-44.995-105.239-83.781-71.194-110.159-78.93-238.935-35.597-307.2 30.953-49.649 80.476-77.576 126.907-77.576 47.977 0 77.381 26.376 116.073 26.376 38.689 0 61.903-26.376 116.073-26.376 41.784 0 85.12 23.273 116.070 62.060-102.144 57.405-86.666 203.249 17.024 243.589-10.831 31.030-17.024 46.543-35.594 74.47zM1505.951 729.212l-30.953-93.089h-99.049l-30.953 93.089h-46.428l102.144-304.095h51.072l103.69 304.095h-49.523zM1502.856 361.504c-30.953 0-54.167-20.17-54.167-52.751 0-34.132 24.76-55.854 57.262-55.854 32.499 0 54.167 21.722 54.167 52.752 0 38.787-29.407 55.854-57.262 55.854zM1592.617 254.449l15.478 52.752c3.095 10.86 6.19 21.722 7.736 32.581 3.098-10.86 6.193-21.722 10.834-32.581l18.573-52.752h17.024l17.024 51.2c4.644 12.411 7.739 23.273 10.834 34.132 1.546-10.86 4.641-21.722 9.285-34.132l15.475-52.752h20.119l-37.143 103.952h-18.57l-17.024-49.649c-4.644-12.411-7.739-21.722-10.834-34.132-3.095 12.411-6.19 23.273-10.834 34.132l-18.57 49.649h-18.573l-34.048-103.952h23.214v1.551zM1750.477 704.39c-18.573 18.616-41.787 29.478-69.645 29.478-26.309 0-47.977-9.311-61.903-26.376v108.605h-46.431v-234.278c0-29.478 0-51.2-1.546-69.819v-3.103h41.784l1.549 29.478c17.024-23.273 41.787-35.684 72.74-35.684 26.309 0 49.523 10.86 66.547 31.030s26.309 48.097 26.309 80.678c1.549 38.789-9.285 68.268-29.404 89.989zM1779.881 287.031c-1.546 3.103-1.546 6.205-1.546 9.311v62.060h-20.119v-76.024c0-10.86 0-18.619-1.549-27.927h18.573l1.546 17.068c6.19-9.311 18.573-18.619 37.143-18.619 15.478 0 40.241 7.757 40.241 44.995v62.060h-20.122v-58.957c0-17.068-6.19-31.030-26.309-31.030-12.38-1.554-23.214 7.757-27.858 17.065zM1987.264 704.39c-18.57 18.616-41.784 29.478-69.642 29.478-26.309 0-47.977-9.311-61.906-26.376v108.605h-46.428v-234.278c0-29.478 0-51.2-1.549-69.819v-3.103h41.787l1.546 29.478c17.024-23.273 41.787-35.684 72.74-35.684 26.309 0 49.526 10.86 66.55 31.030s26.309 48.097 26.309 80.678c1.546 38.789-9.288 68.268-29.407 89.989zM1990.362 361.504c-30.953 0-54.17-20.17-54.17-52.751 0-34.132 24.763-55.854 57.265-55.854 32.499 0 54.167 21.722 54.167 52.752 0 38.787-29.407 55.854-57.262 55.854zM2064.648 332.025c0-24.824 24.76-38.789 68.096-38.789v-1.551c0-7.757-3.095-23.27-26.312-23.27-10.831 0-21.665 3.103-29.404 7.757l-4.644-12.413c9.288-4.654 23.217-9.308 37.146-9.308 35.594 0 43.333 21.722 43.333 41.892v37.235c0 9.308 0 17.068 1.546 24.824h-18.57l-1.549-12.411c-6.19 7.757-18.57 15.514-35.594 15.514-21.668 0-34.048-13.962-34.048-29.478zM2190.006 733.869c-27.858 0-60.357-7.759-77.381-20.17l-1.549-1.551 12.38-38.789 4.644 3.103c18.573 12.413 43.333 18.619 66.547 18.619 35.597 0 58.811-17.065 58.811-46.546 0-24.824-13.929-40.338-52.618-55.854-54.167-20.17-80.479-48.097-80.479-88.435 0-49.649 40.238-83.784 99.049-83.784 37.143 0 58.811 10.862 66.55 15.516l3.095 1.551-12.383 38.789-4.641-3.105c-4.644-3.103-24.763-13.962-54.167-13.962-35.597 0-52.621 20.17-52.621 41.892 0 24.824 13.929 37.235 55.716 54.303 54.167 21.722 77.381 48.097 75.832 89.987-1.546 38.789-29.404 88.438-106.785 88.438zM2434.533 544.582h-55.716v111.711c0 26.376 7.739 37.235 24.763 37.235 9.285 0 15.478-1.551 21.668-3.103l4.641-1.551 1.549 37.235-1.549 3.103c-6.19 1.554-18.57 6.208-35.594 6.208-18.573 0-34.048-6.205-44.882-17.068-10.834-12.411-15.475-31.030-15.475-58.957v-113.262h-32.502v-37.235h32.502v-38.789l44.879-13.962v52.751h55.716v35.684zM2544.416 733.869c-61.906 0-105.239-46.546-105.239-113.262 0-69.816 44.879-116.362 108.334-116.362 30.945 0 57.262 10.86 77.384 31.030 18.56 20.17 29.414 49.649 29.414 82.23 0 79.127-57.267 116.365-109.893 116.365zM2668.235 254.449h17.024v-18.618l20.122-4.655v24.824h29.389v13.965h-29.389v55.854c0 12.411 4.634 20.17 15.462 20.17 6.195 0 9.293 0 12.39-1.554l1.536 13.965c-4.634 1.551-10.829 3.103-18.56 3.103-9.293 0-17.024-3.103-21.683-7.757-6.17-6.205-7.731-15.516-7.731-26.376v-57.405h-17.024v-15.516h-1.536zM2776.549 546.133c-23.194 0-43.315 18.619-47.974 46.546 0 4.654-1.536 10.862-1.536 17.068v117.914h-46.438v-150.495c0-27.93 0-48.097-1.536-66.716v-3.103h40.243l1.536 32.581c12.39-23.273 34.048-37.235 57.267-37.235 4.634 0 7.731 0 10.829 1.551h3.098v41.889h-4.634c-3.098 1.551-6.195 0-10.854 0zM2985.496 626.812v3.105h-148.582c3.098 60.508 49.536 66.714 68.096 66.714 27.853 0 44.877-4.654 57.267-10.86l3.098-1.551 9.293 34.132-3.098 1.551c-13.926 6.205-37.146 13.965-72.755 13.965-64.998 0-108.314-43.443-108.314-111.711 0-69.816 41.779-119.465 103.68-119.465 66.56 0 91.315 55.854 91.315 103.951 1.536 9.308 1.536 15.514 0 20.168z"></path>
<path d="M1677.737 541.477c-26.309 0-47.977 18.616-55.713 44.992 0 1.554 0 3.105 0 3.105-1.549 4.654-1.549 7.757-1.549 10.86v37.235c0 6.208 0 10.862 1.549 15.516 6.19 24.824 27.855 43.443 54.167 43.443 37.143 0 60.357-29.478 60.357-79.127 0-37.238-18.573-76.024-58.811-76.024z"></path>
<path d="M1340.342 345.99c43.333 0 68.096-21.722 68.096-60.511 0-34.132-21.668-55.853-65.001-55.853-10.834 0-18.57 1.551-24.763 1.551v113.261c6.193 1.551 13.929 1.551 21.668 1.551z"></path>
<path d="M2545.957 539.925c-41.787 0-60.357 40.34-61.906 79.127 0 46.546 24.763 79.127 60.357 79.127 35.584 0 60.365-32.581 60.365-79.127 1.536-38.787-17.024-79.127-58.816-79.127z"></path>
<path d="M1425.477 474.776c-3.095 15.516-7.736 29.478-10.831 41.892l-27.858 80.678h78.93l-27.858-80.678c-4.644-13.965-9.285-27.927-12.383-41.892z"></path>
</svg>
