<!-- Generated by IcoMoon.io -->
<svg version="1.1" xmlns="http://www.w3.org/2000/svg" width="1024" height="1024" viewBox="0 0 1024 1024">
<title></title>
<g id="icomoon-ignore">
</g>
<path d="M1007.632 472.214l-369.802-369.812c-10.558-10.556-24.627-16.351-39.629-16.351-15.017 0-29.077 5.803-39.634 16.351l-33.577 33.584c-10.547 10.54-16.357 24.618-16.357 39.627 0 15.003 5.81 29.555 16.357 40.095l215.741 216.212h-685.411c-30.903 0-55.321 24.193-55.321 55.104v47.479c0 30.911 24.418 57.543 55.321 57.543h687.858l-218.179 217.422c-10.547 10.552-16.359 24.248-16.359 39.26 0 14.991 5.811 28.887 16.359 39.434l33.577 33.475c10.552 10.558 24.617 16.312 39.634 16.312 15.002 0 29.072-5.832 39.629-16.384l369.802-369.805c10.583-10.589 16.399-24.726 16.358-39.753 0.031-15.076-5.776-29.22-16.368-39.794z"></path>
</svg>
