<!-- Generated by IcoMoon.io -->
<svg version="1.1" xmlns="http://www.w3.org/2000/svg" width="3405" height="1024" viewBox="0 0 3405 1024">
<title></title>
<g id="icomoon-ignore">
</g>
<path d="M2516.571 462.35h-69.645v113.262h69.645c30.953 0 55.716-26.376 55.716-57.405 0-31.032-24.763-55.857-55.716-55.857z"></path>
<path d="M1858.819 570.95c-30.953 0-61.906 26.376-61.906 69.819 0 41.892 29.404 68.268 61.906 68.268 29.404 0 60.357-24.824 60.357-68.268-1.549-43.443-30.953-69.819-60.357-69.819z"></path>
<path d="M1612.726 570.95c-35.597 0-63.452 29.481-65.001 68.268 0 40.34 27.858 69.819 63.452 69.819 32.502 0 63.455-26.376 63.455-68.268 0-43.443-29.407-69.819-61.906-69.819z"></path>
<path d="M2180.723 569.401c-32.499 0-63.452 34.132-58.808 66.714l100.595-41.889c-6.19-12.413-21.668-24.824-41.787-24.824z"></path>
<path d="M1626.678 274.615c29.404 0 55.713-24.824 55.713-57.406s-24.76-57.406-55.713-58.958c-30.953 0-55.716 26.376-55.716 58.958s26.309 57.406 55.716 57.406z"></path>
<path d="M3267.173 0.001h-3129.335c-75.834 0-137.74 63.612-137.74 139.636v744.729c0 77.576 61.905 139.635 137.74 139.635h3129.335c75.827 0 137.728-63.611 137.728-139.635v-744.729c0-76.024-61.901-139.636-137.728-139.636zM1626.665 136.534c44.882 0 78.93 38.788 78.93 80.679 0 40.339-32.499 79.128-78.93 80.68-47.977 0-78.93-40.34-78.93-80.68 0-41.891 34.048-80.679 78.93-80.679zM1352.735 141.189h23.214v152.047h-23.214v-152.047zM1081.896 141.189h86.669v23.273h-63.455v41.891h55.716v23.273h-55.716v41.892h63.455v23.273h-86.669c0-52.753 0-102.401 0-153.601zM984.396 136.534c35.594 0 54.167 21.721 54.167 21.721l-15.475 15.515c0 0-13.929-15.515-38.692-15.515-30.953 0-57.262 24.824-57.262 58.958s26.309 57.407 57.262 57.407c23.214 0 49.523-12.413 51.072-43.443h-51.072v-21.721h72.74c0 0 1.546 4.655 1.546 15.515 0 43.441-30.953 72.922-72.74 72.922-47.974 0-80.476-40.34-80.476-80.68-1.546-41.891 34.048-80.679 78.93-80.679zM623.797 502.693l-66.55 68.265-77.381-76.024-156.311-159.805c38.692 21.722 252.265 141.189 300.242 167.565zM291.056 812.996c0-12.413 0-110.159-1.549-212.559 0-111.708-1.549-229.624-1.549-246.689 0-10.862 3.098-17.068 9.288-20.17l247.621 249.795-7.739 9.308-238.336 242.038c-6.19-4.657-7.736-13.965-7.736-21.722zM334.389 822.304l221.312-229.624 66.547 68.268c-102.144 57.405-239.882 133.43-287.859 161.357zM742.965 594.231c-3.095 1.551-18.573 10.862-44.882 24.824l-61.906 34.135-71.191-71.37 69.645-71.37c37.143 20.17 68.096 38.787 88.215 48.097l18.57 10.86c4.644 3.103 10.834 7.759 10.834 12.413 1.549 4.654-3.095 9.308-9.285 12.411zM1071.062 752.485c-105.239 0-177.976-86.884-177.976-176.873 0-91.538 75.832-175.319 174.881-175.319 77.384 0 120.717 48.097 120.717 48.097l-32.502 35.684c0 0-30.95-34.132-85.12-34.132-69.642 0-125.358 55.854-125.358 128.776 0 74.473 58.811 127.224 125.358 127.224 52.621 0 106.788-29.481 112.978-96.195h-112.978v-48.097h159.409c0 0 3.095 12.411 3.095 31.030-1.549 96.195-69.645 159.805-162.504 159.805zM1250.591 293.236h-21.668v-130.326h-37.143v-21.721c32.499 0 63.452 0 95.954 0v23.273h-37.143v128.775zM1366.664 754.036c-68.096 0-112.978-52.751-112.978-114.811 0-60.508 46.428-113.26 112.978-113.26 54.167 0 112.975 38.787 111.429 113.26 0 66.716-51.072 114.811-111.429 114.811zM1490.473 164.462h-37.143v130.329h-21.665v-130.329h-37.146v-23.273c32.502 0 63.455 0 95.954 0v23.273zM1612.736 754.036c-68.096 0-112.975-52.751-112.975-114.811 0-60.508 46.428-113.26 112.975-113.26 54.167 0 111.432 38.787 111.432 113.26 0 66.716-49.526 114.811-111.432 114.811zM1728.809 141.189h21.668l71.191 110.158v-110.158h23.214v152.047h-23.214l-71.191-110.156v110.156h-21.668v-152.047zM1960.955 736.971c0 80.678-44.882 117.914-105.239 117.914-54.167 0-85.12-34.132-100.595-66.714l43.333-18.619c6.19 13.965 23.214 40.34 57.262 40.34 35.597 0 58.811-23.273 58.811-62.062v-21.722c-12.383 13.965-29.407 27.927-61.906 27.927-51.072 0-106.788-44.992-106.788-113.26 0-60.508 47.977-113.26 106.788-113.26 26.309 0 46.428 10.86 60.357 26.376v-18.619h46.431v201.697h1.546zM2047.624 746.279h-49.526v-333.576h49.526v333.576zM2185.362 709.044c27.858 0 44.882-15.516 54.167-31.032l38.692 26.378c-17.024 23.27-46.428 49.646-94.405 49.646-57.262 0-109.883-41.889-109.883-113.26 0-68.268 47.977-113.26 103.69-113.26 44.882 0 78.93 31.030 92.859 66.714l7.739 18.619-150.121 63.611c10.834 15.516 26.309 32.584 57.262 32.584zM2516.558 625.261h-69.645v121.019h-49.523v-333.576h119.168c57.265 0 105.239 48.097 105.239 107.054 0 57.408-47.974 105.503-105.239 105.503zM2706.917 746.279h-49.536v-333.576h49.536v333.576zM2957.643 626.812v119.468h-49.536v-26.376c-10.829 13.965-24.755 24.824-43.341 29.478-30.95 9.311-69.632 4.654-92.851-20.17-15.462-17.065-20.122-43.441-17.024-65.162 4.634-40.34 37.146-65.165 75.827-68.268 24.781-3.103 51.072 1.551 75.853 9.311-6.195-54.303-86.682-66.716-116.070-15.516l-40.243-26.376c60.339-89.989 215.117-60.508 207.386 63.611zM3070.616 854.885h-54.17l51.072-117.914-91.315-211.005h54.17l64.998 148.943 64.998-148.943h54.17l-143.923 328.919z"></path>
<path d="M1366.651 570.95c-35.597 0-63.452 29.481-65.001 68.268 0 40.34 27.858 69.819 63.452 69.819 32.502 0 63.455-26.376 63.455-68.268 0-43.443-30.953-69.819-61.906-69.819z"></path>
<path d="M2853.938 704.39c26.317-7.757 47.974-27.927 54.17-55.854-13.926-4.654-26.317-7.757-41.779-9.308-83.584-12.413-69.658 82.23-12.39 65.162z"></path>
</svg>
