<svg width="26" height="24" viewBox="0 0 26 24" fill="none" xmlns="http://www.w3.org/2000/svg">
<path d="M5.86914 8.28514C5.23281 8.28514 4.7166 7.76893 4.7166 7.1326C4.7166 6.49627 5.23281 5.98006 5.86914 5.98006H11.0359V1.52108C11.0359 0.608186 10.0293 0.0544751 9.2582 0.542561L1.52676 5.43631C1.1916 5.64842 0.988281 6.01815 0.988281 6.41483V22.4801C0.988281 23.1199 1.50684 23.6385 2.14668 23.6385H9.87813C10.518 23.6385 11.0365 23.1199 11.0365 22.4801V21.3762H5.86914C5.23281 21.3762 4.7166 20.8599 4.7166 20.2236C4.7166 19.5873 5.23281 19.0711 5.86914 19.0711H11.0359V18.1031H5.86914C5.23281 18.1031 4.7166 17.5869 4.7166 16.9506C4.7166 16.3142 5.23281 15.798 5.86914 15.798H11.0359V14.8301H5.86914C5.23281 14.8301 4.7166 14.3139 4.7166 13.6775C4.7166 13.0412 5.23281 12.525 5.86914 12.525H11.0359V11.557H5.86914C5.23281 11.557 4.7166 11.0408 4.7166 10.4045C4.7166 9.76815 5.23281 9.25194 5.86914 9.25194H11.0359V8.28514H5.86914Z" fill="#59ACEA"/>
<path d="M11.1081 8.28506C11.7444 8.28506 12.2606 7.76885 12.2606 7.13252C12.2606 6.49619 11.7444 5.97998 11.1081 5.97998H11.0354V8.28506H11.1081Z" fill="#EB5B58"/>
<path d="M4.71655 7.13252C4.71655 7.76885 5.23276 8.28506 5.86909 8.28506H11.0359V5.97998H5.86909C5.23276 5.97998 4.71655 6.49619 4.71655 7.13252Z" fill="#59ACEA"/>
<path d="M4.71655 7.13252C4.71655 7.76885 5.23276 8.28506 5.86909 8.28506H11.0359V5.97998H5.86909C5.23276 5.97998 4.71655 6.49619 4.71655 7.13252Z" fill="#222349"/>
<path d="M11.1081 11.5583C11.7444 11.5583 12.2606 11.042 12.2606 10.4057C12.2606 9.76939 11.7444 9.25317 11.1081 9.25317H11.0354V11.5583H11.1081Z" fill="#EB5B58"/>
<path d="M4.71655 10.4057C4.71655 11.042 5.23276 11.5583 5.86909 11.5583H11.0359V9.25317H5.86909C5.23276 9.25317 4.71655 9.76939 4.71655 10.4057Z" fill="#59ACEA"/>
<path d="M4.71655 10.4057C4.71655 11.042 5.23276 11.5583 5.86909 11.5583H11.0359V9.25317H5.86909C5.23276 9.25317 4.71655 9.76939 4.71655 10.4057Z" fill="#222349"/>
<path d="M11.1081 14.8312C11.7444 14.8312 12.2606 14.315 12.2606 13.6787C12.2606 13.0423 11.7444 12.5261 11.1081 12.5261H11.0354V14.8312H11.1081V14.8312Z" fill="#EB5B58"/>
<path d="M4.71655 13.6787C4.71655 14.315 5.23276 14.8312 5.86909 14.8312H11.0359V12.5261H5.86909C5.23276 12.5261 4.71655 13.0423 4.71655 13.6787Z" fill="#59ACEA"/>
<path d="M4.71655 13.6787C4.71655 14.315 5.23276 14.8312 5.86909 14.8312H11.0359V12.5261H5.86909C5.23276 12.5261 4.71655 13.0423 4.71655 13.6787Z" fill="#222349"/>
<path d="M11.1081 18.1037C11.7444 18.1037 12.2606 17.5875 12.2606 16.9511C12.2606 16.3148 11.7444 15.7986 11.1081 15.7986H11.0354V18.1037H11.1081V18.1037Z" fill="#EB5B58"/>
<path d="M4.71655 16.9511C4.71655 17.5875 5.23276 18.1037 5.86909 18.1037H11.0359V15.7986H5.86909C5.23276 15.7992 4.71655 16.3148 4.71655 16.9511Z" fill="#59ACEA"/>
<path d="M4.71655 16.9511C4.71655 17.5875 5.23276 18.1037 5.86909 18.1037H11.0359V15.7986H5.86909C5.23276 15.7992 4.71655 16.3148 4.71655 16.9511Z" fill="#222349"/>
<path d="M11.1081 21.3769C11.7444 21.3769 12.2606 20.8606 12.2606 20.2243C12.2606 19.588 11.7444 19.0718 11.1081 19.0718H11.0354V21.3769H11.1081Z" fill="#EB5B58"/>
<path d="M4.71655 20.2243C4.71655 20.8606 5.23276 21.3769 5.86909 21.3769H11.0359V19.0718H5.86909C5.23276 19.0718 4.71655 19.588 4.71655 20.2243Z" fill="#59ACEA"/>
<path d="M4.71655 20.2243C4.71655 20.8606 5.23276 21.3769 5.86909 21.3769H11.0359V19.0718H5.86909C5.23276 19.0718 4.71655 19.588 4.71655 20.2243Z" fill="#222349"/>
<path d="M21.6191 11.9588C21.325 11.9588 21.0865 11.7203 21.0865 11.4262V8.56621C21.0865 8.27207 21.325 8.03359 21.6191 8.03359H23.8768V7.43184C23.8768 6.79199 23.3582 6.27344 22.7184 6.27344H14.9875C14.3477 6.27344 13.8291 6.79199 13.8291 7.43184V22.4799C13.8291 23.1197 14.3477 23.6383 14.9875 23.6383H22.7189C23.3588 23.6383 23.8773 23.1197 23.8773 22.4799V21.8787H21.6191C21.325 21.8787 21.0865 21.6402 21.0865 21.3461V18.4861C21.0865 18.192 21.325 17.9535 21.6191 17.9535H23.8768V16.9188H21.6191C21.325 16.9188 21.0865 16.6803 21.0865 16.3861V13.5262C21.0865 13.232 21.325 12.9936 21.6191 12.9936H23.8768V11.9588H21.6191ZM20.0711 21.3461C20.0711 21.6402 19.8326 21.8787 19.5385 21.8787H16.6785C16.3844 21.8787 16.1459 21.6402 16.1459 21.3461V18.4861C16.1459 18.192 16.3844 17.9535 16.6785 17.9535H19.5385C19.8326 17.9535 20.0711 18.192 20.0711 18.4861V21.3461ZM20.0711 16.3861C20.0711 16.6803 19.8326 16.9188 19.5385 16.9188H16.6785C16.3844 16.9188 16.1459 16.6803 16.1459 16.3861V13.5262C16.1459 13.232 16.3844 12.9936 16.6785 12.9936H19.5385C19.8326 12.9936 20.0711 13.232 20.0711 13.5262V16.3861ZM20.0711 11.4262C20.0711 11.7203 19.8326 11.9588 19.5385 11.9588H16.6785C16.3844 11.9588 16.1459 11.7203 16.1459 11.4262V8.56621C16.1459 8.27207 16.3844 8.03359 16.6785 8.03359H19.5385C19.8326 8.03359 20.0711 8.27207 20.0711 8.56621V11.4262Z" fill="#59ACEA"/>
<path d="M19.5386 8.03369H16.6786C16.3845 8.03369 16.146 8.27217 16.146 8.56631V11.4263C16.146 11.7204 16.3845 11.9589 16.6786 11.9589H19.5386C19.8327 11.9589 20.0712 11.7204 20.0712 11.4263V8.56631C20.0712 8.27217 19.8327 8.03369 19.5386 8.03369Z" fill="#59ACEA"/>
<path d="M19.5386 8.03369H16.6786C16.3845 8.03369 16.146 8.27217 16.146 8.56631V11.4263C16.146 11.7204 16.3845 11.9589 16.6786 11.9589H19.5386C19.8327 11.9589 20.0712 11.7204 20.0712 11.4263V8.56631C20.0712 8.27217 19.8327 8.03369 19.5386 8.03369Z" fill="#222349"/>
<path d="M24.4791 11.9589C24.7732 11.9589 25.0117 11.7204 25.0117 11.4263V8.56631C25.0117 8.27217 24.7732 8.03369 24.4791 8.03369H23.8767V11.9589H24.4791Z" fill="#EB5B58"/>
<path d="M21.0872 8.56631V11.4263C21.0872 11.7204 21.3256 11.9589 21.6198 11.9589H23.8774V8.03369H21.6192C21.325 8.03369 21.0872 8.27217 21.0872 8.56631Z" fill="#59ACEA"/>
<path d="M21.0872 8.56631V11.4263C21.0872 11.7204 21.3256 11.9589 21.6198 11.9589H23.8774V8.03369H21.6192C21.325 8.03369 21.0872 8.27217 21.0872 8.56631Z" fill="#222349"/>
<path d="M19.5386 12.9937H16.6786C16.3845 12.9937 16.146 13.2321 16.146 13.5263V16.3862C16.146 16.6804 16.3845 16.9188 16.6786 16.9188H19.5386C19.8327 16.9188 20.0712 16.6804 20.0712 16.3862V13.5263C20.0712 13.2321 19.8327 12.9937 19.5386 12.9937Z" fill="#59ACEA"/>
<path d="M19.5386 12.9937H16.6786C16.3845 12.9937 16.146 13.2321 16.146 13.5263V16.3862C16.146 16.6804 16.3845 16.9188 16.6786 16.9188H19.5386C19.8327 16.9188 20.0712 16.6804 20.0712 16.3862V13.5263C20.0712 13.2321 19.8327 12.9937 19.5386 12.9937Z" fill="#222349"/>
<path d="M24.4791 16.9188C24.7732 16.9188 25.0117 16.6804 25.0117 16.3862V13.5263C25.0117 13.2321 24.7732 12.9937 24.4791 12.9937H23.8767V16.9188H24.4791V16.9188Z" fill="#EB5B58"/>
<path d="M21.0872 13.5263V16.3862C21.0872 16.6804 21.3256 16.9188 21.6198 16.9188H23.8774V12.9937H21.6192C21.325 12.9937 21.0872 13.2321 21.0872 13.5263Z" fill="#59ACEA"/>
<path d="M21.0872 13.5263V16.3862C21.0872 16.6804 21.3256 16.9188 21.6198 16.9188H23.8774V12.9937H21.6192C21.325 12.9937 21.0872 13.2321 21.0872 13.5263Z" fill="#222349"/>
<path d="M19.5386 17.9536H16.6786C16.3845 17.9536 16.146 18.1921 16.146 18.4862V21.3462C16.146 21.6403 16.3845 21.8788 16.6786 21.8788H19.5386C19.8327 21.8788 20.0712 21.6403 20.0712 21.3462V18.4862C20.0712 18.1921 19.8327 17.9536 19.5386 17.9536Z" fill="#59ACEA"/>
<path d="M19.5386 17.9536H16.6786C16.3845 17.9536 16.146 18.1921 16.146 18.4862V21.3462C16.146 21.6403 16.3845 21.8788 16.6786 21.8788H19.5386C19.8327 21.8788 20.0712 21.6403 20.0712 21.3462V18.4862C20.0712 18.1921 19.8327 17.9536 19.5386 17.9536Z" fill="#222349"/>
<path d="M24.4791 21.8788C24.7732 21.8788 25.0117 21.6403 25.0117 21.3462V18.4862C25.0117 18.1921 24.7732 17.9536 24.4791 17.9536H23.8767V21.8782H24.4791V21.8788Z" fill="#EB5B58"/>
<path d="M21.0872 18.4864V21.3463C21.0872 21.6405 21.3256 21.879 21.6198 21.879H23.8774V17.9543H21.6192C21.325 17.9538 21.0872 18.1922 21.0872 18.4864Z" fill="#59ACEA"/>
<path d="M21.0872 18.4864V21.3463C21.0872 21.6405 21.3256 21.879 21.6198 21.879H23.8774V17.9543H21.6192C21.325 17.9538 21.0872 18.1922 21.0872 18.4864Z" fill="#222349"/>
</svg>
