<svg width="21" height="23" viewBox="0 0 21 23" fill="none" xmlns="http://www.w3.org/2000/svg">
<path d="M13.2342 13.0442C13.1473 12.9852 13.056 12.925 12.9542 12.8627C12.9499 12.8599 12.9455 12.8578 12.9411 12.855C12.9274 12.8468 12.9132 12.8392 12.8996 12.831C12.7065 12.7139 12.5151 12.6106 12.3242 12.5132C13.6395 11.4517 14.4811 9.82643 14.4811 8.00478C14.4811 4.80611 11.8884 2.21338 8.68971 2.21338C8.68752 2.21338 8.68478 2.21338 8.6826 2.21338C8.68041 2.21338 8.67822 2.21338 8.67603 2.21338C5.48502 2.21338 2.8983 4.8001 2.8983 7.99111C2.8983 7.99385 2.8983 7.99713 2.8983 7.99986C2.8983 8.0015 2.8983 8.00314 2.8983 8.00478C2.8983 9.81877 3.73229 11.4375 5.03822 12.4996C4.57611 12.7265 4.31471 12.9086 4.31471 12.9086L4.31853 12.9113C1.91775 14.3988 0.311035 17.0687 0.311035 20.1274C0.311035 20.9832 1.89971 21.5744 4.09541 21.9031C9.03041 22.6419 17.0416 22.0507 17.0416 20.1274C17.041 17.1556 15.5224 14.5542 13.2342 13.0442Z" fill="#59ACEA"/>
<path d="M18.7938 4.91922V2.42438H16.2989L14.5347 0.660156L12.7705 2.42438H10.2756V2.60047V4.91922L8.51196 6.68344L10.2756 8.44766V10.9425H12.7705L13.5602 11.7316L14.5347 12.7062L16.2989 10.9425H18.7938V8.44766L20.558 6.68344L18.7938 4.91922Z" fill="#EB5B58"/>
<path d="M12.7705 10.9424L13.3163 11.4882C14.0474 10.5191 14.4811 9.31273 14.4811 8.00515C14.4811 5.35664 12.7032 3.12375 10.2762 2.43359V2.60094V4.91969L8.51196 6.6839L10.2762 8.44812V10.943H12.7705V10.9424Z" fill="#222349"/>
</svg>
