<svg width="22" height="22" viewBox="0 0 22 22" fill="none" xmlns="http://www.w3.org/2000/svg">
<path d="M21.6247 9.8102C21.4739 9.56137 21.2565 9.35316 21.0676 9.1277C21.0524 9.13582 21.0366 9.14395 21.0209 9.15258C21.0691 9.05762 21.1235 8.9652 21.1656 8.8677C21.6729 7.69414 20.7929 6.44035 19.5249 6.45609C18.4143 6.4698 17.3037 6.45914 16.1931 6.45863C16.1292 6.45863 16.0652 6.45863 15.9758 6.45863C16.0245 6.21387 16.0723 5.98941 16.1139 5.76344C16.3079 4.70313 16.4968 3.64027 16.4491 2.55609C16.4349 2.22906 16.3785 1.89898 16.2977 1.58109C16.1627 1.04687 15.7869 0.745234 15.2583 0.623867C15.2227 0.615742 15.1887 0.601523 15.1536 0.589844C15.013 0.589844 14.8718 0.589844 14.7306 0.589844C14.4016 0.690391 14.0842 0.819883 13.875 1.10832C13.7429 1.29062 13.619 1.48715 13.5358 1.69484C13.2306 2.45809 12.9309 3.22488 12.6537 3.99879C12.4181 4.65488 12.0331 5.20891 11.5746 5.72129C11.3953 5.92188 11.2069 6.1123 11.0129 6.29613C13.8069 7.50777 15.7615 10.2901 15.7615 13.5294C15.7615 14.8716 15.4253 16.1355 14.8337 17.2415C14.7261 17.2405 14.6189 17.2385 14.5118 17.2354C14.6768 17.24 14.8418 17.2436 15.0079 17.243C16.2977 17.242 17.5881 17.2466 18.8779 17.2415C19.7042 17.238 20.3973 16.6753 20.5674 15.8704C20.6593 15.4352 20.5801 15.0204 20.3496 14.6243C20.8076 14.3744 21.1275 14.0129 21.256 13.5076C21.382 13.0114 21.2997 12.5422 21.0113 12.104C21.3058 11.908 21.546 11.6734 21.678 11.3555C21.7557 11.1681 21.7963 10.9655 21.8537 10.77C21.8537 10.6725 21.8537 10.575 21.8537 10.477C21.7806 10.253 21.744 10.0067 21.6247 9.8102Z" fill="#EB5B58"/>
<path d="M14.8765 9.89771C14.9166 9.9754 14.9562 10.0531 14.9938 10.1323C14.9557 10.0531 14.9166 9.9754 14.8765 9.89771Z" fill="#59ACEA"/>
<path d="M15.0022 10.1504C15.0367 10.223 15.0697 10.2961 15.1022 10.3698C15.0697 10.2961 15.0367 10.223 15.0022 10.1504Z" fill="#59ACEA"/>
<path d="M15.1216 10.415C15.1556 10.4948 15.1891 10.5745 15.2206 10.6557C15.1891 10.5745 15.1561 10.4948 15.1216 10.415Z" fill="#59ACEA"/>
<path d="M15.2288 10.676C15.2577 10.7502 15.2851 10.8248 15.3115 10.9C15.2851 10.8253 15.2577 10.7502 15.2288 10.676Z" fill="#59ACEA"/>
<path d="M14.595 9.40137C14.6412 9.47652 14.6864 9.55269 14.7306 9.62937C14.6864 9.55269 14.6412 9.47652 14.595 9.40137Z" fill="#59ACEA"/>
<path d="M14.2798 8.92871C14.3321 9.00133 14.3834 9.07496 14.4331 9.1491C14.3829 9.07496 14.3321 9.00133 14.2798 8.92871Z" fill="#59ACEA"/>
<path d="M14.4407 9.16138C14.4874 9.23095 14.5326 9.30153 14.5768 9.37263C14.5326 9.30153 14.4874 9.23095 14.4407 9.16138Z" fill="#59ACEA"/>
<path d="M14.7388 9.64526C14.7789 9.71636 14.8185 9.78847 14.8566 9.86058C14.8185 9.78796 14.7794 9.71636 14.7388 9.64526Z" fill="#59ACEA"/>
<path d="M14.1091 8.70117C14.1619 8.76922 14.2132 8.83828 14.264 8.90785C14.2137 8.83777 14.1619 8.76922 14.1091 8.70117Z" fill="#59ACEA"/>
<path d="M15.6274 12.0776C15.6432 12.1629 15.6584 12.2488 15.6716 12.3351C15.6584 12.2488 15.6437 12.1629 15.6274 12.0776Z" fill="#59ACEA"/>
<path d="M15.6741 12.3513C15.6863 12.4326 15.6969 12.5148 15.7066 12.5971C15.6969 12.5148 15.6863 12.4331 15.6741 12.3513Z" fill="#59ACEA"/>
<path d="M15.7397 12.9358C15.7458 13.0211 15.7509 13.1069 15.7545 13.1927C15.7504 13.1069 15.7458 13.0211 15.7397 12.9358Z" fill="#59ACEA"/>
<path d="M15.7144 12.6626C15.724 12.7499 15.7326 12.8378 15.7392 12.9256C15.7321 12.8378 15.7235 12.7499 15.7144 12.6626Z" fill="#59ACEA"/>
<path d="M15.7563 13.2605C15.7594 13.3499 15.7614 13.4392 15.7614 13.5296C15.7614 13.4398 15.7594 13.3499 15.7563 13.2605Z" fill="#59ACEA"/>
<path d="M15.4172 11.2195C15.4406 11.2957 15.4624 11.3723 15.4833 11.449C15.4624 11.3723 15.4406 11.2957 15.4172 11.2195Z" fill="#59ACEA"/>
<path d="M15.499 11.5068C15.5214 11.5901 15.5422 11.6744 15.5615 11.7587C15.5427 11.6739 15.5214 11.5901 15.499 11.5068Z" fill="#59ACEA"/>
<path d="M15.3298 10.9519C15.3583 11.0337 15.3852 11.1154 15.4111 11.1982C15.3857 11.1159 15.3583 11.0337 15.3298 10.9519Z" fill="#59ACEA"/>
<path d="M15.5659 11.7786C15.5837 11.8568 15.5999 11.936 15.6157 12.0152C15.6004 11.936 15.5837 11.8573 15.5659 11.7786Z" fill="#59ACEA"/>
<path d="M13.9314 8.48022C13.9898 8.54979 14.0467 8.62089 14.1025 8.69249C14.0472 8.62089 13.9898 8.5503 13.9314 8.48022Z" fill="#59ACEA"/>
<path d="M14.8337 17.2416C13.1087 17.2253 11.4268 16.945 9.78859 16.3935C9.74238 16.3778 9.71242 16.359 9.69109 16.3341C9.66672 16.3356 9.64285 16.3371 9.61949 16.3371C8.68969 16.3376 7.76039 16.3382 6.83059 16.3371C6.3832 16.3366 6.19633 16.1401 6.19633 15.6714C6.19633 13.1542 6.19633 10.6364 6.19633 8.11921C6.19633 7.64136 6.37965 7.45296 6.84328 7.45245C7.76141 7.45245 8.68004 7.45245 9.59816 7.45245C9.62406 7.45245 9.65047 7.45245 9.67738 7.45245C9.69566 7.41487 9.72359 7.38237 9.76523 7.35038C10.1974 7.01675 10.6178 6.67042 11.0129 6.29565C10.0527 5.87925 8.99387 5.64819 7.88074 5.64819C3.52828 5.64819 0 9.17647 0 13.5289C0 17.8819 3.52828 21.4102 7.88074 21.4102C10.9718 21.4102 13.6464 19.6303 14.9378 17.0405C14.9038 17.108 14.8693 17.175 14.8337 17.2416Z" fill="#59ACEA"/>
<path d="M15.6173 15.0361C15.6061 15.093 15.5945 15.1499 15.5823 15.2068C15.5945 15.1504 15.6061 15.0935 15.6173 15.0361Z" fill="#59ACEA"/>
<path d="M15.5705 15.2595C15.5552 15.3281 15.539 15.3961 15.5217 15.4637C15.539 15.3961 15.5552 15.3281 15.5705 15.2595Z" fill="#59ACEA"/>
<path d="M15.3811 15.9543C15.3608 16.0178 15.3395 16.0808 15.3171 16.1433C15.339 16.0808 15.3603 16.0178 15.3811 15.9543Z" fill="#59ACEA"/>
<path d="M13.7466 8.2666C13.806 8.33262 13.8644 8.39965 13.9213 8.4682C13.8639 8.40016 13.806 8.33262 13.7466 8.2666Z" fill="#59ACEA"/>
<path d="M15.6599 14.7959C15.6503 14.8563 15.6396 14.9168 15.6284 14.9767C15.6396 14.9168 15.6503 14.8563 15.6599 14.7959Z" fill="#59ACEA"/>
<path d="M15.7554 13.8311C15.7534 13.8849 15.7508 13.9382 15.7478 13.9915C15.7508 13.9382 15.7534 13.8844 15.7554 13.8311Z" fill="#59ACEA"/>
<path d="M15.6995 14.5232C15.6898 14.5999 15.6792 14.676 15.667 14.7517C15.6792 14.676 15.6898 14.5999 15.6995 14.5232Z" fill="#59ACEA"/>
<path d="M15.7427 14.0701C15.7391 14.1229 15.735 14.1757 15.7305 14.2285C15.735 14.1757 15.7391 14.1229 15.7427 14.0701Z" fill="#59ACEA"/>
<path d="M15.7245 14.2993C15.7179 14.3669 15.7108 14.4339 15.7021 14.5004C15.7103 14.4339 15.7179 14.3663 15.7245 14.2993Z" fill="#59ACEA"/>
<path d="M15.5193 15.4763C15.4812 15.6271 15.4381 15.7759 15.3914 15.9232C15.4381 15.7759 15.4807 15.6271 15.5193 15.4763Z" fill="#59ACEA"/>
<path d="M12.9341 7.48242C13.0778 7.60277 13.2169 7.7277 13.352 7.8577C13.2169 7.7277 13.0778 7.60227 12.9341 7.48242Z" fill="#59ACEA"/>
<path d="M13.5485 8.05433C13.485 7.98832 13.42 7.92383 13.354 7.86035C13.42 7.92383 13.485 7.98832 13.5485 8.05433Z" fill="#59ACEA"/>
<path d="M15.3065 16.1741C15.2816 16.2441 15.2557 16.3142 15.2288 16.3833C15.2557 16.3142 15.2816 16.2441 15.3065 16.1741Z" fill="#59ACEA"/>
<path d="M13.553 8.05884C13.617 8.12536 13.6799 8.1929 13.7419 8.26145C13.6804 8.1929 13.6175 8.12536 13.553 8.05884Z" fill="#59ACEA"/>
<path d="M11.0134 6.29614C11.7117 6.5988 12.3576 6.99997 12.934 7.48188C12.3576 6.99997 11.7117 6.59931 11.0134 6.29614Z" fill="#59ACEA"/>
<path d="M15.7581 13.7601C15.7601 13.6834 15.7616 13.6067 15.7616 13.5295C15.7616 13.6067 15.7606 13.6834 15.7581 13.7601Z" fill="#59ACEA"/>
<path d="M15.2288 16.3835C15.1714 16.5308 15.1099 16.6755 15.0444 16.8182C15.1099 16.6755 15.1714 16.5308 15.2288 16.3835Z" fill="#59ACEA"/>
<path d="M15.0425 16.822C15.011 16.8901 14.9791 16.9571 14.946 17.0236C14.9791 16.9571 15.011 16.8901 15.0425 16.822Z" fill="#59ACEA"/>
<path d="M15.7614 13.5294C15.7614 10.2901 13.8069 7.50778 11.0129 6.29614C10.6178 6.67091 10.1973 7.01774 9.7652 7.35087C9.72406 7.38286 9.69563 7.41485 9.67734 7.45294C9.65043 7.45294 9.62402 7.45294 9.59813 7.45294C8.68 7.45294 7.76137 7.45294 6.84324 7.45294C6.37961 7.45294 6.19629 7.64134 6.19629 8.1197C6.19629 10.6369 6.19629 13.1547 6.19629 15.6719C6.19629 16.1406 6.38367 16.3376 6.83055 16.3376C7.76035 16.3381 8.68965 16.3381 9.61945 16.3376C9.64332 16.3376 9.66719 16.3361 9.69106 16.3346C9.71238 16.359 9.74234 16.3783 9.78855 16.394C11.4268 16.945 13.1086 17.2253 14.8337 17.242C15.4258 16.135 15.7614 14.8716 15.7614 13.5294Z" fill="#222349"/>
</svg>
