<svg width="26" height="20" viewBox="0 0 26 20" fill="none" xmlns="http://www.w3.org/2000/svg">
<path d="M19.5232 11.1474V7.33525C19.5232 6.87236 19.8982 6.49678 20.3617 6.49678H22.59V3.20908C22.59 1.65049 21.3268 0.387207 19.7682 0.387207H3.81016C2.25156 0.387207 0.988281 1.65049 0.988281 3.20908V14.8464C0.988281 16.405 2.25156 17.6683 3.81016 17.6683H4.26895V14.9618C4.26895 14.4989 4.64395 14.1233 5.10742 14.1233H8.91953C9.38242 14.1233 9.75801 14.4983 9.75801 14.9618V17.6683H11.8967V14.9618C11.8967 14.4989 12.2717 14.1233 12.7352 14.1233H16.5473C17.0102 14.1233 17.3857 14.4983 17.3857 14.9618V17.6683H19.5244V14.9618C19.5244 14.4989 19.8994 14.1233 20.3629 14.1233H22.5912V11.9847H20.3629C19.8988 11.9853 19.5232 11.6103 19.5232 11.1474ZM9.75742 11.1474C9.75742 11.6103 9.38242 11.9858 8.91895 11.9858H5.10742C4.64453 11.9858 4.26895 11.6108 4.26895 11.1474V7.33525C4.26895 6.87236 4.64395 6.49678 5.10742 6.49678H8.91953C9.38242 6.49678 9.75801 6.87178 9.75801 7.33525V11.1474H9.75742ZM17.3846 11.1474C17.3846 11.6103 17.0096 11.9858 16.5461 11.9858H12.734C12.2711 11.9858 11.8955 11.6108 11.8955 11.1474V7.33525C11.8955 6.87236 12.2705 6.49678 12.734 6.49678H16.5461C17.009 6.49678 17.3846 6.87178 17.3846 7.33525V11.1474Z" fill="#59ACEA"/>
<path d="M8.91905 6.49683H5.10752C4.64463 6.49683 4.26904 6.87183 4.26904 7.3353V11.1474C4.26904 11.6103 4.64404 11.9859 5.10752 11.9859H8.91963C9.38252 11.9859 9.75811 11.6109 9.75811 11.1474V7.3353C9.75752 6.87241 9.38194 6.49683 8.91905 6.49683Z" fill="#222349"/>
<path d="M4.26904 18.7744C4.26904 19.2373 4.64404 19.6128 5.10752 19.6128H8.91963C9.38252 19.6128 9.75811 19.2378 9.75811 18.7744V17.6687H4.26963V18.7744H4.26904Z" fill="#EB5B58"/>
<path d="M8.91904 14.1238H5.10752C4.64463 14.1238 4.26904 14.4988 4.26904 14.9623V17.6687H9.75752V14.9623C9.75752 14.4994 9.38193 14.1238 8.91904 14.1238Z" fill="#222349"/>
<path d="M16.5461 6.49683H12.734C12.2711 6.49683 11.8955 6.87183 11.8955 7.3353V11.1474C11.8955 11.6103 12.2705 11.9859 12.734 11.9859H16.5461C17.009 11.9859 17.3846 11.6109 17.3846 11.1474V7.3353C17.3846 6.87241 17.009 6.49683 16.5461 6.49683Z" fill="#222349"/>
<path d="M11.896 18.7744C11.896 19.2373 12.271 19.6128 12.7345 19.6128H16.5466C17.0095 19.6128 17.3851 19.2378 17.3851 18.7744V17.6687H11.8966V18.7744H11.896Z" fill="#EB5B58"/>
<path d="M16.5461 14.1238H12.734C12.2711 14.1238 11.8955 14.4988 11.8955 14.9623V17.6687H17.384V14.9623C17.3846 14.4994 17.009 14.1238 16.5461 14.1238Z" fill="#222349"/>
<path d="M24.1731 6.49683H22.5894V11.9853H24.1731C24.636 11.9853 25.0116 11.6103 25.0116 11.1468V7.33472C25.0116 6.87241 24.6366 6.49683 24.1731 6.49683Z" fill="#EB5B58"/>
<path d="M20.3617 6.49683C19.8988 6.49683 19.5232 6.87183 19.5232 7.3353V11.1474C19.5232 11.6103 19.8982 11.9859 20.3617 11.9859H22.59V6.49741H20.3617V6.49683Z" fill="#222349"/>
<path d="M19.7683 17.6687H19.5239V18.7744C19.5239 19.2373 19.8989 19.6128 20.3624 19.6128H24.1745C24.6374 19.6128 25.013 19.2378 25.013 18.7744V14.9623C25.013 14.4994 24.638 14.1238 24.1745 14.1238H22.5907V14.8462C22.5901 16.4054 21.3269 17.6687 19.7683 17.6687Z" fill="#EB5B58"/>
<path d="M19.5232 14.9622V17.6686H19.7675C21.3261 17.6686 22.5894 16.4053 22.5894 14.8467V14.1243H20.3611C19.8988 14.1237 19.5232 14.4993 19.5232 14.9622Z" fill="#222349"/>
</svg>
