<svg width="20" height="22" viewBox="0 0 20 22" fill="none" xmlns="http://www.w3.org/2000/svg">
<path d="M7.56909 13.532C7.6148 13.497 7.66507 13.4665 7.7194 13.4417C7.66507 13.4665 7.6153 13.497 7.56909 13.532Z" fill="#EB5B58"/>
<path d="M12.8813 9.69451C12.8838 9.69209 12.8856 9.68967 12.888 9.68726C12.8856 9.68967 12.8838 9.69209 12.8813 9.69451Z" fill="#EB5B58"/>
<path d="M7.52494 13.5686C7.48178 13.6062 7.44369 13.6483 7.40967 13.6935C7.44369 13.6483 7.48178 13.6062 7.52494 13.5686Z" fill="#EB5B58"/>
<path d="M19.5016 14.799C19.9983 14.3145 19.724 13.4711 19.0375 13.3715L16.1633 12.9541C15.8906 12.9145 15.6549 12.7434 15.5331 12.4961L14.2478 9.8915C14.0178 9.42482 13.4612 9.30803 13.0676 9.54162C13.1987 9.46393 13.3479 9.42482 13.4972 9.42482V11.5526V15.9583V16.4631C13.4972 17.4554 12.6929 18.2597 11.7006 18.2597H9.69475L9.81358 17.5671C9.82221 17.5163 9.82627 17.465 9.82576 17.4142C9.82627 17.465 9.82272 17.5158 9.81358 17.5671L9.32252 20.4296C9.20522 21.1136 9.92276 21.6347 10.5372 21.3122L13.1078 19.9609C13.3515 19.8329 13.643 19.8329 13.8867 19.9609L16.4573 21.3122C17.0712 21.6352 17.7893 21.1136 17.672 20.4296L17.1809 17.5671C17.1342 17.2954 17.2246 17.0186 17.4216 16.8262L19.5016 14.799Z" fill="#EB5B58"/>
<path d="M7.24204 14.2734C7.24052 14.2546 7.2395 14.2358 7.2395 14.217C7.2395 14.2358 7.24052 14.2546 7.24204 14.2734Z" fill="#EB5B58"/>
<path d="M9.79829 17.2152C9.76021 17.0695 9.68353 16.9344 9.57232 16.8262L7.49231 14.799C7.33692 14.6477 7.2572 14.4613 7.24146 14.2734C7.2572 14.4613 7.33692 14.6477 7.49231 14.799L9.57232 16.8262C9.68353 16.9344 9.76071 17.0695 9.79829 17.2152Z" fill="#EB5B58"/>
<path d="M11.7006 0.589844H2.04151C1.04925 0.589844 0.244873 1.39422 0.244873 2.38648V16.4625C0.244873 17.4548 1.04925 18.2592 2.04151 18.2592H9.69476L9.81359 17.5665C9.86031 17.2948 9.76992 17.0181 9.57288 16.8256L7.49288 14.7984C6.99624 14.314 7.27046 13.4705 7.95702 13.371L10.8312 12.9536C11.1039 12.9139 11.3396 12.7428 11.4614 12.4955L12.7467 9.89094C12.9001 9.57965 13.1987 9.42426 13.4973 9.42426V8.27305V6.08945V3.77027V2.38648C13.4973 1.39422 12.6929 0.589844 11.7006 0.589844Z" fill="#59ACEA"/>
<path d="M13.3881 17.0806C13.3678 17.1354 13.345 17.1892 13.3201 17.2415C13.3455 17.1897 13.3678 17.1359 13.3881 17.0806Z" fill="#59ACEA"/>
<path d="M12.7466 9.89149L11.4614 12.4961C11.3395 12.7429 11.1039 12.9145 10.8312 12.9541L7.95695 13.3715C7.27039 13.4711 6.99617 14.315 7.49281 14.799L9.57281 16.8262C9.76984 17.0186 9.86023 17.2954 9.81351 17.5671L9.69469 18.2597H11.7005C12.6928 18.2597 13.4972 17.4554 13.4972 16.4631V15.9583V11.5525V9.4248C13.1986 9.4248 12.9 9.5802 12.7466 9.89149Z" fill="#222349"/>
</svg>
