<svg width="26" height="18" viewBox="0 0 26 18" fill="none" xmlns="http://www.w3.org/2000/svg">
<path d="M10.4231 11.4068C10.4056 11.3887 10.3875 11.3712 10.3694 11.353C10.3869 11.3712 10.405 11.3887 10.4231 11.4068Z" fill="#59ACEA"/>
<path d="M9.89102 5.1812C9.88926 5.17769 9.8875 5.17417 9.88574 5.17065C9.88691 5.17417 9.88926 5.17769 9.89102 5.1812Z" fill="#59ACEA"/>
<path d="M10.1117 5.74326C10.1111 5.74092 10.11 5.73857 10.1094 5.73682C10.1105 5.73916 10.1111 5.74092 10.1117 5.74326Z" fill="#59ACEA"/>
<path d="M10.0538 5.57105C10.0475 5.55355 10.0407 5.53605 10.0344 5.51855C10.0407 5.53605 10.0475 5.55355 10.0538 5.57105Z" fill="#59ACEA"/>
<path d="M16.3114 4.81177C16.3014 4.82802 16.292 4.84427 16.282 4.86052C16.292 4.84427 16.302 4.82802 16.3114 4.81177Z" fill="#59ACEA"/>
<path d="M9.98561 5.39622C9.97873 5.37935 9.97186 5.36185 9.96436 5.34497C9.97186 5.36185 9.97873 5.37872 9.98561 5.39622Z" fill="#59ACEA"/>
<path d="M16.4175 4.64819C16.4137 4.65382 16.41 4.65882 16.4062 4.66444C16.41 4.65882 16.4137 4.65382 16.4175 4.64819Z" fill="#59ACEA"/>
<path d="M15.7288 11.2544C15.7088 11.2738 15.6882 11.2925 15.6682 11.3125C15.6882 11.2925 15.7088 11.2738 15.7288 11.2544Z" fill="#59ACEA"/>
<path d="M16.5455 4.47119C16.5337 4.48682 16.5212 4.50307 16.5093 4.51869C16.5212 4.50307 16.533 4.48682 16.5455 4.47119Z" fill="#59ACEA"/>
<path d="M16.7913 4.17749C16.7851 4.18374 16.7794 4.18999 16.7732 4.19687C16.7788 4.19062 16.7851 4.18437 16.7913 4.17749Z" fill="#59ACEA"/>
<path d="M16.6594 4.32812C16.6469 4.34312 16.6344 4.35875 16.6226 4.37375C16.6344 4.35875 16.6469 4.34312 16.6594 4.32812Z" fill="#59ACEA"/>
<path d="M10.175 5.97256C10.1706 5.95506 10.1662 5.93756 10.1619 5.91943C10.1669 5.93693 10.1706 5.95506 10.175 5.97256Z" fill="#59ACEA"/>
<path d="M9.4906 4.51918C9.47872 4.50293 9.46685 4.4873 9.45435 4.47168C9.46685 4.48668 9.47872 4.50293 9.4906 4.51918Z" fill="#59ACEA"/>
<path d="M10.2175 6.15936C10.2138 6.14123 10.21 6.12311 10.2063 6.10498C10.21 6.12311 10.2138 6.14123 10.2175 6.15936Z" fill="#59ACEA"/>
<path d="M9.80948 5.02241C9.80073 5.00554 9.79136 4.98866 9.78198 4.97241C9.79073 4.98866 9.80011 5.00554 9.80948 5.02241Z" fill="#59ACEA"/>
<path d="M8.75195 10.1919C8.87383 10.2538 8.99695 10.3194 9.12008 10.3913C8.99695 10.3194 8.87383 10.2531 8.75195 10.1919Z" fill="#59ACEA"/>
<path d="M9.59377 4.66444C9.59002 4.65882 9.58627 4.65382 9.58252 4.64819C9.58627 4.65382 9.59002 4.65882 9.59377 4.66444Z" fill="#59ACEA"/>
<path d="M9.87817 8.78615C9.92505 8.69115 9.96692 8.59303 10.0063 8.49365C9.9663 8.59303 9.92442 8.69053 9.87817 8.78615Z" fill="#59ACEA"/>
<path d="M10.1726 7.97672C10.1995 7.87047 10.222 7.76234 10.2407 7.65234C10.2226 7.76234 10.1995 7.87047 10.1726 7.97672Z" fill="#59ACEA"/>
<path d="M10.2787 6.58308C10.2768 6.56495 10.2756 6.5462 10.2737 6.52808C10.2756 6.54683 10.2768 6.56495 10.2787 6.58308Z" fill="#59ACEA"/>
<path d="M10.2499 6.34244C10.2499 6.34179 10.2499 6.34049 10.2493 6.33984C10.2499 6.34049 10.2499 6.34179 10.2499 6.34244Z" fill="#59ACEA"/>
<path d="M10.2924 6.77926C10.2918 6.76051 10.2906 6.74176 10.2893 6.72363C10.2906 6.74238 10.2918 6.76051 10.2924 6.77926Z" fill="#59ACEA"/>
<path d="M15.7937 6.10498C15.79 6.12311 15.7862 6.14123 15.7825 6.15936C15.7862 6.14123 15.79 6.12311 15.7937 6.10498Z" fill="#59ACEA"/>
<path d="M16.5156 10.6193C16.5325 10.6081 16.5494 10.5962 16.5662 10.585C16.5494 10.5962 16.5325 10.6081 16.5156 10.6193Z" fill="#59ACEA"/>
<path d="M16.3594 10.7288C16.3794 10.7144 16.3988 10.7 16.4188 10.6863C16.3988 10.7 16.3794 10.7144 16.3594 10.7288Z" fill="#59ACEA"/>
<path d="M16.2124 10.8386C16.233 10.823 16.2537 10.8067 16.2743 10.7917C16.2537 10.8074 16.233 10.823 16.2124 10.8386Z" fill="#59ACEA"/>
<path d="M16.7157 10.4874L16.7151 10.4861L16.7157 10.4874Z" fill="#59ACEA"/>
<path d="M15.9326 11.0682C15.9532 11.05 15.9745 11.0325 15.9951 11.0144C15.9739 11.0325 15.9532 11.05 15.9326 11.0682Z" fill="#59ACEA"/>
<path d="M16.0701 10.9517C16.0907 10.9349 16.1113 10.918 16.1326 10.9011C16.1119 10.918 16.0913 10.9349 16.0701 10.9517Z" fill="#59ACEA"/>
<path d="M16.7177 10.4888C16.7164 10.4894 16.7151 10.4907 16.7131 10.4914C16.7144 10.4901 16.7164 10.4894 16.7177 10.4888Z" fill="#59ACEA"/>
<path d="M17.2438 10.188C17.117 10.2499 17.0113 10.3074 16.9282 10.3549C17.0113 10.3074 17.1176 10.2499 17.2438 10.188Z" fill="#59ACEA"/>
<path d="M15.7106 6.72363C15.7094 6.74238 15.7081 6.76051 15.7075 6.77926C15.7081 6.76051 15.7094 6.74238 15.7106 6.72363Z" fill="#59ACEA"/>
<path d="M15.7507 6.33984C15.7507 6.34049 15.7506 6.34179 15.75 6.34244C15.75 6.34179 15.75 6.34049 15.7507 6.33984Z" fill="#59ACEA"/>
<path d="M15.7262 6.52808C15.7243 6.5462 15.7224 6.56495 15.7212 6.58308C15.7231 6.56495 15.7243 6.54683 15.7262 6.52808Z" fill="#59ACEA"/>
<path d="M17.072 3.89941C17.057 3.91316 17.042 3.92691 17.0264 3.94129C17.042 3.92754 17.057 3.91316 17.072 3.89941Z" fill="#59ACEA"/>
<path d="M15.8898 5.73682C15.8892 5.73916 15.888 5.7415 15.8875 5.74326C15.8886 5.74092 15.8892 5.73916 15.8898 5.73682Z" fill="#59ACEA"/>
<path d="M15.8381 5.91943C15.8337 5.93693 15.8293 5.95443 15.825 5.97256C15.8293 5.95506 15.8331 5.93693 15.8381 5.91943Z" fill="#59ACEA"/>
<path d="M15.9657 5.51855C15.9594 5.53605 15.9525 5.55355 15.9463 5.57105C15.9525 5.55355 15.9594 5.53605 15.9657 5.51855Z" fill="#59ACEA"/>
<path d="M16.0357 5.34497C16.0282 5.36185 16.0213 5.37872 16.0144 5.3956C16.0213 5.37872 16.0282 5.36185 16.0357 5.34497Z" fill="#59ACEA"/>
<path d="M15.7988 11.1882C15.8195 11.1694 15.8401 11.1507 15.8607 11.1326C15.8395 11.1513 15.8188 11.1694 15.7988 11.1882Z" fill="#59ACEA"/>
<path d="M16.1146 5.17065C16.1129 5.17417 16.1111 5.17769 16.1094 5.1812C16.1105 5.17769 16.1129 5.17417 16.1146 5.17065Z" fill="#59ACEA"/>
<path d="M16.895 4.06865C16.9094 4.05365 16.9244 4.03928 16.9394 4.0249C16.9244 4.03928 16.91 4.05365 16.895 4.06865Z" fill="#59ACEA"/>
<path d="M16.2187 4.97168C16.2093 4.98855 16.1999 5.0048 16.1912 5.02168C16.1999 5.00543 16.2093 4.98855 16.2187 4.97168Z" fill="#59ACEA"/>
<path d="M9.42758 10.5843C9.42695 10.5843 9.42695 10.5837 9.42633 10.5837C9.39508 10.5624 9.3632 10.5412 9.33008 10.5193C9.3632 10.5412 9.39508 10.5624 9.42633 10.5837C9.42633 10.5837 9.42695 10.5843 9.42758 10.5843Z" fill="#59ACEA"/>
<path d="M17.2276 3.76685C17.2182 3.77435 17.2088 3.78185 17.1995 3.78935C17.2088 3.78122 17.2188 3.77435 17.2276 3.76685Z" fill="#59ACEA"/>
<path d="M9.71761 4.86052C9.70761 4.84427 9.69823 4.82802 9.68823 4.81177C9.69823 4.82802 9.70823 4.84427 9.71761 4.86052Z" fill="#59ACEA"/>
<path d="M23.0913 10.5837C23.0288 10.5412 22.9638 10.4981 22.8913 10.4537C22.8882 10.4518 22.885 10.45 22.8819 10.4481C22.8719 10.4425 22.8619 10.4368 22.8519 10.4306C22.7057 10.3418 22.5613 10.2643 22.4169 10.1912C23.3588 9.43433 23.9625 8.27308 23.9625 6.97058C23.9625 4.68933 22.1132 2.84058 19.8325 2.84058C19.26 2.84058 18.7144 2.95745 18.2188 3.16808C18.2188 3.16808 18.2194 3.16808 18.2194 3.16745C19.3644 4.42308 20.0632 6.09245 20.0632 7.92558C20.0632 11.5231 17.3732 14.4925 13.895 14.9325C13.9563 14.405 14.085 13.8987 14.2719 13.4218C14.0019 14.11 13.8525 14.86 13.8525 15.6456C13.8525 16.2575 14.9882 16.68 16.5575 16.915C20.0857 17.4431 25.8125 17.0206 25.8125 15.6456C25.8125 13.5225 24.7269 11.6631 23.0913 10.5837Z" fill="#59ACEA"/>
<path d="M15.4795 11.5069C15.5195 11.4644 15.5601 11.4219 15.6007 11.3806C15.5601 11.4219 15.5195 11.4637 15.4795 11.5069Z" fill="#59ACEA"/>
<path d="M15.3586 11.6399C15.3818 11.6136 15.4043 11.5874 15.428 11.5618C15.4043 11.5874 15.3818 11.6136 15.3586 11.6399Z" fill="#59ACEA"/>
<path d="M15.2424 11.7762C15.2649 11.7487 15.2881 11.7212 15.3112 11.6943C15.2881 11.7212 15.2649 11.7487 15.2424 11.7762Z" fill="#59ACEA"/>
<path d="M12.0824 14.7599C12.0743 14.7049 12.0655 14.6506 12.0562 14.5962C12.0655 14.6499 12.0743 14.7049 12.0824 14.7599Z" fill="#59ACEA"/>
<path d="M11.677 13.2981C11.6582 13.2538 11.6395 13.21 11.6201 13.1663C11.6395 13.2094 11.6582 13.2538 11.677 13.2981Z" fill="#59ACEA"/>
<path d="M12.0556 14.5924C11.9881 14.2049 11.8837 13.8305 11.7468 13.4724C11.8837 13.8299 11.9881 14.2049 12.0556 14.5924Z" fill="#59ACEA"/>
<path d="M11.6093 13.1431C11.5893 13.0987 11.5693 13.055 11.5481 13.0112C11.5693 13.055 11.5893 13.0987 11.6093 13.1431Z" fill="#59ACEA"/>
<path d="M11.5405 12.9969C11.4487 12.8081 11.348 12.6244 11.238 12.4475C11.348 12.6244 11.4493 12.8075 11.5405 12.9969Z" fill="#59ACEA"/>
<path d="M15.1306 11.9161C15.1531 11.8873 15.1756 11.8586 15.1987 11.8298C15.1756 11.858 15.1531 11.8867 15.1306 11.9161Z" fill="#59ACEA"/>
<path d="M11.7413 13.4574C11.7238 13.4112 11.705 13.3656 11.6863 13.3206C11.705 13.3656 11.7232 13.4112 11.7413 13.4574Z" fill="#59ACEA"/>
<path d="M14.8188 12.3542C14.8426 12.318 14.8663 12.2817 14.8907 12.2461C14.867 12.2817 14.8426 12.318 14.8188 12.3542Z" fill="#59ACEA"/>
<path d="M17.7187 3.4231C17.7069 3.42997 17.695 3.43685 17.6831 3.44435C17.695 3.43685 17.7069 3.42997 17.7187 3.4231Z" fill="#59ACEA"/>
<path d="M17.5418 3.53418C17.5243 3.54605 17.5068 3.55793 17.4893 3.57043C17.5068 3.55793 17.5243 3.54605 17.5418 3.53418Z" fill="#59ACEA"/>
<path d="M18.0624 3.23877C18.043 3.24814 18.0237 3.25814 18.0037 3.26752C18.0237 3.25814 18.043 3.24814 18.0624 3.23877Z" fill="#59ACEA"/>
<path d="M17.3931 3.63867C17.3756 3.6518 17.3581 3.6643 17.3406 3.67742C17.3581 3.6643 17.3756 3.6518 17.3931 3.63867Z" fill="#59ACEA"/>
<path d="M9.57007 10.6819C9.58569 10.6931 9.60132 10.7044 9.61694 10.7156C9.60132 10.7044 9.58569 10.6925 9.57007 10.6819Z" fill="#59ACEA"/>
<path d="M17.8993 3.32129C17.8793 3.33191 17.86 3.34191 17.8406 3.35316C17.86 3.34254 17.8793 3.33191 17.8993 3.32129Z" fill="#59ACEA"/>
<path d="M14.9187 12.2051C14.9412 12.1719 14.9643 12.1394 14.9874 12.1069C14.9643 12.1394 14.9412 12.1719 14.9187 12.2051Z" fill="#59ACEA"/>
<path d="M11.2281 12.4312C11.2063 12.3955 11.1831 12.3612 11.1606 12.3262C11.1831 12.3605 11.2063 12.3955 11.2281 12.4312Z" fill="#59ACEA"/>
<path d="M14.343 13.2494C14.3636 13.2006 14.3849 13.1525 14.4074 13.105C14.3849 13.1525 14.3636 13.2006 14.343 13.2494Z" fill="#59ACEA"/>
<path d="M14.2764 13.4105C14.2957 13.3612 14.3157 13.3124 14.3364 13.2637C14.3157 13.3124 14.2957 13.3618 14.2764 13.4105Z" fill="#59ACEA"/>
<path d="M14.4111 13.0954C14.5261 12.8467 14.6574 12.6067 14.8036 12.3779C14.658 12.6067 14.5268 12.8461 14.4111 13.0954Z" fill="#59ACEA"/>
<path d="M15.0225 12.0588C15.045 12.0282 15.0675 11.9975 15.0906 11.9675C15.0675 11.9975 15.045 12.0282 15.0225 12.0588Z" fill="#59ACEA"/>
<path d="M9.20874 4.17749C9.21499 4.18374 9.22062 4.18999 9.22687 4.19687C9.22124 4.19062 9.21499 4.18437 9.20874 4.17749Z" fill="#59ACEA"/>
<path d="M9.10492 4.06879C9.09055 4.05379 9.07555 4.03941 9.06055 4.02441C9.07555 4.03941 9.08992 4.05379 9.10492 4.06879Z" fill="#59ACEA"/>
<path d="M9.34058 4.32812C9.35308 4.34312 9.36558 4.35875 9.37745 4.37375C9.36558 4.35875 9.35308 4.34312 9.34058 4.32812Z" fill="#59ACEA"/>
<path d="M8.8001 3.78861C8.79072 3.78111 8.78135 3.77361 8.77197 3.76611C8.78135 3.77424 8.79135 3.78111 8.8001 3.78861Z" fill="#59ACEA"/>
<path d="M11.1338 12.2849C11.1126 12.2537 11.0913 12.2224 11.0701 12.1912C11.0913 12.2218 11.1126 12.253 11.1338 12.2849Z" fill="#59ACEA"/>
<path d="M10.2993 11.2842C10.2806 11.2661 10.2618 11.2486 10.2424 11.2305C10.2618 11.248 10.2806 11.2661 10.2993 11.2842Z" fill="#59ACEA"/>
<path d="M9.84814 10.8894C9.86752 10.905 9.88689 10.9207 9.90627 10.9363C9.88689 10.9207 9.86752 10.905 9.84814 10.8894Z" fill="#59ACEA"/>
<path d="M9.71069 10.7837C9.72944 10.7974 9.74757 10.8118 9.76632 10.8262C9.74757 10.8118 9.72882 10.7974 9.71069 10.7837Z" fill="#59ACEA"/>
<path d="M12.1056 14.9334C8.6275 14.4941 5.9375 11.5247 5.9375 7.92655C5.9375 6.09343 6.63625 4.42343 7.78125 3.16843C7.78125 3.16843 7.78187 3.16843 7.78187 3.16905C7.28625 2.95843 6.74063 2.84155 6.16813 2.84155C3.88688 2.84155 2.03813 4.69093 2.03813 6.97155C2.03813 8.27218 2.64 9.43155 3.57937 10.1884C3.24187 10.3534 3.05 10.4866 3.05 10.4866L3.0525 10.4884C1.33625 11.5522 0.1875 13.4609 0.1875 15.6472C0.1875 16.2591 1.32312 16.6816 2.8925 16.9166C6.42062 17.4447 12.1475 17.0222 12.1475 15.6472C12.1475 15.3478 12.125 15.0541 12.0837 14.7672C12.0919 14.8222 12.0988 14.8778 12.1056 14.9334Z" fill="#59ACEA"/>
<path d="M9.98242 10.9993C10.0018 11.0155 10.0212 11.0324 10.0405 11.0486C10.0218 11.0318 10.0024 11.0155 9.98242 10.9993Z" fill="#59ACEA"/>
<path d="M10.1143 11.113C10.1336 11.1305 10.153 11.1474 10.1718 11.1649C10.153 11.1474 10.1336 11.1299 10.1143 11.113Z" fill="#59ACEA"/>
<path d="M8.97311 3.94129C8.95812 3.92754 8.94311 3.91316 8.92749 3.89941C8.94311 3.91316 8.95812 3.92754 8.97311 3.94129Z" fill="#59ACEA"/>
<path d="M10.5956 11.592C10.5649 11.5576 10.5337 11.5238 10.5024 11.4907C10.5337 11.5238 10.5649 11.5576 10.5956 11.592Z" fill="#59ACEA"/>
<path d="M10.825 11.8624C10.8043 11.8368 10.7837 11.8105 10.7625 11.7849C10.7837 11.8112 10.8043 11.8368 10.825 11.8624Z" fill="#59ACEA"/>
<path d="M10.7139 11.7274C10.6932 11.703 10.6726 11.6787 10.6514 11.6543C10.6726 11.6787 10.6932 11.703 10.7139 11.7274Z" fill="#59ACEA"/>
<path d="M11.0349 12.1413C11.0143 12.1119 10.9937 12.0832 10.9724 12.0544C10.993 12.0832 11.0143 12.1119 11.0349 12.1413Z" fill="#59ACEA"/>
<path d="M10.9319 12.0006C10.9113 11.9731 10.8906 11.9462 10.8694 11.9187C10.8906 11.9456 10.9113 11.9731 10.9319 12.0006Z" fill="#59ACEA"/>
<path d="M7.9375 3.23877C7.95688 3.24814 7.97625 3.25814 7.99625 3.26752C7.97625 3.25814 7.95688 3.24814 7.9375 3.23877Z" fill="#59ACEA"/>
<path d="M8.28125 3.4231C8.29312 3.42997 8.305 3.43685 8.31688 3.44435C8.305 3.43685 8.29312 3.42997 8.28125 3.4231Z" fill="#59ACEA"/>
<path d="M8.60693 3.63867C8.62443 3.6518 8.64193 3.6643 8.65943 3.67742C8.64193 3.6643 8.62443 3.6518 8.60693 3.63867Z" fill="#59ACEA"/>
<path d="M8.45801 3.53418C8.47551 3.54605 8.49301 3.55793 8.51051 3.57043C8.49301 3.55793 8.47551 3.54605 8.45801 3.53418Z" fill="#59ACEA"/>
<path d="M8.10059 3.32129C8.12059 3.33191 8.13996 3.34191 8.15934 3.35316C8.13996 3.34254 8.12059 3.33191 8.10059 3.32129Z" fill="#59ACEA"/>
<path d="M11.9364 14.9094C11.9089 14.905 11.882 14.9006 11.8545 14.8962C11.882 14.9006 11.9089 14.9056 11.9364 14.9094Z" fill="#EB5B58"/>
<path d="M11.768 14.8818C11.7405 14.8768 11.713 14.8718 11.6855 14.8662C11.713 14.8718 11.7405 14.8775 11.768 14.8818Z" fill="#EB5B58"/>
<path d="M11.4364 14.815C11.4089 14.8088 11.3814 14.8025 11.3545 14.7957C11.3814 14.8025 11.4089 14.8094 11.4364 14.815Z" fill="#EB5B58"/>
<path d="M11.2719 14.7761C11.245 14.7693 11.2175 14.7624 11.1907 14.7549C11.2175 14.7618 11.245 14.7693 11.2719 14.7761Z" fill="#EB5B58"/>
<path d="M5.94133 7.68994C5.9407 7.70994 5.93945 7.72932 5.93945 7.74932C5.94008 7.72932 5.9407 7.70994 5.94133 7.68994Z" fill="#EB5B58"/>
<path d="M9.512 14.0687C9.48888 14.0556 9.46575 14.0418 9.44263 14.0281C9.46513 14.0418 9.48825 14.0556 9.512 14.0687Z" fill="#EB5B58"/>
<path d="M6.0269 6.80249C6.02253 6.82874 6.01815 6.85562 6.0144 6.88187C6.01815 6.85562 6.02253 6.82874 6.0269 6.80249Z" fill="#EB5B58"/>
<path d="M5.94993 7.50244C5.94868 7.52619 5.94681 7.54994 5.94556 7.57307C5.94681 7.54994 5.94868 7.52619 5.94993 7.50244Z" fill="#EB5B58"/>
<path d="M5.98005 7.14746C5.97692 7.17371 5.97442 7.19934 5.97192 7.22559C5.97442 7.19934 5.97755 7.17371 5.98005 7.14746Z" fill="#EB5B58"/>
<path d="M5.96304 7.323C5.96116 7.348 5.95866 7.373 5.95679 7.39862C5.95866 7.37362 5.96054 7.34862 5.96304 7.323Z" fill="#EB5B58"/>
<path d="M6.00135 6.97437C5.9976 7.00062 5.99447 7.02687 5.99072 7.05312C5.99447 7.02687 5.9976 7.00062 6.00135 6.97437Z" fill="#EB5B58"/>
<path d="M10.3137 14.4598C10.2912 14.4504 10.2681 14.441 10.2456 14.4316C10.2681 14.4416 10.2912 14.4504 10.3137 14.4598Z" fill="#EB5B58"/>
<path d="M10.0988 14.3673C10.077 14.3573 10.0551 14.3473 10.0332 14.3367C10.0551 14.3473 10.0763 14.3573 10.0988 14.3673Z" fill="#EB5B58"/>
<path d="M9.94866 14.298C9.92491 14.2868 9.90179 14.2749 9.87866 14.2637C9.90179 14.2749 9.92554 14.2868 9.94866 14.298Z" fill="#EB5B58"/>
<path d="M9.65559 14.1486C9.63184 14.1361 9.60871 14.123 9.58496 14.1099C9.60809 14.1224 9.63184 14.1355 9.65559 14.1486Z" fill="#EB5B58"/>
<path d="M11.1094 14.7331C11.0826 14.7256 11.0557 14.7181 11.0288 14.71C11.0557 14.7181 11.0826 14.7256 11.1094 14.7331Z" fill="#EB5B58"/>
<path d="M9.80123 14.2249C9.77748 14.213 9.75373 14.2005 9.72998 14.188C9.75373 14.2005 9.77748 14.213 9.80123 14.2249Z" fill="#EB5B58"/>
<path d="M10.9489 14.6862C10.922 14.6781 10.8958 14.67 10.8689 14.6619C10.8951 14.67 10.922 14.6781 10.9489 14.6862Z" fill="#EB5B58"/>
<path d="M10.7888 14.6356C10.7626 14.6269 10.7363 14.6181 10.7107 14.6094C10.7363 14.6188 10.7626 14.6275 10.7888 14.6356Z" fill="#EB5B58"/>
<path d="M10.6306 14.5812C10.605 14.5718 10.5793 14.5631 10.5537 14.5537C10.5793 14.5631 10.605 14.5725 10.6306 14.5812Z" fill="#EB5B58"/>
<path d="M10.4737 14.5236C10.4487 14.5142 10.4237 14.5049 10.3987 14.4949C10.4231 14.5042 10.4487 14.5136 10.4737 14.5236Z" fill="#EB5B58"/>
<path d="M11.6013 14.8505C11.5738 14.8449 11.5463 14.8393 11.5188 14.833C11.5463 14.8393 11.5738 14.8449 11.6013 14.8505Z" fill="#EB5B58"/>
<path d="M7.16947 3.94043C7.15135 3.96668 7.13322 3.99355 7.11572 4.02043C7.13322 3.99355 7.15135 3.96668 7.16947 3.94043Z" fill="#EB5B58"/>
<path d="M6.74433 4.64624C6.72933 4.67437 6.71495 4.70249 6.69995 4.73124C6.71433 4.70249 6.72933 4.67437 6.74433 4.64624Z" fill="#EB5B58"/>
<path d="M6.98932 4.2168C6.97244 4.24367 6.95619 4.27055 6.93994 4.29805C6.95619 4.27055 6.97244 4.24367 6.98932 4.2168Z" fill="#EB5B58"/>
<path d="M6.90443 4.35742C6.88818 4.38492 6.87256 4.41242 6.85693 4.43992C6.87256 4.41242 6.88818 4.38492 6.90443 4.35742Z" fill="#EB5B58"/>
<path d="M6.82262 4.50049C6.80699 4.52799 6.79199 4.55611 6.77637 4.58424C6.79199 4.55611 6.80699 4.52861 6.82262 4.50049Z" fill="#EB5B58"/>
<path d="M7.07751 4.07739C7.06001 4.10427 7.04251 4.13114 7.02563 4.15802C7.04313 4.13114 7.06001 4.10427 7.07751 4.07739Z" fill="#EB5B58"/>
<path d="M7.56503 3.41553C7.54253 3.4424 7.52065 3.4699 7.49878 3.49678C7.52128 3.4699 7.54315 3.4424 7.56503 3.41553Z" fill="#EB5B58"/>
<path d="M7.46191 3.54297C7.44066 3.56984 7.42004 3.59672 7.39941 3.62359C7.42004 3.59672 7.44066 3.56984 7.46191 3.54297Z" fill="#EB5B58"/>
<path d="M7.26366 3.80542C7.24491 3.83167 7.22554 3.85854 7.20679 3.88542C7.22554 3.85854 7.24491 3.83167 7.26366 3.80542Z" fill="#EB5B58"/>
<path d="M7.36138 3.6731C7.34138 3.69935 7.32138 3.72622 7.302 3.7531C7.322 3.72622 7.34138 3.69935 7.36138 3.6731Z" fill="#EB5B58"/>
<path d="M6.16746 6.13184C6.16058 6.15809 6.15371 6.18496 6.14746 6.21184C6.15371 6.18496 6.16058 6.15809 6.16746 6.13184Z" fill="#EB5B58"/>
<path d="M6.21244 5.96802C6.20494 5.99489 6.19744 6.02114 6.18994 6.04802C6.19744 6.02114 6.20494 5.99489 6.21244 5.96802Z" fill="#EB5B58"/>
<path d="M6.26119 5.80615C6.25307 5.8324 6.24494 5.85928 6.23682 5.88615C6.24494 5.85928 6.25244 5.83303 6.26119 5.80615Z" fill="#EB5B58"/>
<path d="M6.31385 5.64624C6.3051 5.67249 6.29635 5.69937 6.2876 5.72624C6.29635 5.69937 6.30447 5.67249 6.31385 5.64624Z" fill="#EB5B58"/>
<path d="M6.08949 6.46362C6.08387 6.4905 6.07824 6.51675 6.07324 6.54362C6.07824 6.51737 6.08387 6.4905 6.08949 6.46362Z" fill="#EB5B58"/>
<path d="M6.05564 6.63184C6.05064 6.65871 6.04564 6.68496 6.04126 6.71184C6.04626 6.68559 6.05126 6.65871 6.05564 6.63184Z" fill="#EB5B58"/>
<path d="M6.53122 5.08789C6.49935 5.16102 6.4681 5.23414 6.43872 5.30851C6.4681 5.23414 6.49935 5.16039 6.53122 5.08789Z" fill="#EB5B58"/>
<path d="M6.59751 4.94165C6.58376 4.97103 6.57001 4.99978 6.55688 5.02915C6.57001 4.99978 6.58376 4.97103 6.59751 4.94165Z" fill="#EB5B58"/>
<path d="M6.37006 5.4873C6.36006 5.51418 6.35068 5.54105 6.34131 5.56855C6.35068 5.54105 6.36006 5.51418 6.37006 5.4873Z" fill="#EB5B58"/>
<path d="M6.66883 4.7937C6.65445 4.82245 6.6407 4.85058 6.62695 4.87933C6.6407 4.85058 6.65508 4.82183 6.66883 4.7937Z" fill="#EB5B58"/>
<path d="M6.42947 5.33057C6.41822 5.35869 6.40822 5.38682 6.39697 5.41494C6.40822 5.38682 6.41822 5.35869 6.42947 5.33057Z" fill="#EB5B58"/>
<path d="M7.96948 12.8835C7.98761 12.9017 8.00511 12.9198 8.02323 12.9379C8.00511 12.9198 7.98761 12.9017 7.96948 12.8835Z" fill="#EB5B58"/>
<path d="M6.26189 10.0479C6.25939 10.0404 6.25689 10.0329 6.25439 10.0254C6.25689 10.0329 6.25939 10.0404 6.26189 10.0479Z" fill="#EB5B58"/>
<path d="M6.38497 10.4062C6.37685 10.3849 6.36872 10.363 6.3606 10.3418C6.36872 10.363 6.37685 10.3849 6.38497 10.4062Z" fill="#EB5B58"/>
<path d="M6.12256 9.53997C6.11693 9.51685 6.11193 9.4931 6.10693 9.46997C6.11193 9.4931 6.11693 9.51622 6.12256 9.53997Z" fill="#EB5B58"/>
<path d="M6.20689 9.86565C6.20189 9.84753 6.19689 9.8294 6.19189 9.81128C6.19689 9.8294 6.20189 9.84753 6.20689 9.86565Z" fill="#EB5B58"/>
<path d="M6.16249 9.70367C6.15687 9.6818 6.15186 9.66055 6.14624 9.63867C6.15186 9.65992 6.15687 9.6818 6.16249 9.70367Z" fill="#EB5B58"/>
<path d="M6.32577 10.2406C6.31952 10.2218 6.31265 10.2031 6.3064 10.1843C6.31265 10.2037 6.3189 10.2218 6.32577 10.2406Z" fill="#EB5B58"/>
<path d="M6.64993 11.0211C6.63931 10.9986 6.62806 10.9761 6.61743 10.9536C6.62806 10.9761 6.63868 10.9986 6.64993 11.0211Z" fill="#EB5B58"/>
<path d="M6.4468 10.5648C6.43742 10.5423 6.42867 10.5198 6.41992 10.4973C6.42867 10.5198 6.43742 10.5423 6.4468 10.5648Z" fill="#EB5B58"/>
<path d="M6.72369 11.1687C6.71244 11.1468 6.70119 11.1243 6.68994 11.1018C6.70119 11.1243 6.71244 11.1468 6.72369 11.1687Z" fill="#EB5B58"/>
<path d="M6.57886 10.8711C6.56823 10.8486 6.55823 10.8255 6.54761 10.803C6.55823 10.8255 6.56886 10.8486 6.57886 10.8711Z" fill="#EB5B58"/>
<path d="M6.51131 10.7192C6.50131 10.6967 6.49193 10.6736 6.48193 10.6511C6.49193 10.6736 6.50131 10.6967 6.51131 10.7192Z" fill="#EB5B58"/>
<path d="M5.93752 7.92188C5.93752 7.92363 5.93752 7.9248 5.93752 7.92656C5.93752 7.92773 5.93752 7.92891 5.93752 7.93008C5.93752 7.92891 5.93752 7.92773 5.93752 7.92656C5.93693 7.9248 5.93752 7.92305 5.93752 7.92188Z" fill="#EB5B58"/>
<path d="M5.94133 8.16181C5.9407 8.14181 5.93945 8.12181 5.93945 8.10181C5.94008 8.12181 5.9407 8.14181 5.94133 8.16181Z" fill="#EB5B58"/>
<path d="M5.96255 8.5237C5.96067 8.49933 5.95817 8.47495 5.9563 8.44995C5.95817 8.47433 5.96067 8.4987 5.96255 8.5237Z" fill="#EB5B58"/>
<path d="M6.0864 9.37415C6.0814 9.34977 6.0764 9.3254 6.07202 9.30103C6.0764 9.32603 6.0814 9.3504 6.0864 9.37415Z" fill="#EB5B58"/>
<path d="M6.80136 11.3143C6.78948 11.2924 6.77823 11.2711 6.76636 11.2493C6.77823 11.2711 6.78948 11.2924 6.80136 11.3143Z" fill="#EB5B58"/>
<path d="M7.67197 3.29053C7.6476 3.31803 7.62385 3.34678 7.6001 3.3749C7.62385 3.34678 7.6476 3.31803 7.67197 3.29053Z" fill="#EB5B58"/>
<path d="M5.94993 8.34612C5.94868 8.323 5.94681 8.29925 5.94556 8.27612C5.94681 8.29987 5.94868 8.323 5.94993 8.34612Z" fill="#EB5B58"/>
<path d="M6.05317 9.20806C6.04879 9.18306 6.04441 9.15806 6.04004 9.13306C6.04441 9.15806 6.04879 9.18306 6.05317 9.20806Z" fill="#EB5B58"/>
<path d="M5.97932 8.69732C5.97682 8.67231 5.97369 8.64731 5.97119 8.62231C5.97369 8.64731 5.97619 8.67231 5.97932 8.69732Z" fill="#EB5B58"/>
<path d="M6.02492 9.03924C6.02117 9.01424 6.0168 8.98925 6.01367 8.96362C6.0168 8.98925 6.02055 9.01424 6.02492 9.03924Z" fill="#EB5B58"/>
<path d="M5.99999 8.86933C5.99686 8.84433 5.99311 8.8187 5.98999 8.7937C5.99311 8.8187 5.99686 8.84433 5.99999 8.86933Z" fill="#EB5B58"/>
<path d="M7.68759 12.5806C7.67071 12.5612 7.65384 12.5418 7.63696 12.5225C7.65384 12.5418 7.67071 12.5612 7.68759 12.5806Z" fill="#EB5B58"/>
<path d="M16.7176 10.4886L16.7151 10.4868C16.7151 10.4868 16.9063 10.3536 17.2445 10.1886C16.3051 9.43175 15.7032 8.27238 15.7032 6.97175C15.7032 5.26301 16.7407 3.79738 18.2201 3.16863C18.2476 3.19863 18.2751 3.22988 18.302 3.26051C17.0076 1.79113 15.1126 0.864258 13.0007 0.864258C10.8888 0.864258 8.99384 1.79176 7.69946 3.26051C7.72634 3.22988 7.75384 3.19926 7.78134 3.16863C9.26071 3.79676 10.2982 5.26301 10.2982 6.97175C10.2982 8.27425 9.69446 9.4355 8.75259 10.1924C8.89696 10.2655 9.04196 10.343 9.18759 10.4318C9.19759 10.4374 9.20759 10.443 9.21759 10.4493C9.22071 10.4511 9.22384 10.453 9.22696 10.4549C9.29946 10.4993 9.36446 10.5424 9.42696 10.5849C10.8763 11.5411 11.8932 13.1111 12.1063 14.9343C12.0807 14.9311 12.0557 14.9274 12.0301 14.9236C12.3476 14.9674 12.6713 14.9905 13.0007 14.9905C13.3038 14.9905 13.6026 14.9711 13.8951 14.9343C14.1145 13.0493 15.1907 11.4343 16.7176 10.4886Z" fill="#EB5B58"/>
<path d="M8.382 13.2704C8.36575 13.256 8.3495 13.2417 8.33325 13.2273C8.35013 13.2417 8.36575 13.256 8.382 13.2704Z" fill="#EB5B58"/>
<path d="M8.26005 13.1624C8.24192 13.1462 8.22442 13.1293 8.2063 13.113C8.22442 13.1293 8.24192 13.1462 8.26005 13.1624Z" fill="#EB5B58"/>
<path d="M8.68874 13.5206C8.66937 13.5056 8.64999 13.4912 8.63062 13.4756C8.64999 13.4912 8.66999 13.5062 8.68874 13.5206Z" fill="#EB5B58"/>
<path d="M8.14056 13.0513C8.12243 13.0338 8.10431 13.0163 8.08618 12.9988C8.10431 13.0169 8.12243 13.0344 8.14056 13.0513Z" fill="#EB5B58"/>
<path d="M8.55179 13.4125C8.53616 13.3994 8.51991 13.3869 8.50366 13.3738C8.51991 13.3869 8.53616 13.3994 8.55179 13.4125Z" fill="#EB5B58"/>
<path d="M6.88182 11.4573C6.86994 11.4367 6.85807 11.4154 6.84619 11.3948C6.85807 11.416 6.86994 11.4367 6.88182 11.4573Z" fill="#EB5B58"/>
<path d="M9.09248 13.81C9.07061 13.7956 9.04873 13.7806 9.02686 13.7656C9.04811 13.7806 9.06998 13.7956 9.09248 13.81Z" fill="#EB5B58"/>
<path d="M8.82262 13.6211C8.80199 13.6061 8.78137 13.5904 8.76074 13.5754C8.78137 13.5911 8.80199 13.6061 8.82262 13.6211Z" fill="#EB5B58"/>
<path d="M8.95622 13.7175C8.93497 13.7025 8.9131 13.6875 8.89185 13.6719C8.91372 13.6875 8.93497 13.7025 8.95622 13.7175Z" fill="#EB5B58"/>
<path d="M9.2301 13.8998C9.2076 13.8854 9.1851 13.8711 9.1626 13.8567C9.1851 13.8711 9.2076 13.8854 9.2301 13.8998Z" fill="#EB5B58"/>
<path d="M7.16633 11.908C7.1582 11.8962 7.15008 11.8849 7.14258 11.873C7.15008 11.8849 7.1582 11.8962 7.16633 11.908Z" fill="#EB5B58"/>
<path d="M7.27448 12.0618C7.26136 12.0437 7.24823 12.0262 7.23511 12.0081C7.24823 12.0256 7.26136 12.0437 7.27448 12.0618Z" fill="#EB5B58"/>
<path d="M7.37505 12.1974C7.36067 12.178 7.34567 12.1593 7.3313 12.1399C7.34567 12.1593 7.36005 12.178 7.37505 12.1974Z" fill="#EB5B58"/>
<path d="M6.9664 11.5986C6.95452 11.5793 6.94327 11.5599 6.9314 11.5405C6.94265 11.5599 6.95452 11.5793 6.9664 11.5986Z" fill="#EB5B58"/>
<path d="M7.05309 11.738C7.04246 11.7217 7.03309 11.7055 7.02246 11.6892C7.03246 11.7055 7.04246 11.7217 7.05309 11.738Z" fill="#EB5B58"/>
<path d="M7.47691 12.3279C7.46129 12.3085 7.44566 12.2892 7.43066 12.2698C7.44566 12.2892 7.46129 12.3085 7.47691 12.3279Z" fill="#EB5B58"/>
<path d="M7.79699 12.7024C7.77949 12.6836 7.76262 12.6643 7.74512 12.6455C7.76262 12.6643 7.77949 12.683 7.79699 12.7024Z" fill="#EB5B58"/>
<path d="M7.9087 12.8213C7.8912 12.8031 7.8737 12.7844 7.8562 12.7656C7.8737 12.7844 7.8912 12.8031 7.9087 12.8213Z" fill="#EB5B58"/>
<path d="M9.37002 13.9855C9.34689 13.9717 9.32439 13.958 9.30127 13.9436C9.32377 13.958 9.34689 13.9717 9.37002 13.9855Z" fill="#EB5B58"/>
<path d="M7.58073 12.4555C7.56448 12.4361 7.54823 12.4167 7.53198 12.3967C7.54823 12.4167 7.56448 12.4361 7.58073 12.4555Z" fill="#EB5B58"/>
<path d="M6.12628 6.29736C6.12003 6.32361 6.11378 6.35049 6.10815 6.37736C6.11378 6.35049 6.12003 6.32361 6.12628 6.29736Z" fill="#EB5B58"/>
<path d="M18.255 12.6448C18.2375 12.6642 18.2206 12.6829 18.2031 12.7017C18.2206 12.6829 18.2375 12.6642 18.255 12.6448Z" fill="#EB5B58"/>
<path d="M17.1775 13.6211C17.1981 13.6061 17.2187 13.5904 17.2394 13.5754C17.2187 13.5911 17.1981 13.6061 17.1775 13.6211Z" fill="#EB5B58"/>
<path d="M18.3125 12.5806C18.3294 12.5612 18.3462 12.5418 18.3631 12.5225C18.3462 12.5418 18.3294 12.5612 18.3125 12.5806Z" fill="#EB5B58"/>
<path d="M17.0432 13.7175C17.0645 13.7025 17.0863 13.6875 17.1076 13.6719C17.0863 13.6875 17.0651 13.7025 17.0432 13.7175Z" fill="#EB5B58"/>
<path d="M18.4194 12.4556C18.4357 12.4362 18.4519 12.4168 18.4682 12.3975C18.4519 12.4168 18.4357 12.4362 18.4194 12.4556Z" fill="#EB5B58"/>
<path d="M16.6301 13.9855C16.6533 13.9717 16.6758 13.958 16.6989 13.9436C16.6764 13.958 16.6533 13.9717 16.6301 13.9855Z" fill="#EB5B58"/>
<path d="M16.488 14.0686C16.5112 14.0554 16.5343 14.0417 16.5574 14.0286C16.5349 14.0417 16.5118 14.0554 16.488 14.0686Z" fill="#EB5B58"/>
<path d="M16.3445 14.1486C16.3682 14.1361 16.3914 14.123 16.4151 14.1099C16.392 14.1224 16.3682 14.1355 16.3445 14.1486Z" fill="#EB5B58"/>
<path d="M18.5232 12.328C18.5388 12.3087 18.5544 12.2893 18.5701 12.2693C18.5544 12.2893 18.5388 12.3087 18.5232 12.328Z" fill="#EB5B58"/>
<path d="M16.77 13.8998C16.7925 13.8854 16.815 13.8711 16.8375 13.8567C16.815 13.8711 16.7925 13.8854 16.77 13.8998Z" fill="#EB5B58"/>
<path d="M16.9075 13.81C16.9293 13.795 16.9518 13.7806 16.9737 13.7656C16.9518 13.7806 16.93 13.7956 16.9075 13.81Z" fill="#EB5B58"/>
<path d="M19.2764 11.1685C19.2876 11.1467 19.2989 11.1242 19.3101 11.1023C19.2989 11.1242 19.2876 11.1467 19.2764 11.1685Z" fill="#EB5B58"/>
<path d="M16.1987 14.2249C16.2225 14.213 16.2456 14.2005 16.2694 14.188C16.2462 14.2005 16.2225 14.213 16.1987 14.2249Z" fill="#EB5B58"/>
<path d="M19.1987 11.3143C19.2106 11.2924 19.2219 11.2711 19.2337 11.2493C19.2219 11.2711 19.21 11.293 19.1987 11.3143Z" fill="#EB5B58"/>
<path d="M19.4214 10.8711C19.432 10.8486 19.442 10.8255 19.4526 10.803C19.442 10.8261 19.4314 10.8486 19.4214 10.8711Z" fill="#EB5B58"/>
<path d="M19.3501 11.0211C19.3613 10.9986 19.372 10.9761 19.3826 10.9536C19.372 10.9761 19.3613 10.9986 19.3501 11.0211Z" fill="#EB5B58"/>
<path d="M18.625 12.1974C18.6394 12.178 18.6544 12.1593 18.6688 12.1399C18.6544 12.1593 18.6394 12.178 18.625 12.1974Z" fill="#EB5B58"/>
<path d="M19.1182 11.4573C19.13 11.4367 19.1419 11.4154 19.1538 11.3948C19.1419 11.416 19.13 11.4367 19.1182 11.4573Z" fill="#EB5B58"/>
<path d="M18.7256 12.0618C18.7387 12.0437 18.7518 12.0262 18.765 12.0081C18.7518 12.0256 18.7387 12.0437 18.7256 12.0618Z" fill="#EB5B58"/>
<path d="M18.8333 11.9094C18.8414 11.8975 18.8501 11.8857 18.8583 11.8738C18.8501 11.8857 18.8414 11.8969 18.8333 11.9094Z" fill="#EB5B58"/>
<path d="M19.0337 11.5985C19.0456 11.5792 19.0568 11.5598 19.0687 11.5398C19.0574 11.5598 19.0456 11.5792 19.0337 11.5985Z" fill="#EB5B58"/>
<path d="M18.947 11.7381C18.9576 11.7218 18.9676 11.705 18.9783 11.6887C18.9676 11.705 18.9576 11.7218 18.947 11.7381Z" fill="#EB5B58"/>
<path d="M15.052 14.6862C15.0783 14.6781 15.1051 14.67 15.1314 14.6619C15.1051 14.67 15.0783 14.6781 15.052 14.6862Z" fill="#EB5B58"/>
<path d="M17.6662 13.2273C17.6499 13.2417 17.6337 13.256 17.6174 13.2704C17.6343 13.256 17.6499 13.2417 17.6662 13.2273Z" fill="#EB5B58"/>
<path d="M17.4956 13.3738C17.48 13.3869 17.4644 13.3994 17.4487 13.4119C17.4644 13.3994 17.48 13.3869 17.4956 13.3738Z" fill="#EB5B58"/>
<path d="M17.3687 13.4761C17.3493 13.4911 17.3299 13.5061 17.3105 13.5211C17.3299 13.5061 17.3493 13.4911 17.3687 13.4761Z" fill="#EB5B58"/>
<path d="M14.2319 14.8817C14.2594 14.8767 14.2863 14.8717 14.3138 14.8667C14.2863 14.8717 14.2594 14.8773 14.2319 14.8817Z" fill="#EB5B58"/>
<path d="M16.0513 14.298C16.0744 14.2868 16.0975 14.2755 16.1206 14.2637C16.0975 14.2749 16.0744 14.2868 16.0513 14.298Z" fill="#EB5B58"/>
<path d="M14.0645 14.9094C14.0913 14.9056 14.1176 14.9006 14.1445 14.8962C14.1176 14.9012 14.0907 14.9056 14.0645 14.9094Z" fill="#EB5B58"/>
<path d="M18.0913 12.8213C18.1088 12.8025 18.1269 12.7844 18.1444 12.7656C18.1263 12.7844 18.1088 12.8031 18.0913 12.8213Z" fill="#EB5B58"/>
<path d="M17.7931 13.113C17.7756 13.1293 17.7575 13.1462 17.74 13.1624C17.7581 13.1462 17.7756 13.1293 17.7931 13.113Z" fill="#EB5B58"/>
<path d="M17.9768 12.9379C17.9949 12.9198 18.0131 12.9017 18.0306 12.8835C18.0124 12.9017 17.9949 12.9198 17.9768 12.9379Z" fill="#EB5B58"/>
<path d="M17.9139 12.9993C17.8957 13.0168 17.8782 13.0343 17.8601 13.0511C17.8782 13.0343 17.8957 13.0168 17.9139 12.9993Z" fill="#EB5B58"/>
<path d="M13.8943 14.9331C13.9187 14.93 13.9424 14.9262 13.9668 14.9231C13.943 14.9262 13.9187 14.93 13.8943 14.9331Z" fill="#EB5B58"/>
<path d="M15.3701 14.5812C15.3957 14.5718 15.4214 14.5631 15.4464 14.5537C15.4207 14.5631 15.3957 14.5725 15.3701 14.5812Z" fill="#EB5B58"/>
<path d="M15.5269 14.5229C15.5519 14.5135 15.5762 14.5041 15.6012 14.4941C15.5769 14.5041 15.5519 14.5135 15.5269 14.5229Z" fill="#EB5B58"/>
<path d="M15.9014 14.3674C15.9232 14.3574 15.9445 14.3474 15.9664 14.3374C15.9451 14.3474 15.9232 14.358 15.9014 14.3674Z" fill="#EB5B58"/>
<path d="M15.6855 14.4598C15.7087 14.4504 15.7312 14.441 15.7543 14.4316C15.7318 14.4416 15.7087 14.4504 15.6855 14.4598Z" fill="#EB5B58"/>
<path d="M15.2112 14.6356C15.2374 14.6269 15.2631 14.6188 15.2893 14.6094C15.2637 14.6188 15.2374 14.6269 15.2112 14.6356Z" fill="#EB5B58"/>
<path d="M14.3987 14.8506C14.4262 14.845 14.4531 14.8394 14.4806 14.8337C14.4531 14.8394 14.4262 14.845 14.3987 14.8506Z" fill="#EB5B58"/>
<path d="M19.4888 10.7192C19.4988 10.6967 19.5081 10.6742 19.5175 10.6511C19.5081 10.6736 19.4988 10.6961 19.4888 10.7192Z" fill="#EB5B58"/>
<path d="M14.5645 14.815C14.592 14.8088 14.6188 14.8025 14.6457 14.7957C14.6188 14.8025 14.5913 14.8088 14.5645 14.815Z" fill="#EB5B58"/>
<path d="M14.7283 14.7762C14.7551 14.7694 14.782 14.7625 14.8089 14.7556C14.782 14.7625 14.7551 14.7694 14.7283 14.7762Z" fill="#EB5B58"/>
<path d="M20.0625 7.93008C20.0625 7.92891 20.0625 7.92773 20.0625 7.92656C20.0625 7.9248 20.0625 7.92363 20.0625 7.92188C20.0625 7.92363 20.0625 7.9248 20.0625 7.92656C20.0631 7.92715 20.0625 7.92891 20.0625 7.93008Z" fill="#EB5B58"/>
<path d="M14.8906 14.733C14.9175 14.7255 14.9444 14.7179 14.9706 14.7104C14.9444 14.7179 14.9175 14.7255 14.8906 14.733Z" fill="#EB5B58"/>
<path d="M19.5706 5.33057C19.5818 5.35869 19.5918 5.38682 19.6031 5.41494C19.5918 5.38682 19.5818 5.35869 19.5706 5.33057Z" fill="#EB5B58"/>
<path d="M19.6301 5.4873C19.6401 5.51418 19.6495 5.54105 19.6589 5.56855C19.6495 5.54105 19.6401 5.51418 19.6301 5.4873Z" fill="#EB5B58"/>
<path d="M19.4688 5.08789C19.5006 5.16102 19.5319 5.23414 19.5613 5.30851C19.5319 5.23414 19.5006 5.16039 19.4688 5.08789Z" fill="#EB5B58"/>
<path d="M19.7388 5.80615C19.7469 5.8324 19.755 5.85928 19.7631 5.88615C19.755 5.85928 19.7475 5.83303 19.7388 5.80615Z" fill="#EB5B58"/>
<path d="M19.0107 4.2168C19.0276 4.24367 19.0439 4.27055 19.0601 4.29805C19.0439 4.27055 19.0276 4.24367 19.0107 4.2168Z" fill="#EB5B58"/>
<path d="M19.7876 5.96802C19.7951 5.99489 19.8026 6.02114 19.8101 6.04802C19.8026 6.02114 19.7951 5.99489 19.7876 5.96802Z" fill="#EB5B58"/>
<path d="M19.0957 4.35742C19.112 4.38492 19.1276 4.41242 19.1432 4.43992C19.1276 4.41242 19.112 4.38492 19.0957 4.35742Z" fill="#EB5B58"/>
<path d="M19.5532 10.5643C19.562 10.5418 19.5713 10.5193 19.5801 10.4968C19.5713 10.5193 19.5626 10.5418 19.5532 10.5643Z" fill="#EB5B58"/>
<path d="M19.3313 4.7937C19.3457 4.82245 19.3594 4.85058 19.3732 4.87933C19.3594 4.85058 19.345 4.82183 19.3313 4.7937Z" fill="#EB5B58"/>
<path d="M19.4026 4.94165C19.4163 4.97103 19.4301 4.99978 19.4432 5.02915C19.4301 4.99978 19.4163 4.97103 19.4026 4.94165Z" fill="#EB5B58"/>
<path d="M19.2556 4.64624C19.2706 4.67437 19.285 4.70249 19.3 4.73124C19.2856 4.70249 19.2706 4.67437 19.2556 4.64624Z" fill="#EB5B58"/>
<path d="M19.6863 5.64624C19.695 5.67249 19.7038 5.69937 19.7125 5.72624C19.7038 5.69937 19.6957 5.67249 19.6863 5.64624Z" fill="#EB5B58"/>
<path d="M20.02 7.14746C20.0231 7.17371 20.0256 7.19934 20.0281 7.22559C20.0256 7.19934 20.0225 7.17371 20.02 7.14746Z" fill="#EB5B58"/>
<path d="M20.0369 7.323C20.0387 7.348 20.0412 7.373 20.0431 7.39862C20.0412 7.37362 20.0394 7.34862 20.0369 7.323Z" fill="#EB5B58"/>
<path d="M19.9988 6.97437C20.0025 7.00062 20.0057 7.02687 20.0094 7.05312C20.0057 7.02687 20.0025 7.00062 19.9988 6.97437Z" fill="#EB5B58"/>
<path d="M19.8325 6.13184C19.8394 6.15809 19.8463 6.18496 19.8525 6.21184C19.8463 6.18496 19.8394 6.15871 19.8325 6.13184Z" fill="#EB5B58"/>
<path d="M20.05 7.50244C20.0513 7.52619 20.0532 7.54994 20.0544 7.57307C20.0532 7.54994 20.0513 7.52619 20.05 7.50244Z" fill="#EB5B58"/>
<path d="M20.0588 7.68994C20.0595 7.70994 20.0607 7.72932 20.0607 7.74932C20.0601 7.72932 20.0595 7.70994 20.0588 7.68994Z" fill="#EB5B58"/>
<path d="M19.9731 6.80249C19.9775 6.82874 19.9819 6.85562 19.9856 6.88187C19.9819 6.85562 19.9775 6.82874 19.9731 6.80249Z" fill="#EB5B58"/>
<path d="M19.9106 6.46362C19.9163 6.4905 19.9219 6.51675 19.9269 6.54362C19.9219 6.51737 19.9163 6.4905 19.9106 6.46362Z" fill="#EB5B58"/>
<path d="M19.8738 6.29736C19.88 6.32361 19.8863 6.35049 19.8919 6.37736C19.8863 6.35049 19.88 6.32361 19.8738 6.29736Z" fill="#EB5B58"/>
<path d="M19.9443 6.63184C19.9493 6.65871 19.9543 6.68496 19.9587 6.71184C19.9537 6.68559 19.9487 6.65871 19.9443 6.63184Z" fill="#EB5B58"/>
<path d="M19.1775 4.50049C19.1931 4.52799 19.2081 4.55611 19.2237 4.58424C19.2081 4.55611 19.1931 4.52861 19.1775 4.50049Z" fill="#EB5B58"/>
<path d="M19.8376 9.70367C19.8433 9.68242 19.8483 9.66055 19.8539 9.63867C19.8483 9.65992 19.8433 9.6818 19.8376 9.70367Z" fill="#EB5B58"/>
<path d="M19.9138 9.37415C19.9188 9.34977 19.9238 9.3254 19.9282 9.30103C19.9238 9.32603 19.9188 9.3504 19.9138 9.37415Z" fill="#EB5B58"/>
<path d="M19.8774 9.53997C19.8831 9.51685 19.8881 9.4931 19.8931 9.46997C19.8881 9.4931 19.8831 9.51622 19.8774 9.53997Z" fill="#EB5B58"/>
<path d="M18.9226 4.07739C18.9401 4.10427 18.9576 4.13114 18.9745 4.15802C18.957 4.13114 18.9401 4.10427 18.9226 4.07739Z" fill="#EB5B58"/>
<path d="M19.947 9.20743C19.9514 9.18243 19.9558 9.15743 19.9601 9.13306C19.9558 9.15806 19.9514 9.18306 19.947 9.20743Z" fill="#EB5B58"/>
<path d="M19.7932 9.86552C19.7982 9.84802 19.8032 9.82989 19.8076 9.81177C19.8032 9.82989 19.7982 9.84802 19.7932 9.86552Z" fill="#EB5B58"/>
<path d="M20 8.86933C20.0031 8.84433 20.0069 8.8187 20.01 8.7937C20.0069 8.8187 20.0031 8.84433 20 8.86933Z" fill="#EB5B58"/>
<path d="M19.615 10.4062C19.6231 10.3849 19.6312 10.363 19.6394 10.3418C19.6312 10.363 19.6231 10.3849 19.615 10.4062Z" fill="#EB5B58"/>
<path d="M19.6743 10.2417C19.6812 10.2223 19.6881 10.2036 19.6943 10.1848C19.6874 10.2036 19.6806 10.2223 19.6743 10.2417Z" fill="#EB5B58"/>
<path d="M19.738 10.0485C19.7405 10.041 19.743 10.0329 19.7455 10.0254C19.743 10.0329 19.7405 10.041 19.738 10.0485Z" fill="#EB5B58"/>
<path d="M19.9751 9.03924C19.9788 9.01424 19.9832 8.98862 19.9863 8.96362C19.9832 8.98925 19.9795 9.01424 19.9751 9.03924Z" fill="#EB5B58"/>
<path d="M18.5381 3.54297C18.5593 3.56984 18.58 3.59672 18.6006 3.62359C18.58 3.59672 18.5593 3.56984 18.5381 3.54297Z" fill="#EB5B58"/>
<path d="M18.6387 3.6731C18.6587 3.69935 18.6787 3.72622 18.698 3.7531C18.678 3.72622 18.6587 3.69935 18.6387 3.6731Z" fill="#EB5B58"/>
<path d="M20.0208 8.69732C20.0233 8.67231 20.0264 8.64731 20.0289 8.62231C20.0264 8.64731 20.0239 8.67231 20.0208 8.69732Z" fill="#EB5B58"/>
<path d="M18.8306 3.94043C18.8487 3.96668 18.8668 3.99355 18.8843 4.02043C18.8668 3.99355 18.8487 3.96668 18.8306 3.94043Z" fill="#EB5B58"/>
<path d="M18.4351 3.41553C18.4576 3.4424 18.4794 3.4699 18.5013 3.49678C18.4788 3.4699 18.4569 3.4424 18.4351 3.41553Z" fill="#EB5B58"/>
<path d="M18.7363 3.80542C18.7551 3.83167 18.7745 3.85854 18.7932 3.88542C18.7745 3.85854 18.7551 3.83167 18.7363 3.80542Z" fill="#EB5B58"/>
<path d="M20.05 8.34612C20.0513 8.323 20.0532 8.29925 20.0544 8.27612C20.0532 8.29987 20.0513 8.323 20.05 8.34612Z" fill="#EB5B58"/>
<path d="M20.0376 8.5237C20.0395 8.49933 20.042 8.47495 20.0438 8.44995C20.042 8.47433 20.0395 8.4987 20.0376 8.5237Z" fill="#EB5B58"/>
<path d="M20.0588 8.16181C20.0595 8.14181 20.0607 8.12181 20.0607 8.10181C20.0601 8.12181 20.0595 8.14181 20.0588 8.16181Z" fill="#EB5B58"/>
<path d="M18.3281 3.29053C18.3525 3.31803 18.3762 3.34678 18.4 3.3749C18.3762 3.34678 18.3525 3.31803 18.3281 3.29053Z" fill="#EB5B58"/>
<path d="M13.8943 14.933C17.3724 14.4936 20.0624 11.5242 20.0624 7.92609C20.0624 6.09297 19.3637 4.42297 18.2187 3.16797C16.7393 3.79609 15.7018 5.26234 15.7018 6.97109C15.7018 8.27172 16.3037 9.43109 17.243 10.188C16.9055 10.353 16.7137 10.4861 16.7137 10.4861L16.7162 10.488C15.1905 11.4342 14.1143 13.0492 13.8943 14.933Z" fill="#222349"/>
<path d="M10.2974 6.97109C10.2974 5.26234 9.25989 3.79672 7.78052 3.16797C6.63552 4.42359 5.93677 6.09297 5.93677 7.92609C5.93677 11.5236 8.62677 14.493 12.1049 14.933C11.8924 13.1098 10.8749 11.5398 9.42552 10.5836C9.36302 10.5411 9.29802 10.498 9.22552 10.4536C9.22239 10.4517 9.21927 10.4498 9.21614 10.448C9.20614 10.4423 9.19614 10.4367 9.18614 10.4305C9.03989 10.3417 8.89552 10.2642 8.75114 10.1911C9.69364 9.43484 10.2974 8.27359 10.2974 6.97109Z" fill="#222349"/>
</svg>
