<svg width="22" height="24" viewBox="0 0 22 24" fill="none" xmlns="http://www.w3.org/2000/svg">
<path d="M6.19897 17.4939C6.24272 17.5803 6.30452 17.6629 6.38491 17.7422C6.30452 17.6629 6.24218 17.5803 6.19897 17.4939Z" fill="#EB5B58"/>
<path d="M9.59294 18.8266C8.08903 18.6013 6.8963 18.242 6.38989 17.7471C6.8963 18.2414 8.08903 18.6013 9.59294 18.8266C9.68591 18.8403 9.77997 18.8539 9.87513 18.8665C9.77997 18.8534 9.68591 18.8403 9.59294 18.8266Z" fill="#EB5B58"/>
<path d="M17.9655 10.7116C17.8856 10.6575 17.802 10.6022 17.709 10.5448C17.7046 10.5421 17.7008 10.5405 17.697 10.5377C17.6844 10.5301 17.6713 10.523 17.6587 10.5153C17.4716 10.4021 17.2857 10.302 17.1009 10.2085C18.3084 9.23834 19.0816 7.75084 19.0816 6.08123C19.0816 3.15818 16.712 0.788574 13.789 0.788574C10.8659 0.788574 8.49634 3.15818 8.49634 6.08123C8.49634 7.74811 9.26743 9.23397 10.4716 10.2041C10.0391 10.4152 9.79353 10.5864 9.79353 10.5864C9.79353 10.5864 9.94774 10.4787 10.2272 10.3294C10.6953 11.013 10.9693 11.8398 10.9693 12.7312C10.9693 14.0744 10.347 15.2709 9.37571 16.0513C9.52446 16.1268 9.67376 16.2066 9.82415 16.298C9.83454 16.304 9.84438 16.3094 9.85478 16.316C9.85806 16.3182 9.86134 16.3198 9.86462 16.3215C9.93899 16.3674 10.0068 16.4117 10.0708 16.4555C11.0415 17.0958 11.8241 18.0037 12.3135 19.0761C12.1976 19.0712 12.0822 19.0651 11.9668 19.0591C16.2975 19.2959 21.4518 18.6763 21.4518 17.1992C21.4529 14.4774 20.0611 12.0947 17.9655 10.7116Z" fill="#EB5B58"/>
<path d="M6.12622 17.1997C6.12622 14.3981 7.59841 11.9519 9.79739 10.5891C7.59786 11.9519 6.12622 14.3981 6.12622 17.1997C6.12622 17.2976 6.14919 17.3922 6.19294 17.4825C6.14864 17.3917 6.12622 17.2976 6.12622 17.1997Z" fill="#EB5B58"/>
<path d="M11.234 19.0103C11.1246 19.0016 11.0152 18.9923 10.9075 18.9824C11.0152 18.9923 11.1246 19.0016 11.234 19.0103Z" fill="#EB5B58"/>
<path d="M11.9482 19.0585C11.7207 19.0459 11.496 19.0312 11.2739 19.0137C11.496 19.0306 11.7213 19.0459 11.9482 19.0585Z" fill="#EB5B58"/>
<path d="M10.8989 18.9821C10.7988 18.9728 10.6993 18.963 10.6008 18.9531C10.6993 18.963 10.7988 18.9728 10.8989 18.9821Z" fill="#EB5B58"/>
<path d="M10.5394 18.9465C10.4377 18.9356 10.3371 18.9246 10.2375 18.9126C10.3365 18.9246 10.4377 18.9356 10.5394 18.9465Z" fill="#EB5B58"/>
<path d="M10.2223 18.9109C10.1294 18.9 10.038 18.8879 9.94727 18.8765C10.038 18.8879 10.1299 18.9 10.2223 18.9109Z" fill="#EB5B58"/>
<path d="M10.8572 13.7068C10.8386 13.785 10.8184 13.8626 10.7954 13.9392C10.8184 13.8626 10.8392 13.7855 10.8572 13.7068Z" fill="#59ACEA"/>
<path d="M10.8873 11.895C10.8829 11.8731 10.878 11.8512 10.873 11.8293C10.878 11.8512 10.8829 11.8725 10.8873 11.895Z" fill="#59ACEA"/>
<path d="M10.8453 11.7084C10.8392 11.6844 10.8332 11.6603 10.8267 11.6362C10.8332 11.6603 10.8392 11.6844 10.8453 11.7084Z" fill="#59ACEA"/>
<path d="M10.7961 13.9392C10.7736 14.0158 10.7485 14.0912 10.7217 14.1662C10.7485 14.0918 10.7731 14.0158 10.7961 13.9392Z" fill="#59ACEA"/>
<path d="M10.965 12.5337C10.9639 12.5135 10.9628 12.4938 10.9617 12.4741C10.9628 12.4944 10.9639 12.514 10.965 12.5337Z" fill="#59ACEA"/>
<path d="M10.9508 12.3336C10.9487 12.3128 10.947 12.292 10.9448 12.2712C10.947 12.292 10.9487 12.3128 10.9508 12.3336Z" fill="#59ACEA"/>
<path d="M10.924 12.1077C10.9224 12.0978 10.9213 12.088 10.9202 12.0781C10.9213 12.088 10.9224 12.0978 10.924 12.1077Z" fill="#59ACEA"/>
<path d="M11.7749 18.1255C11.9811 18.4241 12.1615 18.7424 12.3141 19.076C12.1615 18.7424 11.9811 18.4241 11.7749 18.1255Z" fill="#59ACEA"/>
<path d="M10.7922 11.5143C10.7862 11.4941 10.7807 11.4738 10.7742 11.4536C10.7807 11.4738 10.7862 11.4941 10.7922 11.5143Z" fill="#59ACEA"/>
<path d="M11.6523 17.9548C11.6917 18.0084 11.7305 18.062 11.7683 18.1167C11.7305 18.062 11.6917 18.0079 11.6523 17.9548Z" fill="#59ACEA"/>
<path d="M10.9698 12.7312C10.9698 13.067 10.931 13.3935 10.8572 13.7068C10.931 13.394 10.9698 13.067 10.9698 12.7312Z" fill="#59ACEA"/>
<path d="M11.3703 17.6006C11.2768 17.4917 11.1795 17.3862 11.0789 17.2839C11.1795 17.3862 11.2768 17.4917 11.3703 17.6006Z" fill="#59ACEA"/>
<path d="M11.3816 17.6143C11.4237 17.6635 11.4647 17.7132 11.5052 17.7636C11.4647 17.7132 11.4237 17.6635 11.3816 17.6143Z" fill="#59ACEA"/>
<path d="M11.5227 17.7859C11.5615 17.8346 11.5998 17.8843 11.637 17.9341C11.5998 17.8843 11.5615 17.8346 11.5227 17.7859Z" fill="#59ACEA"/>
<path d="M10.783 17.0032C10.8207 17.0365 10.8579 17.071 10.8951 17.1054C10.8579 17.071 10.8207 17.0365 10.783 17.0032Z" fill="#59ACEA"/>
<path d="M12.3141 19.0765C11.3538 19.0344 10.4252 18.9513 9.59286 18.8266C7.58146 18.5253 6.12622 17.9838 6.12622 17.1996C6.12622 14.398 7.59841 11.9518 9.79739 10.589L9.79411 10.5863C9.79411 10.5863 9.94833 10.4791 10.2278 10.3292C10.2475 10.3582 10.2661 10.3872 10.2852 10.4167C9.52614 9.24752 8.20981 8.47314 6.71247 8.47314C4.36091 8.47314 2.4545 10.3796 2.4545 12.7311C2.4545 14.0721 3.07466 15.2675 4.04372 16.0479C3.69536 16.218 3.49849 16.3553 3.49849 16.3553L3.50122 16.3574C1.73208 17.4534 0.548096 19.4216 0.548096 21.6753C0.548096 22.3058 1.71896 22.7417 3.33716 22.9839C6.97388 23.5286 12.8779 23.0928 12.8779 21.6753C12.8768 20.7461 12.675 19.8667 12.3141 19.0765Z" fill="#59ACEA"/>
<path d="M10.9333 17.1411C10.982 17.1871 11.0296 17.2341 11.0766 17.2817C11.0296 17.2341 10.982 17.1871 10.9333 17.1411Z" fill="#59ACEA"/>
<path d="M10.6532 11.1194C10.6417 11.0915 10.6303 11.063 10.6177 11.0352C10.6297 11.063 10.6417 11.0909 10.6532 11.1194Z" fill="#59ACEA"/>
<path d="M10.073 16.4563C10.1299 16.4935 10.1857 16.5323 10.2409 16.5711C10.1851 16.5323 10.1293 16.494 10.073 16.4563Z" fill="#59ACEA"/>
<path d="M10.3262 10.4807C10.3442 10.5097 10.3623 10.5392 10.3798 10.5688C10.3617 10.5392 10.3442 10.5097 10.3262 10.4807Z" fill="#59ACEA"/>
<path d="M10.4192 10.6377C10.4356 10.6667 10.4525 10.6957 10.4684 10.7252C10.452 10.6957 10.4356 10.6667 10.4192 10.6377Z" fill="#59ACEA"/>
<path d="M10.5308 10.8477C10.5477 10.8816 10.5636 10.9155 10.5794 10.9499C10.563 10.9155 10.5472 10.8816 10.5308 10.8477Z" fill="#59ACEA"/>
<path d="M10.2935 16.6096C10.3317 16.637 10.3695 16.6649 10.4067 16.6933C10.3695 16.6654 10.3312 16.6375 10.2935 16.6096Z" fill="#59ACEA"/>
<path d="M9.37622 16.0518C9.51677 16.1229 9.65731 16.1983 9.79895 16.2831C9.65731 16.1983 9.51622 16.1223 9.37622 16.0518Z" fill="#59ACEA"/>
<path d="M10.7195 11.2906C10.7102 11.2644 10.6998 11.2381 10.6899 11.2124C10.6998 11.2381 10.7096 11.2644 10.7195 11.2906Z" fill="#59ACEA"/>
<path d="M9.95117 16.376C9.97305 16.3902 9.99437 16.4039 10.0152 16.4181C9.99383 16.4039 9.97305 16.3902 9.95117 16.376Z" fill="#59ACEA"/>
<path d="M10.4651 16.7393C10.5001 16.7666 10.5351 16.7939 10.5695 16.8224C10.5351 16.7939 10.5006 16.7666 10.4651 16.7393Z" fill="#59ACEA"/>
<path d="M10.627 16.8694C10.662 16.8984 10.697 16.9284 10.7314 16.958C10.697 16.9279 10.6625 16.8984 10.627 16.8694Z" fill="#59ACEA"/>
<path d="M12.3141 19.0766C11.8247 18.0041 11.0421 17.0963 10.0714 16.4559C10.0074 16.4122 9.93958 16.3679 9.8652 16.3219C9.86192 16.3198 9.85864 16.3181 9.85536 16.3165C9.84497 16.3105 9.83513 16.3044 9.82474 16.2984C9.67434 16.2071 9.52505 16.1267 9.3763 16.0518C10.3475 15.2714 10.9699 14.0743 10.9699 12.7317C10.9699 11.8403 10.6959 11.0134 10.2278 10.3298C9.94888 10.4797 9.79411 10.5869 9.79411 10.5869L9.79739 10.5896C7.59841 11.9524 6.12622 14.398 6.12622 17.2002C6.12622 17.9844 7.58145 18.5258 9.59286 18.8272C10.4252 18.9513 11.3538 19.0344 12.3141 19.0766Z" fill="#222349"/>
</svg>
