<svg width="24" height="22" viewBox="0 0 24 22" fill="none" xmlns="http://www.w3.org/2000/svg">
<path d="M17.8679 10.4783C17.8991 10.5767 17.9286 10.6762 17.9565 10.7763C17.9286 10.6762 17.8991 10.5767 17.8679 10.4783Z" fill="#59ACEA"/>
<path d="M17.9609 10.7917C17.9872 10.888 18.0123 10.9848 18.0359 11.0821C18.0123 10.9848 17.9872 10.888 17.9609 10.7917Z" fill="#59ACEA"/>
<path d="M17.7695 10.1855C17.8029 10.2796 17.8352 10.3742 17.8652 10.4694C17.8352 10.3737 17.8029 10.2796 17.7695 10.1855Z" fill="#59ACEA"/>
<path d="M17.262 9.03296C17.3566 9.21179 17.4452 9.3939 17.5277 9.57929C17.4452 9.39335 17.3566 9.21124 17.262 9.03296Z" fill="#59ACEA"/>
<path d="M17.5359 9.59839C17.5764 9.69026 17.6157 9.78323 17.6529 9.87675C17.6157 9.78323 17.5764 9.69081 17.5359 9.59839Z" fill="#59ACEA"/>
<path d="M17.6536 9.87769C17.6918 9.97339 17.7285 10.0702 17.7635 10.1675C17.7279 10.0702 17.6918 9.97339 17.6536 9.87769Z" fill="#59ACEA"/>
<path d="M18.2441 12.3862C18.2529 12.4923 18.26 12.599 18.2649 12.7067C18.26 12.599 18.2529 12.4923 18.2441 12.3862Z" fill="#59ACEA"/>
<path d="M18.1079 11.415C18.1276 11.514 18.1451 11.613 18.1615 11.7131C18.1451 11.613 18.1276 11.514 18.1079 11.415Z" fill="#59ACEA"/>
<path d="M18.2104 12.054C18.223 12.1557 18.2334 12.2574 18.2422 12.3602C18.2329 12.2579 18.2225 12.1557 18.2104 12.054Z" fill="#59ACEA"/>
<path d="M18.1648 11.7339C18.1812 11.8378 18.196 11.9422 18.2091 12.0478C18.1965 11.9422 18.1817 11.8378 18.1648 11.7339Z" fill="#59ACEA"/>
<path d="M18.0391 11.0974C18.0631 11.1991 18.0855 11.3008 18.1058 11.4037C18.0855 11.3008 18.0631 11.1986 18.0391 11.0974Z" fill="#59ACEA"/>
<path d="M13.8188 5.49951C13.9982 5.60068 14.1738 5.70787 14.3455 5.82108C14.1743 5.70842 13.9988 5.60068 13.8188 5.49951Z" fill="#59ACEA"/>
<path d="M13.26 5.21069C13.4481 5.29929 13.6324 5.39499 13.8129 5.49616C13.6324 5.39444 13.4481 5.29929 13.26 5.21069Z" fill="#59ACEA"/>
<path d="M12.6787 4.96143C12.875 5.03689 13.0675 5.11947 13.2568 5.20861C13.0675 5.12002 12.875 5.03744 12.6787 4.96143Z" fill="#59ACEA"/>
<path d="M18.265 12.7062C16.9388 12.7642 15.6127 12.8222 14.287 12.8801C14.2263 12.8829 14.1656 12.8878 14.0781 12.8938C14.2345 13.1612 14.3789 13.4111 14.5266 13.6594C15.0641 14.5629 15.6039 15.4647 16.1388 16.3697C16.2005 16.4747 16.258 16.5912 16.2804 16.7093C16.3318 16.9762 16.1847 17.2141 15.9036 17.3415C15.2107 17.6571 14.5173 17.9704 13.8222 18.2811C13.4733 18.4369 13.1982 18.3543 12.9926 18.0306C12.1302 16.6743 11.2705 15.3159 10.4097 13.9591C10.3769 13.9072 10.3397 13.8574 10.2801 13.771C9.9782 13.9072 9.68563 14.0794 9.37008 14.1735C8.64492 14.39 8.01328 14.2386 7.5457 13.5993C7.53914 13.5905 7.52438 13.5878 7.51344 13.5823C7.14703 12.7702 6.78008 11.9581 6.41367 11.1454C6.41094 11.1093 6.41203 11.0727 6.40437 11.0383C6.22391 10.2185 6.60453 9.4031 7.36305 9.04325C8.11227 8.68778 8.87406 8.35966 9.62656 8.0113C9.7518 7.95333 9.87484 7.87021 9.97055 7.77122C10.874 6.83497 11.7763 5.89763 12.6792 4.96028C11.703 4.58349 10.6421 4.37622 9.5325 4.37622C4.70359 4.37731 0.789062 8.29185 0.789062 13.1202C0.789062 17.9486 4.70359 21.8631 9.53195 21.8631C14.3603 21.8631 18.2748 17.9486 18.2748 13.1202C18.2748 12.9818 18.2716 12.8435 18.265 12.7062Z" fill="#59ACEA"/>
<path d="M14.3538 5.82715C14.5244 5.9398 14.6901 6.05848 14.852 6.18316C14.6901 6.05848 14.5244 5.9398 14.3538 5.82715Z" fill="#59ACEA"/>
<path d="M16.2131 7.48193C16.3427 7.63506 16.4669 7.79311 16.5856 7.95498C16.4669 7.79256 16.3427 7.63506 16.2131 7.48193Z" fill="#59ACEA"/>
<path d="M14.8623 6.19067C15.0231 6.31427 15.1795 6.44388 15.331 6.57841C15.1795 6.44388 15.0231 6.31427 14.8623 6.19067Z" fill="#59ACEA"/>
<path d="M16.9487 8.49023C17.0554 8.66086 17.1565 8.83531 17.2512 9.01305C17.1565 8.83477 17.0554 8.66031 16.9487 8.49023Z" fill="#59ACEA"/>
<path d="M16.5986 7.97241C16.7168 8.13429 16.83 8.30054 16.9366 8.47116C16.8294 8.30054 16.7168 8.13429 16.5986 7.97241Z" fill="#59ACEA"/>
<path d="M15.781 7.00668C15.6399 6.8623 15.4939 6.7234 15.3435 6.58887C15.4939 6.7234 15.6399 6.8623 15.781 7.00668Z" fill="#59ACEA"/>
<path d="M15.7942 7.01978C15.9342 7.1636 16.0698 7.31236 16.2 7.46603C16.0698 7.31236 15.9342 7.1636 15.7942 7.01978Z" fill="#59ACEA"/>
<path d="M7.54525 13.5994C7.53869 13.5906 7.52393 13.5879 7.51299 13.5824C7.32979 13.1761 7.14658 12.7703 6.96338 12.364C7.14658 12.7703 7.32979 13.1761 7.51299 13.5824C7.52447 13.5885 7.53924 13.5906 7.54525 13.5994C7.66229 13.7591 7.78916 13.8887 7.92533 13.9893C7.78916 13.8887 7.66229 13.7591 7.54525 13.5994Z" fill="#EB5B58"/>
<path d="M6.36841 10.8086C6.37552 10.8852 6.38755 10.9617 6.4045 11.0388C6.41052 11.0651 6.41106 11.0919 6.41216 11.1192C6.41106 11.0919 6.40997 11.0651 6.4045 11.0388C6.38755 10.9617 6.37552 10.8852 6.36841 10.8086Z" fill="#EB5B58"/>
<path d="M10.4092 13.9589C10.3928 13.9326 10.3753 13.9075 10.3545 13.8779C10.3753 13.9075 10.3928 13.9332 10.4092 13.9589C10.5525 14.1853 10.6963 14.4111 10.8396 14.6375C10.6963 14.4117 10.553 14.1853 10.4092 13.9589Z" fill="#EB5B58"/>
<path d="M7.36247 9.04385C7.45598 8.99955 7.55059 8.95635 7.64465 8.9126C7.55059 8.95635 7.45598 8.99955 7.36247 9.04385C6.74669 9.33588 6.37974 9.92924 6.3606 10.5811C6.37974 9.92924 6.74669 9.33588 7.36247 9.04385Z" fill="#EB5B58"/>
<path d="M9.96992 7.77243C10.2488 7.48313 10.5272 7.19384 10.8061 6.90454C10.5272 7.19384 10.2488 7.48313 9.96992 7.77243C9.95789 7.78501 9.94422 7.79595 9.93164 7.80798C9.94422 7.79595 9.95789 7.78446 9.96992 7.77243Z" fill="#EB5B58"/>
<path d="M9.10205 14.2372C9.18955 14.2219 9.27869 14.2005 9.36947 14.1732C9.56689 14.1141 9.75502 14.025 9.94205 13.9331C9.75502 14.025 9.56689 14.1147 9.36947 14.1732C9.27869 14.2005 9.18955 14.2219 9.10205 14.2372Z" fill="#EB5B58"/>
<path d="M16.2568 16.6208C16.2661 16.6498 16.2743 16.6794 16.2798 16.7089C16.2864 16.7423 16.2896 16.7751 16.2896 16.8073C16.2891 16.7751 16.2858 16.7423 16.2798 16.7089C16.2738 16.6794 16.2661 16.6498 16.2568 16.6208Z" fill="#EB5B58"/>
<path d="M23.1169 11.5781C21.4653 7.91737 19.8132 4.25713 18.1611 0.596892C18.1381 0.546033 18.125 0.483142 18.0872 0.448689C17.9768 0.347517 17.869 0.221189 17.7356 0.171424C17.4556 0.0664235 17.2445 0.214627 17.0515 0.415877C15.5951 1.93236 14.1377 3.44721 12.6792 4.9615C15.8308 6.17775 18.1004 9.16698 18.2655 12.7064C19.6918 12.644 21.1186 12.5811 22.5448 12.5166C22.6761 12.5106 22.8215 12.4849 22.9331 12.4209C23.229 12.2508 23.2858 11.9528 23.1169 11.5781Z" fill="#EB5B58"/>
<path d="M15.2102 17.656C15.4415 17.5515 15.6723 17.4465 15.9031 17.3415C15.9911 17.3016 16.0655 17.2507 16.1251 17.1917C16.0655 17.2507 15.9906 17.301 15.9031 17.3415C15.6723 17.4465 15.441 17.551 15.2102 17.656Z" fill="#EB5B58"/>
<path d="M12.3462 17.0129C12.5617 17.352 12.7766 17.6916 12.9921 18.0307C13.0178 18.0711 13.0446 18.1078 13.0724 18.1406C13.0446 18.1078 13.0178 18.0711 12.9921 18.0307C12.7766 17.6916 12.5617 17.352 12.3462 17.0129Z" fill="#EB5B58"/>
<path d="M14.0776 12.8939C14.1214 12.8912 14.1586 12.8884 14.1925 12.8862C14.1591 12.8879 14.1219 12.8906 14.0776 12.8939Z" fill="#EB5B58"/>
<path d="M18.2649 12.7063C18.0997 9.1669 15.8302 6.17768 12.6786 4.96143C11.7762 5.89877 10.8733 6.83557 9.96989 7.77236C9.87419 7.87135 9.75114 7.95447 9.62591 8.01244C8.87341 8.3608 8.11161 8.68893 7.36239 9.04439C6.60442 9.40369 6.2238 10.2196 6.40372 11.0394C6.41138 11.0744 6.41028 11.111 6.41302 11.1466C6.77942 11.9587 7.14638 12.7708 7.51278 13.5835C7.52372 13.5889 7.53849 13.5917 7.54505 13.6004C8.01208 14.2397 8.64372 14.3912 9.36942 14.1746C9.68497 14.0806 9.97755 13.9083 10.2794 13.7721C10.339 13.8585 10.3762 13.9083 10.409 13.9603C11.2698 15.3176 12.1295 16.6755 12.9919 18.0317C13.1976 18.3549 13.4732 18.4375 13.8215 18.2822C14.5166 17.9721 15.21 17.6582 15.9029 17.3427C16.184 17.2147 16.3306 16.9774 16.2797 16.7105C16.2573 16.5924 16.1999 16.4759 16.1381 16.3709C15.6033 15.4658 15.0635 14.564 14.5259 13.6606C14.3783 13.4128 14.2344 13.1629 14.0775 12.8949C14.1655 12.8895 14.2262 12.884 14.2864 12.8813C15.6125 12.8222 16.9387 12.7648 18.2649 12.7063Z" fill="#222349"/>
</svg>
