<svg width="20" height="34" viewBox="0 0 20 34" fill="none" xmlns="http://www.w3.org/2000/svg">
<path d="M8.1307 17.0171C7.4268 17.0171 6.74789 16.9171 6.09711 16.7468V22.4632L3.72289 19.8679C2.93774 19.0093 1.60414 18.9914 0.782267 19.7945C0.01508 20.5617 -0.0028877 21.7851 0.708831 22.589L8.10805 33.0156H18.008L19.8182 22.6031C20.1651 20.9773 19.1604 19.3523 17.5354 18.95L10.4815 17.0195V16.6648C9.73695 16.8929 8.94867 17.0171 8.1307 17.0171Z" fill="#59ACEA"/>
<path d="M8.28847 8.81797C9.49394 8.81797 10.4799 9.80391 10.4799 11.0094V16.6648C13.7603 15.6602 16.1463 12.6094 16.1463 9C16.1471 4.57344 12.558 0.984375 8.13066 0.984375C3.70332 0.984375 0.114258 4.57344 0.114258 9.00078C0.114258 12.7242 2.65644 15.8453 6.09707 16.7469V11.0102C6.09707 9.80469 7.06503 8.81797 8.28847 8.81797Z" fill="#EB5B58"/>
<path d="M10.4815 16.6657V11.0103C10.4815 9.80479 9.49551 8.81885 8.29004 8.81885C7.0666 8.81885 6.09863 9.80479 6.09863 11.0103V16.747C6.74941 16.9173 7.42832 17.0173 8.13223 17.0173C8.94942 17.0173 9.7377 16.8931 10.4815 16.6657Z" fill="#222349"/>
</svg>
