<svg width="26" height="18" viewBox="0 0 26 18" fill="none" xmlns="http://www.w3.org/2000/svg">
<path d="M10.4736 2.60288C10.4906 2.5771 10.5076 2.5519 10.5252 2.52612C10.5076 2.5519 10.4906 2.57769 10.4736 2.60288Z" fill="#59ACEA"/>
<path d="M10.1313 3.20747C10.1407 3.18755 10.1507 3.16763 10.1606 3.14771C10.1507 3.16763 10.1407 3.18755 10.1313 3.20747Z" fill="#59ACEA"/>
<path d="M10.344 2.81006C10.3581 2.78662 10.3715 2.76318 10.3862 2.73975C10.3715 2.7626 10.3581 2.78662 10.344 2.81006Z" fill="#59ACEA"/>
<path d="M10.6023 8.28687C10.5824 8.25991 10.563 8.23237 10.5437 8.20483C10.563 8.23237 10.5824 8.25991 10.6023 8.28687Z" fill="#59ACEA"/>
<path d="M10.7441 2.23242C10.7734 2.19551 10.8033 2.15977 10.8338 2.12402C10.8033 2.15977 10.7734 2.19609 10.7441 2.23242Z" fill="#59ACEA"/>
<path d="M10.6152 2.3998C10.6346 2.37344 10.6545 2.34707 10.6744 2.32129C10.6545 2.34707 10.6346 2.37285 10.6152 2.3998Z" fill="#59ACEA"/>
<path d="M10.6839 8.39512C10.6628 8.36758 10.6423 8.34004 10.6218 8.3125C10.6417 8.34062 10.6628 8.36816 10.6839 8.39512Z" fill="#59ACEA"/>
<path d="M10.7676 8.50132C10.7454 8.47378 10.7237 8.44624 10.7014 8.4187C10.7231 8.44624 10.7454 8.47378 10.7676 8.50132Z" fill="#59ACEA"/>
<path d="M10.8936 2.05474C10.9287 2.01431 10.965 1.97505 11.002 1.93579C10.965 1.97505 10.9287 2.01431 10.8936 2.05474Z" fill="#59ACEA"/>
<path d="M10.8544 8.60518C10.831 8.57764 10.8075 8.5501 10.7847 8.52197C10.8075 8.5501 10.8304 8.57764 10.8544 8.60518Z" fill="#59ACEA"/>
<path d="M10.2285 3.0147C10.2432 2.98657 10.2584 2.95903 10.2736 2.93091C10.259 2.95903 10.2437 2.98716 10.2285 3.0147Z" fill="#59ACEA"/>
<path d="M11.1297 8.90044C11.1016 8.8729 11.0747 8.84478 11.0471 8.81665C11.0747 8.84536 11.1022 8.8729 11.1297 8.90044Z" fill="#59ACEA"/>
<path d="M9.67188 4.86382C9.67305 4.85034 9.67422 4.83745 9.67598 4.82397C9.67422 4.83745 9.67305 4.85093 9.67188 4.86382Z" fill="#59ACEA"/>
<path d="M9.65356 5.11523C9.65415 5.10527 9.65415 5.0959 9.65474 5.08594C9.65415 5.0959 9.65415 5.10527 9.65356 5.11523Z" fill="#59ACEA"/>
<path d="M10.3967 7.98218C10.4137 8.00972 10.4313 8.03667 10.4489 8.06421C10.4313 8.03667 10.4137 8.00913 10.3967 7.98218Z" fill="#59ACEA"/>
<path d="M10.9573 8.72095C10.9831 8.74907 11.0088 8.7772 11.0352 8.80415C11.0088 8.7772 10.9831 8.74907 10.9573 8.72095Z" fill="#59ACEA"/>
<path d="M9.74683 4.35816C9.74917 4.34644 9.7521 4.33472 9.75444 4.323C9.7521 4.33472 9.74917 4.34644 9.74683 4.35816Z" fill="#59ACEA"/>
<path d="M9.86353 3.89766C9.86821 3.88301 9.87231 3.86777 9.877 3.85254C9.87231 3.86777 9.86821 3.88242 9.86353 3.89766Z" fill="#59ACEA"/>
<path d="M9.70288 4.61069C9.70522 4.59663 9.70698 4.58315 9.70933 4.56909C9.70698 4.58257 9.70464 4.59663 9.70288 4.61069Z" fill="#59ACEA"/>
<path d="M9.94019 3.66675C9.94663 3.648 9.95366 3.62925 9.9607 3.61108C9.95366 3.62925 9.94663 3.648 9.94019 3.66675Z" fill="#59ACEA"/>
<path d="M10.0293 3.43535C10.0375 3.41543 10.0463 3.39492 10.0551 3.375C10.0469 3.39551 10.0381 3.41543 10.0293 3.43535Z" fill="#59ACEA"/>
<path d="M9.80151 4.11929C9.80386 4.1105 9.80562 4.10229 9.80796 4.09351C9.8062 4.10229 9.80386 4.1105 9.80151 4.11929Z" fill="#59ACEA"/>
<path d="M19.5725 4.58374C19.5743 4.59429 19.5754 4.60483 19.5772 4.61538C19.5754 4.60483 19.5743 4.59429 19.5725 4.58374Z" fill="#59ACEA"/>
<path d="M19.4663 4.07617C19.4698 4.08906 19.4733 4.10196 19.4769 4.11543C19.4733 4.10196 19.4698 4.08906 19.4663 4.07617Z" fill="#59ACEA"/>
<path d="M19.4009 3.84839C19.4067 3.86655 19.412 3.8853 19.4179 3.90347C19.412 3.8853 19.4067 3.86655 19.4009 3.84839Z" fill="#59ACEA"/>
<path d="M10.5238 8.17651C10.5051 8.14956 10.4869 8.12202 10.4688 8.09448C10.4869 8.12202 10.5051 8.14897 10.5238 8.17651Z" fill="#59ACEA"/>
<path d="M19.2234 3.37427C19.2333 3.39771 19.2439 3.42173 19.2533 3.44575C19.2439 3.42173 19.2339 3.39771 19.2234 3.37427Z" fill="#59ACEA"/>
<path d="M19.5239 4.31958C19.5274 4.33716 19.5315 4.35532 19.5351 4.37349C19.5315 4.35532 19.528 4.33716 19.5239 4.31958Z" fill="#59ACEA"/>
<path d="M10.3274 7.86743C10.3432 7.89438 10.3596 7.92192 10.376 7.94829C10.3596 7.92192 10.3432 7.89497 10.3274 7.86743Z" fill="#59ACEA"/>
<path d="M18.2443 1.90054C18.191 1.84487 18.1365 1.79038 18.0808 1.73706C18.1365 1.79097 18.191 1.84546 18.2443 1.90054Z" fill="#59ACEA"/>
<path d="M19.123 3.15601C19.1354 3.18062 19.1471 3.20523 19.1582 3.22983C19.1465 3.20523 19.1348 3.18062 19.123 3.15601Z" fill="#59ACEA"/>
<path d="M19.6025 4.81519C19.6043 4.82925 19.6055 4.84272 19.6072 4.8562C19.6061 4.84214 19.6043 4.82866 19.6025 4.81519Z" fill="#59ACEA"/>
<path d="M19.6235 5.0752C19.6241 5.09102 19.6253 5.10684 19.6259 5.12207C19.6253 5.10684 19.6247 5.09102 19.6235 5.0752Z" fill="#59ACEA"/>
<path d="M19.314 3.59888C19.3222 3.61997 19.3298 3.64165 19.3374 3.66274C19.3298 3.64106 19.3216 3.61997 19.314 3.59888Z" fill="#59ACEA"/>
<path d="M10.8742 9.6042L10.873 9.60303L10.8742 9.6042Z" fill="#59ACEA"/>
<path d="M11.2393 1.69922C11.2668 1.67344 11.2949 1.64824 11.323 1.62305C11.2949 1.64766 11.2668 1.67344 11.2393 1.69922Z" fill="#59ACEA"/>
<path d="M11.0109 17.4194C10.964 17.4129 10.9171 17.4071 10.8708 17.4006C10.9171 17.4071 10.964 17.4135 11.0109 17.4194Z" fill="#59ACEA"/>
<path d="M10.8713 9.60181C10.8713 9.60181 10.8836 9.5936 10.9065 9.57837C10.8836 9.59302 10.8713 9.60181 10.8713 9.60181Z" fill="#59ACEA"/>
<path d="M10.8694 8.62256C10.894 8.65068 10.918 8.67822 10.9432 8.70576C10.9186 8.67822 10.894 8.65068 10.8694 8.62256Z" fill="#59ACEA"/>
<path d="M18.5864 2.2981C18.6222 2.3438 18.6567 2.39067 18.6907 2.43755C18.6567 2.39009 18.6222 2.3438 18.5864 2.2981Z" fill="#59ACEA"/>
<path d="M18.877 2.71387C18.8986 2.74902 18.9203 2.78477 18.9414 2.82051C18.9203 2.78418 18.8986 2.74902 18.877 2.71387Z" fill="#59ACEA"/>
<path d="M18.9995 2.92163C19.0136 2.94741 19.0282 2.97261 19.0423 2.99897C19.0282 2.97261 19.0142 2.94741 18.9995 2.92163Z" fill="#59ACEA"/>
<path d="M11.1736 1.76123C11.1355 1.79814 11.0975 1.83564 11.0605 1.87373C11.0975 1.83564 11.1355 1.79814 11.1736 1.76123Z" fill="#59ACEA"/>
<path d="M18.2812 1.94019C18.3709 2.03569 18.4564 2.13472 18.5385 2.23726C18.457 2.13472 18.3709 2.03569 18.2812 1.94019Z" fill="#59ACEA"/>
<path d="M18.7468 2.51611C18.7673 2.54541 18.7873 2.57471 18.8066 2.60459C18.7867 2.57471 18.7667 2.54541 18.7468 2.51611Z" fill="#59ACEA"/>
<path d="M19.6118 5.80191C19.6177 5.73628 19.6218 5.67007 19.6253 5.60327C19.6218 5.67007 19.6177 5.73628 19.6118 5.80191Z" fill="#59ACEA"/>
<path d="M19.627 5.55703C19.6299 5.48906 19.6316 5.42109 19.6316 5.35254C19.6316 5.42109 19.6299 5.48906 19.627 5.55703Z" fill="#59ACEA"/>
<path d="M17.7378 1.43945C17.8462 1.52559 17.9511 1.61523 18.0519 1.71016C17.9505 1.61523 17.8456 1.52559 17.7378 1.43945Z" fill="#59ACEA"/>
<path d="M19.5884 6.00757C19.596 5.94839 19.603 5.88862 19.6089 5.82886C19.603 5.88862 19.5966 5.9478 19.5884 6.00757Z" fill="#59ACEA"/>
<path d="M19.5525 6.24087C19.5642 6.177 19.5742 6.11314 19.583 6.0481C19.5742 6.11314 19.5636 6.177 19.5525 6.24087Z" fill="#59ACEA"/>
<path d="M11.227 8.99394C11.1977 8.96641 11.1684 8.93828 11.1396 8.91016C11.1684 8.93828 11.1977 8.96641 11.227 8.99394Z" fill="#59ACEA"/>
<path d="M10.927 9.5647C10.9199 9.56938 10.9141 9.5729 10.9082 9.577C10.9135 9.57349 10.9199 9.56938 10.927 9.5647Z" fill="#59ACEA"/>
<path d="M18.5788 9.7189C18.5038 9.66792 18.4247 9.61577 18.3368 9.56187C18.3327 9.55952 18.3292 9.55777 18.3251 9.55542C18.3134 9.54839 18.3011 9.54136 18.2894 9.53433C18.113 9.4271 17.9378 9.33335 17.7632 9.24487C18.0116 9.04507 18.2407 8.82241 18.447 8.57925C16.9827 9.36323 15.2472 9.37378 15.1692 9.37378C15.0462 9.37378 14.9343 9.30288 14.8815 9.19097C14.8294 9.07964 14.8464 8.9478 14.9249 8.85288C14.9308 8.84585 15.2976 8.40054 15.7065 7.8105C15.9022 7.52808 16.1067 7.21519 16.2872 6.89644C15.7622 6.21616 15.4862 5.43042 15.4862 4.61069C15.4862 3.22671 16.2767 2.00093 17.486 1.25151C17.5616 1.30425 17.636 1.35933 17.7081 1.41558C16.8614 0.754639 15.7968 0.359131 14.639 0.359131C13.4155 0.359131 12.2952 0.799756 11.4274 1.53042C12.5155 2.44624 13.2081 3.81733 13.2081 5.35132C13.2081 6.88472 12.5161 8.25581 11.4274 9.17163C11.3946 9.14409 11.3618 9.11538 11.3296 9.08667C11.3888 9.13882 11.4485 9.19038 11.5101 9.24019C11.2429 9.37085 11.0519 9.48452 10.9517 9.5478C11.0401 9.49214 11.1995 9.39663 11.4192 9.2853C11.5675 9.36148 11.7157 9.44292 11.8651 9.53316C11.8769 9.54019 11.8892 9.54663 11.9009 9.55425C11.905 9.55659 11.9085 9.55835 11.9126 9.5607C11.9999 9.6146 12.079 9.66675 12.1546 9.71773C14.1315 11.022 15.444 13.2703 15.444 15.8373C15.444 16.6705 13.7044 17.2142 11.4321 17.4691C15.7095 17.9484 21.8677 17.4046 21.8677 15.8373C21.8677 13.2714 20.5558 11.0238 18.5788 9.7189Z" fill="#59ACEA"/>
<path d="M10.2615 7.75073C10.2761 7.77769 10.2914 7.80464 10.3066 7.83101C10.2914 7.80464 10.2761 7.77769 10.2615 7.75073Z" fill="#59ACEA"/>
<path d="M10.9521 9.54907C10.9434 9.55435 10.9357 9.55962 10.9287 9.56431C10.9352 9.55962 10.9434 9.55435 10.9521 9.54907Z" fill="#59ACEA"/>
<path d="M19.5103 6.44917C19.5231 6.39233 19.5349 6.3355 19.5454 6.27808C19.5343 6.3355 19.5226 6.39233 19.5103 6.44917Z" fill="#59ACEA"/>
<path d="M18.7183 8.23013C18.7522 8.18208 18.7851 8.13345 18.8179 8.08423C18.7851 8.13286 18.7522 8.18208 18.7183 8.23013Z" fill="#59ACEA"/>
<path d="M18.8384 8.0519C18.8724 7.99917 18.9058 7.94526 18.938 7.89136C18.9058 7.94526 18.8724 7.99917 18.8384 8.0519Z" fill="#59ACEA"/>
<path d="M11.4309 17.4708C11.367 17.4637 11.3038 17.4561 11.2405 17.4485C11.3038 17.4561 11.367 17.4631 11.4309 17.4708Z" fill="#59ACEA"/>
<path d="M18.447 8.57983C18.4886 8.5312 18.5291 8.48081 18.5683 8.43042C18.5291 8.48081 18.4886 8.5312 18.447 8.57983Z" fill="#59ACEA"/>
<path d="M18.5935 8.39819C18.6322 8.3478 18.6703 8.29741 18.7072 8.24585C18.6703 8.29741 18.6322 8.34839 18.5935 8.39819Z" fill="#59ACEA"/>
<path d="M18.9551 7.86191C18.9838 7.8127 19.0119 7.76289 19.0389 7.71191C19.0119 7.76289 18.9838 7.8127 18.9551 7.86191Z" fill="#59ACEA"/>
<path d="M19.1565 7.47944C19.1823 7.42495 19.2075 7.36987 19.2309 7.31421C19.2069 7.36987 19.1823 7.42495 19.1565 7.47944Z" fill="#59ACEA"/>
<path d="M19.0532 7.68521C19.0831 7.62954 19.1112 7.57271 19.1388 7.51587C19.1112 7.57329 19.0825 7.62954 19.0532 7.68521Z" fill="#59ACEA"/>
<path d="M19.3235 7.08101C19.3458 7.02065 19.3674 6.95972 19.3874 6.89819C19.3674 6.95913 19.3458 7.02007 19.3235 7.08101Z" fill="#59ACEA"/>
<path d="M19.3914 6.88652C19.4101 6.82793 19.4277 6.76875 19.4447 6.70898C19.4277 6.76816 19.4101 6.82793 19.3914 6.88652Z" fill="#59ACEA"/>
<path d="M19.4561 6.66797C19.473 6.60586 19.4889 6.54375 19.5035 6.48047C19.4889 6.54316 19.473 6.60586 19.4561 6.66797Z" fill="#59ACEA"/>
<path d="M19.2368 7.30005C19.262 7.24087 19.2854 7.1811 19.3083 7.12134C19.2854 7.18169 19.262 7.24145 19.2368 7.30005Z" fill="#59ACEA"/>
<path d="M11.3265 9.08487C11.2954 9.05733 11.2644 9.0292 11.2339 9.00049C11.2644 9.02861 11.2948 9.05674 11.3265 9.08487Z" fill="#59ACEA"/>
<path d="M9.84546 6.74756C9.85249 6.77275 9.86069 6.79736 9.86831 6.82256C9.86069 6.79736 9.85308 6.77275 9.84546 6.74756Z" fill="#59ACEA"/>
<path d="M9.74634 6.34326C9.75103 6.36729 9.7563 6.39131 9.76157 6.41533C9.7563 6.39131 9.75103 6.36729 9.74634 6.34326Z" fill="#59ACEA"/>
<path d="M11.2393 17.4486C11.1778 17.441 11.1163 17.4334 11.0559 17.4258C11.1163 17.4334 11.1778 17.441 11.2393 17.4486Z" fill="#59ACEA"/>
<path d="M9.92969 7.00879C9.93848 7.03457 9.94844 7.05977 9.95781 7.08555C9.94785 7.06035 9.93848 7.03457 9.92969 7.00879Z" fill="#59ACEA"/>
<path d="M9.77563 6.47925C9.78149 6.50386 9.78735 6.52788 9.79321 6.55249C9.78735 6.52847 9.78149 6.50386 9.77563 6.47925Z" fill="#59ACEA"/>
<path d="M9.88574 6.87939C9.89395 6.90459 9.90273 6.92979 9.91094 6.95498C9.90273 6.92979 9.89395 6.90459 9.88574 6.87939Z" fill="#59ACEA"/>
<path d="M10.1982 7.63184C10.2123 7.65879 10.2264 7.68516 10.2404 7.71152C10.2264 7.68516 10.2123 7.65879 10.1982 7.63184Z" fill="#59ACEA"/>
<path d="M10.1384 7.51123C10.1513 7.5376 10.1642 7.56397 10.1777 7.59033C10.1642 7.56397 10.1507 7.5376 10.1384 7.51123Z" fill="#59ACEA"/>
<path d="M10.0276 7.26392C10.0387 7.29028 10.0499 7.31607 10.061 7.34243C10.0493 7.31607 10.0381 7.29028 10.0276 7.26392Z" fill="#59ACEA"/>
<path d="M10.0811 7.38794C10.0928 7.41431 10.1051 7.44067 10.1174 7.46704C10.1051 7.44067 10.0928 7.41431 10.0811 7.38794Z" fill="#59ACEA"/>
<path d="M9.97656 7.13721C9.98652 7.16299 9.99707 7.18877 10.007 7.21455C9.99707 7.18877 9.98652 7.16299 9.97656 7.13721Z" fill="#59ACEA"/>
<path d="M9.80908 6.61401C9.81553 6.63862 9.82256 6.66323 9.82959 6.68843C9.82256 6.66382 9.81553 6.63921 9.80908 6.61401Z" fill="#59ACEA"/>
<path d="M9.72046 6.20557C9.72456 6.229 9.72925 6.25244 9.73335 6.27588C9.72925 6.25244 9.72456 6.229 9.72046 6.20557Z" fill="#59ACEA"/>
<path d="M9.64966 5.4978C9.65024 5.51421 9.65142 5.5312 9.652 5.54761C9.65142 5.53062 9.65024 5.51421 9.64966 5.4978Z" fill="#59ACEA"/>
<path d="M8.48169 12.014C8.80103 11.4908 9.18364 11.0115 9.61899 10.5867C9.18364 11.0121 8.80103 11.4914 8.48169 12.014Z" fill="#59ACEA"/>
<path d="M7.6001 16.2913C8.00264 16.7512 9.01865 17.0928 10.3323 17.3172C9.01807 17.0928 8.00264 16.7512 7.6001 16.2913Z" fill="#59ACEA"/>
<path d="M8.25454 12.4148C7.71665 13.4355 7.41138 14.6003 7.41138 15.839C7.41138 14.6003 7.71665 13.4349 8.25454 12.4148Z" fill="#59ACEA"/>
<path d="M8.25464 12.4148C8.32612 12.2789 8.40229 12.1453 8.48198 12.0146C8.40229 12.1453 8.32612 12.2783 8.25464 12.4148Z" fill="#59ACEA"/>
<path d="M9.65625 5.64185C9.65742 5.66177 9.65918 5.6811 9.66035 5.70102C9.65859 5.6811 9.65742 5.66118 9.65625 5.64185Z" fill="#59ACEA"/>
<path d="M9.68018 5.92627C9.68252 5.94853 9.68604 5.9708 9.68897 5.99306C9.68604 5.9708 9.68311 5.94853 9.68018 5.92627Z" fill="#59ACEA"/>
<path d="M9.69824 6.06665C9.70176 6.0895 9.70527 6.11235 9.70879 6.13462C9.70527 6.11177 9.70176 6.0895 9.69824 6.06665Z" fill="#59ACEA"/>
<path d="M9.66602 5.78442C9.66777 5.8061 9.67012 5.82778 9.67246 5.84946C9.67012 5.82778 9.66777 5.8061 9.66602 5.78442Z" fill="#59ACEA"/>
<path d="M13.2009 5.08594C13.2015 5.0959 13.2015 5.10527 13.2021 5.11523C13.2021 5.10527 13.2015 5.0959 13.2009 5.08594Z" fill="#EB5B58"/>
<path d="M13.1804 4.82446C13.1816 4.83794 13.1834 4.85083 13.1845 4.86431C13.1828 4.85083 13.1816 4.83735 13.1804 4.82446Z" fill="#EB5B58"/>
<path d="M11.7955 1.87447C11.7585 1.83638 11.7205 1.79888 11.6824 1.76196C11.7205 1.79829 11.7585 1.83579 11.7955 1.87447Z" fill="#EB5B58"/>
<path d="M13.1013 4.323C13.1037 4.33472 13.1066 4.34644 13.1089 4.35815C13.1066 4.34644 13.1037 4.33472 13.1013 4.323Z" fill="#EB5B58"/>
<path d="M13.0481 4.09351C13.0504 4.10229 13.0522 4.1105 13.0545 4.11929C13.0522 4.1105 13.0504 4.10229 13.0481 4.09351Z" fill="#EB5B58"/>
<path d="M13.1465 4.56909C13.1488 4.58315 13.1512 4.59663 13.1529 4.61069C13.1512 4.59663 13.1488 4.58257 13.1465 4.56909Z" fill="#EB5B58"/>
<path d="M11.8051 8.82056C11.7793 8.84751 11.7529 8.87388 11.7266 8.90024C11.7529 8.87388 11.7787 8.84692 11.8051 8.82056Z" fill="#EB5B58"/>
<path d="M11.821 8.80444C11.8457 8.77866 11.8703 8.7523 11.8949 8.72534C11.8703 8.75171 11.8457 8.77808 11.821 8.80444Z" fill="#EB5B58"/>
<path d="M12.979 3.85303C12.9837 3.86768 12.9878 3.88291 12.9925 3.89756C12.9878 3.88233 12.9837 3.86768 12.979 3.85303Z" fill="#EB5B58"/>
<path d="M13.1226 6.27544C13.1267 6.25259 13.1313 6.22915 13.1354 6.2063C13.1313 6.22974 13.1272 6.25259 13.1226 6.27544Z" fill="#EB5B58"/>
<path d="M11.7449 9.46285C11.7255 9.45171 11.7056 9.44058 11.6863 9.42944C11.7056 9.44058 11.725 9.45171 11.7449 9.46285Z" fill="#EB5B58"/>
<path d="M12.0542 17.3918C11.92 17.4112 11.7829 17.4293 11.644 17.4463C11.7829 17.4293 11.92 17.4112 12.0542 17.3918Z" fill="#EB5B58"/>
<path d="M11.9131 8.70522C11.9365 8.67944 11.9594 8.65308 11.9822 8.62671C11.96 8.65308 11.9365 8.67944 11.9131 8.70522Z" fill="#EB5B58"/>
<path d="M11.9137 9.56191C11.9096 9.55957 11.9061 9.55781 11.902 9.55547C11.8961 9.55195 11.8902 9.54844 11.8838 9.54492C11.8896 9.54844 11.8961 9.55195 11.902 9.55547C11.9061 9.55781 11.9096 9.55957 11.9137 9.56191C11.9465 9.58242 11.977 9.60175 12.008 9.62168C11.977 9.60175 11.9465 9.58242 11.9137 9.56191Z" fill="#EB5B58"/>
<path d="M13.1472 6.13535C13.1507 6.1125 13.1548 6.09023 13.1578 6.06738C13.1542 6.08965 13.1507 6.1125 13.1472 6.13535Z" fill="#EB5B58"/>
<path d="M13.2039 5.54727C13.2044 5.53086 13.2056 5.51445 13.2062 5.49805C13.2056 5.51445 13.205 5.53086 13.2039 5.54727Z" fill="#EB5B58"/>
<path d="M12.0222 2.12402C12.0527 2.15977 12.082 2.19551 12.1113 2.23242C12.0826 2.19551 12.0527 2.15977 12.0222 2.12402Z" fill="#EB5B58"/>
<path d="M13.1958 5.70044C13.197 5.6811 13.1987 5.66177 13.1999 5.64185C13.1993 5.66118 13.1976 5.68052 13.1958 5.70044Z" fill="#EB5B58"/>
<path d="M11.8545 1.93579C11.8908 1.97446 11.9271 2.01431 11.9623 2.05415C11.9271 2.01431 11.8908 1.97505 11.8545 1.93579Z" fill="#EB5B58"/>
<path d="M13.1833 5.84819C13.1857 5.8271 13.188 5.80601 13.1898 5.78491C13.188 5.80601 13.1857 5.8271 13.1833 5.84819Z" fill="#EB5B58"/>
<path d="M13.167 5.99297C13.1699 5.9707 13.1729 5.94902 13.1752 5.92676C13.1729 5.94902 13.1699 5.9707 13.167 5.99297Z" fill="#EB5B58"/>
<path d="M12.3308 2.52637C12.3484 2.55156 12.3654 2.57734 12.3824 2.60254C12.3654 2.57734 12.3484 2.55156 12.3308 2.52637Z" fill="#EB5B58"/>
<path d="M12.6953 3.14771C12.7053 3.16763 12.7152 3.18755 12.7246 3.20747C12.7152 3.18755 12.7053 3.16763 12.6953 3.14771Z" fill="#EB5B58"/>
<path d="M12.5823 2.9314C12.5975 2.95894 12.6127 2.98647 12.6274 3.0146C12.6122 2.98706 12.5975 2.95894 12.5823 2.9314Z" fill="#EB5B58"/>
<path d="M12.8008 3.37573C12.8096 3.39565 12.8184 3.41558 12.8266 3.43608C12.8178 3.41558 12.8096 3.39565 12.8008 3.37573Z" fill="#EB5B58"/>
<path d="M12.8958 3.61035C12.9028 3.6291 12.9092 3.64785 12.9163 3.66601C12.9092 3.64785 12.9022 3.6291 12.8958 3.61035Z" fill="#EB5B58"/>
<path d="M12.4702 2.73975C12.4843 2.7626 12.4983 2.78662 12.5118 2.80948C12.4978 2.78604 12.4843 2.7626 12.4702 2.73975Z" fill="#EB5B58"/>
<path d="M12.1814 2.32104C12.2013 2.34683 12.2212 2.37319 12.2406 2.39956C12.2212 2.37319 12.2013 2.34741 12.1814 2.32104Z" fill="#EB5B58"/>
<path d="M14.8984 8.89111C14.8668 8.94267 14.851 9.00185 14.8516 9.06103C14.851 9.00127 14.8668 8.94267 14.8984 8.89111Z" fill="#EB5B58"/>
<path d="M15.7305 3.30879C15.7363 3.29355 15.7416 3.27891 15.7475 3.26367C15.7416 3.27891 15.7363 3.29355 15.7305 3.30879Z" fill="#EB5B58"/>
<path d="M15.6707 3.47388C15.6753 3.45923 15.6806 3.44458 15.6859 3.42993C15.6812 3.44458 15.6759 3.45923 15.6707 3.47388Z" fill="#EB5B58"/>
<path d="M15.884 2.9626C15.8922 2.94678 15.8999 2.93037 15.9081 2.91455C15.8999 2.93037 15.8922 2.94678 15.884 2.9626Z" fill="#EB5B58"/>
<path d="M15.8083 3.12085C15.8166 3.10327 15.8248 3.08569 15.833 3.06812C15.8248 3.08569 15.816 3.10327 15.8083 3.12085Z" fill="#EB5B58"/>
<path d="M15.5312 4.04722C15.5336 4.03315 15.5354 4.01968 15.5377 4.00562C15.5359 4.01909 15.5336 4.03315 15.5312 4.04722Z" fill="#EB5B58"/>
<path d="M15.5078 4.221C15.5084 4.21455 15.5096 4.20811 15.5102 4.20166C15.5096 4.20811 15.5084 4.21455 15.5078 4.221Z" fill="#EB5B58"/>
<path d="M15.6121 3.67095C15.6162 3.65688 15.6197 3.64282 15.6238 3.62817C15.6197 3.64224 15.6156 3.6563 15.6121 3.67095Z" fill="#EB5B58"/>
<path d="M15.5701 3.84077C15.5724 3.82964 15.5753 3.81851 15.5777 3.80737C15.5753 3.81909 15.5724 3.82964 15.5701 3.84077Z" fill="#EB5B58"/>
<path d="M16.0703 2.63438C16.0879 2.60684 16.1055 2.5793 16.1242 2.55176C16.1061 2.57871 16.0879 2.60625 16.0703 2.63438Z" fill="#EB5B58"/>
<path d="M16.0154 2.72339C16.0037 2.74331 15.9914 2.76323 15.9802 2.78374C15.9919 2.76382 16.0037 2.7439 16.0154 2.72339Z" fill="#EB5B58"/>
<path d="M16.6368 1.92578C16.5993 1.96328 16.5629 2.00195 16.5266 2.04063C16.5629 2.00195 16.5993 1.96328 16.6368 1.92578Z" fill="#EB5B58"/>
<path d="M16.1841 2.4644C16.1999 2.44214 16.2157 2.41987 16.2321 2.39819C16.2157 2.42046 16.1999 2.44214 16.1841 2.4644Z" fill="#EB5B58"/>
<path d="M16.2866 2.32617C16.313 2.2916 16.3405 2.25762 16.3681 2.22363C16.3405 2.25762 16.313 2.2916 16.2866 2.32617Z" fill="#EB5B58"/>
<path d="M16.4177 2.16382C16.4376 2.14038 16.4582 2.11694 16.4787 2.09351C16.4582 2.11694 16.4382 2.14038 16.4177 2.16382Z" fill="#EB5B58"/>
<path d="M16.1794 9.28755C16.214 9.28227 16.2486 9.277 16.2843 9.27173C16.2486 9.27759 16.2134 9.28286 16.1794 9.28755Z" fill="#EB5B58"/>
<path d="M15.5125 9.3604C15.5318 9.35923 15.5523 9.35747 15.5734 9.35571C15.5523 9.35747 15.5318 9.35864 15.5125 9.3604Z" fill="#EB5B58"/>
<path d="M15.5903 9.35439C15.612 9.35264 15.6349 9.35088 15.6577 9.34912C15.6349 9.35088 15.612 9.35264 15.5903 9.35439Z" fill="#EB5B58"/>
<path d="M15.496 9.36157C15.4773 9.36274 15.4591 9.36391 15.4421 9.36508C15.4591 9.36391 15.4773 9.36274 15.496 9.36157Z" fill="#EB5B58"/>
<path d="M15.3225 9.37041C15.3336 9.36982 15.3465 9.36924 15.3588 9.36865C15.3465 9.36982 15.3336 9.37041 15.3225 9.37041Z" fill="#EB5B58"/>
<path d="M15.3028 9.37158C15.2934 9.37217 15.2834 9.37217 15.2747 9.37275C15.2834 9.37217 15.2934 9.37158 15.3028 9.37158Z" fill="#EB5B58"/>
<path d="M15.3789 9.36782C15.393 9.36724 15.4082 9.36606 15.424 9.36548C15.4082 9.36606 15.393 9.36724 15.3789 9.36782Z" fill="#EB5B58"/>
<path d="M15.7485 9.34058C15.7233 9.34292 15.6981 9.34526 15.6741 9.3476C15.6987 9.34526 15.7233 9.34292 15.7485 9.34058Z" fill="#EB5B58"/>
<path d="M16.0686 9.30337C16.1008 9.29927 16.1336 9.29458 16.167 9.28931C16.1336 9.29458 16.1008 9.29927 16.0686 9.30337Z" fill="#EB5B58"/>
<path d="M15.7649 9.33926C15.7913 9.33691 15.8182 9.33398 15.8458 9.33105C15.8182 9.3334 15.7913 9.33633 15.7649 9.33926Z" fill="#EB5B58"/>
<path d="M15.4915 4.43491C15.492 4.42085 15.4926 4.40679 15.4938 4.39331C15.4926 4.40679 15.492 4.42085 15.4915 4.43491Z" fill="#EB5B58"/>
<path d="M16.2875 6.89697C16.1071 7.21572 15.9026 7.52861 15.7069 7.81103C15.6301 7.92178 15.5551 8.02725 15.4836 8.12568C15.5551 8.02725 15.6307 7.92178 15.7069 7.81103C15.902 7.5292 16.1065 7.21631 16.2875 6.89697Z" fill="#EB5B58"/>
<path d="M15.2354 9.37339C15.2406 9.37339 15.2471 9.3728 15.2529 9.3728C15.2471 9.37338 15.2406 9.37339 15.2354 9.37339Z" fill="#EB5B58"/>
<path d="M15.9619 9.3169C15.9924 9.31338 16.0234 9.30928 16.0545 9.30518C16.0234 9.30928 15.9924 9.31338 15.9619 9.3169Z" fill="#EB5B58"/>
<path d="M15.8606 9.3293C15.8887 9.32637 15.918 9.32285 15.9479 9.31934C15.918 9.32227 15.8887 9.32578 15.8606 9.3293Z" fill="#EB5B58"/>
<path d="M16.931 1.65479C16.8782 1.69932 16.8272 1.74443 16.7769 1.79072C16.8272 1.74443 16.8782 1.69932 16.931 1.65479Z" fill="#EB5B58"/>
<path d="M14.8493 16.6113C14.8253 16.6254 14.8007 16.64 14.7749 16.6535C14.8007 16.64 14.8253 16.6254 14.8493 16.6113Z" fill="#EB5B58"/>
<path d="M14.9442 16.5527C14.9226 16.5668 14.9009 16.5814 14.8774 16.5955C14.9009 16.5814 14.9226 16.5668 14.9442 16.5527Z" fill="#EB5B58"/>
<path d="M14.7466 16.6682C14.7196 16.6823 14.6927 16.6969 14.6646 16.7104C14.6933 16.6969 14.7196 16.6829 14.7466 16.6682Z" fill="#EB5B58"/>
<path d="M15.1116 16.4304C15.0946 16.4445 15.0776 16.4591 15.0588 16.4732C15.0776 16.4591 15.0946 16.4445 15.1116 16.4304Z" fill="#EB5B58"/>
<path d="M15.2078 16.3436C15.2212 16.3301 15.2335 16.3161 15.2458 16.302C15.2335 16.3161 15.2212 16.3301 15.2078 16.3436Z" fill="#EB5B58"/>
<path d="M15.0313 16.4924C15.012 16.5065 14.9927 16.5206 14.9722 16.5346C14.9927 16.5211 15.012 16.5065 15.0313 16.4924Z" fill="#EB5B58"/>
<path d="M14.6388 16.7234C14.6089 16.738 14.579 16.7521 14.5474 16.7662C14.5784 16.7521 14.6089 16.7375 14.6388 16.7234Z" fill="#EB5B58"/>
<path d="M15.182 16.3674C15.1673 16.3815 15.1533 16.395 15.1375 16.409C15.1533 16.3956 15.1673 16.3815 15.182 16.3674Z" fill="#EB5B58"/>
<path d="M13.5275 17.1082C13.4759 17.1216 13.4232 17.1345 13.3699 17.1474C13.4238 17.1345 13.4759 17.121 13.5275 17.1082Z" fill="#EB5B58"/>
<path d="M13.845 17.0208C13.7981 17.0348 13.75 17.0483 13.7014 17.0618C13.75 17.0483 13.7975 17.0348 13.845 17.0208Z" fill="#EB5B58"/>
<path d="M13.6877 17.0654C13.6385 17.0789 13.5887 17.0924 13.5383 17.1053C13.5887 17.0924 13.6385 17.0789 13.6877 17.0654Z" fill="#EB5B58"/>
<path d="M14.3987 16.8293C14.3636 16.8434 14.3284 16.8575 14.2915 16.8715C14.3278 16.8575 14.3636 16.8434 14.3987 16.8293Z" fill="#EB5B58"/>
<path d="M14.1331 16.9285C14.0921 16.9425 14.0511 16.9566 14.0083 16.9701C14.0511 16.9566 14.0921 16.9425 14.1331 16.9285Z" fill="#EB5B58"/>
<path d="M14.5216 16.7771C14.4894 16.7912 14.4566 16.8058 14.4226 16.8199C14.4566 16.8058 14.4894 16.7912 14.5216 16.7771Z" fill="#EB5B58"/>
<path d="M14.2691 16.8796C14.231 16.8937 14.1929 16.9078 14.1531 16.9218C14.1929 16.9078 14.231 16.8937 14.2691 16.8796Z" fill="#EB5B58"/>
<path d="M13.9914 16.9753C13.9474 16.9894 13.9029 17.0035 13.8572 17.0169C13.9035 17.0035 13.9474 16.9894 13.9914 16.9753Z" fill="#EB5B58"/>
<path d="M18.4461 8.58057C17.852 8.89873 17.2133 9.08916 16.6584 9.20342C17.2133 9.08916 17.852 8.89873 18.4461 8.58057Z" fill="#EB5B58"/>
<path d="M16.6568 9.20386C16.6158 9.21265 16.5748 9.22026 16.5349 9.22788C16.5748 9.22026 16.6152 9.21206 16.6568 9.20386Z" fill="#EB5B58"/>
<path d="M16.4042 9.25195C16.3667 9.2584 16.3298 9.26484 16.2935 9.2707C16.3304 9.26425 16.3667 9.2584 16.4042 9.25195Z" fill="#EB5B58"/>
<path d="M16.5291 9.229C16.4898 9.23662 16.4512 9.24365 16.4131 9.2501C16.4506 9.24365 16.4893 9.23662 16.5291 9.229Z" fill="#EB5B58"/>
<path d="M22.5473 0.997754C21.8653 0.670801 21.0819 0.483887 20.2493 0.483887C20.084 0.483887 19.9206 0.491504 19.7594 0.505566C18.8295 0.588183 17.9788 0.90459 17.2844 1.38447C17.35 1.33877 17.4174 1.29482 17.486 1.25205C18.7821 2.15381 19.6317 3.65322 19.6317 5.35185C19.6317 6.58291 19.1858 7.70908 18.4469 8.5792C18.5026 8.54932 18.5583 8.51885 18.6127 8.48662C19.1395 8.65361 19.6891 8.73857 20.2487 8.73857C22.5877 8.73857 24.5372 7.26904 24.9356 5.34014C24.9842 5.10342 25.0118 4.86025 25.0118 4.61123C25.0118 3.05732 24.0151 1.70205 22.5473 0.997754Z" fill="#EB5B58"/>
<path d="M17.2486 1.40967C17.1525 1.47764 17.0594 1.54853 16.9697 1.62236C17.0594 1.54853 17.1525 1.47764 17.2486 1.40967Z" fill="#EB5B58"/>
<path d="M16.7548 1.81128C16.7296 1.83472 16.705 1.85874 16.6804 1.88276C16.705 1.85874 16.7296 1.83472 16.7548 1.81128Z" fill="#EB5B58"/>
<path d="M15.434 15.9421C15.4311 15.9585 15.4288 15.9755 15.4241 15.9919C15.4288 15.975 15.4311 15.9585 15.434 15.9421Z" fill="#EB5B58"/>
<path d="M15.3854 16.0957C15.379 16.1098 15.3731 16.1238 15.3655 16.1373C15.3731 16.1238 15.379 16.1098 15.3854 16.0957Z" fill="#EB5B58"/>
<path d="M15.4141 16.0225C15.4094 16.0371 15.4053 16.0512 15.3994 16.0658C15.4053 16.0512 15.4094 16.0365 15.4141 16.0225Z" fill="#EB5B58"/>
<path d="M15.3479 16.1655C15.3391 16.1796 15.3315 16.1942 15.3215 16.2077C15.3315 16.1942 15.3397 16.1796 15.3479 16.1655Z" fill="#EB5B58"/>
<path d="M15.3015 16.2339C15.291 16.2479 15.281 16.2626 15.2693 16.2761C15.281 16.2626 15.291 16.2485 15.3015 16.2339Z" fill="#EB5B58"/>
<path d="M15.4439 15.8438C15.4439 15.8684 15.4421 15.8924 15.4392 15.9164C15.4427 15.8924 15.4439 15.8678 15.4439 15.8438Z" fill="#EB5B58"/>
<path d="M12.481 7.94727C12.4962 7.92207 12.5114 7.89688 12.5267 7.87109C12.5114 7.89688 12.4962 7.92207 12.481 7.94727Z" fill="#EB5B58"/>
<path d="M12.6162 7.71035C12.6297 7.68516 12.6432 7.65996 12.6561 7.63477C12.6432 7.66055 12.6297 7.68574 12.6162 7.71035Z" fill="#EB5B58"/>
<path d="M12.55 7.83008C12.5647 7.80488 12.5788 7.77969 12.5928 7.75391C12.5788 7.77969 12.5647 7.80488 12.55 7.83008Z" fill="#EB5B58"/>
<path d="M12.6794 7.58916C12.6917 7.56397 12.7041 7.53936 12.7164 7.51416C12.7041 7.53936 12.6917 7.56455 12.6794 7.58916Z" fill="#EB5B58"/>
<path d="M12.4082 8.06235C12.4246 8.03716 12.441 8.01138 12.4568 7.9856C12.441 8.01138 12.4246 8.03657 12.4082 8.06235Z" fill="#EB5B58"/>
<path d="M13.0945 6.41431C13.0998 6.39087 13.1044 6.36743 13.1097 6.34399C13.105 6.36802 13.0998 6.39087 13.0945 6.41431Z" fill="#EB5B58"/>
<path d="M12.3325 8.1749C12.3501 8.14912 12.3671 8.12393 12.3841 8.09814C12.3677 8.12393 12.3501 8.14971 12.3325 8.1749Z" fill="#EB5B58"/>
<path d="M12.7393 7.46611C12.751 7.4415 12.7627 7.41631 12.7738 7.39111C12.7627 7.41631 12.751 7.44092 12.7393 7.46611Z" fill="#EB5B58"/>
<path d="M12.9456 6.95401C12.9538 6.92998 12.962 6.90537 12.9696 6.88135C12.962 6.90537 12.9538 6.9294 12.9456 6.95401Z" fill="#EB5B58"/>
<path d="M13.0276 6.68745C13.034 6.66343 13.0411 6.63999 13.0469 6.61597C13.0405 6.63999 13.034 6.66343 13.0276 6.68745Z" fill="#EB5B58"/>
<path d="M13.0627 6.5521C13.0686 6.52866 13.0745 6.50464 13.0797 6.4812C13.0745 6.50464 13.0686 6.52808 13.0627 6.5521Z" fill="#EB5B58"/>
<path d="M12.9883 6.82158C12.9959 6.79756 13.0029 6.77354 13.01 6.74951C13.0029 6.77354 12.9953 6.79756 12.9883 6.82158Z" fill="#EB5B58"/>
<path d="M12.8489 7.21348C12.8588 7.18887 12.8688 7.16426 12.8782 7.13965C12.8688 7.16426 12.8588 7.18887 12.8489 7.21348Z" fill="#EB5B58"/>
<path d="M12.7959 7.34053C12.8064 7.31592 12.8176 7.29072 12.8275 7.26611C12.817 7.29072 12.8064 7.31592 12.7959 7.34053Z" fill="#EB5B58"/>
<path d="M12.2546 8.28633C12.2734 8.26055 12.2916 8.23477 12.3097 8.20898C12.2916 8.23477 12.2728 8.26055 12.2546 8.28633Z" fill="#EB5B58"/>
<path d="M12.8992 7.08472C12.908 7.06011 12.9173 7.03608 12.9255 7.01147C12.9167 7.0355 12.908 7.06011 12.8992 7.08472Z" fill="#EB5B58"/>
<path d="M11.5298 9.08437C11.5603 9.05742 11.5895 9.03047 11.6194 9.00293C11.5901 9.03047 11.5603 9.05742 11.5298 9.08437Z" fill="#EB5B58"/>
<path d="M12.4521 17.3303C12.3232 17.352 12.1908 17.3719 12.0566 17.3913C12.1908 17.3725 12.3227 17.352 12.4521 17.3303Z" fill="#EB5B58"/>
<path d="M11.4326 17.4709C11.5023 17.4633 11.5715 17.4551 11.6406 17.4463C11.5715 17.4551 11.5023 17.4633 11.4326 17.4709Z" fill="#EB5B58"/>
<path d="M12.6437 17.2976C12.581 17.3087 12.5177 17.3199 12.4539 17.3304C12.5177 17.3199 12.581 17.3087 12.6437 17.2976Z" fill="#EB5B58"/>
<path d="M12.8284 17.2634C12.7686 17.2751 12.7077 17.2863 12.6467 17.2974C12.7077 17.2863 12.7686 17.2746 12.8284 17.2634Z" fill="#EB5B58"/>
<path d="M12.1733 8.39424C12.1933 8.36846 12.2126 8.34268 12.2319 8.31689C12.2126 8.34268 12.1933 8.36904 12.1733 8.39424Z" fill="#EB5B58"/>
<path d="M11.5461 9.35278C11.5737 9.36743 11.6012 9.38208 11.6282 9.39732C11.6012 9.38267 11.5737 9.36743 11.5461 9.35278Z" fill="#EB5B58"/>
<path d="M13.0145 17.2258C12.9553 17.2381 12.8956 17.2499 12.8352 17.2616C12.8956 17.2504 12.9553 17.2381 13.0145 17.2258Z" fill="#EB5B58"/>
<path d="M13.19 17.1885C13.1337 17.2008 13.0763 17.2131 13.0183 17.2254C13.0763 17.2137 13.1337 17.2014 13.19 17.1885Z" fill="#EB5B58"/>
<path d="M13.3615 17.1492C13.307 17.1621 13.2525 17.175 13.1963 17.1873C13.2525 17.175 13.3076 17.1621 13.3615 17.1492Z" fill="#EB5B58"/>
<path d="M11.5327 1.62305C11.5608 1.64824 11.589 1.67344 11.6165 1.69922C11.589 1.67344 11.5608 1.64766 11.5327 1.62305Z" fill="#EB5B58"/>
<path d="M12.0894 8.50078C12.1104 8.475 12.131 8.44922 12.1515 8.42285C12.131 8.44863 12.1099 8.475 12.0894 8.50078Z" fill="#EB5B58"/>
<path d="M12.0029 8.60381C12.0252 8.57803 12.0469 8.55166 12.0686 8.52588C12.0469 8.55225 12.0252 8.57803 12.0029 8.60381Z" fill="#EB5B58"/>
<path d="M11.6294 8.99336C11.6575 8.96699 11.6856 8.94004 11.7132 8.91309C11.6856 8.94004 11.6575 8.96699 11.6294 8.99336Z" fill="#EB5B58"/>
<path d="M10.6814 17.3736C8.78418 17.0895 7.41133 16.5785 7.41133 15.8391C7.41133 13.1965 8.8 10.8896 10.8742 9.6041L10.8713 9.60176C10.8713 9.60176 11.0687 9.46406 11.4197 9.28652C11.4531 9.30352 11.4859 9.32109 11.5193 9.33867C11.4596 9.30703 11.3998 9.27539 11.34 9.24551C11.4027 9.19512 11.4637 9.14297 11.524 9.08965C11.4924 9.11777 11.4607 9.14531 11.4279 9.17285C10.3398 8.25703 9.64726 6.88652 9.64726 5.35254C9.64726 3.81914 10.3393 2.44746 11.4279 1.53164C10.5596 0.800976 9.43984 0.360352 8.21641 0.360352C5.45957 0.360352 3.22422 2.59512 3.22422 5.35254C3.22422 6.92461 3.95137 8.32617 5.0875 9.24082C4.6791 9.44004 4.44824 9.60117 4.44824 9.60117L4.45117 9.60351C2.37695 10.8891 0.988281 13.1965 0.988281 15.8391C0.988281 16.5785 2.36113 17.0895 4.2584 17.3736C6.38476 17.6918 9.17207 17.7246 11.4326 17.4709C11.1748 17.4422 10.9234 17.41 10.6814 17.3736Z" fill="#EB5B58"/>
<path d="M9.64795 5.35264C9.64795 6.88603 10.3399 8.25713 11.4286 9.17295C12.5167 8.25713 13.2093 6.88662 13.2093 5.35264C13.2093 3.81924 12.5173 2.44756 11.4286 1.53174C10.3399 2.44756 9.64795 3.81924 9.64795 5.35264Z" fill="#222349"/>
<path d="M15.4446 15.8391C15.4446 13.2715 14.1321 11.0238 12.1551 9.71953C12.0801 9.66855 12.001 9.61641 11.9131 9.5625C11.909 9.56016 11.9055 9.5584 11.9014 9.55605C11.8897 9.54902 11.8774 9.54199 11.8657 9.53496C11.7163 9.44414 11.5674 9.36328 11.4198 9.28711C11.0688 9.46465 10.8713 9.60234 10.8713 9.60234L10.8743 9.60469C8.80005 10.8902 7.41138 13.1971 7.41138 15.8396C7.41138 16.5791 8.78423 17.09 10.6815 17.3742C10.9235 17.4105 11.1749 17.4428 11.4321 17.4715C13.7049 17.216 15.4446 16.6723 15.4446 15.8391Z" fill="#222349"/>
<path d="M15.1692 9.37437C15.2471 9.37437 16.9827 9.36382 18.4469 8.57983C19.1858 7.70972 19.6317 6.58355 19.6317 5.35249C19.6317 3.65386 18.7827 2.15386 17.486 1.25269C16.2766 2.0021 15.4862 3.22788 15.4862 4.61187C15.4862 5.43159 15.7621 6.21733 16.2871 6.89761C16.1067 7.21636 15.9022 7.52925 15.7065 7.81167C15.2975 8.40171 14.9307 8.84702 14.9248 8.85405C14.8463 8.94898 14.8293 9.08022 14.8815 9.19214C14.9336 9.30288 15.0461 9.37437 15.1692 9.37437Z" fill="#222349"/>
</svg>
