<svg width="24" height="20" viewBox="0 0 24 20" fill="none" xmlns="http://www.w3.org/2000/svg">
<path d="M10.2617 7.03638C10.2666 7.06645 10.2727 7.09598 10.2781 7.12606C10.2727 7.09598 10.2666 7.06645 10.2617 7.03638Z" fill="#59ACEA"/>
<path d="M10.3525 7.46729C10.3613 7.50064 10.3706 7.534 10.3799 7.56791C10.3706 7.534 10.3613 7.50064 10.3525 7.46729Z" fill="#59ACEA"/>
<path d="M10.2383 6.88989C10.2421 6.91888 10.247 6.94732 10.252 6.9763C10.247 6.94732 10.2421 6.91888 10.2383 6.88989Z" fill="#59ACEA"/>
<path d="M7.50449 17.0415C7.50285 17.0743 7.50012 17.1071 7.49902 17.1405C7.50012 17.1071 7.50285 17.0749 7.50449 17.0415Z" fill="#59ACEA"/>
<path d="M10.3193 7.3252C10.327 7.35801 10.3346 7.39027 10.3429 7.42253C10.3346 7.39027 10.327 7.35746 10.3193 7.3252Z" fill="#59ACEA"/>
<path d="M10.2881 7.1814C10.2941 7.21257 10.3012 7.24429 10.3083 7.27546C10.3012 7.24429 10.2941 7.21311 10.2881 7.1814Z" fill="#59ACEA"/>
<path d="M10.1943 6.44263C10.1954 6.46614 10.1976 6.48911 10.1993 6.51263C10.1976 6.48911 10.1954 6.4656 10.1943 6.44263Z" fill="#59ACEA"/>
<path d="M10.1875 6.29053C10.188 6.30912 10.1891 6.32771 10.1897 6.34631C10.1891 6.32771 10.188 6.30912 10.1875 6.29053Z" fill="#59ACEA"/>
<path d="M10.2188 6.74219C10.222 6.76953 10.2259 6.79633 10.2291 6.82367C10.2259 6.79633 10.222 6.76899 10.2188 6.74219Z" fill="#59ACEA"/>
<path d="M10.2041 6.59302C10.2063 6.61872 10.209 6.64388 10.2118 6.66958C10.209 6.64388 10.2063 6.61818 10.2041 6.59302Z" fill="#59ACEA"/>
<path d="M12.0253 2.12442C12.0871 2.07083 12.1506 2.01888 12.2151 1.96802C12.1506 2.01833 12.0871 2.07083 12.0253 2.12442C11.4982 2.58106 11.0607 3.13887 10.7451 3.76778C11.0607 3.13833 11.4982 2.58052 12.0253 2.12442Z" fill="#59ACEA"/>
<path d="M10.6902 8.39939C10.6721 8.36166 10.6546 8.32393 10.6377 8.28564C10.6552 8.32338 10.6727 8.36166 10.6902 8.39939Z" fill="#59ACEA"/>
<path d="M10.6973 8.41504C10.7159 8.45387 10.7345 8.49215 10.7541 8.52988C10.7345 8.49215 10.7159 8.45387 10.6973 8.41504Z" fill="#59ACEA"/>
<path d="M10.5703 4.15326C10.6059 4.06576 10.6436 3.97936 10.6835 3.89404C10.6436 3.97936 10.6059 4.06576 10.5703 4.15326Z" fill="#59ACEA"/>
<path d="M10.582 8.15308C10.5973 8.19081 10.6137 8.228 10.6302 8.26518C10.6132 8.228 10.5973 8.19081 10.582 8.15308Z" fill="#59ACEA"/>
<path d="M7.52766 16.7117C7.52383 16.7554 7.51891 16.7992 7.51562 16.8435C7.51891 16.7997 7.52383 16.756 7.52766 16.7117Z" fill="#59ACEA"/>
<path d="M10.5721 8.12951C10.5573 8.09287 10.5425 8.05623 10.5283 8.01904C10.5425 8.05623 10.5573 8.09287 10.5721 8.12951Z" fill="#59ACEA"/>
<path d="M10.3916 7.60791C10.4014 7.64291 10.4124 7.67736 10.4233 7.71182C10.4124 7.67736 10.402 7.64291 10.3916 7.60791Z" fill="#59ACEA"/>
<path d="M10.4336 7.74683C10.4451 7.78237 10.4566 7.81737 10.4686 7.85237C10.4571 7.81737 10.4451 7.78237 10.4336 7.74683Z" fill="#59ACEA"/>
<path d="M10.4795 7.88403C10.4921 7.92067 10.5057 7.95677 10.5189 7.99231C10.5052 7.95677 10.4921 7.92013 10.4795 7.88403Z" fill="#59ACEA"/>
<path d="M7.68555 15.689C7.69867 15.6305 7.71344 15.5731 7.72766 15.5151C7.71344 15.5726 7.69867 15.6305 7.68555 15.689Z" fill="#59ACEA"/>
<path d="M18.7635 10.3193C18.7618 10.321 18.7597 10.3221 18.7575 10.3231V10.3166C18.7597 10.3182 18.7618 10.3188 18.7635 10.3193C20.006 9.34697 20.8077 7.8376 20.8077 6.13791C20.8077 3.20447 18.4299 0.82666 15.4964 0.82666C14.2561 0.82666 13.1181 1.25486 12.2146 1.96744C13.3691 2.94197 14.103 4.39939 14.103 6.02853C14.103 7.72111 13.3079 9.22502 12.0741 10.1979C11.7132 9.8933 11.3938 9.54221 11.1247 9.15283C11.3998 9.55096 11.7279 9.90971 12.0993 10.2192C10.9098 10.7656 9.8784 11.6028 9.09473 12.6419C9.87566 11.6067 10.9027 10.7716 12.0872 10.2253C14.6745 11.5208 16.4584 14.2114 16.4584 17.3313C16.4584 18.3113 14.2381 18.9222 11.4693 19.1639C11.367 19.1508 11.2664 19.1371 11.1668 19.1224C15.7978 19.7857 23.1636 19.2257 23.1631 17.4407C23.1631 14.3088 21.3661 11.6094 18.7635 10.3193Z" fill="#59ACEA"/>
<path d="M9.0909 12.6462C9.03621 12.719 8.98262 12.7923 8.93066 12.8666C8.98316 12.7917 9.03621 12.7184 9.0909 12.6462Z" fill="#59ACEA"/>
<path d="M8.77539 13.097C8.82406 13.0221 8.87383 12.9488 8.92468 12.8755C8.87383 12.9488 8.82351 13.0226 8.77539 13.097Z" fill="#59ACEA"/>
<path d="M10.822 8.65939C10.8012 8.62111 10.781 8.58228 10.7607 8.54346C10.781 8.58228 10.8012 8.62057 10.822 8.65939Z" fill="#59ACEA"/>
<path d="M8.76313 13.1155C8.71664 13.1877 8.67125 13.2599 8.62695 13.3337C8.67125 13.2599 8.71664 13.1877 8.76313 13.1155Z" fill="#59ACEA"/>
<path d="M11.1241 9.15164C11.0973 9.11336 11.0716 9.07453 11.0459 9.03516C11.0716 9.07453 11.0979 9.11336 11.1241 9.15164Z" fill="#59ACEA"/>
<path d="M10.8922 8.78592C10.8698 8.74764 10.8479 8.70881 10.8271 8.66943C10.8485 8.70826 10.8704 8.74709 10.8922 8.78592Z" fill="#59ACEA"/>
<path d="M11.0436 9.03201C11.0184 8.99318 10.9938 8.95436 10.9697 8.91553C10.9932 8.9549 11.0184 8.99373 11.0436 9.03201Z" fill="#59ACEA"/>
<path d="M8.61571 13.355C8.57196 13.4277 8.5293 13.5015 8.48828 13.5759C8.5293 13.501 8.57196 13.4277 8.61571 13.355Z" fill="#59ACEA"/>
<path d="M10.9665 8.91C10.943 8.87117 10.9195 8.83234 10.8965 8.79297C10.9195 8.83289 10.9424 8.87172 10.9665 8.91Z" fill="#59ACEA"/>
<path d="M7.60633 16.1021C7.59758 16.1545 7.58773 16.2065 7.58008 16.259C7.58773 16.2065 7.59758 16.1545 7.60633 16.1021Z" fill="#59ACEA"/>
<path d="M7.75293 15.409C7.76879 15.3478 7.78683 15.2871 7.80433 15.2258C7.78683 15.2871 7.76934 15.3478 7.75293 15.409Z" fill="#59ACEA"/>
<path d="M7.66129 15.8074C7.6498 15.8621 7.63777 15.9167 7.62793 15.972C7.63777 15.9173 7.6498 15.8626 7.66129 15.8074Z" fill="#59ACEA"/>
<path d="M7.89121 14.9465C7.87098 15.0089 7.8502 15.0707 7.83105 15.1336C7.8502 15.0707 7.87098 15.0089 7.89121 14.9465Z" fill="#59ACEA"/>
<path d="M7.56211 16.4016C7.55555 16.4514 7.54844 16.5006 7.54297 16.5504C7.54844 16.5001 7.55555 16.4508 7.56211 16.4016Z" fill="#59ACEA"/>
<path d="M7.98688 14.6709C7.96336 14.7343 7.93984 14.7978 7.91797 14.8623C7.93984 14.7983 7.96336 14.7349 7.98688 14.6709Z" fill="#59ACEA"/>
<path d="M8.47184 13.6055C8.43246 13.6771 8.39363 13.7498 8.35645 13.8226C8.39363 13.7498 8.43246 13.6777 8.47184 13.6055Z" fill="#59ACEA"/>
<path d="M8.21101 14.1257C8.17984 14.1946 8.14867 14.2635 8.11914 14.333C8.14867 14.2635 8.17984 14.1946 8.21101 14.1257Z" fill="#59ACEA"/>
<path d="M8.33567 13.8647C8.30067 13.9342 8.26621 14.0042 8.2334 14.0753C8.26621 14.0047 8.30067 13.9347 8.33567 13.8647Z" fill="#59ACEA"/>
<path d="M8.01465 14.5954C8.03981 14.5287 8.06715 14.4631 8.09395 14.3975C8.0666 14.4631 8.03981 14.5287 8.01465 14.5954Z" fill="#59ACEA"/>
<path d="M14.0986 6.2499C14.0997 6.22912 14.1008 6.20779 14.1014 6.18701C14.1008 6.20779 14.0992 6.22912 14.0986 6.2499Z" fill="#EB5B58"/>
<path d="M13.9326 7.36513C13.9419 7.32958 13.9512 7.29458 13.9594 7.25903C13.9507 7.29458 13.9414 7.32958 13.9326 7.36513Z" fill="#EB5B58"/>
<path d="M13.9697 7.21152C13.9774 7.17762 13.985 7.14426 13.9922 7.11035C13.9856 7.14426 13.9774 7.17762 13.9697 7.21152Z" fill="#EB5B58"/>
<path d="M13.8916 7.51325C13.902 7.4777 13.9124 7.44161 13.9222 7.40552C13.9124 7.44161 13.902 7.4777 13.8916 7.51325Z" fill="#EB5B58"/>
<path d="M13.8467 7.66089C13.8587 7.62425 13.8702 7.58815 13.8811 7.55151C13.8702 7.58815 13.8582 7.62425 13.8467 7.66089Z" fill="#EB5B58"/>
<path d="M14.0029 7.05676C14.0095 7.02449 14.0155 6.99223 14.0215 6.95996C14.0161 6.99223 14.0095 7.02449 14.0029 7.05676Z" fill="#EB5B58"/>
<path d="M16.3516 16.0244C16.3603 16.0769 16.3696 16.1289 16.3767 16.1814C16.3696 16.1289 16.3603 16.0769 16.3516 16.0244Z" fill="#EB5B58"/>
<path d="M14.0742 6.58143C14.077 6.55463 14.0802 6.52729 14.0824 6.50049C14.0802 6.52729 14.077 6.55408 14.0742 6.58143Z" fill="#EB5B58"/>
<path d="M14.0312 6.89913C14.0362 6.86905 14.0416 6.83897 14.046 6.80835C14.0411 6.83843 14.0362 6.86851 14.0312 6.89913Z" fill="#EB5B58"/>
<path d="M14.0547 6.73985C14.0585 6.71142 14.0623 6.68298 14.0662 6.65454C14.0629 6.68298 14.0585 6.71142 14.0547 6.73985Z" fill="#EB5B58"/>
<path d="M13.7969 7.80693C13.81 7.76974 13.8231 7.73256 13.8357 7.69482C13.8231 7.73256 13.81 7.76974 13.7969 7.80693Z" fill="#EB5B58"/>
<path d="M16.4473 16.9316C16.4489 16.9677 16.4516 17.0033 16.4533 17.0388C16.4522 17.0033 16.4495 16.9677 16.4473 16.9316Z" fill="#EB5B58"/>
<path d="M13.2598 8.8963C13.286 8.85528 13.3123 8.81427 13.3374 8.77271C13.3117 8.81427 13.286 8.85528 13.2598 8.8963Z" fill="#EB5B58"/>
<path d="M16.4258 16.6216C16.4296 16.6648 16.434 16.7074 16.4373 16.7501C16.434 16.7069 16.4291 16.6642 16.4258 16.6216Z" fill="#EB5B58"/>
<path d="M16.3936 16.3191C16.3996 16.3678 16.4067 16.4159 16.4116 16.4646C16.4067 16.4153 16.4001 16.3672 16.3936 16.3191Z" fill="#EB5B58"/>
<path d="M13.3389 8.7694C13.3635 8.72839 13.3881 8.68683 13.4116 8.64526C13.3881 8.68683 13.3635 8.72839 13.3389 8.7694Z" fill="#EB5B58"/>
<path d="M13.6846 8.09469C13.701 8.05531 13.7174 8.01648 13.7332 7.97656C13.7174 8.01594 13.701 8.05531 13.6846 8.09469Z" fill="#EB5B58"/>
<path d="M13.415 8.63922C13.438 8.5982 13.461 8.55719 13.4834 8.51562C13.461 8.55719 13.438 8.5982 13.415 8.63922Z" fill="#EB5B58"/>
<path d="M13.7422 7.95261C13.757 7.91433 13.7723 7.8755 13.7859 7.83667C13.7717 7.8755 13.757 7.91433 13.7422 7.95261Z" fill="#EB5B58"/>
<path d="M13.6221 8.23402C13.6401 8.1941 13.6582 8.15418 13.6757 8.11426C13.6582 8.15473 13.6401 8.19465 13.6221 8.23402Z" fill="#EB5B58"/>
<path d="M13.4873 8.50708C13.5092 8.46661 13.53 8.4256 13.5507 8.38403C13.5305 8.4256 13.5092 8.46661 13.4873 8.50708Z" fill="#EB5B58"/>
<path d="M13.5576 8.37086C13.5773 8.33094 13.597 8.29047 13.6156 8.25C13.597 8.29102 13.5773 8.33094 13.5576 8.37086Z" fill="#EB5B58"/>
<path d="M14.0879 6.41588C14.0895 6.39182 14.0917 6.3683 14.0934 6.34424C14.0917 6.3683 14.0901 6.39236 14.0879 6.41588Z" fill="#EB5B58"/>
<path d="M14.0332 5.16724C14.0381 5.19567 14.0425 5.22411 14.0463 5.2531C14.0425 5.22466 14.0381 5.19622 14.0332 5.16724Z" fill="#EB5B58"/>
<path d="M14.0547 5.31006C14.0585 5.33795 14.0618 5.36639 14.0656 5.39428C14.0623 5.36639 14.0585 5.33795 14.0547 5.31006Z" fill="#EB5B58"/>
<path d="M13.9766 4.87134C13.9842 4.90579 13.9919 4.94079 13.999 4.97524C13.9919 4.94079 13.9842 4.90634 13.9766 4.87134Z" fill="#EB5B58"/>
<path d="M14.0723 5.45264C14.0755 5.48053 14.0783 5.50896 14.0805 5.5374C14.0777 5.50896 14.075 5.48053 14.0723 5.45264Z" fill="#EB5B58"/>
<path d="M14.0078 5.02295C14.0138 5.05303 14.0193 5.0831 14.0242 5.11318C14.0193 5.08365 14.0138 5.05303 14.0078 5.02295Z" fill="#EB5B58"/>
<path d="M14.0859 5.59546C14.0881 5.62444 14.0903 5.65397 14.092 5.6835C14.0903 5.65397 14.0881 5.62499 14.0859 5.59546Z" fill="#EB5B58"/>
<path d="M12.9958 2.78286C12.765 2.48427 12.503 2.21138 12.2148 1.96802C12.503 2.21083 12.765 2.48427 12.9958 2.78286Z" fill="#EB5B58"/>
<path d="M14.0957 5.73926C14.0973 5.77152 14.0984 5.80379 14.0995 5.83605C14.099 5.80379 14.0979 5.77152 14.0957 5.73926Z" fill="#EB5B58"/>
<path d="M14.1016 5.88354C14.1027 5.93167 14.1037 5.97979 14.1037 6.02847C14.1037 5.97979 14.1032 5.93167 14.1016 5.88354Z" fill="#EB5B58"/>
<path d="M13.8994 4.56445C13.9251 4.65523 13.9486 4.74656 13.97 4.83898C13.9486 4.74656 13.9251 4.65469 13.8994 4.56445Z" fill="#EB5B58"/>
<path d="M13.8145 4.29834C13.8259 4.33115 13.8363 4.36341 13.8473 4.39623C13.8363 4.36341 13.8259 4.3306 13.8145 4.29834Z" fill="#EB5B58"/>
<path d="M13.168 3.01855C13.192 3.05355 13.2161 3.0891 13.2391 3.12465C13.2161 3.0891 13.192 3.05355 13.168 3.01855Z" fill="#EB5B58"/>
<path d="M13.2451 3.13452C13.2697 3.17226 13.2943 3.21054 13.3179 3.24936C13.2943 3.21108 13.2697 3.1728 13.2451 3.13452Z" fill="#EB5B58"/>
<path d="M13.3203 3.25195C13.4187 3.41219 13.509 3.57734 13.5899 3.74797C13.509 3.57734 13.4187 3.41164 13.3203 3.25195Z" fill="#EB5B58"/>
<path d="M12.999 2.78711C13.0258 2.82211 13.0526 2.85766 13.0789 2.8932C13.0526 2.85711 13.0258 2.82211 12.999 2.78711Z" fill="#EB5B58"/>
<path d="M13.0859 2.90308C13.1111 2.93753 13.1357 2.97199 13.1598 3.00699C13.1357 2.97199 13.1111 2.93698 13.0859 2.90308Z" fill="#EB5B58"/>
<path d="M13.8584 4.43066C13.8699 4.4673 13.8814 4.50449 13.8918 4.54168C13.8814 4.50504 13.8704 4.46785 13.8584 4.43066Z" fill="#EB5B58"/>
<path d="M13.7676 4.16577C13.7791 4.19694 13.7905 4.22866 13.8015 4.25984C13.7905 4.22866 13.7796 4.19694 13.7676 4.16577Z" fill="#EB5B58"/>
<path d="M11.4695 19.1634C11.3235 19.1448 11.1797 19.1245 11.038 19.1038C8.9818 18.7959 7.49375 18.2419 7.49375 17.4407C7.49375 14.2317 9.37937 11.4743 12.0875 10.2253C13.1386 10.7513 14.0568 11.5077 14.777 12.4297C14.0502 11.4995 13.1222 10.7371 12.0596 10.2105C12.058 10.2121 12.0558 10.2132 12.0536 10.2143V10.2078C12.0552 10.2088 12.0574 10.2094 12.0596 10.2105C12.5288 9.84353 12.9346 9.39947 13.2589 8.89799C12.9384 9.394 12.5376 9.83369 12.0749 10.1979C10.9205 9.22338 10.186 7.76705 10.186 6.13791C10.186 4.53338 10.9008 3.09783 12.0257 2.12385C12.0875 2.07025 12.1509 2.0183 12.2155 1.96744C11.2912 1.1876 10.0969 0.717285 8.79258 0.717285C7.46422 0.717285 6.25234 1.20838 5.32101 2.01447C4.19609 2.98846 3.48133 4.42346 3.48133 6.02853C3.48133 7.66916 4.22617 9.13533 5.39484 10.1099C2.68016 11.3562 0.789062 14.1168 0.789062 17.3308C0.789062 18.1325 2.27711 18.686 4.33336 18.9938C6.44101 19.3099 9.14805 19.3663 11.4695 19.1634Z" fill="#EB5B58"/>
<path d="M13.5986 3.76611C13.615 3.80111 13.6314 3.83666 13.6473 3.87276C13.6314 3.83721 13.615 3.80166 13.5986 3.76611Z" fill="#EB5B58"/>
<path d="M13.7158 4.03467C13.7284 4.06584 13.741 4.09701 13.753 4.12873C13.741 4.09701 13.7284 4.06584 13.7158 4.03467Z" fill="#EB5B58"/>
<path d="M13.6602 3.90186C13.6744 3.93412 13.688 3.96639 13.7017 3.9992C13.6886 3.96693 13.6744 3.93467 13.6602 3.90186Z" fill="#EB5B58"/>
<path d="M16.0811 14.8989C16.1007 14.9607 16.1204 15.022 16.1385 15.0843C16.1204 15.022 16.1007 14.9602 16.0811 14.8989Z" fill="#EB5B58"/>
<path d="M15.2287 18.4426C15.2177 18.447 15.2063 18.4508 15.1953 18.4552C15.2063 18.4508 15.2172 18.4465 15.2287 18.4426Z" fill="#EB5B58"/>
<path d="M15.3719 18.3853C15.362 18.3896 15.3522 18.3935 15.3418 18.3978C15.3516 18.3935 15.362 18.3896 15.3719 18.3853Z" fill="#EB5B58"/>
<path d="M15.7375 18.2114C15.734 18.2134 15.73 18.2154 15.7266 18.2174C15.73 18.2149 15.734 18.2134 15.7375 18.2114Z" fill="#EB5B58"/>
<path d="M15.5037 18.3271C15.4959 18.3308 15.4882 18.3344 15.4805 18.3375C15.4882 18.3338 15.4959 18.3302 15.5037 18.3271Z" fill="#EB5B58"/>
<path d="M15.6272 18.2688C15.6221 18.2714 15.6175 18.2739 15.6123 18.2765C15.6175 18.2739 15.6221 18.2714 15.6272 18.2688Z" fill="#EB5B58"/>
<path d="M11.6094 19.151C11.6449 19.1477 11.6805 19.1444 11.7155 19.1411C11.6805 19.1444 11.6449 19.1477 11.6094 19.151Z" fill="#EB5B58"/>
<path d="M14.4304 18.6936C14.4129 18.698 14.3954 18.7029 14.3779 18.7073C14.3954 18.7029 14.4129 18.6985 14.4304 18.6936Z" fill="#EB5B58"/>
<path d="M14.9197 18.5513C14.9082 18.5551 14.8967 18.5584 14.8857 18.5622C14.8967 18.5584 14.9082 18.5551 14.9197 18.5513Z" fill="#EB5B58"/>
<path d="M16.2988 15.741C16.3098 15.7946 16.3212 15.8476 16.3305 15.9017C16.3212 15.8476 16.3098 15.7946 16.2988 15.741Z" fill="#EB5B58"/>
<path d="M14.6054 18.646C14.5906 18.6504 14.5759 18.6542 14.5605 18.6586C14.5759 18.6547 14.5906 18.6504 14.6054 18.646Z" fill="#EB5B58"/>
<path d="M14.7706 18.5979C14.7564 18.6023 14.7427 18.6067 14.7285 18.6105C14.7427 18.6067 14.7564 18.6023 14.7706 18.5979Z" fill="#EB5B58"/>
<path d="M15.077 18.4978C15.0655 18.5016 15.054 18.506 15.042 18.5098C15.0535 18.506 15.0655 18.5022 15.077 18.4978Z" fill="#EB5B58"/>
<path d="M15.8504 18.1458C15.8453 18.1488 15.8401 18.1519 15.835 18.155C15.8401 18.1519 15.8453 18.1488 15.8504 18.1458Z" fill="#EB5B58"/>
<path d="M16.3691 17.6596C16.3711 17.6561 16.3731 17.6531 16.3746 17.6497C16.3731 17.6526 16.3711 17.6561 16.3691 17.6596Z" fill="#EB5B58"/>
<path d="M16.4072 17.5808C16.4087 17.5773 16.4102 17.5738 16.4117 17.5698C16.4102 17.5738 16.4087 17.5773 16.4072 17.5808Z" fill="#EB5B58"/>
<path d="M16.2676 17.8087C16.2685 17.8068 16.2704 17.8059 16.2714 17.804C16.2704 17.8059 16.2685 17.8078 16.2676 17.8087Z" fill="#EB5B58"/>
<path d="M16.3223 17.7365C16.3246 17.7336 16.3263 17.7307 16.3286 17.7278C16.3263 17.7307 16.324 17.7336 16.3223 17.7365Z" fill="#EB5B58"/>
<path d="M16.4355 17.4995C16.4365 17.496 16.437 17.493 16.438 17.4895C16.4375 17.493 16.4365 17.4965 16.4355 17.4995Z" fill="#EB5B58"/>
<path d="M16.4531 17.417C16.4537 17.4141 16.4537 17.4118 16.4543 17.4089C16.4537 17.4118 16.4531 17.4147 16.4531 17.417Z" fill="#EB5B58"/>
<path d="M16.0486 18.0105C16.044 18.0141 16.0393 18.0177 16.0342 18.0213C16.0393 18.0182 16.044 18.0146 16.0486 18.0105Z" fill="#EB5B58"/>
<path d="M15.9545 18.0789C15.9493 18.0825 15.9436 18.0861 15.9385 18.0897C15.9436 18.0861 15.9493 18.0825 15.9545 18.0789Z" fill="#EB5B58"/>
<path d="M16.2012 17.8798C16.2035 17.8775 16.2058 17.8752 16.2081 17.8723C16.2058 17.8752 16.2035 17.8775 16.2012 17.8798Z" fill="#EB5B58"/>
<path d="M16.133 17.9417C16.1295 17.9446 16.1261 17.9481 16.1221 17.9511C16.1261 17.9481 16.1295 17.9446 16.133 17.9417Z" fill="#EB5B58"/>
<path d="M14.2469 18.74C14.2277 18.7444 14.2086 18.7493 14.1895 18.7537C14.2086 18.7493 14.2277 18.7444 14.2469 18.74Z" fill="#EB5B58"/>
<path d="M14.9453 12.6538C14.9962 12.7238 15.0459 12.7944 15.0941 12.866C15.0459 12.7944 14.9962 12.7233 14.9453 12.6538Z" fill="#EB5B58"/>
<path d="M15.5332 13.5972C15.5693 13.6655 15.6054 13.7344 15.6393 13.8039C15.6054 13.7339 15.5698 13.6655 15.5332 13.5972Z" fill="#EB5B58"/>
<path d="M11.8486 19.1274C11.8847 19.1236 11.9214 19.1198 11.9575 19.116C11.9214 19.1203 11.8853 19.1242 11.8486 19.1274Z" fill="#EB5B58"/>
<path d="M15.2549 13.1133C15.2986 13.1827 15.3413 13.2533 15.3823 13.3244C15.3413 13.2533 15.2986 13.1833 15.2549 13.1133Z" fill="#EB5B58"/>
<path d="M15.1035 12.8799C15.1511 12.9499 15.197 13.021 15.2424 13.0926C15.197 13.021 15.1505 12.9499 15.1035 12.8799Z" fill="#EB5B58"/>
<path d="M15.3975 13.3516C15.4374 13.421 15.4768 13.491 15.5145 13.5616C15.4768 13.4905 15.4379 13.421 15.3975 13.3516Z" fill="#EB5B58"/>
<path d="M16.2363 15.4583C16.2495 15.514 16.2637 15.5693 16.2757 15.625C16.2637 15.5693 16.25 15.514 16.2363 15.4583Z" fill="#EB5B58"/>
<path d="M16.1641 15.1763C16.1805 15.2348 16.1974 15.2933 16.2122 15.3529C16.1969 15.2938 16.1805 15.2353 16.1641 15.1763Z" fill="#EB5B58"/>
<path d="M15.8887 14.364C15.9144 14.4285 15.9401 14.4931 15.9647 14.5587C15.9406 14.4936 15.9149 14.4285 15.8887 14.364Z" fill="#EB5B58"/>
<path d="M15.9883 14.6274C16.0113 14.6909 16.0342 14.7549 16.0556 14.8188C16.0342 14.7549 16.0113 14.6914 15.9883 14.6274Z" fill="#EB5B58"/>
<path d="M15.7783 14.1016C15.8078 14.1683 15.8368 14.235 15.8647 14.3023C15.8374 14.235 15.8078 14.1683 15.7783 14.1016Z" fill="#EB5B58"/>
<path d="M15.6602 13.8455C15.693 13.9133 15.7258 13.9816 15.757 14.0505C15.7258 13.9816 15.6935 13.9138 15.6602 13.8455Z" fill="#EB5B58"/>
<path d="M12.748 19.0192C12.7776 19.0148 12.8077 19.011 12.8372 19.0066C12.8077 19.011 12.7781 19.0148 12.748 19.0192Z" fill="#EB5B58"/>
<path d="M12.9756 18.9855C13.004 18.9812 13.0325 18.9768 13.0609 18.9724C13.0325 18.9768 13.004 18.9812 12.9756 18.9855Z" fill="#EB5B58"/>
<path d="M12.5186 19.0501C12.5607 19.0447 12.6022 19.0392 12.6438 19.0332C12.6022 19.0392 12.5607 19.0447 12.5186 19.0501Z" fill="#EB5B58"/>
<path d="M12.1947 19.0901C12.1482 19.0956 12.1017 19.1005 12.0547 19.1059C12.1017 19.1005 12.1482 19.0956 12.1947 19.0901Z" fill="#EB5B58"/>
<path d="M12.2861 19.0792C12.3332 19.0737 12.3796 19.0677 12.4261 19.0623C12.3791 19.0677 12.3326 19.0737 12.2861 19.0792Z" fill="#EB5B58"/>
<path d="M13.7969 18.8403C13.8226 18.8349 13.8477 18.8299 13.8734 18.8245C13.8477 18.8299 13.8226 18.8349 13.7969 18.8403Z" fill="#EB5B58"/>
<path d="M13.9951 18.798C14.0154 18.7937 14.0356 18.7893 14.0553 18.7849C14.035 18.7893 14.0148 18.7937 13.9951 18.798Z" fill="#EB5B58"/>
<path d="M13.1973 18.9506C13.2241 18.9463 13.2503 18.9419 13.2771 18.9375C13.2503 18.9419 13.2241 18.9463 13.1973 18.9506Z" fill="#EB5B58"/>
<path d="M14.7793 12.4326C14.834 12.5026 14.887 12.5732 14.9395 12.6448C14.887 12.5732 14.834 12.5026 14.7793 12.4326Z" fill="#EB5B58"/>
<path d="M13.4033 18.9152C13.4307 18.9102 13.4586 18.9053 13.4859 18.9004C13.4586 18.9053 13.4312 18.9102 13.4033 18.9152Z" fill="#EB5B58"/>
<path d="M13.5977 18.8796C13.6277 18.8741 13.6578 18.8681 13.6873 18.8621C13.6578 18.8681 13.6277 18.8741 13.5977 18.8796Z" fill="#EB5B58"/>
<path d="M16.4591 17.3309C16.4591 14.211 14.6752 11.5199 12.0879 10.2249C9.38031 11.4739 7.49414 14.2313 7.49414 17.4403C7.49414 18.242 8.98219 18.7955 11.0384 19.1034C11.1795 19.1247 11.3234 19.1444 11.4699 19.163C14.2387 18.9218 16.4591 18.3109 16.4591 17.3309Z" fill="#222349"/>
<path d="M10.1865 6.138C10.1865 7.76714 10.921 9.22347 12.0754 10.198C13.3092 9.22565 14.1043 7.72175 14.1043 6.02862C14.1043 4.39948 13.3704 2.94206 12.216 1.96753C12.1514 2.01839 12.088 2.07034 12.0262 2.12394C10.9013 3.09792 10.1865 4.53347 10.1865 6.138Z" fill="#222349"/>
</svg>
