<svg width="18" height="24" viewBox="0 0 18 24" fill="none" xmlns="http://www.w3.org/2000/svg">
<path d="M7.7161 4.37437H11.8603V2.36461C11.8603 1.49781 11.151 0.789062 10.2848 0.789062H2.13414C1.26734 0.789062 0.558594 1.49836 0.558594 2.36461V18.0495C0.558594 18.9163 1.26789 19.6251 2.13414 19.6251H6.14055V5.95047C6.14 5.08367 6.8493 4.37437 7.7161 4.37437Z" fill="#59ACEA"/>
<path d="M15.8663 4.37427H11.8605V18.0494C11.8605 18.9162 11.1512 19.625 10.2849 19.625H6.14014V21.6347C6.14014 22.5015 6.84943 23.2103 7.71568 23.2103H15.8663C16.7331 23.2103 17.4419 22.501 17.4419 21.6347V5.95036C17.4424 5.08356 16.7331 4.37427 15.8663 4.37427Z" fill="#EB5B58"/>
<path d="M11.8604 18.0494V4.37427H7.71617C6.84938 4.37427 6.14062 5.08356 6.14062 5.94981V19.625H10.2848C11.1511 19.6255 11.8604 18.9162 11.8604 18.0494Z" fill="#59ACEA"/>
<path d="M11.8604 18.0494V4.37427H7.71617C6.84938 4.37427 6.14062 5.08356 6.14062 5.94981V19.625H10.2848C11.1511 19.6255 11.8604 18.9162 11.8604 18.0494Z" fill="#222349"/>
</svg>
