<svg width="22" height="22" viewBox="0 0 22 22" fill="none" xmlns="http://www.w3.org/2000/svg">
<path d="M17.3689 5.31763H9.41813C7.18629 5.31763 5.37695 7.12696 5.37695 9.35829V14.5111H6.53883C7.07102 14.5111 7.50266 14.9427 7.50266 15.4749C7.50266 16.0071 7.07102 16.4387 6.53883 16.4387H5.37695V17.6255C5.37695 19.8573 7.18629 21.6667 9.41813 21.6667H17.3689C19.6008 21.6667 21.4101 19.8573 21.4101 17.6255V9.35829C21.4101 7.12696 19.6008 5.31763 17.3689 5.31763ZM16.6148 15.4754C16.6148 16.0076 16.1832 16.4392 15.651 16.4392H10.6653C10.1331 16.4392 9.70148 16.0076 9.70148 15.4754C9.70148 14.9432 10.1331 14.5116 10.6653 14.5116H14.6867V10.2348C14.6867 9.70208 15.1183 9.27095 15.6505 9.27095C16.1827 9.27095 16.6143 9.70259 16.6143 10.2348V15.4754H16.6148ZM16.6148 6.53841C16.6148 7.0706 16.1832 7.50224 15.651 7.50224C15.1188 7.50224 14.6872 7.0706 14.6872 6.53841V5.31763H16.6154V6.53841H16.6148Z" fill="#59ACEA"/>
<path d="M14.687 10.2342C14.687 10.1011 14.7139 9.97416 14.7627 9.85889C14.7144 9.97467 14.687 10.1011 14.687 10.2342Z" fill="#EB5B58"/>
<path d="M5.37748 14.5109H2.51799V10.2341C2.51799 9.7014 2.08635 9.27026 1.55416 9.27026C1.02197 9.27026 0.590332 9.7019 0.590332 10.2341V15.4747C0.590332 16.0069 1.02197 16.4385 1.55416 16.4385H5.37748V14.5109Z" fill="#EB5B58"/>
<path d="M16.264 9.49015C16.0974 9.35253 15.8836 9.27026 15.6505 9.27026C15.4175 9.27026 15.2042 9.35304 15.0371 9.49015C15.2037 9.35253 15.4175 9.27026 15.6505 9.27026C15.8841 9.27026 16.0974 9.35304 16.264 9.49015Z" fill="#EB5B58"/>
<path d="M15.1118 7.3374C15.2657 7.4415 15.451 7.50193 15.6506 7.50193C15.8502 7.50193 16.0355 7.441 16.1894 7.3374C16.0355 7.4415 15.8502 7.50193 15.6506 7.50193C15.4515 7.50193 15.2657 7.441 15.1118 7.3374Z" fill="#EB5B58"/>
<path d="M7.31104 16.0512C7.43139 15.8902 7.5035 15.6917 7.5035 15.4753C7.5035 15.6917 7.43139 15.8907 7.31104 16.0512Z" fill="#EB5B58"/>
<path d="M15.6512 0.333252H10.6655C10.1333 0.333252 9.70166 0.764893 9.70166 1.29708C9.70166 1.82927 10.1333 2.26091 10.6655 2.26091H14.6869V5.31743H16.615V1.29708C16.615 0.764893 16.1834 0.333252 15.6512 0.333252Z" fill="#EB5B58"/>
<path d="M16.6147 10.2342C16.6147 10.1011 16.5878 9.97416 16.5391 9.85889C16.5878 9.97467 16.6147 10.1011 16.6147 10.2342Z" fill="#EB5B58"/>
<path d="M9.70166 15.4753C9.70166 15.6917 9.77377 15.8907 9.89412 16.0512C9.77377 15.8907 9.70166 15.6917 9.70166 15.4753Z" fill="#EB5B58"/>
<path d="M6.53938 0.333252H1.55367C1.02148 0.333252 0.589844 0.764893 0.589844 1.29708V6.53821C0.589844 7.0704 1.02148 7.50204 1.55367 7.50204C2.08586 7.50204 2.5175 7.0704 2.5175 6.53821V2.26142H6.53887C7.07105 2.26142 7.5027 1.82978 7.5027 1.29759C7.5027 0.7654 7.07207 0.333252 6.53938 0.333252Z" fill="#EB5B58"/>
<path d="M16.6148 15.4753C16.6148 15.6917 16.5427 15.8907 16.4224 16.0512C16.5427 15.8907 16.6148 15.6917 16.6148 15.4753Z" fill="#EB5B58"/>
<path d="M14.6865 5.31763V6.53841C14.6865 7.0706 15.1182 7.50224 15.6504 7.50224C16.1825 7.50224 16.6142 7.0706 16.6142 6.53841V5.31763H14.6865Z" fill="#222349"/>
<path d="M10.6655 16.4393H15.6512C16.1834 16.4393 16.615 16.0076 16.615 15.4755V10.2348C16.615 9.70213 16.1834 9.271 15.6512 9.271C15.119 9.271 14.6873 9.70264 14.6873 10.2348V14.5116H10.666C10.1338 14.5116 9.70215 14.9433 9.70215 15.4755C9.70215 16.0076 10.1333 16.4393 10.6655 16.4393Z" fill="#222349"/>
<path d="M6.53932 14.511H5.37744V16.4391H6.53932C7.0715 16.4391 7.50314 16.0075 7.50314 15.4753C7.50314 14.9431 7.07201 14.511 6.53932 14.511Z" fill="#222349"/>
</svg>
