<svg width="22" height="22" viewBox="0 0 22 22" fill="none" xmlns="http://www.w3.org/2000/svg">
<path d="M10.2681 10.254C10.2686 9.86461 10.4226 9.49108 10.6966 9.21441C10.9707 8.93774 11.3427 8.78023 11.7321 8.77602V7.20002C11.7321 6.80697 11.576 6.43002 11.298 6.15209C11.0201 5.87416 10.6431 5.71802 10.2501 5.71802H7.0841C6.88924 5.7175 6.69619 5.75545 6.51604 5.82972C6.33588 5.90399 6.17217 6.0131 6.03429 6.15079C5.8964 6.28849 5.78707 6.45206 5.71256 6.63211C5.63805 6.81217 5.59983 7.00516 5.6001 7.20002V12.362C5.98949 12.3668 6.36133 12.5248 6.635 12.8018C6.90867 13.0789 7.06213 13.4526 7.0621 13.842V20.442C7.06133 20.5427 7.05129 20.6432 7.0321 20.742H7.0801H10.2501C10.2667 20.743 10.2834 20.743 10.3001 20.742C10.2793 20.6434 10.2685 20.5429 10.2681 20.442V10.254Z" fill="#59AAE8"/>
<path d="M21.064 19.2662V1.55817C21.064 1.16512 20.9079 0.788169 20.63 0.51024C20.352 0.232311 19.9751 0.0761719 19.582 0.0761719H16.416C16.2215 0.0761717 16.0289 0.114519 15.8492 0.189021C15.6695 0.263523 15.5063 0.372718 15.3688 0.510361C15.2314 0.648003 15.1224 0.811394 15.0481 0.991187C14.9739 1.17098 14.9358 1.36365 14.936 1.55817V8.77617C15.3256 8.77986 15.6979 8.93721 15.9721 9.21399C16.2463 9.49077 16.4001 9.8646 16.4 10.2542V20.4422C16.3993 20.5429 16.3892 20.6433 16.37 20.7422H16.418H19.584C19.9771 20.7422 20.354 20.586 20.632 20.3081C20.9099 20.0302 21.066 19.6532 21.066 19.2602" fill="#59AAE8"/>
<path d="M5.60004 19.2661V12.3621H2.41804C2.02498 12.3621 1.64803 12.5182 1.3701 12.7961C1.09217 13.0741 0.936035 13.451 0.936035 13.8441V20.4441C0.936035 20.8371 1.09217 21.2141 1.3701 21.492C1.64803 21.7699 2.02498 21.9261 2.41804 21.9261H5.58403C5.92502 21.9258 6.25552 21.8082 6.51996 21.5929C6.7844 21.3777 6.96664 21.0779 7.03604 20.7441C6.6512 20.7336 6.28568 20.5733 6.01741 20.2971C5.74914 20.021 5.59937 19.651 5.60004 19.2661" fill="#E95B58"/>
<path d="M7.0661 13.8421C7.06611 13.452 6.91211 13.0776 6.63758 12.8005C6.36304 12.5233 5.99019 12.3658 5.6001 12.3621V19.2661C5.59993 19.65 5.74938 20.0189 6.01674 20.2945C6.28409 20.5701 6.64831 20.7306 7.0321 20.7421C7.05129 20.6432 7.06133 20.5428 7.0621 20.4421L7.0661 13.8421Z" fill="#222349"/>
<path d="M14.936 19.2661V8.77612H11.736V19.2661C11.7356 19.6499 11.586 20.0185 11.3188 20.294C11.0515 20.5695 10.6876 20.7302 10.304 20.7421C10.3733 21.0756 10.5552 21.3751 10.8193 21.5904C11.0833 21.8056 11.4133 21.9234 11.754 21.9241H14.916C15.2568 21.9242 15.5872 21.8066 15.8514 21.5913C16.1156 21.3759 16.2973 21.076 16.366 20.7421C15.9825 20.7302 15.6188 20.5694 15.3519 20.2939C15.0849 20.0184 14.9358 19.6497 14.936 19.2661" fill="#E95B58"/>
<path d="M11.7321 19.2661V8.77612C11.3427 8.78033 10.9706 8.93784 10.6966 9.21451C10.4225 9.49118 10.2686 9.86471 10.2681 10.2541V20.4421C10.2685 20.543 10.2792 20.6435 10.3001 20.7421C10.6837 20.7302 11.0476 20.5695 11.3149 20.294C11.5821 20.0186 11.7317 19.6499 11.7321 19.2661" fill="#222349"/>
<path d="M16.4 10.2541C16.4 9.86489 16.2465 9.49136 15.9728 9.21464C15.699 8.93791 15.3272 8.78034 14.938 8.77612V19.2661C14.9378 19.6501 15.0873 20.019 15.3546 20.2946C15.622 20.5701 15.9862 20.7307 16.37 20.7421C16.3892 20.6433 16.3992 20.5428 16.4 20.4421V10.2541Z" fill="#222349"/>
</svg>
