<svg width="18" height="22" viewBox="0 0 18 22" fill="none" xmlns="http://www.w3.org/2000/svg">
<path d="M6.92849 12.6346C6.91985 12.623 6.91122 12.6113 6.90259 12.5996C6.91122 12.6113 6.91985 12.623 6.92849 12.6346Z" fill="#59ACEA"/>
<path d="M6.88834 12.582C6.87869 12.5698 6.86904 12.5576 6.85889 12.5459C6.86904 12.5576 6.87869 12.5698 6.88834 12.582Z" fill="#59ACEA"/>
<path d="M6.96672 12.6905C6.9591 12.6789 6.95148 12.6677 6.94336 12.656C6.95148 12.6672 6.9591 12.6789 6.96672 12.6905Z" fill="#59ACEA"/>
<path d="M7.00326 12.7484C6.99666 12.7367 6.98955 12.7255 6.98193 12.7144C6.98904 12.7255 6.99615 12.7367 7.00326 12.7484Z" fill="#59ACEA"/>
<path d="M7.03734 12.8084C7.03125 12.7972 7.02465 12.7861 7.01855 12.7749C7.02465 12.7856 7.03125 12.7967 7.03734 12.8084Z" fill="#59ACEA"/>
<path d="M5.96117 17.8245V12.0263C5.87433 12.0111 5.78496 12.0024 5.69355 12.0024H2.27344C1.43199 12.0024 0.75 12.6844 0.75 13.5259V19.8867C0.75 20.7282 1.43199 21.4102 2.27344 21.4102H5.69355C6.535 21.4102 7.21699 20.7282 7.21699 19.8867V19.3241C6.50301 19.1971 5.96117 18.5746 5.96117 17.8245Z" fill="#59ACEA"/>
<path d="M6.84827 12.5331C6.78073 12.4544 6.70507 12.3828 6.6228 12.3193C6.70507 12.3828 6.78023 12.4544 6.84827 12.5331Z" fill="#59ACEA"/>
<path d="M5.96118 12.0264C6.13892 12.0579 6.30649 12.1203 6.45731 12.2082C6.30649 12.1203 6.13892 12.0579 5.96118 12.0264Z" fill="#59ACEA"/>
<path d="M6.5166 12.2446C6.53336 12.2553 6.55012 12.2665 6.56687 12.2781C6.55012 12.2665 6.53336 12.2553 6.5166 12.2446Z" fill="#59ACEA"/>
<path d="M6.45874 12.209C6.47651 12.2191 6.49429 12.2303 6.51155 12.2415C6.49429 12.2303 6.47651 12.2191 6.45874 12.209Z" fill="#59ACEA"/>
<path d="M6.57153 12.2817C6.58829 12.2934 6.60454 12.3056 6.62028 12.3178C6.60454 12.3051 6.58829 12.2934 6.57153 12.2817Z" fill="#59ACEA"/>
<path d="M7.06874 12.8699C7.06366 12.8587 7.05808 12.8481 7.05249 12.8374C7.05757 12.8486 7.06316 12.8592 7.06874 12.8699Z" fill="#59ACEA"/>
<path d="M7.20086 13.3054C7.19934 13.2952 7.19781 13.2851 7.19629 13.2749C7.1973 13.2851 7.19934 13.2952 7.20086 13.3054Z" fill="#59ACEA"/>
<path d="M7.20935 13.3781C7.20833 13.3684 7.20732 13.3588 7.2063 13.3491C7.20732 13.3588 7.20833 13.3684 7.20935 13.3781Z" fill="#59ACEA"/>
<path d="M7.21483 13.45C7.21435 13.4423 7.21386 13.4345 7.21338 13.4268C7.21338 13.435 7.21435 13.4423 7.21483 13.45Z" fill="#59ACEA"/>
<path d="M15.7264 0.589844H12.6206C11.7792 0.589844 11.0972 1.27184 11.0972 2.11328V6.24992C11.8122 6.37535 12.3555 6.99895 12.3555 7.75V17.8245C12.3555 18.5755 11.8122 19.1986 11.0972 19.3246V19.8867C11.0972 20.7282 11.7792 21.4102 12.6206 21.4102H15.7264C16.5678 21.4102 17.2498 20.7282 17.2498 19.8867V2.11328C17.2498 1.27184 16.5678 0.589844 15.7264 0.589844Z" fill="#59ACEA"/>
<path d="M7.18847 13.2338C7.18644 13.2237 7.1844 13.2135 7.18237 13.2034C7.1844 13.2135 7.18644 13.2237 7.18847 13.2338Z" fill="#59ACEA"/>
<path d="M7.13223 13.0257C7.12867 13.0161 7.12563 13.0065 7.12207 12.9973C7.12563 13.0065 7.12867 13.0161 7.13223 13.0257Z" fill="#59ACEA"/>
<path d="M7.10566 12.9562C7.10008 12.942 7.09398 12.9278 7.08789 12.9136C7.09398 12.9278 7.10008 12.942 7.10566 12.9562Z" fill="#59ACEA"/>
<path d="M7.1729 13.1633C7.17036 13.1531 7.16782 13.143 7.16528 13.1328C7.16782 13.143 7.17036 13.1531 7.1729 13.1633Z" fill="#59ACEA"/>
<path d="M7.15416 13.0937C7.15111 13.0835 7.14857 13.0739 7.14502 13.0637C7.14857 13.0739 7.15111 13.084 7.15416 13.0937Z" fill="#59ACEA"/>
<path d="M5.97204 18.0011C5.97102 17.9915 5.9695 17.9818 5.96899 17.9722C5.9695 17.9818 5.97052 17.9915 5.97204 18.0011Z" fill="#EB5B58"/>
<path d="M5.96459 17.922C5.9641 17.9142 5.96362 17.9064 5.96313 17.8987C5.96313 17.9064 5.9641 17.9142 5.96459 17.922Z" fill="#EB5B58"/>
<path d="M6.32935 18.8174C6.39688 18.8961 6.47255 18.9677 6.55481 19.0312C6.47255 18.9677 6.39739 18.8961 6.32935 18.8174Z" fill="#EB5B58"/>
<path d="M11.0979 6.25C11.2761 6.28148 11.4432 6.34344 11.594 6.43078C11.4432 6.34344 11.2756 6.28148 11.0979 6.25Z" fill="#EB5B58"/>
<path d="M11.7092 6.50488C11.726 6.51656 11.7422 6.52875 11.7585 6.54094C11.7427 6.52875 11.726 6.51656 11.7092 6.50488Z" fill="#EB5B58"/>
<path d="M11.6543 6.46777C11.6711 6.47844 11.6878 6.48961 11.7041 6.50129C11.6878 6.49012 11.6716 6.47895 11.6543 6.46777Z" fill="#EB5B58"/>
<path d="M11.5969 6.43262C11.6147 6.44277 11.632 6.45344 11.6492 6.46461C11.632 6.45344 11.6147 6.44277 11.5969 6.43262Z" fill="#EB5B58"/>
<path d="M6.05581 18.3536C6.05226 18.344 6.04921 18.3343 6.04565 18.3252C6.04921 18.3343 6.05226 18.344 6.05581 18.3536Z" fill="#EB5B58"/>
<path d="M11.9519 6.71704C11.9636 6.72974 11.9748 6.74294 11.9864 6.75614C11.9748 6.74294 11.9636 6.72974 11.9519 6.71704Z" fill="#EB5B58"/>
<path d="M6.0898 18.4369C6.0837 18.4227 6.07761 18.409 6.07202 18.3943C6.07761 18.4085 6.0837 18.4227 6.0898 18.4369Z" fill="#EB5B58"/>
<path d="M6.03234 18.2861C6.02929 18.2764 6.02624 18.2663 6.02319 18.2561C6.02675 18.2663 6.02929 18.2764 6.03234 18.2861Z" fill="#EB5B58"/>
<path d="M5.98211 18.0754C5.98059 18.0652 5.97855 18.0551 5.97754 18.0449C5.97855 18.0551 5.98059 18.0652 5.98211 18.0754Z" fill="#EB5B58"/>
<path d="M6.0125 18.2175C6.00996 18.2073 6.00742 18.1972 6.00488 18.187C6.00742 18.1972 6.00996 18.2073 6.0125 18.2175Z" fill="#EB5B58"/>
<path d="M5.99559 18.1469C5.99356 18.1368 5.99153 18.1266 5.9895 18.1165C5.99103 18.1266 5.99356 18.1368 5.99559 18.1469Z" fill="#EB5B58"/>
<path d="M12.0823 6.87964C12.0904 6.89081 12.098 6.90249 12.1056 6.91417C12.098 6.90249 12.0899 6.89081 12.0823 6.87964Z" fill="#EB5B58"/>
<path d="M12.321 7.427C12.3231 7.43716 12.3251 7.44732 12.3271 7.45747C12.3256 7.44782 12.3236 7.43767 12.321 7.427Z" fill="#EB5B58"/>
<path d="M12.3042 7.35693C12.3067 7.36709 12.3093 7.37725 12.3118 7.3874C12.3093 7.37725 12.3067 7.36709 12.3042 7.35693Z" fill="#EB5B58"/>
<path d="M12.261 7.22095C12.2645 7.2306 12.2676 7.24024 12.2711 7.24989C12.2676 7.23974 12.2645 7.23009 12.261 7.22095Z" fill="#EB5B58"/>
<path d="M12.2839 7.28784C12.287 7.298 12.29 7.30765 12.2931 7.3178C12.29 7.30816 12.2875 7.298 12.2839 7.28784Z" fill="#EB5B58"/>
<path d="M11.9499 6.71516C11.8915 6.65219 11.8281 6.5943 11.76 6.54199C11.8281 6.5943 11.8915 6.65219 11.9499 6.71516Z" fill="#EB5B58"/>
<path d="M12.3518 7.65137C12.3523 7.65913 12.3528 7.66689 12.3533 7.67464C12.3533 7.66689 12.3523 7.65913 12.3518 7.65137Z" fill="#EB5B58"/>
<path d="M12.3455 7.57324C12.3465 7.58289 12.348 7.59254 12.3485 7.60168C12.3475 7.59254 12.3465 7.58289 12.3455 7.57324Z" fill="#EB5B58"/>
<path d="M12.1912 7.06152C12.1967 7.07219 12.2023 7.08285 12.2074 7.09352C12.2023 7.08285 12.1967 7.0727 12.1912 7.06152Z" fill="#EB5B58"/>
<path d="M6.12562 18.5125C6.12004 18.5018 6.11445 18.4912 6.10938 18.48C6.11445 18.4912 6.12004 18.5018 6.12562 18.5125Z" fill="#EB5B58"/>
<path d="M12.1208 6.93799C12.128 6.94916 12.1351 6.96033 12.1417 6.97201C12.1351 6.96033 12.128 6.94916 12.1208 6.93799Z" fill="#EB5B58"/>
<path d="M12.0413 6.82324C12.0499 6.83492 12.0585 6.84609 12.0672 6.85828C12.0585 6.8466 12.0499 6.83492 12.0413 6.82324Z" fill="#EB5B58"/>
<path d="M12.2317 7.14771C12.2363 7.15837 12.2408 7.16954 12.2449 7.18021C12.2408 7.16954 12.2363 7.15837 12.2317 7.14771Z" fill="#EB5B58"/>
<path d="M11.9976 6.76953C12.0077 6.78121 12.0174 6.7934 12.027 6.80559C12.0174 6.7934 12.0077 6.78121 11.9976 6.76953Z" fill="#EB5B58"/>
<path d="M12.157 6.99829C12.1631 7.00946 12.1697 7.02063 12.1758 7.03181C12.1697 7.02063 12.1636 7.00946 12.157 6.99829Z" fill="#EB5B58"/>
<path d="M12.3347 7.49902C12.3362 7.50918 12.3383 7.51934 12.3393 7.52949C12.3383 7.51934 12.3362 7.50918 12.3347 7.49902Z" fill="#EB5B58"/>
<path d="M12.1417 18.6025C12.1351 18.6142 12.128 18.6254 12.1208 18.6366C12.128 18.6254 12.1351 18.6142 12.1417 18.6025Z" fill="#EB5B58"/>
<path d="M11.9859 18.8188C11.9748 18.8321 11.9631 18.8447 11.9514 18.858C11.9636 18.8447 11.9748 18.8315 11.9859 18.8188Z" fill="#EB5B58"/>
<path d="M12.2074 18.4805C12.2023 18.4911 12.1967 18.5018 12.1912 18.5125C12.1967 18.5023 12.2023 18.4916 12.2074 18.4805Z" fill="#EB5B58"/>
<path d="M12.1758 18.5425C12.1697 18.5537 12.1631 18.5648 12.157 18.576C12.1636 18.5648 12.1697 18.5537 12.1758 18.5425Z" fill="#EB5B58"/>
<path d="M6.15966 18.576C6.15306 18.5648 6.14696 18.5537 6.14087 18.5425C6.14646 18.5537 6.15306 18.5648 6.15966 18.576Z" fill="#EB5B58"/>
<path d="M12.0672 18.7163C12.0585 18.728 12.0499 18.7397 12.0413 18.7513C12.0499 18.7397 12.0585 18.728 12.0672 18.7163Z" fill="#EB5B58"/>
<path d="M12.1056 18.6609C12.098 18.6726 12.0904 18.6837 12.0823 18.6954C12.0899 18.6837 12.098 18.6721 12.1056 18.6609Z" fill="#EB5B58"/>
<path d="M12.2454 18.3943C12.2408 18.405 12.2368 18.4161 12.2322 18.4268C12.2362 18.4161 12.2408 18.405 12.2454 18.3943Z" fill="#EB5B58"/>
<path d="M12.3485 17.9722C12.3475 17.9818 12.3465 17.9915 12.3455 18.0006C12.3465 17.9915 12.3475 17.9818 12.3485 17.9722Z" fill="#EB5B58"/>
<path d="M12.354 17.8992C12.3535 17.9069 12.353 17.9147 12.3525 17.9224C12.3525 17.9142 12.3535 17.9069 12.354 17.8992Z" fill="#EB5B58"/>
<path d="M12.3398 18.0449C12.3383 18.0551 12.3367 18.0652 12.3352 18.0754C12.3362 18.0652 12.3383 18.0551 12.3398 18.0449Z" fill="#EB5B58"/>
<path d="M12.3118 18.187C12.3093 18.1972 12.3067 18.2073 12.3042 18.2175C12.3067 18.2073 12.3093 18.1972 12.3118 18.187Z" fill="#EB5B58"/>
<path d="M12.2931 18.2566C12.29 18.2667 12.2875 18.2764 12.2839 18.2866C12.2875 18.2764 12.29 18.2662 12.2931 18.2566Z" fill="#EB5B58"/>
<path d="M12.3276 18.1165C12.3256 18.1266 12.3236 18.1368 12.3215 18.1469C12.3236 18.1373 12.3256 18.1266 12.3276 18.1165Z" fill="#EB5B58"/>
<path d="M12.2711 18.3252C12.2676 18.3348 12.2645 18.3445 12.261 18.3541C12.2645 18.3445 12.2676 18.3348 12.2711 18.3252Z" fill="#EB5B58"/>
<path d="M12.027 18.7695C12.0174 18.7817 12.0077 18.7939 11.9976 18.8056C12.0077 18.7934 12.0174 18.7812 12.027 18.7695Z" fill="#EB5B58"/>
<path d="M6.60612 19.0688C6.58936 19.0571 6.57311 19.0449 6.55737 19.0327C6.57311 19.0454 6.58987 19.0571 6.60612 19.0688Z" fill="#EB5B58"/>
<path d="M6.66087 19.1058C6.64411 19.0951 6.62735 19.0839 6.6106 19.0723C6.62735 19.0839 6.64411 19.0951 6.66087 19.1058Z" fill="#EB5B58"/>
<path d="M6.71883 19.1414C6.70105 19.1312 6.68328 19.1201 6.66602 19.1089C6.68328 19.1201 6.70105 19.1307 6.71883 19.1414Z" fill="#EB5B58"/>
<path d="M6.31876 18.8051C6.3086 18.7934 6.29895 18.7812 6.28931 18.769C6.29895 18.7807 6.3086 18.7929 6.31876 18.8051Z" fill="#EB5B58"/>
<path d="M6.27566 18.7509C6.26702 18.7392 6.25839 18.7275 6.24976 18.7158C6.25788 18.7275 6.26651 18.7392 6.27566 18.7509Z" fill="#EB5B58"/>
<path d="M6.19564 18.6366C6.18853 18.6254 6.18143 18.6137 6.17432 18.6025C6.18143 18.6137 6.18853 18.6249 6.19564 18.6366Z" fill="#EB5B58"/>
<path d="M11.7585 19.0337C11.7422 19.0459 11.726 19.0581 11.7092 19.0697C11.726 19.0581 11.7427 19.0459 11.7585 19.0337Z" fill="#EB5B58"/>
<path d="M6.2343 18.6944C6.22617 18.6833 6.21855 18.6716 6.21094 18.6599C6.21855 18.6716 6.22617 18.6833 6.2343 18.6944Z" fill="#EB5B58"/>
<path d="M11.594 19.1438C11.4432 19.2311 11.2756 19.2931 11.0979 19.3246C11.2756 19.2931 11.4432 19.2311 11.594 19.1438Z" fill="#EB5B58"/>
<path d="M11.6492 19.1099C11.632 19.121 11.6147 19.1317 11.5969 19.1419C11.6147 19.1317 11.632 19.121 11.6492 19.1099Z" fill="#EB5B58"/>
<path d="M11.7045 19.0732C11.6883 19.0849 11.6715 19.0961 11.6548 19.1068C11.6715 19.0956 11.6878 19.0849 11.7045 19.0732Z" fill="#EB5B58"/>
<path d="M11.7595 19.0325C11.8276 18.9802 11.891 18.9223 11.9494 18.8594C11.8916 18.9223 11.8281 18.9802 11.7595 19.0325Z" fill="#EB5B58"/>
<path d="M7.21635 19.3241C7.03861 19.2926 6.87104 19.2302 6.72021 19.1423C6.87154 19.2302 7.03861 19.2921 7.21635 19.3241Z" fill="#EB5B58"/>
<path d="M11.0977 6.24992C11.0114 6.23469 10.923 6.22656 10.8326 6.22656H7.48462C6.64317 6.22656 5.96118 6.90855 5.96118 7.75V12.0263C6.67466 12.1527 7.217 12.7758 7.217 13.5259V19.3241C7.30384 19.3393 7.39321 19.3479 7.48462 19.3479H10.8326C10.923 19.3479 11.0119 19.3398 11.0977 19.3246V6.24992Z" fill="#EB5B58"/>
<path d="M7.48462 19.3479H10.8326C11.6741 19.3479 12.3561 18.6659 12.3561 17.8245V7.75C12.3561 6.90855 11.6741 6.22656 10.8326 6.22656H7.48462C6.64317 6.22656 5.96118 6.90855 5.96118 7.75V17.8245C5.96118 18.6659 6.64317 19.3479 7.48462 19.3479Z" fill="#EB5B58"/>
<path d="M12.3556 7.75008V17.8246C12.3556 18.5756 11.8122 19.1987 11.0972 19.3246V6.25C11.8122 6.37594 12.3556 6.99953 12.3556 7.75008ZM5.96118 12.0264V17.8246C5.96118 18.5746 6.50302 19.1972 7.217 19.3241V13.5259C7.21649 12.7759 6.67466 12.1533 5.96118 12.0264Z" fill="#222349"/>
</svg>
