<svg width="24" height="14" viewBox="0 0 24 14" fill="none" xmlns="http://www.w3.org/2000/svg">
<path d="M2.42422 13.5861H16.7157C17.6153 13.5861 18.3509 12.85 18.3509 11.9509V11.6053L10.5951 7.67328C10.0438 7.39383 10.0438 6.60633 10.5951 6.32687L18.3509 2.39484V2.04922C18.3509 1.14961 17.6148 0.414062 16.7157 0.414062H2.42422C1.52461 0.414062 0.789063 1.15016 0.789063 2.04922V11.9504C0.789062 12.85 1.52516 13.5861 2.42422 13.5861Z" fill="#59ACEA"/>
<path d="M22.1149 13.5133C22.6169 13.7676 23.2108 13.4028 23.2108 12.8401V1.15994C23.2108 0.597206 22.6169 0.232439 22.1149 0.486736L18.3513 2.39478V11.6053L22.1149 13.5133Z" fill="#EB5B58"/>
<path d="M10.5951 7.67321L18.3509 11.6052V2.39478L10.5951 6.32681C10.0438 6.60626 10.0438 7.39376 10.5951 7.67321Z" fill="#222349"/>
</svg>
