<svg width="24" height="22" viewBox="0 0 24 22" fill="none" xmlns="http://www.w3.org/2000/svg">
<path d="M9.44609 5.68382L10.448 5.98187L10.6859 5.18179C10.8297 4.6989 11.3377 4.42327 11.8206 4.5671C12.3035 4.71093 12.5791 5.21898 12.4353 5.70187L12.1974 6.50194L14.6972 7.24569L14.9351 6.44562C15.0789 5.96273 15.587 5.6871 16.0698 5.83093C16.5527 5.97476 16.8284 6.4828 16.6845 6.96569L16.4466 7.76577L17.804 8.16937V4.63491C17.804 3.46624 16.8563 2.51851 15.6876 2.51851H14.6425V1.68397C14.6425 1.17976 14.234 0.77124 13.7298 0.77124C13.2255 0.77124 12.817 1.17976 12.817 1.68397V2.51851H10.209V1.68397C10.209 1.17976 9.80047 0.77124 9.29625 0.77124C8.79203 0.77124 8.38352 1.17976 8.38352 1.68397V2.51851H5.77547V1.68397C5.77547 1.17976 5.36695 0.77124 4.86273 0.77124C4.35852 0.77124 3.95 1.17976 3.95 1.68397V2.51851H2.90547C1.7368 2.51851 0.789062 3.46624 0.789062 4.63491V12.7259C0.789062 13.8946 1.7368 14.8423 2.90547 14.8423H4.51328L6.81398 7.10843C7.14703 5.98843 8.32555 5.35022 9.44609 5.68382Z" fill="#59ACEA"/>
<path d="M21.697 9.3282L20.6951 9.03015L20.933 8.23007C21.0769 7.74718 20.8018 7.23859 20.3183 7.09531C19.8355 6.95148 19.3269 7.22656 19.1836 7.70999L18.9457 8.51007L17.8033 8.17046V12.7265C17.8033 13.8952 16.8555 14.8429 15.6869 14.8429H4.51311L4.50655 14.8642C4.1735 15.9848 4.81116 17.1627 5.93171 17.4963L18.1833 21.1407C19.3039 21.4737 20.4819 20.8361 20.8155 19.7155L23.1222 11.9609C23.4558 10.8398 22.8176 9.66124 21.697 9.3282Z" fill="#EB5B58"/>
<path d="M17.8039 12.726V8.16998L16.4465 7.76639L16.6844 6.96631C16.8283 6.48342 16.5532 5.97483 16.0697 5.83155C15.5869 5.68772 15.0783 5.96279 14.935 6.44623L14.6971 7.24631L12.1973 6.50256L12.4352 5.70248C12.579 5.21959 12.304 4.711 11.8205 4.56772C11.3376 4.42389 10.829 4.69897 10.6858 5.1824L10.4479 5.98248L9.446 5.68444C8.32545 5.35139 7.14748 5.98905 6.81389 7.10959L4.51318 14.8424H15.6875C16.8562 14.8424 17.8039 13.8952 17.8039 12.726Z" fill="#222349"/>
</svg>
