<svg width="29" height="30" viewBox="0 0 29 30" fill="none" xmlns="http://www.w3.org/2000/svg">
<g clip-path="url(#clip0_1_509)">
<path d="M2.42741 13.2277L12.0001 6.90047C13.4456 5.94592 15.2456 5.94592 16.691 6.90047L26.2638 13.2005C26.9729 13.6641 27.4911 14.2914 27.9001 14.9732C29.3456 12.4096 28.8001 8.6732 26.2638 7.00956L16.691 0.709561C15.2456 -0.244984 13.4456 -0.244984 12.0001 0.709561L2.42741 7.03683C-0.136224 8.72774 -0.654406 12.4368 0.791049 15.0005C1.20014 14.2914 1.71832 13.6641 2.42741 13.2277Z" fill="#59AAE8"/>
<path d="M26.291 16.7727L16.691 23.1C15.2455 24.0545 13.4455 24.0545 12.0001 23.1L2.42735 16.7727C1.71826 16.3091 1.20008 15.6818 0.790986 15C-0.654469 17.5636 -0.109014 21.3 2.42735 22.9636L12.0001 29.2909C13.4455 30.2454 15.2455 30.2454 16.691 29.2909L26.2637 22.9909C28.8001 21.3 29.3455 17.5909 27.9001 15.0273C27.5183 15.7091 26.9728 16.3364 26.291 16.7727Z" fill="#E95B58"/>
<path d="M2.42738 16.7727L12.0001 23.1C13.4456 24.0545 15.2456 24.0545 16.691 23.1L26.2637 16.8C26.9728 16.3364 27.491 15.7091 27.9001 15.0273C27.491 14.3182 26.9728 13.6909 26.2637 13.2545L16.691 6.89999C15.2456 5.94545 13.4456 5.94545 12.0001 6.89999L2.42738 13.2273C1.71829 13.6909 1.20011 14.3182 0.791016 15C1.20011 15.7091 1.71829 16.3364 2.42738 16.7727Z" fill="#222349"/>
</g>
<defs>
<clipPath id="clip0_1_509">
<rect width="28.7182" height="30" fill="white"/>
</clipPath>
</defs>
</svg>
