<svg width="22" height="22" viewBox="0 0 22 22" fill="none" xmlns="http://www.w3.org/2000/svg">
<path d="M15.0225 7.21273C15.0235 7.19952 15.0245 7.18632 15.0255 7.17261C15.0245 7.18632 15.0235 7.19952 15.0225 7.21273Z" fill="#59ACEA"/>
<path d="M15.0339 7.05598C15.035 7.03821 15.036 7.02095 15.037 7.00317C15.036 7.02095 15.035 7.03872 15.0339 7.05598Z" fill="#59ACEA"/>
<path d="M14.7122 4.72437C14.7294 4.77413 14.7462 4.8239 14.7624 4.87366C14.7462 4.82339 14.7294 4.77362 14.7122 4.72437Z" fill="#59ACEA"/>
<path d="M15.0417 6.89226C15.0423 6.87601 15.0428 6.85976 15.0433 6.84351C15.0433 6.85976 15.0423 6.87601 15.0417 6.89226Z" fill="#59ACEA"/>
<path d="M14.9792 7.57178C14.9818 7.55502 14.9843 7.53775 14.9869 7.521C14.9843 7.53775 14.9818 7.55451 14.9792 7.57178Z" fill="#59ACEA"/>
<path d="M15.0027 7.40123C15.0042 7.38955 15.0057 7.37838 15.0067 7.3667C15.0057 7.37838 15.0037 7.38955 15.0027 7.40123Z" fill="#59ACEA"/>
<path d="M14.9539 7.72723C14.9569 7.71099 14.9594 7.69423 14.9625 7.67798C14.9594 7.69423 14.9569 7.71048 14.9539 7.72723Z" fill="#59ACEA"/>
<path d="M14.7681 4.89111C14.8036 5.00182 14.8356 5.11404 14.8646 5.22779C14.8356 5.11404 14.8031 5.00182 14.7681 4.89111Z" fill="#59ACEA"/>
<path d="M14.9751 5.77002C14.9837 5.82689 14.9919 5.88377 14.999 5.94064C14.9919 5.88326 14.9837 5.82639 14.9751 5.77002Z" fill="#59ACEA"/>
<path d="M15.0458 6.68612C15.0458 6.68562 15.0458 6.68561 15.0458 6.68511C15.0458 6.62722 15.0447 6.56983 15.0432 6.51245C15.0447 6.56983 15.0458 6.62722 15.0458 6.68511C15.0458 6.68561 15.0458 6.68562 15.0458 6.68612Z" fill="#59ACEA"/>
<path d="M15.0225 6.16211C15.026 6.20121 15.0291 6.24082 15.0316 6.28043C15.0291 6.24082 15.026 6.20121 15.0225 6.16211Z" fill="#59ACEA"/>
<path d="M15.0356 6.33936C15.0382 6.37947 15.0397 6.41959 15.0412 6.45971C15.0397 6.41959 15.0377 6.37947 15.0356 6.33936Z" fill="#59ACEA"/>
<path d="M13.8001 11.8506C13.7112 11.7902 13.6178 11.7288 13.5142 11.6648C13.5096 11.6622 13.505 11.6597 13.5005 11.6571C13.4863 11.6485 13.472 11.6409 13.4578 11.6323C13.2491 11.5058 13.0419 11.3946 12.8357 11.29C13.1298 11.0539 13.4004 10.7903 13.6442 10.5029C11.912 11.4307 9.85895 11.4423 9.76652 11.4423C9.62078 11.4423 9.48824 11.358 9.42629 11.226C9.36434 11.094 9.38465 10.9386 9.47758 10.8264C9.48418 10.8182 9.91836 10.2911 10.4023 9.5934C10.6339 9.25926 10.8761 8.88906 11.0894 8.51176C10.4688 7.70738 10.1418 6.77758 10.1418 5.80816C10.1418 4.17098 11.0767 2.72066 12.5072 1.83453C13.5116 2.53328 14.2891 3.5352 14.706 4.70824C13.893 2.41902 11.7079 0.779297 9.13988 0.779297C5.8782 0.779297 3.23453 3.42297 3.23453 6.68465C3.23453 8.54426 4.09477 10.2023 5.43844 11.2849C4.95551 11.5205 4.6818 11.7115 4.6818 11.7115L4.68535 11.7145C2.23262 13.2349 0.589844 15.9644 0.589844 19.09C0.589844 19.965 2.21383 20.5693 4.45785 20.9054C9.50246 21.6611 17.6909 21.0563 17.6909 19.09C17.6909 16.0533 16.1386 13.3939 13.8001 11.8506Z" fill="#59ACEA"/>
<path d="M14.9463 5.60156C14.9544 5.64676 14.9625 5.69144 14.9697 5.73715C14.9625 5.69195 14.9544 5.64676 14.9463 5.60156Z" fill="#59ACEA"/>
<path d="M15.0015 5.96094C15.0076 6.01019 15.0126 6.05945 15.0177 6.10871C15.0126 6.05945 15.0076 6.01019 15.0015 5.96094Z" fill="#59ACEA"/>
<path d="M14.8669 5.23804C14.8796 5.28831 14.8918 5.33909 14.903 5.38988C14.8913 5.33909 14.8796 5.28831 14.8669 5.23804Z" fill="#59ACEA"/>
<path d="M14.9116 5.42944C14.9208 5.47159 14.9294 5.51425 14.9375 5.5569C14.9294 5.51425 14.9208 5.4721 14.9116 5.42944Z" fill="#59ACEA"/>
<path d="M14.9253 7.87745C14.9268 7.87085 14.9278 7.86425 14.9288 7.85815C14.9278 7.86425 14.9263 7.87085 14.9253 7.87745Z" fill="#59ACEA"/>
<path d="M14.7476 8.54079C14.7506 8.53216 14.7536 8.52353 14.7562 8.51489C14.7536 8.52353 14.7506 8.53216 14.7476 8.54079Z" fill="#59ACEA"/>
<path d="M14.2856 9.58339C14.2887 9.5778 14.2917 9.57273 14.2948 9.56714C14.2922 9.57273 14.2887 9.57831 14.2856 9.58339Z" fill="#59ACEA"/>
<path d="M14.114 9.86819C14.1237 9.85296 14.1333 9.83823 14.1425 9.823C14.1333 9.83823 14.1237 9.85347 14.114 9.86819Z" fill="#59ACEA"/>
<path d="M13.9255 10.1444C13.9337 10.1327 13.9423 10.1215 13.9504 10.1104C13.9423 10.1215 13.9337 10.1332 13.9255 10.1444Z" fill="#59ACEA"/>
<path d="M14.1946 9.73874C14.2032 9.72401 14.2124 9.7098 14.221 9.69507C14.2124 9.7098 14.2037 9.72401 14.1946 9.73874Z" fill="#59ACEA"/>
<path d="M14.0327 9.99207C14.0403 9.98039 14.0479 9.96871 14.0561 9.95703C14.0479 9.96871 14.0403 9.98039 14.0327 9.99207Z" fill="#59ACEA"/>
<path d="M13.6443 10.5029C13.6489 10.4973 13.6539 10.4912 13.6585 10.4856C13.6539 10.4917 13.6494 10.4973 13.6443 10.5029Z" fill="#59ACEA"/>
<path d="M13.7375 10.3895C13.7482 10.3758 13.7589 10.3626 13.77 10.3489C13.7594 10.3626 13.7487 10.3763 13.7375 10.3895Z" fill="#59ACEA"/>
<path d="M13.8301 10.2724C13.8413 10.2582 13.8519 10.2435 13.8631 10.2292C13.8519 10.244 13.8413 10.2582 13.8301 10.2724Z" fill="#59ACEA"/>
<path d="M14.8425 8.22534C14.8471 8.20858 14.8517 8.19132 14.8557 8.17456C14.8512 8.19132 14.8471 8.20858 14.8425 8.22534Z" fill="#59ACEA"/>
<path d="M14.6907 8.70522C14.6963 8.68897 14.7024 8.67323 14.7079 8.65698C14.7024 8.67323 14.6963 8.68897 14.6907 8.70522Z" fill="#59ACEA"/>
<path d="M14.801 8.372C14.8051 8.35778 14.8091 8.34356 14.8132 8.32935C14.8091 8.34356 14.8051 8.35778 14.801 8.372Z" fill="#59ACEA"/>
<path d="M14.3647 9.4389C14.3724 9.42468 14.3795 9.41046 14.3871 9.39624C14.3795 9.41046 14.3724 9.42468 14.3647 9.4389Z" fill="#59ACEA"/>
<path d="M14.636 8.84902C14.6421 8.83328 14.6487 8.81703 14.6548 8.80078C14.6487 8.81703 14.6426 8.83328 14.636 8.84902Z" fill="#59ACEA"/>
<path d="M14.8816 8.06983C14.8851 8.05511 14.8887 8.03987 14.8923 8.02515C14.8892 8.04038 14.8851 8.05511 14.8816 8.06983Z" fill="#59ACEA"/>
<path d="M14.4333 9.30555C14.4415 9.2898 14.4491 9.27355 14.4567 9.25781C14.4491 9.27355 14.441 9.2898 14.4333 9.30555Z" fill="#59ACEA"/>
<path d="M14.502 9.16219C14.508 9.14898 14.5146 9.13527 14.5207 9.12207C14.5141 9.13527 14.508 9.14898 14.502 9.16219Z" fill="#59ACEA"/>
<path d="M14.5796 8.9875C14.5842 8.97734 14.5882 8.96719 14.5923 8.95703C14.5877 8.96719 14.5837 8.97734 14.5796 8.9875Z" fill="#59ACEA"/>
<path d="M9.47797 10.8267C9.47797 10.8267 9.47899 10.8257 9.48001 10.8247C9.47848 10.8257 9.47797 10.8267 9.47797 10.8267C9.41958 10.8968 9.39012 10.9837 9.39114 11.0715C9.39012 10.9842 9.41958 10.8968 9.47797 10.8267Z" fill="#EB5B58"/>
<path d="M9.40576 11.1702C9.40637 11.1726 9.40698 11.175 9.40759 11.1775C9.40637 11.175 9.40637 11.1726 9.40576 11.1702Z" fill="#EB5B58"/>
<path d="M18.4946 1.53388C17.6877 1.14692 16.7614 0.926025 15.7758 0.926025C15.5803 0.926025 15.3868 0.934658 15.1963 0.951924C13.0524 1.14286 11.2613 2.37939 10.5148 4.06177C10.915 3.16091 11.6142 2.38802 12.507 1.83501C14.0406 2.90142 15.045 4.67571 15.045 6.68513C15.045 8.14103 14.5174 9.47353 13.6435 10.5029C12.1281 11.3143 10.3671 11.4251 9.88818 11.4403C10.3874 11.4245 12.2835 11.3052 13.84 10.3932C14.4626 10.5912 15.1131 10.6913 15.7758 10.6913C18.5428 10.6913 20.8488 8.95302 21.3201 6.67091C21.3779 6.3906 21.4099 6.10317 21.4099 5.80864C21.4099 3.97036 20.2313 2.36669 18.4946 1.53388Z" fill="#EB5B58"/>
<path d="M10.072 10.0566C10.1761 9.9149 10.2878 9.75951 10.4021 9.59447C10.6337 9.26033 10.8759 8.89014 11.0892 8.51283C10.9338 8.31174 10.7972 8.10252 10.6794 7.88721C10.7972 8.10252 10.9343 8.31174 11.0892 8.51283C10.8754 8.89014 10.6337 9.26033 10.4021 9.59447C10.2878 9.75951 10.1761 9.9149 10.072 10.0566Z" fill="#EB5B58"/>
<path d="M9.80244 11.4424C9.79533 11.4424 9.78975 11.4424 9.78467 11.4424C9.78975 11.4429 9.79584 11.4429 9.80244 11.4424Z" fill="#EB5B58"/>
<path d="M9.96558 10.2008C9.98183 10.1789 9.99808 10.1571 10.0148 10.1348C9.99808 10.1571 9.98132 10.1789 9.96558 10.2008Z" fill="#EB5B58"/>
<path d="M10.1421 5.80855C10.1421 5.76234 10.1431 5.71613 10.1446 5.66992C10.1431 5.71613 10.1421 5.76234 10.1421 5.80855Z" fill="#EB5B58"/>
<path d="M9.49072 10.811C9.4958 10.8044 9.50291 10.7963 9.51103 10.7861C9.50291 10.7963 9.4958 10.8049 9.49072 10.811Z" fill="#EB5B58"/>
<path d="M9.83961 11.4419C9.82742 11.4424 9.81676 11.4424 9.80762 11.4424C9.81676 11.4424 9.82793 11.4424 9.83961 11.4419Z" fill="#EB5B58"/>
<path d="M9.47949 10.8247C9.48152 10.8222 9.48508 10.8176 9.49066 10.8115C9.48559 10.8176 9.48152 10.8222 9.47949 10.8247Z" fill="#EB5B58"/>
<path d="M10.2342 4.92969C10.2266 4.96574 10.2195 5.00129 10.2129 5.03734C10.2195 5.00129 10.2266 4.96523 10.2342 4.92969Z" fill="#EB5B58"/>
<path d="M10.2717 4.76611C10.2601 4.81131 10.2499 4.85701 10.2397 4.90322C10.2494 4.85701 10.2601 4.81131 10.2717 4.76611Z" fill="#EB5B58"/>
<path d="M10.35 4.49341C10.3378 4.53099 10.3261 4.56856 10.3154 4.60614C10.3266 4.56856 10.3383 4.53099 10.35 4.49341Z" fill="#EB5B58"/>
<path d="M10.3073 4.63306C10.2951 4.67571 10.2834 4.71888 10.2722 4.76204C10.2834 4.71888 10.2951 4.67571 10.3073 4.63306Z" fill="#EB5B58"/>
<path d="M9.88819 11.4402C9.87194 11.4407 9.85671 11.4412 9.84351 11.4412C9.85671 11.4412 9.87144 11.4407 9.88819 11.4402Z" fill="#EB5B58"/>
<path d="M10.4545 4.20459C10.4189 4.29295 10.3864 4.38232 10.3564 4.47322C10.3864 4.38283 10.4189 4.29295 10.4545 4.20459Z" fill="#EB5B58"/>
<path d="M10.5108 4.07129C10.4926 4.11293 10.4748 4.15508 10.4575 4.19723C10.4748 4.15508 10.4926 4.11293 10.5108 4.07129Z" fill="#EB5B58"/>
<path d="M10.1645 5.37305C10.1604 5.41063 10.1573 5.4482 10.1543 5.48578C10.1573 5.4482 10.1609 5.41063 10.1645 5.37305Z" fill="#EB5B58"/>
<path d="M10.1513 5.5293C10.1493 5.5623 10.1473 5.59582 10.1462 5.62883C10.1478 5.59531 10.1493 5.5623 10.1513 5.5293Z" fill="#EB5B58"/>
<path d="M10.1838 5.2124C10.1772 5.2576 10.1716 5.3033 10.1665 5.349C10.1716 5.3033 10.1777 5.2576 10.1838 5.2124Z" fill="#EB5B58"/>
<path d="M10.2057 5.07544C10.1996 5.11099 10.1941 5.14653 10.1885 5.18208C10.1941 5.14653 10.1996 5.11099 10.2057 5.07544Z" fill="#EB5B58"/>
<path d="M9.76661 11.4428C9.85903 11.4428 11.9121 11.4306 13.6443 10.5033C14.5182 9.47396 15.0458 8.14146 15.0458 6.68557C15.0458 4.67615 14.0414 2.90186 12.5078 1.83545C11.0773 2.72158 10.1424 4.1724 10.1424 5.80908C10.1424 6.7785 10.4689 7.7083 11.09 8.51268C10.8762 8.88998 10.6345 9.26018 10.4029 9.59432C9.91895 10.2921 9.48528 10.8192 9.47817 10.8273C9.38524 10.9395 9.36493 11.0949 9.42688 11.2269C9.48833 11.3585 9.62087 11.4428 9.76661 11.4428Z" fill="#222349"/>
</svg>
