<svg width="12" height="22" viewBox="0 0 12 22" fill="none" xmlns="http://www.w3.org/2000/svg">
<path d="M1.56167 17.3391H0.934014C0.433819 17.3391 0.0285845 17.8063 0.0285845 18.3831V20.3661C0.0285845 20.9425 0.433819 21.4102 0.934014 21.4102H11.0664C11.5666 21.4102 11.9718 20.943 11.9718 20.3661V18.3831C11.9718 17.8068 11.5666 17.3391 11.0664 17.3391H10.4382C9.93804 17.3391 9.53281 16.8719 9.53281 16.295V7.53677C9.53281 6.97868 9.15144 6.52673 8.67359 6.49829C8.02968 8.03493 6.51183 9.11454 4.74159 9.11454C2.97441 9.11454 1.45909 8.03899 0.812647 6.50743C0.370342 6.57599 0.0280762 7.00864 0.0280762 7.53727V9.52028C0.0280762 10.0966 0.433311 10.5643 0.933506 10.5643H1.56116C2.06136 10.5643 2.46659 11.0315 2.46659 11.6084V16.2955C2.4671 16.8719 2.06187 17.3391 1.56167 17.3391Z" fill="#59ACEA"/>
<path d="M8.62735 6.49266C8.64309 6.49266 8.65782 6.49723 8.67356 6.49824C8.88582 5.99145 9.00364 5.4359 9.00364 4.85191C9.00364 2.4982 7.09528 0.589844 4.74156 0.589844C2.38785 0.589844 0.479492 2.4982 0.479492 4.85191C0.479492 5.43894 0.598321 5.99805 0.812618 6.50688C0.852735 6.50078 0.892344 6.49266 0.933477 6.49266H8.62735Z" fill="#EB5B58"/>
<path d="M4.74167 9.11402C6.51191 9.11402 8.02976 8.03441 8.67366 6.49777C8.65792 6.49676 8.6432 6.49219 8.62745 6.49219H0.934092C0.892451 6.49219 0.852842 6.4998 0.813232 6.50641C1.45866 8.03898 2.97448 9.11402 4.74167 9.11402Z" fill="#222349"/>
</svg>
