<svg width="26" height="20" viewBox="0 0 26 20" fill="none" xmlns="http://www.w3.org/2000/svg">
<path d="M6.21801 13.6699C6.17676 13.7499 6.13676 13.8312 6.09863 13.9124C6.13738 13.8305 6.17676 13.7499 6.21801 13.6699Z" fill="#EB5B58"/>
<path d="M6.07638 13.9587C6.03888 14.0394 6.00264 14.1206 5.96826 14.2031C6.00326 14.1212 6.03951 14.0394 6.07638 13.9587Z" fill="#EB5B58"/>
<path d="M6.52851 13.123C6.42164 13.2943 6.32164 13.4699 6.22852 13.6499C6.32164 13.4699 6.42164 13.2943 6.52851 13.123Z" fill="#EB5B58"/>
<path d="M20.3371 15.1218C20.3652 15.2224 20.3915 15.3237 20.4158 15.4256C19.8333 15.4012 19.2696 15.3512 18.7646 15.2756C17.569 15.0968 16.7046 14.7749 16.7046 14.3087C16.7046 13.1431 17.134 12.0812 17.8396 11.2706C17.6202 11.0881 17.3908 10.9162 17.1521 10.7587C17.0727 10.7049 16.989 10.6499 16.8971 10.5931C16.8927 10.5906 16.889 10.5887 16.8852 10.5862C16.8727 10.5787 16.8596 10.5718 16.8471 10.5643C16.6608 10.4512 16.4758 10.3518 16.2915 10.2587C17.2533 9.48619 17.9377 8.38306 18.174 7.12244C18.1646 7.17244 18.1546 7.22306 18.1433 7.27244C18.1571 7.16994 18.1765 7.06931 18.2002 6.96994C18.1921 7.02057 18.1833 7.07119 18.174 7.12181C18.2327 6.80619 18.2646 6.48119 18.2646 6.14869C18.2646 3.23744 15.9046 0.877441 12.9933 0.877441C10.0821 0.877441 7.72209 3.23744 7.72209 6.14869C7.72209 6.43307 7.74521 6.71244 7.78834 6.98431C7.78084 6.93681 7.77396 6.88932 7.76771 6.84181C7.81959 7.02369 7.85521 7.21244 7.87334 7.40619C7.86209 7.36056 7.85147 7.31494 7.84147 7.26869C8.10084 8.46619 8.76709 9.51244 9.68897 10.2549C9.25772 10.4656 9.01397 10.6356 9.01397 10.6356L9.01709 10.6381C8.36522 11.0418 7.77834 11.5424 7.27397 12.1181C7.54334 11.8099 7.83709 11.5237 8.15146 11.2624C8.86272 12.0731 9.29647 13.1387 9.29647 14.3093C9.29647 14.9737 7.53959 15.3462 5.56896 15.4268C5.43334 16.0024 5.36084 16.6031 5.36084 17.2212C5.36084 18.0018 6.81021 18.5412 8.81334 18.8412C13.3158 19.5156 20.6252 18.9762 20.6252 17.2212C20.6246 16.4924 20.524 15.7887 20.3371 15.1218Z" fill="#EB5B58"/>
<path d="M5.6426 15.1406C5.61635 15.235 5.59135 15.33 5.56885 15.4263C5.59135 15.3306 5.61635 15.2356 5.6426 15.1406Z" fill="#EB5B58"/>
<path d="M5.73043 14.8469C5.70543 14.925 5.68168 15.0032 5.65918 15.0825C5.68168 15.0038 5.70543 14.925 5.73043 14.8469Z" fill="#EB5B58"/>
<path d="M5.95693 14.23C5.88006 14.4144 5.81006 14.6019 5.74756 14.7931C5.81006 14.6019 5.88006 14.4137 5.95693 14.23Z" fill="#EB5B58"/>
<path d="M6.69449 12.8679C6.64199 12.9448 6.59137 13.0229 6.54199 13.1017C6.59137 13.0229 6.64199 12.9448 6.69449 12.8679Z" fill="#EB5B58"/>
<path d="M20.0229 14.2206C19.9029 13.935 19.7666 13.6587 19.6147 13.3918C19.7666 13.6587 19.9035 13.935 20.0229 14.2206Z" fill="#EB5B58"/>
<path d="M18.5137 11.9043C18.723 12.1255 18.9193 12.3599 19.1018 12.6049C18.9193 12.3599 18.723 12.1255 18.5137 11.9043Z" fill="#EB5B58"/>
<path d="M7.26648 12.1262C7.06711 12.355 6.88086 12.5956 6.70898 12.8468C6.88086 12.5956 7.06711 12.355 7.26648 12.1262Z" fill="#EB5B58"/>
<path d="M20.3355 15.1143C20.2505 14.8112 20.1473 14.5162 20.0273 14.23C20.1467 14.5162 20.2498 14.8119 20.3355 15.1143Z" fill="#EB5B58"/>
<path d="M19.6087 13.3813C19.4568 13.115 19.2893 12.8588 19.1074 12.6138C19.2893 12.8588 19.4568 13.115 19.6087 13.3813Z" fill="#EB5B58"/>
<path d="M7.8125 7.12744C7.82125 7.17369 7.83062 7.21994 7.84062 7.26557C7.83062 7.21994 7.82125 7.17369 7.8125 7.12744Z" fill="#EB5B58"/>
<path d="M18.5092 11.8994C18.2986 11.6769 18.0755 11.4675 17.8398 11.2712C18.0755 11.4675 18.2986 11.6769 18.5092 11.8994Z" fill="#EB5B58"/>
<path d="M7.78809 6.98511C7.79559 7.03198 7.80371 7.07886 7.81246 7.12573C7.80371 7.07886 7.79559 7.03198 7.78809 6.98511Z" fill="#EB5B58"/>
<path d="M7.9126 15.1514C7.95135 15.1426 7.98885 15.1339 8.02635 15.1245C7.98885 15.1333 7.95135 15.1426 7.9126 15.1514Z" fill="#59ACEA"/>
<path d="M7.76123 15.1838C7.8081 15.1744 7.85435 15.1644 7.89998 15.1538C7.85435 15.1644 7.80873 15.1744 7.76123 15.1838Z" fill="#59ACEA"/>
<path d="M7.75791 15.1846C7.71416 15.1939 7.66916 15.2027 7.62354 15.2108C7.66916 15.2027 7.71416 15.1939 7.75791 15.1846Z" fill="#59ACEA"/>
<path d="M8.05615 15.117C8.08865 15.1089 8.12115 15.1008 8.1524 15.092C8.12115 15.1002 8.08865 15.1089 8.05615 15.117Z" fill="#59ACEA"/>
<path d="M7.76709 6.84204C7.77959 6.88704 7.79147 6.93204 7.80209 6.97766C7.79147 6.93204 7.78022 6.88704 7.76709 6.84204Z" fill="#59ACEA"/>
<path d="M5.56875 15.4271C5.96125 13.7646 6.88688 12.3134 8.15125 11.2628C8.19438 11.3121 8.23687 11.3628 8.27812 11.414C7.97875 11.0415 7.6225 10.7171 7.22375 10.454C7.17625 10.4215 7.12687 10.389 7.07125 10.3553C7.06875 10.354 7.06625 10.3528 7.06375 10.3509C7.05625 10.3465 7.04875 10.3421 7.04125 10.3378C6.93 10.2703 6.82 10.2109 6.71 10.1553C7.4275 9.57901 7.8875 8.69463 7.8875 7.70275C7.8875 7.60275 7.8825 7.504 7.87313 7.4065C7.82812 7.22213 7.7925 7.034 7.7675 6.84213C7.39313 5.52338 6.18125 4.55713 4.74188 4.55713C3.005 4.55713 1.59625 5.96525 1.59625 7.70275C1.59625 8.69338 2.05437 9.57651 2.77 10.1528C2.5125 10.2784 2.36688 10.3796 2.36688 10.3796L2.36875 10.3809C1.0625 11.1909 0.1875 12.644 0.1875 14.3096C0.1875 14.7759 1.0525 15.0978 2.2475 15.2765C3.44062 15.4553 4.96438 15.4909 6.28938 15.384C6.05438 15.4021 5.81313 15.4171 5.56875 15.4271Z" fill="#59ACEA"/>
<path d="M7.47607 15.2377C7.51732 15.2308 7.55857 15.2233 7.59857 15.2158C7.55795 15.2233 7.51732 15.2308 7.47607 15.2377Z" fill="#59ACEA"/>
<path d="M8.61784 14.9409C8.59346 14.9503 8.56908 14.9603 8.54346 14.9697C8.56908 14.9597 8.59408 14.9503 8.61784 14.9409Z" fill="#59ACEA"/>
<path d="M8.51373 14.9802C8.48748 14.9896 8.46061 14.999 8.43311 15.0084C8.46123 14.999 8.48748 14.9896 8.51373 14.9802Z" fill="#59ACEA"/>
<path d="M8.73508 14.8914C8.7057 14.9045 8.67445 14.9176 8.64258 14.9307C8.67445 14.9176 8.7057 14.9045 8.73508 14.8914Z" fill="#59ACEA"/>
<path d="M7.80371 6.98267C7.81434 7.02642 7.82371 7.07079 7.83183 7.11579C7.82309 7.07079 7.81371 7.02642 7.80371 6.98267Z" fill="#59ACEA"/>
<path d="M6.30029 15.3825C6.35717 15.3782 6.41342 15.3732 6.46967 15.3682C6.41342 15.3725 6.35717 15.3775 6.30029 15.3825Z" fill="#59ACEA"/>
<path d="M6.81885 15.3312C6.8701 15.325 6.92135 15.3188 6.97197 15.3125C6.92135 15.3194 6.87072 15.3256 6.81885 15.3312Z" fill="#59ACEA"/>
<path d="M6.99121 15.3107C7.04246 15.3038 7.09371 15.2969 7.14371 15.29C7.09371 15.2969 7.04246 15.3038 6.99121 15.3107Z" fill="#59ACEA"/>
<path d="M6.47119 15.3677C6.58682 15.357 6.70119 15.3452 6.81307 15.332C6.70119 15.3452 6.58682 15.357 6.47119 15.3677Z" fill="#59ACEA"/>
<path d="M7.14697 15.2894C7.25197 15.2744 7.35385 15.2588 7.45385 15.2419C7.35385 15.2588 7.25197 15.2744 7.14697 15.2894Z" fill="#59ACEA"/>
<path d="M8.40879 15.0164C8.33629 15.0401 8.26004 15.0626 8.18066 15.0845C8.26004 15.0626 8.33629 15.0401 8.40879 15.0164Z" fill="#59ACEA"/>
<path d="M17.5889 11.5857C17.6676 11.4776 17.7514 11.3726 17.8389 11.272C17.7514 11.3726 17.6676 11.477 17.5889 11.5857Z" fill="#59ACEA"/>
<path d="M17.2671 12.0934C17.3627 11.9178 17.4696 11.749 17.5865 11.5884C17.4702 11.749 17.3633 11.9178 17.2671 12.0934Z" fill="#59ACEA"/>
<path d="M17.0889 12.4577C17.1414 12.3377 17.1989 12.2202 17.2607 12.1052C17.1982 12.2202 17.1407 12.3377 17.0889 12.4577Z" fill="#59ACEA"/>
<path d="M17.0107 12.6476C17.0326 12.5907 17.0557 12.5351 17.0795 12.4795C17.0557 12.5351 17.0326 12.5907 17.0107 12.6476Z" fill="#59ACEA"/>
<path d="M18.1675 7.12022C18.1769 7.06959 18.1875 7.01959 18.1994 6.97021C18.1875 7.02022 18.1769 7.06959 18.1675 7.12022Z" fill="#59ACEA"/>
<path d="M18.1426 7.27273C18.1495 7.22148 18.1576 7.17085 18.167 7.12085C18.1582 7.17085 18.1501 7.22148 18.1426 7.27273Z" fill="#59ACEA"/>
<path d="M16.7091 14.1145C16.7066 14.1789 16.7047 14.2439 16.7047 14.3089C16.7041 14.2439 16.706 14.1795 16.7091 14.1145Z" fill="#59ACEA"/>
<path d="M16.7251 13.8656C16.7313 13.8019 16.7382 13.7388 16.747 13.6763C16.7389 13.7388 16.7313 13.8019 16.7251 13.8656Z" fill="#59ACEA"/>
<path d="M7.8335 7.12891C7.84162 7.17141 7.8485 7.21453 7.85475 7.25828C7.84912 7.21453 7.84162 7.17141 7.8335 7.12891Z" fill="#59ACEA"/>
<path d="M16.7114 14.0614C16.7139 14.0095 16.7177 13.9576 16.722 13.9058C16.7177 13.9576 16.7139 14.0095 16.7114 14.0614Z" fill="#59ACEA"/>
<path d="M16.9395 12.8458C16.9601 12.7833 16.982 12.7214 17.0057 12.6602C16.9826 12.722 16.9601 12.7839 16.9395 12.8458Z" fill="#59ACEA"/>
<path d="M7.85742 7.27515C7.86305 7.31827 7.86868 7.36202 7.87243 7.40577C7.86868 7.36202 7.86305 7.3189 7.85742 7.27515Z" fill="#59ACEA"/>
<path d="M16.7524 13.6389C16.7599 13.5864 16.7687 13.5345 16.7781 13.4827C16.7687 13.5345 16.7599 13.5864 16.7524 13.6389Z" fill="#59ACEA"/>
<path d="M16.8833 13.0289C16.8989 12.9739 16.9158 12.9189 16.9339 12.8645C16.9158 12.9189 16.8996 12.9732 16.8833 13.0289Z" fill="#59ACEA"/>
<path d="M16.7861 13.4377C16.8099 13.3114 16.8393 13.1877 16.873 13.0652C16.8393 13.1871 16.8099 13.3114 16.7861 13.4377Z" fill="#59ACEA"/>
<path d="M9.21502 13.4427C9.20315 13.3808 9.19002 13.3189 9.17627 13.2583C9.19002 13.3196 9.20315 13.3808 9.21502 13.4427Z" fill="#59ACEA"/>
<path d="M9.27529 13.8694C9.26904 13.8063 9.26154 13.7432 9.25342 13.6807C9.26217 13.7432 9.26967 13.8063 9.27529 13.8694Z" fill="#59ACEA"/>
<path d="M9.24681 13.635C9.23932 13.5825 9.23057 13.53 9.22119 13.4775C9.23057 13.53 9.23932 13.5825 9.24681 13.635Z" fill="#59ACEA"/>
<path d="M9.28873 14.0632C9.2856 14.0069 9.28185 13.9506 9.27686 13.895C9.28248 13.9513 9.28623 14.0069 9.28873 14.0632Z" fill="#59ACEA"/>
<path d="M9.05569 12.8333C9.03756 12.7783 9.01756 12.7239 8.99756 12.6702C9.01756 12.7239 9.03756 12.7783 9.05569 12.8333Z" fill="#59ACEA"/>
<path d="M9.16758 13.2239C9.15508 13.1714 9.14133 13.1195 9.12695 13.0676C9.14195 13.1195 9.15508 13.1714 9.16758 13.2239Z" fill="#59ACEA"/>
<path d="M18.0331 15.1382C17.9687 15.1232 17.9068 15.1076 17.8462 15.0913C17.9062 15.1069 17.9687 15.1226 18.0331 15.1382Z" fill="#59ACEA"/>
<path d="M8.81912 14.8508C8.7935 14.864 8.76725 14.8765 8.73975 14.889C8.76725 14.8765 8.7935 14.864 8.81912 14.8508Z" fill="#59ACEA"/>
<path d="M19.7467 15.3858C19.6211 15.3758 19.4974 15.3645 19.3755 15.3521C19.4967 15.3645 19.6211 15.3758 19.7467 15.3858Z" fill="#59ACEA"/>
<path d="M20.1722 15.4139C20.1103 15.4108 20.049 15.4071 19.9878 15.4033C20.049 15.4071 20.1109 15.4108 20.1722 15.4139Z" fill="#59ACEA"/>
<path d="M20.4125 15.4257C20.3494 15.4232 20.2863 15.4201 20.2231 15.417C20.2863 15.4201 20.3494 15.4232 20.4125 15.4257Z" fill="#59ACEA"/>
<path d="M23.74 10.4533C23.6925 10.4208 23.6431 10.3883 23.5875 10.3545C23.585 10.3533 23.5825 10.352 23.58 10.3501C23.5725 10.3458 23.565 10.3414 23.5575 10.337C23.4462 10.2695 23.3362 10.2101 23.2262 10.1545C23.9437 9.57827 24.4037 8.6939 24.4037 7.70202C24.4037 5.96515 22.9956 4.5564 21.2581 4.5564C19.7731 4.5564 18.5294 5.58577 18.1994 6.97015C18.1831 7.07202 18.1644 7.17265 18.1431 7.27265C18.1237 7.41327 18.1131 7.5564 18.1131 7.70202C18.1131 8.69265 18.5712 9.57577 19.2869 10.152C19.0294 10.2776 18.8837 10.3789 18.8837 10.3789L18.8856 10.3801C18.4937 10.6226 18.1412 10.9239 17.8394 11.2708C19.1 12.3201 20.0231 13.7676 20.4156 15.4258C22.9356 15.5314 25.8125 15.1595 25.8125 14.3089C25.8125 12.6914 24.9856 11.2751 23.74 10.4533Z" fill="#59ACEA"/>
<path d="M8.9844 12.6358C8.93877 12.5177 8.88815 12.4015 8.83252 12.2883C8.88752 12.4015 8.93815 12.5177 8.9844 12.6358Z" fill="#59ACEA"/>
<path d="M19.3341 15.3482C19.2116 15.335 19.0916 15.3213 18.9741 15.3057C19.0922 15.3207 19.2122 15.335 19.3341 15.3482Z" fill="#59ACEA"/>
<path d="M18.7645 15.2758C18.5032 15.2364 18.2576 15.1908 18.0332 15.1377C18.257 15.1908 18.5032 15.2371 18.7645 15.2758C18.8213 15.2846 18.8795 15.2927 18.9382 15.3002C18.8795 15.2927 18.8213 15.2846 18.7645 15.2758Z" fill="#59ACEA"/>
<path d="M19.9816 15.4028C19.9185 15.3984 19.856 15.394 19.7935 15.3896C19.856 15.394 19.9185 15.399 19.9816 15.4028Z" fill="#59ACEA"/>
<path d="M9.11666 13.0309C9.09916 12.9702 9.08103 12.9096 9.06104 12.8496C9.08103 12.9096 9.09978 12.9702 9.11666 13.0309Z" fill="#59ACEA"/>
<path d="M8.81838 12.2597C8.7615 12.1453 8.70088 12.0334 8.63525 11.9253C8.70088 12.0334 8.76213 12.1453 8.81838 12.2597Z" fill="#59ACEA"/>
<path d="M9.21072 14.5527C9.20072 14.5665 9.1901 14.5802 9.17822 14.5934C9.1901 14.5796 9.20072 14.5665 9.21072 14.5527Z" fill="#59ACEA"/>
<path d="M9.24854 14.4919C9.23916 14.5094 9.22916 14.5263 9.21729 14.5432C9.22916 14.5263 9.23916 14.5094 9.24854 14.4919Z" fill="#59ACEA"/>
<path d="M9.11308 14.6589C9.09934 14.6714 9.08496 14.6833 9.06934 14.6952C9.08496 14.6833 9.09934 14.6708 9.11308 14.6589Z" fill="#59ACEA"/>
<path d="M8.89937 14.8083C8.88125 14.8184 8.86313 14.8284 8.84375 14.8384C8.8625 14.829 8.88125 14.8184 8.89937 14.8083Z" fill="#59ACEA"/>
<path d="M9.05775 14.7051C9.03775 14.7201 9.01713 14.7351 8.99463 14.7501C9.0165 14.7357 9.03775 14.7207 9.05775 14.7051Z" fill="#59ACEA"/>
<path d="M8.97758 14.7615C8.96008 14.7727 8.94258 14.784 8.92383 14.7946C8.94195 14.7834 8.96008 14.7727 8.97758 14.7615Z" fill="#59ACEA"/>
<path d="M9.12988 14.6425C9.14176 14.6312 9.15238 14.6206 9.16301 14.6094C9.15301 14.6206 9.14176 14.6319 9.12988 14.6425Z" fill="#59ACEA"/>
<path d="M8.52022 11.7427C8.48397 11.6883 8.44646 11.6345 8.40771 11.582C8.44584 11.6345 8.48397 11.6883 8.52022 11.7427Z" fill="#59ACEA"/>
<path d="M8.3985 11.5708C8.36225 11.5214 8.32475 11.4727 8.28662 11.4246C8.32475 11.4727 8.36225 11.5214 8.3985 11.5708Z" fill="#59ACEA"/>
<path d="M8.62268 11.904C8.5908 11.8515 8.55768 11.8003 8.52393 11.749C8.55768 11.7997 8.5908 11.8515 8.62268 11.904Z" fill="#59ACEA"/>
<path d="M9.28784 14.3821C9.28533 14.3952 9.28221 14.4077 9.27783 14.4202C9.28221 14.4083 9.28533 14.3952 9.28784 14.3821Z" fill="#59ACEA"/>
<path d="M9.29636 14.3096C9.29636 14.2446 9.29449 14.1796 9.29199 14.1152C9.29449 14.1796 9.29636 14.244 9.29636 14.3096Z" fill="#59ACEA"/>
<path d="M9.27162 14.439C9.26662 14.4521 9.261 14.4646 9.25537 14.4777C9.26162 14.4646 9.26725 14.4521 9.27162 14.439Z" fill="#59ACEA"/>
<path d="M9.29636 14.3096C9.29636 14.3283 9.29449 14.3471 9.29199 14.3652C9.29449 14.3471 9.29636 14.3283 9.29636 14.3096Z" fill="#59ACEA"/>
<path d="M17.8396 11.2712C17.134 12.0812 16.7046 13.1431 16.7046 14.3094C16.7046 14.7756 17.5696 15.0975 18.7646 15.2762C19.269 15.3519 19.8327 15.4019 20.4158 15.4262C20.0233 13.7681 19.1002 12.3206 17.8396 11.2712Z" fill="#222349"/>
<path d="M18.1995 6.96997C18.1757 7.06935 18.157 7.16997 18.1426 7.27248C18.1645 7.1731 18.1832 7.07185 18.1995 6.96997Z" fill="#222349"/>
<path d="M9.29635 14.3093C9.29635 13.1387 8.86323 12.0731 8.15135 11.2625C6.88697 12.3131 5.96135 13.7643 5.56885 15.4268C7.53885 15.3462 9.29635 14.9737 9.29635 14.3093Z" fill="#222349"/>
<path d="M7.8732 7.40568C7.85508 7.21193 7.81883 7.02381 7.76758 6.84131C7.79258 7.03318 7.82758 7.22131 7.8732 7.40568Z" fill="#222349"/>
</svg>
