<svg width="26" height="26" viewBox="0 0 26 26" fill="none" xmlns="http://www.w3.org/2000/svg">
<path d="M17.8187 16.54C17.8187 15.0238 18.7112 13.7213 19.9912 13.1338C19.4399 12.6744 19.0887 11.9825 19.0887 11.2088C19.0887 10.2344 19.6462 9.39128 20.4587 8.97753C19.2893 6.85753 17.243 5.2919 14.8087 4.7644C15.9343 5.40565 16.6955 6.62503 16.6955 8.02565C16.6955 9.25378 9.30367 9.25378 9.30367 8.02565C9.30367 6.62503 10.0649 5.40565 11.1905 4.7644C8.7793 5.28628 6.75117 6.82878 5.57617 8.91815C6.45492 9.30753 7.0693 10.1857 7.0693 11.2088C7.0693 12.0107 6.69117 12.7232 6.10492 13.1813C7.33242 13.7894 8.17992 15.0632 8.17992 16.5407C8.17992 17.02 7.05242 17.3113 5.67867 17.4163C6.90742 19.4869 8.98305 20.9913 11.433 21.4475C10.9068 20.9882 10.5724 20.3144 10.5724 19.5607C10.5724 18.1769 11.6943 17.055 13.078 17.055C14.4618 17.055 15.5837 18.1769 15.5837 19.5607C15.5837 20.2957 15.2655 20.9544 14.7618 21.4125C17.1268 20.9144 19.123 19.4319 20.3193 17.4163C18.9468 17.3107 17.8187 17.0194 17.8187 16.54Z" fill="#59ACEA"/>
<path d="M21.5151 12.7974C22.097 12.7974 22.6457 12.9374 23.1357 13.1805C23.722 12.7218 24.1001 12.0099 24.1001 11.208C24.1001 9.82427 22.9782 8.70239 21.5945 8.70239C21.1851 8.70239 20.8001 8.80239 20.4595 8.97614C21.0882 10.1155 21.4557 11.4161 21.5013 12.798C21.5057 12.7986 21.5101 12.7974 21.5151 12.7974Z" fill="#EB5B58"/>
<path d="M19.0889 11.2083C19.0889 11.982 19.4401 12.6739 19.9914 13.1333C20.452 12.9214 20.962 12.8008 21.5007 12.7989C21.4551 11.4164 21.0876 10.1164 20.4589 8.97705C19.6464 9.3908 19.0889 10.2333 19.0889 11.2083Z" fill="#222349"/>
<path d="M23.1359 13.1807C22.7109 13.5132 22.1766 13.7138 21.5947 13.7138C21.5572 13.7138 21.5209 13.71 21.4834 13.7082C21.3853 15.0563 20.9734 16.3144 20.3203 17.4157C22.4653 17.58 25.2109 17.2882 25.2109 16.54C25.2109 15.0625 24.3634 13.7894 23.1359 13.1807Z" fill="#EB5B58"/>
<path d="M19.9923 13.1333C18.7117 13.7214 17.8198 15.0239 17.8198 16.5396C17.8198 17.0189 18.9473 17.3102 20.3211 17.4152C20.9748 16.3139 21.3861 15.0558 21.4842 13.7077C20.918 13.6833 20.3998 13.4733 19.9923 13.1333Z" fill="#EB5B58"/>
<path d="M21.5009 12.7989C21.504 12.8939 21.5153 12.9864 21.5153 13.082C21.5153 13.2932 21.499 13.5007 21.4834 13.7082C21.5203 13.7101 21.5571 13.7139 21.5946 13.7139C22.1765 13.7139 22.7109 13.5139 23.1359 13.1807C22.6459 12.9382 22.0971 12.7976 21.5153 12.7976C21.5103 12.7976 21.5059 12.7989 21.5009 12.7989Z" fill="#EB5B58"/>
<path d="M21.5011 12.7988C20.9623 12.8007 20.4529 12.922 19.9917 13.1332C20.3992 13.4732 20.9173 13.6832 21.4836 13.7082C21.4986 13.5007 21.5154 13.2932 21.5154 13.082C21.5154 12.9863 21.5042 12.8932 21.5011 12.7988Z" fill="#EB5B58"/>
<path d="M4.49971 12.7986C4.54596 11.3918 4.92846 10.0718 5.57721 8.91739C5.26721 8.78052 4.92533 8.70239 4.56471 8.70239C3.18096 8.70239 2.05908 9.82427 2.05908 11.208C2.05908 11.9818 2.41033 12.6736 2.96158 13.133C3.42658 12.9193 3.94096 12.7974 4.48471 12.7974C4.49033 12.7974 4.49471 12.7986 4.49971 12.7986Z" fill="#EB5B58"/>
<path d="M6.10576 13.1806C6.69201 12.7219 7.07013 12.01 7.07013 11.2081C7.07013 10.185 6.45576 9.30686 5.57701 8.91748C4.92826 10.0712 4.54576 11.3919 4.49951 12.7987C5.07639 12.8006 5.62014 12.94 6.10576 13.1806Z" fill="#222349"/>
<path d="M2.96205 13.1333C1.68143 13.7214 0.789551 15.0239 0.789551 16.5396C0.789551 17.2883 3.5358 17.5796 5.68017 17.4152C5.02705 16.3146 4.6158 15.0577 4.51705 13.7108C3.9258 13.7002 3.38455 13.4858 2.96205 13.1333Z" fill="#EB5B58"/>
<path d="M8.18133 16.54C8.18133 15.0625 7.33383 13.7894 6.10633 13.1807C5.68133 13.5132 5.14695 13.7138 4.56508 13.7138C4.54883 13.7138 4.5332 13.7119 4.51758 13.7113C4.61633 15.0582 5.02758 16.3157 5.6807 17.4157C7.0532 17.3107 8.18133 17.0194 8.18133 16.54Z" fill="#222349"/>
<path d="M4.48504 13.0818C4.48504 12.9862 4.49629 12.8937 4.49941 12.7987C4.49441 12.7987 4.49004 12.7981 4.48504 12.7981C3.94129 12.7981 3.42691 12.92 2.96191 13.1337C3.38504 13.4862 3.92629 13.7006 4.51691 13.7119C4.50129 13.5025 4.48504 13.2943 4.48504 13.0818Z" fill="#EB5B58"/>
<path d="M4.48535 13.082C4.48535 13.2945 4.5016 13.5026 4.51723 13.7113C4.53348 13.7113 4.54848 13.7138 4.56473 13.7138C5.1466 13.7138 5.68098 13.5138 6.10598 13.1807C5.62035 12.9401 5.0766 12.8007 4.49973 12.7988C4.4966 12.8932 4.48535 12.9863 4.48535 13.082Z" fill="#222349"/>
<path d="M14.6206 4.66563C15.2069 4.20688 15.585 3.495 15.585 2.69313C15.585 1.30937 14.4631 0.1875 13.0794 0.1875C11.6956 0.1875 10.5737 1.30937 10.5737 2.69313C10.5737 3.46688 10.925 4.15875 11.4762 4.61813C11.9412 4.40438 12.4556 4.2825 12.9994 4.2825C13.5819 4.2825 14.1306 4.42313 14.6206 4.66563Z" fill="#EB5B58"/>
<path d="M11.477 4.61816C11.3795 4.66316 11.2839 4.71066 11.1914 4.76379C11.3189 4.73629 11.4483 4.71691 11.5777 4.69504C11.5439 4.66941 11.5089 4.64504 11.477 4.61816Z" fill="#EB5B58"/>
<path d="M14.8091 4.7639C14.7478 4.7289 14.6841 4.69765 14.6209 4.66577C14.5991 4.68265 14.5772 4.6989 14.5547 4.71515C14.6397 4.73077 14.7253 4.74515 14.8091 4.7639Z" fill="#EB5B58"/>
<path d="M9.30469 8.02483C9.30469 9.25295 16.6966 9.25295 16.6966 8.02483C16.6966 6.6242 15.9353 5.40482 14.8097 4.76357C14.7253 4.74545 14.6403 4.73107 14.5553 4.71482C14.1409 5.01732 13.6322 5.19857 13.0803 5.19857C12.5159 5.19857 11.9972 5.00982 11.5784 4.69482C11.4491 4.7167 11.3197 4.73607 11.1922 4.76357C10.0659 5.40482 9.30406 6.62358 9.30469 8.02483Z" fill="#222349"/>
<path d="M13.0002 4.56685C13.5321 4.56685 14.0502 4.62185 14.5546 4.71497C14.5764 4.69872 14.5989 4.68247 14.6208 4.6656C14.1308 4.4231 13.5821 4.28247 13.0002 4.28247C12.4564 4.28247 11.9421 4.40435 11.4771 4.6181C11.5096 4.64497 11.5439 4.66935 11.5777 4.69497C12.0408 4.61685 12.5146 4.56685 13.0002 4.56685Z" fill="#EB5B58"/>
<path d="M11.5776 4.69502C11.9964 5.01002 12.5158 5.19877 13.0795 5.19877C13.632 5.19877 14.1408 5.01815 14.5545 4.71502C14.0495 4.62189 13.5314 4.56689 13.0001 4.56689C12.5145 4.56689 12.0408 4.61689 11.5776 4.69502Z" fill="#222349"/>
<path d="M14.6206 21.5325C14.6694 21.4944 14.7169 21.4537 14.7625 21.4119C14.6675 21.4319 14.5694 21.4444 14.4731 21.4606C14.5238 21.4825 14.5719 21.5081 14.6206 21.5325Z" fill="#EB5B58"/>
<path d="M11.4346 21.447C11.4489 21.4595 11.4621 21.4733 11.4771 21.4851C11.4939 21.4776 11.5102 21.4683 11.5271 21.4608C11.4964 21.4558 11.4652 21.4526 11.4346 21.447Z" fill="#EB5B58"/>
<path d="M15.585 19.5598C15.585 18.1761 14.4631 17.0542 13.0794 17.0542C11.6956 17.0542 10.5737 18.1761 10.5737 19.5598C10.5737 20.3136 10.9081 20.9873 11.4344 21.4467C11.465 21.4523 11.4956 21.4555 11.5262 21.4605C11.9781 21.2611 12.4756 21.1492 13 21.1492C13.5244 21.1492 14.0219 21.2611 14.4737 21.4605C14.57 21.4436 14.6681 21.4317 14.7631 21.4117C15.2669 20.953 15.585 20.2942 15.585 19.5598Z" fill="#222349"/>
<path d="M11.4772 21.4849C10.1966 22.073 9.30469 23.3755 9.30469 24.8911C9.30469 26.1192 16.6966 26.1192 16.6966 24.8911C16.6966 23.4142 15.8491 22.1405 14.6216 21.5317C14.1966 21.8642 13.6622 22.0649 13.0803 22.0649C12.4697 22.0649 11.9116 21.8467 11.4772 21.4849Z" fill="#EB5B58"/>
<path d="M13.0003 21.5967C12.4966 21.5967 12.0066 21.5448 11.5266 21.4604C11.5097 21.4679 11.4934 21.4767 11.4766 21.4848C11.9109 21.8467 12.4697 22.0655 13.0791 22.0655C13.6609 22.0655 14.1953 21.8655 14.6203 21.5323C14.5716 21.5079 14.5234 21.4829 14.4734 21.4604C13.9941 21.5442 13.5041 21.5967 13.0003 21.5967Z" fill="#EB5B58"/>
<path d="M14.4739 21.4607C14.022 21.2613 13.5245 21.1494 13.0001 21.1494C12.4757 21.1494 11.9782 21.2613 11.5264 21.4607C12.0057 21.5444 12.4964 21.5969 13.0001 21.5969C13.5039 21.5969 13.9939 21.5444 14.4739 21.4607Z" fill="#EB5B58"/>
</svg>
