<svg width="22" height="20" viewBox="0 0 22 20" fill="none" xmlns="http://www.w3.org/2000/svg">
<path d="M8.80839 19.6485H19.445L8.78198 19.646C8.79112 19.646 8.79925 19.6485 8.80839 19.6485Z" fill="#59ACEA"/>
<path d="M19.5394 0.351562H8.80828C7.77488 0.351562 6.9375 1.18895 6.9375 2.22234V9.10422H11.7252C12.758 9.10422 13.5959 9.9416 13.5959 10.975V14.423L13.603 14.4236C13.9738 18.7516 19.4449 19.6484 19.4449 19.6484H19.5394C20.5723 19.6484 21.4102 18.8111 21.4102 17.7777V2.22234C21.4102 1.18895 20.5728 0.351562 19.5394 0.351562ZM14.1479 7.89309H9.4598C8.97789 7.89309 8.58738 7.50258 8.58738 7.02066C8.58738 6.53875 8.97789 6.14824 9.4598 6.14824H14.1479C14.6298 6.14824 15.0204 6.53875 15.0204 7.02066C15.0204 7.50258 14.6293 7.89309 14.1479 7.89309ZM18.9493 4.21246H9.4598C8.97789 4.21246 8.58738 3.82195 8.58738 3.34004C8.58738 2.85812 8.97789 2.46762 9.4598 2.46762H18.9493C19.4312 2.46762 19.8217 2.85812 19.8217 3.34004C19.8217 3.82195 19.4312 4.21246 18.9493 4.21246Z" fill="#59ACEA"/>
<path d="M6.9375 17.7777V9.10425H2.46062C1.42773 9.10425 0.589844 9.94163 0.589844 10.975V14.4236C0.589844 17.3075 3.16344 19.6454 6.0473 19.6454L8.78187 19.6459C7.76117 19.6312 6.9375 18.8019 6.9375 17.7777Z" fill="#EB5B58"/>
<path d="M13.6025 14.4231L13.5954 14.4226V10.9745C13.5954 9.94165 12.758 9.10376 11.7246 9.10376H6.9375V17.7772C6.9375 18.8015 7.76117 19.6307 8.78188 19.6449L19.4449 19.6485C19.4449 19.6485 13.9737 18.7517 13.6025 14.4231Z" fill="#222349"/>
<path d="M18.9493 2.46704H9.45982C8.97791 2.46704 8.5874 2.85755 8.5874 3.33946C8.5874 3.82138 8.97791 4.21188 9.45982 4.21188H18.9493C19.4312 4.21188 19.8217 3.82138 19.8217 3.33946C19.8217 2.85755 19.4312 2.46704 18.9493 2.46704Z" fill="#222349"/>
<path d="M14.1479 6.14819H9.45982C8.97791 6.14819 8.5874 6.5387 8.5874 7.02062C8.5874 7.50253 8.97791 7.89304 9.45982 7.89304H14.1479C14.6299 7.89304 15.0204 7.50253 15.0204 7.02062C15.0204 6.5387 14.6294 6.14819 14.1479 6.14819Z" fill="#222349"/>
</svg>
