<svg width="18" height="24" viewBox="0 0 18 24" fill="none" xmlns="http://www.w3.org/2000/svg">
<path d="M10.2966 16.4193C10.3683 16.4084 10.4399 16.3964 10.511 16.3838C10.4394 16.3969 10.3683 16.4089 10.2966 16.4193Z" fill="#59ACEA"/>
<path d="M10.0806 16.4489C10.1363 16.4424 10.1916 16.4347 10.2468 16.4265C10.191 16.4347 10.1358 16.4424 10.0806 16.4489Z" fill="#59ACEA"/>
<path d="M10.5613 16.3745C10.6154 16.3641 10.6696 16.3537 10.7232 16.3428C10.6696 16.3537 10.6154 16.3641 10.5613 16.3745Z" fill="#59ACEA"/>
<path d="M11.2207 16.2212C11.271 16.207 11.3208 16.1928 11.3705 16.1775C11.3213 16.1928 11.271 16.207 11.2207 16.2212Z" fill="#59ACEA"/>
<path d="M11.0117 16.276C11.0577 16.2645 11.1036 16.2525 11.1495 16.2405C11.1036 16.2531 11.0577 16.2651 11.0117 16.276Z" fill="#59ACEA"/>
<path d="M10.7959 16.3269C10.8429 16.3165 10.8894 16.3061 10.9359 16.2952C10.8894 16.3061 10.8429 16.3165 10.7959 16.3269Z" fill="#59ACEA"/>
<path d="M9.40454 16.5024C9.45431 16.5008 9.50407 16.4986 9.55384 16.4958C9.50407 16.4986 9.45431 16.5008 9.40454 16.5024Z" fill="#59ACEA"/>
<path d="M9.10489 16.5089C9.02997 16.5089 8.95505 16.5078 8.88013 16.5056C8.95505 16.5073 9.02997 16.5083 9.10489 16.5089Z" fill="#59ACEA"/>
<path d="M8.65161 16.4954C8.70356 16.4981 8.75552 16.5008 8.80747 16.5025C8.75497 16.5003 8.70302 16.4981 8.65161 16.4954Z" fill="#59ACEA"/>
<path d="M9.11304 16.5089C9.18632 16.5089 9.25905 16.5078 9.33179 16.5056C9.25851 16.5073 9.18577 16.5083 9.11304 16.5089Z" fill="#59ACEA"/>
<path d="M9.63818 16.4904C9.68467 16.4871 9.73115 16.4838 9.77709 16.48C9.7306 16.4844 9.68412 16.4876 9.63818 16.4904Z" fill="#59ACEA"/>
<path d="M9.86133 16.4728C9.90836 16.4684 9.95594 16.4635 10.0024 16.458C9.95594 16.4629 9.90891 16.4679 9.86133 16.4728Z" fill="#59ACEA"/>
<path d="M8.41919 16.4783C8.46896 16.4826 8.51927 16.4865 8.56958 16.4898C8.51927 16.4865 8.46896 16.4826 8.41919 16.4783Z" fill="#59ACEA"/>
<path d="M11.4263 16.1612C11.5635 16.1191 11.6992 16.0732 11.8331 16.0234C11.6992 16.0732 11.5635 16.1191 11.4263 16.1612Z" fill="#59ACEA"/>
<path d="M14.0071 14.7956C14.0552 14.7567 14.1033 14.7179 14.1509 14.678C14.1033 14.7174 14.0552 14.7567 14.0071 14.7956Z" fill="#59ACEA"/>
<path d="M13.9864 14.812C13.8726 14.9022 13.7561 14.9892 13.6375 15.0734C13.7561 14.9892 13.8726 14.9022 13.9864 14.812Z" fill="#59ACEA"/>
<path d="M13.62 15.0854C13.5686 15.1215 13.5166 15.1571 13.4641 15.1921C13.5166 15.1571 13.5686 15.1215 13.62 15.0854Z" fill="#59ACEA"/>
<path d="M11.8853 16.0037C11.9345 15.9851 11.9837 15.966 12.0329 15.9463C11.9842 15.966 11.935 15.9851 11.8853 16.0037Z" fill="#59ACEA"/>
<path d="M14.1843 14.6496C14.2286 14.6124 14.2718 14.5747 14.315 14.5364C14.2718 14.5747 14.2281 14.6124 14.1843 14.6496Z" fill="#59ACEA"/>
<path d="M2.67418 13.1632L3.47809 10.5382C3.63559 10.0241 4.09551 9.70914 4.50512 9.83438C7.43473 10.7318 10.5656 10.7318 13.4946 9.83438C13.9043 9.70914 14.3642 10.0241 14.5217 10.5382L15.3901 13.3738C15.3475 13.4301 15.3043 13.4859 15.26 13.5411C16.3291 12.1985 16.9684 10.4988 16.9684 8.64875C16.9684 4.3082 13.4493 0.789062 9.10871 0.789062C4.76816 0.789062 1.24902 4.3082 1.24902 8.64875C1.24902 10.5748 1.94246 12.3385 3.09199 13.7057C2.94488 13.5313 2.80543 13.3502 2.67418 13.1632Z" fill="#59ACEA"/>
<path d="M13.2852 15.3081C13.3316 15.2791 13.3776 15.2496 13.423 15.2195C13.3776 15.249 13.3316 15.2785 13.2852 15.3081Z" fill="#59ACEA"/>
<path d="M12.8877 15.5421C12.944 15.5115 12.9998 15.4798 13.055 15.4475C12.9993 15.4798 12.9435 15.5109 12.8877 15.5421Z" fill="#59ACEA"/>
<path d="M12.0952 15.921C12.1412 15.9019 12.1871 15.8827 12.2325 15.863C12.1871 15.8827 12.1412 15.9019 12.0952 15.921Z" fill="#59ACEA"/>
<path d="M12.2937 15.8363C12.3413 15.815 12.3889 15.7931 12.4364 15.7712C12.3889 15.7931 12.3413 15.815 12.2937 15.8363Z" fill="#59ACEA"/>
<path d="M12.4868 15.7478C12.5475 15.7188 12.6082 15.6888 12.6684 15.6587C12.6082 15.6888 12.5475 15.7188 12.4868 15.7478Z" fill="#59ACEA"/>
<path d="M12.6755 15.6548C12.7412 15.6215 12.8062 15.587 12.8708 15.552C12.8057 15.587 12.7412 15.6215 12.6755 15.6548Z" fill="#59ACEA"/>
<path d="M13.0977 15.4217C13.1447 15.3938 13.1917 15.3659 13.2377 15.3369C13.1917 15.3659 13.1447 15.3943 13.0977 15.4217Z" fill="#59ACEA"/>
<path d="M4.61775 15.0997C4.56361 15.062 4.51057 15.0237 4.45752 14.9849C4.51057 15.0237 4.56361 15.062 4.61775 15.0997Z" fill="#59ACEA"/>
<path d="M4.43951 14.9718C4.31755 14.8815 4.19779 14.7875 4.0813 14.6907C4.19779 14.788 4.31755 14.8815 4.43951 14.9718Z" fill="#59ACEA"/>
<path d="M3.89368 14.5287C3.84337 14.4839 3.7936 14.4385 3.74438 14.3926C3.7936 14.4391 3.84337 14.4839 3.89368 14.5287Z" fill="#59ACEA"/>
<path d="M8.16699 16.4526C8.22496 16.4597 8.28293 16.4658 8.34144 16.4718C8.28293 16.4658 8.22496 16.4592 8.16699 16.4526Z" fill="#59ACEA"/>
<path d="M5.23584 15.4895C5.29326 15.5223 5.35123 15.554 5.40919 15.5852C5.35068 15.5535 5.29326 15.5218 5.23584 15.4895Z" fill="#59ACEA"/>
<path d="M4.83496 15.2463C4.96074 15.3278 5.08872 15.406 5.21887 15.4804C5.08872 15.406 4.96074 15.3278 4.83496 15.2463Z" fill="#59ACEA"/>
<path d="M4.65063 15.1221C4.70259 15.1582 4.75509 15.1932 4.80759 15.2276C4.75454 15.1932 4.70204 15.1582 4.65063 15.1221Z" fill="#59ACEA"/>
<path d="M15.1238 13.7073C15.1632 13.6608 15.2014 13.6137 15.2397 13.5662C15.202 13.6132 15.1632 13.6602 15.1238 13.7073Z" fill="#59ACEA"/>
<path d="M14.4839 14.3828C14.439 14.4249 14.3931 14.467 14.3472 14.508C14.3931 14.467 14.4385 14.4249 14.4839 14.3828Z" fill="#59ACEA"/>
<path d="M14.9783 13.8752C15.0187 13.8292 15.0592 13.7833 15.0991 13.7368C15.0592 13.7833 15.0187 13.8298 14.9783 13.8752Z" fill="#59ACEA"/>
<path d="M3.25342 13.8916C3.4049 14.0606 3.5635 14.223 3.72865 14.3783C3.56295 14.2225 3.40436 14.0606 3.25342 13.8916Z" fill="#59ACEA"/>
<path d="M14.5032 14.3647C14.6612 14.2154 14.8127 14.0601 14.9576 13.8982C14.8127 14.0601 14.6612 14.2154 14.5032 14.3647Z" fill="#59ACEA"/>
<path d="M3.24358 13.8808C3.19655 13.8283 3.15062 13.7753 3.10522 13.7217C3.15062 13.7753 3.1971 13.8283 3.24358 13.8808Z" fill="#59ACEA"/>
<path d="M3.91455 14.5474C3.96869 14.5949 4.02283 14.642 4.07807 14.6879C4.02283 14.642 3.96869 14.5949 3.91455 14.5474Z" fill="#59ACEA"/>
<path d="M6.74072 16.1453C6.80854 16.1666 6.87689 16.1874 6.9458 16.2071C6.87744 16.1879 6.80908 16.1671 6.74072 16.1453Z" fill="#59ACEA"/>
<path d="M6.95117 16.2087C7.02281 16.229 7.09445 16.2481 7.16664 16.2667C7.09445 16.2487 7.02227 16.2295 6.95117 16.2087Z" fill="#59ACEA"/>
<path d="M7.45435 16.334C7.50356 16.3444 7.55333 16.3548 7.6031 16.3641C7.55388 16.3548 7.50411 16.3444 7.45435 16.334Z" fill="#59ACEA"/>
<path d="M5.45337 15.6084C5.50423 15.6352 5.55564 15.6614 5.60705 15.6871C5.55509 15.6614 5.50423 15.6352 5.45337 15.6084Z" fill="#59ACEA"/>
<path d="M7.67651 16.3782C7.73175 16.3886 7.78753 16.3979 7.8433 16.4066C7.78753 16.3979 7.73229 16.3886 7.67651 16.3782Z" fill="#59ACEA"/>
<path d="M7.89673 16.416C7.97001 16.4275 8.04383 16.4379 8.11766 16.4472C8.04383 16.4373 7.97001 16.427 7.89673 16.416Z" fill="#59ACEA"/>
<path d="M7.22314 16.2803C7.27564 16.2934 7.32869 16.306 7.38173 16.318C7.32869 16.306 7.27564 16.2934 7.22314 16.2803Z" fill="#59ACEA"/>
<path d="M5.65405 15.7104C5.70983 15.7378 5.76671 15.7646 5.82304 15.7908C5.76671 15.7646 5.70983 15.7378 5.65405 15.7104Z" fill="#59ACEA"/>
<path d="M6.53027 16.0752C6.58113 16.0927 6.63254 16.1102 6.68449 16.1266C6.63254 16.1102 6.58113 16.0932 6.53027 16.0752Z" fill="#59ACEA"/>
<path d="M5.85254 15.8047C5.92145 15.8359 5.99035 15.8665 6.0598 15.896C5.99035 15.8659 5.9209 15.8359 5.85254 15.8047Z" fill="#59ACEA"/>
<path d="M6.31421 15.9971C6.36507 16.0162 6.41592 16.0354 6.46733 16.0539C6.41592 16.0354 6.36507 16.0162 6.31421 15.9971Z" fill="#59ACEA"/>
<path d="M6.06323 15.897C6.12886 15.9243 6.19503 15.9511 6.2612 15.9768C6.19448 15.9511 6.12886 15.9243 6.06323 15.897Z" fill="#59ACEA"/>
<path d="M14.8242 11.5247L14.5218 10.5382C14.512 10.5059 14.501 10.4747 14.489 10.4441C14.501 10.4747 14.512 10.5059 14.5218 10.5382L14.8242 11.5247Z" fill="#EB5B58"/>
<path d="M3.47825 10.5377C3.4881 10.5054 3.49903 10.4742 3.51106 10.4436C3.49903 10.4742 3.4881 10.5059 3.47825 10.5377L3.24146 11.3115L3.47825 10.5377Z" fill="#EB5B58"/>
<path d="M17.4388 20.0614L15.3902 13.3736C13.9558 15.2779 11.6758 16.5089 9.10882 16.5089C6.44772 16.5089 4.09616 15.1865 2.67429 13.1631L0.561709 20.0614C0.307412 20.891 0.979522 21.5511 1.62647 21.1075L3.65374 19.7179C4.05296 19.4439 4.52491 19.5889 4.70265 20.0395L5.77124 22.7503C6.0589 23.4799 6.9853 23.3093 7.23905 22.4796L8.99999 16.7304L10.7609 22.4796C11.0147 23.3093 11.9411 23.4799 12.2287 22.7503L13.2973 20.0389C13.4751 19.5883 13.947 19.4439 14.3462 19.7174L16.3735 21.107C17.021 21.5505 17.6926 20.891 17.4388 20.0614Z" fill="#EB5B58"/>
<path d="M2.67432 13.1632C4.09619 15.1866 6.4483 16.509 9.10885 16.509C11.6764 16.509 13.9563 15.2779 15.3903 13.3737L14.5218 10.5382C14.3643 10.0241 13.9044 9.70911 13.4948 9.83434C10.5652 10.7318 7.43432 10.7318 4.50525 9.83434C4.09564 9.70911 3.63572 10.0241 3.47822 10.5382L2.67432 13.1632Z" fill="#222349"/>
</svg>
