<svg width="30" height="25" viewBox="0 0 30 25" fill="none" xmlns="http://www.w3.org/2000/svg">
<g clip-path="url(#clip0_1_487)">
<path d="M28.1836 8.83378L15.9883 0.567315C13.6264 -1.02239 10.6741 0.907966 10.5605 4.06467L17.6234 8.83378C20.0306 10.4689 20.0306 14.534 17.6234 16.1691L10.5605 20.9383C10.6741 24.0722 13.6264 26.0026 15.9883 24.4129L28.2063 16.1691C30.5908 14.534 30.5908 10.4462 28.1836 8.83378Z" fill="#E95B58"/>
<path d="M10.5602 4.24701C10.5602 4.17888 10.5602 4.13346 10.5602 4.06533L5.42771 0.567976C3.02044 -1.04444 0 0.976757 0 4.24701V20.7572C0 24.0048 3.02044 26.0487 5.42771 24.4135L10.5829 20.9389C10.5829 20.8708 10.5829 20.8254 10.5829 20.7572V4.24701H10.5602Z" fill="#59AAE8"/>
<path d="M17.6234 8.83357L10.5605 4.06445C10.5605 4.13258 10.5605 4.178 10.5605 4.24613V20.7564C10.5605 20.8245 10.5605 20.8699 10.5605 20.938L17.6234 16.1689C20.0306 14.5338 20.0306 10.446 17.6234 8.83357Z" fill="#222349"/>
</g>
<defs>
<clipPath id="clip0_1_487">
<rect width="30" height="24.9811" fill="white"/>
</clipPath>
</defs>
</svg>
