<svg width="25" height="22" viewBox="0 0 25 22" fill="none" xmlns="http://www.w3.org/2000/svg">
<path d="M18.0789 3.92285C18.0602 3.93926 18.0408 3.95449 18.0215 3.96973C18.0408 3.95449 18.0602 3.93867 18.0789 3.92285Z" fill="#EB5B58"/>
<path d="M18.0186 9.16352C18.0297 9.15473 18.0414 9.14653 18.0531 9.13892C18.0414 9.14653 18.0297 9.15473 18.0186 9.16352Z" fill="#EB5B58"/>
<path d="M17.9736 9.20044C17.9842 9.19165 17.9941 9.18286 18.0047 9.17407C17.9941 9.18228 17.9836 9.19106 17.9736 9.20044Z" fill="#EB5B58"/>
<path d="M18.0659 9.13003C18.0782 9.12183 18.0905 9.11421 18.1034 9.10718C18.0905 9.11421 18.0782 9.12241 18.0659 9.13003Z" fill="#EB5B58"/>
<path d="M18.0884 3.91475C18.1306 3.87783 18.1704 3.83799 18.2079 3.79639C18.1698 3.83799 18.13 3.87783 18.0884 3.91475Z" fill="#EB5B58"/>
<path d="M18.3267 9.01958C18.3442 9.01548 18.3618 9.01196 18.38 9.00903C18.3618 9.01138 18.3442 9.01489 18.3267 9.01958Z" fill="#EB5B58"/>
<path d="M18.2604 3.73242C18.244 3.75352 18.2271 3.77402 18.2095 3.79394C18.2271 3.77344 18.244 3.75293 18.2604 3.73242Z" fill="#EB5B58"/>
<path d="M18.1655 9.075C18.1802 9.06797 18.1948 9.06152 18.2095 9.05566C18.1948 9.06152 18.1802 9.06797 18.1655 9.075Z" fill="#EB5B58"/>
<path d="M18.2183 9.05278C18.2341 9.04692 18.2499 9.04106 18.2657 9.03638C18.2493 9.04106 18.2335 9.04692 18.2183 9.05278Z" fill="#EB5B58"/>
<path d="M18.2715 9.03408C18.2879 9.02881 18.3049 9.02412 18.3219 9.02002C18.3049 9.02412 18.2885 9.02881 18.2715 9.03408Z" fill="#EB5B58"/>
<path d="M18.1152 9.10093C18.1287 9.09331 18.1422 9.08628 18.1557 9.07983C18.1422 9.08628 18.1287 9.09331 18.1152 9.10093Z" fill="#EB5B58"/>
<path d="M17.813 9.38921C17.8206 9.3769 17.8282 9.36401 17.8364 9.35229C17.8288 9.3646 17.8212 9.3769 17.813 9.38921Z" fill="#EB5B58"/>
<path d="M17.771 9.46416C17.781 9.44424 17.7915 9.4249 17.8021 9.40674C17.7909 9.4249 17.7804 9.44424 17.771 9.46416Z" fill="#EB5B58"/>
<path d="M17.8506 9.33472C17.8588 9.32358 17.8664 9.31304 17.8746 9.30249C17.8664 9.31245 17.8582 9.32358 17.8506 9.33472Z" fill="#EB5B58"/>
<path d="M17.9302 9.24158C17.9398 9.23198 17.9494 9.22238 17.959 9.21338C17.9494 9.22238 17.9398 9.23198 17.9302 9.24158Z" fill="#EB5B58"/>
<path d="M2.7748 2.60278H16.7688C17.4654 2.60278 18.0684 3.00181 18.3631 3.58364C18.485 3.37856 18.5553 3.1395 18.5553 2.88345V2.3438C18.5553 1.5856 17.9406 0.970947 17.1824 0.970947H2.36113C1.60293 0.970947 0.988281 1.5856 0.988281 2.3438V2.88345C0.988281 3.1395 1.05859 3.37856 1.18047 3.58364C1.47461 3.00181 2.07812 2.60278 2.7748 2.60278Z" fill="#EB5B58"/>
<path d="M17.8892 9.28602C17.8981 9.27589 17.9065 9.26575 17.9154 9.25562C17.9065 9.26575 17.8975 9.27589 17.8892 9.28602Z" fill="#EB5B58"/>
<path d="M18.3627 3.5835C18.3334 3.63272 18.3012 3.67959 18.2666 3.72471C18.3018 3.68018 18.334 3.63272 18.3627 3.5835Z" fill="#EB5B58"/>
<path d="M17.862 4.07593C17.8427 4.08706 17.8228 4.09761 17.8022 4.10815C17.8228 4.09761 17.8427 4.08706 17.862 4.07593Z" fill="#EB5B58"/>
<path d="M17.877 4.06758C17.9244 4.03945 17.9701 4.00898 18.0141 3.97559C17.9707 4.0084 17.925 4.03945 17.877 4.06758Z" fill="#EB5B58"/>
<path d="M16.3687 12.2498C16.4126 12.1982 16.4501 12.1408 16.4806 12.0787L17.7708 9.46362L16.4806 12.0787C16.4501 12.1408 16.412 12.1982 16.3687 12.2498Z" fill="#EB5B58"/>
<path d="M17.789 4.11523C17.7644 4.12754 17.7392 4.13926 17.7134 4.1498C17.7392 4.13926 17.7644 4.12754 17.789 4.11523Z" fill="#EB5B58"/>
<path d="M24.5528 14.3911C25.0515 13.9048 24.7767 13.0581 24.087 12.9579L21.2013 12.5384C20.9276 12.4985 20.6909 12.3269 20.5685 12.0784L19.2782 9.46339C19.1194 9.14171 18.806 8.98585 18.4972 8.99581C18.5165 8.99522 18.5358 8.99522 18.5552 8.99581V13.9909C18.5552 14.9776 17.7554 15.7774 16.7687 15.7774H15.3935H13.9192L12.4966 14.3911L14.5849 16.4267C14.7829 16.62 14.8731 16.8978 14.8263 17.1702L14.3335 20.0442C14.2157 20.731 14.9364 21.2542 15.5528 20.9302L18.1339 19.5732C18.3788 19.4442 18.6712 19.4442 18.9161 19.5732L21.4972 20.9302C22.1136 21.2542 22.8343 20.731 22.7165 20.0442L22.2237 17.1702C22.1769 16.8978 22.2671 16.6194 22.4651 16.4267L24.5528 14.3911Z" fill="#EB5B58"/>
<path d="M17.6382 4.17837C17.6634 4.16958 17.6886 4.16021 17.7126 4.14966C17.6886 4.16021 17.6634 4.16958 17.6382 4.17837Z" fill="#EB5B58"/>
<path d="M2.25195 4.25156C2.23145 4.2498 2.21094 4.24805 2.19043 4.24512C2.21094 4.24805 2.23145 4.25039 2.25195 4.25156Z" fill="#EB5B58"/>
<path d="M2.16641 4.24272C2.14004 4.23921 2.11367 4.23452 2.08789 4.22925C2.11426 4.23452 2.14004 4.23862 2.16641 4.24272Z" fill="#EB5B58"/>
<path d="M2.08613 4.22881C2.05918 4.22354 2.03223 4.2165 2.00586 4.20947C2.03223 4.21709 2.05918 4.22354 2.08613 4.22881Z" fill="#EB5B58"/>
<path d="M17.5581 4.20405C17.5786 4.19819 17.5985 4.19233 17.6185 4.1853C17.5979 4.19175 17.578 4.19819 17.5581 4.20405Z" fill="#EB5B58"/>
<path d="M1.98565 4.20405C1.96514 4.19819 1.94522 4.19233 1.92529 4.1853C1.94522 4.19175 1.96514 4.19819 1.98565 4.20405Z" fill="#EB5B58"/>
<path d="M12.376 14.2461C12.3314 14.1781 12.298 14.1061 12.2764 14.0322C12.2986 14.1061 12.3314 14.1781 12.376 14.2461Z" fill="#EB5B58"/>
<path d="M12.2446 13.864C12.2429 13.8452 12.2423 13.8265 12.2417 13.8071C12.2417 13.8259 12.2429 13.8446 12.2446 13.864Z" fill="#EB5B58"/>
<path d="M17.291 4.25156C17.3115 4.2498 17.332 4.24805 17.3525 4.24512C17.332 4.24805 17.3115 4.25039 17.291 4.25156Z" fill="#EB5B58"/>
<path d="M17.3765 4.24272C17.4028 4.23921 17.4292 4.23452 17.455 4.22925C17.4292 4.23452 17.4028 4.23862 17.3765 4.24272Z" fill="#EB5B58"/>
<path d="M17.4575 4.22881C17.4845 4.22354 17.5114 4.2165 17.5378 4.20947C17.5114 4.21709 17.4845 4.22354 17.4575 4.22881Z" fill="#EB5B58"/>
<path d="M17.2663 4.25391C17.2382 4.25567 17.2101 4.25684 17.1819 4.25684H2.36123C2.33311 4.25684 2.30498 4.25567 2.27686 4.25391C2.30498 4.25567 2.33311 4.25684 2.36123 4.25684H17.1819C17.2106 4.25625 17.2382 4.25508 17.2663 4.25391Z" fill="#EB5B58"/>
<path d="M1.5293 3.9751C1.57324 4.0085 1.61895 4.03896 1.66641 4.06709C1.61895 4.03955 1.57266 4.0085 1.5293 3.9751Z" fill="#EB5B58"/>
<path d="M1.27676 3.72471C1.2416 3.67959 1.20938 3.63272 1.18066 3.5835C1.20996 3.63272 1.24219 3.68018 1.27676 3.72471Z" fill="#EB5B58"/>
<path d="M1.3333 3.79346C1.31572 3.77353 1.29873 3.75303 1.28174 3.73193C1.29873 3.75303 1.31572 3.77353 1.3333 3.79346Z" fill="#EB5B58"/>
<path d="M1.33545 3.79639C1.37295 3.83799 1.41279 3.87783 1.45498 3.91475C1.41279 3.87783 1.37295 3.83799 1.33545 3.79639Z" fill="#EB5B58"/>
<path d="M18.3828 9.00762C18.401 9.00469 18.4197 9.00234 18.4385 9C18.4197 9.00234 18.401 9.00469 18.3828 9.00762Z" fill="#EB5B58"/>
<path d="M1.74092 4.10815C1.721 4.09761 1.70107 4.08706 1.68115 4.07593C1.70049 4.08706 1.72041 4.09761 1.74092 4.10815Z" fill="#EB5B58"/>
<path d="M1.46484 3.92285C1.48359 3.93926 1.50293 3.95449 1.52227 3.96973C1.50234 3.95449 1.48359 3.93867 1.46484 3.92285Z" fill="#EB5B58"/>
<path d="M1.82998 4.1498C1.8042 4.13926 1.779 4.12754 1.75439 4.11523C1.77959 4.12754 1.80479 4.13926 1.82998 4.1498Z" fill="#EB5B58"/>
<path d="M1.90449 4.17837C1.8793 4.16958 1.8541 4.16021 1.83008 4.14966C1.85469 4.16021 1.8793 4.16958 1.90449 4.17837Z" fill="#EB5B58"/>
<path d="M18.439 9.0001C18.4577 8.99834 18.4771 8.99717 18.4964 8.99658C18.4771 8.99717 18.4583 8.99834 18.439 9.0001Z" fill="#EB5B58"/>
<path d="M17.2798 2.67798C17.3161 2.68853 17.3519 2.70024 17.387 2.71372C17.3519 2.70024 17.3161 2.68853 17.2798 2.67798Z" fill="#59ACEA"/>
<path d="M17.1655 2.64819C17.1954 2.65522 17.2253 2.66284 17.2552 2.67104C17.2253 2.66226 17.1954 2.65464 17.1655 2.64819Z" fill="#59ACEA"/>
<path d="M17.3892 2.71436C17.4237 2.72725 17.4577 2.74131 17.4911 2.75596C17.4577 2.74131 17.4237 2.72725 17.3892 2.71436Z" fill="#59ACEA"/>
<path d="M16.9155 2.61011C16.9472 2.61245 16.9782 2.61597 17.0087 2.62007C16.9782 2.61597 16.9472 2.61245 16.9155 2.61011Z" fill="#59ACEA"/>
<path d="M17.5122 2.76538C17.545 2.78062 17.5772 2.79643 17.6089 2.81284C17.5772 2.79643 17.545 2.78062 17.5122 2.76538Z" fill="#59ACEA"/>
<path d="M17.0308 2.62231C17.0683 2.62759 17.1052 2.63462 17.1415 2.64224C17.1052 2.63462 17.0683 2.62817 17.0308 2.62231Z" fill="#59ACEA"/>
<path d="M18.1653 3.27734C18.1161 3.21523 18.0622 3.15664 18.0054 3.10156C18.0622 3.15664 18.1161 3.21523 18.1653 3.27734Z" fill="#59ACEA"/>
<path d="M18.1665 3.27808C18.2421 3.373 18.3077 3.47495 18.3628 3.58393C18.3077 3.47553 18.2421 3.373 18.1665 3.27808Z" fill="#59ACEA"/>
<path d="M2.77471 2.60303H16.7687C16.8073 2.60303 16.846 2.60479 16.8847 2.60713C16.8466 2.60479 16.8079 2.60303 16.7687 2.60303H2.77471C2.73603 2.60303 2.69736 2.60479 2.65869 2.60713C2.69678 2.60479 2.73545 2.60303 2.77471 2.60303Z" fill="#59ACEA"/>
<path d="M17.6118 2.81445C17.6458 2.83262 17.6798 2.85254 17.7126 2.87305C17.6792 2.85254 17.6458 2.8332 17.6118 2.81445Z" fill="#59ACEA"/>
<path d="M2.53418 2.62007C2.56523 2.61597 2.59629 2.61245 2.62734 2.61011C2.59629 2.61245 2.56523 2.61597 2.53418 2.62007Z" fill="#59ACEA"/>
<path d="M17.8198 2.9458C17.8831 2.99209 17.9429 3.04248 17.9997 3.09639C17.9429 3.04189 17.8831 2.99209 17.8198 2.9458Z" fill="#59ACEA"/>
<path d="M17.7231 2.88013C17.753 2.89888 17.7829 2.9188 17.8116 2.93989C17.7829 2.91938 17.7536 2.89946 17.7231 2.88013Z" fill="#59ACEA"/>
<path d="M2.05176 2.75596C2.08516 2.74131 2.11914 2.72725 2.15371 2.71436C2.11914 2.72725 2.08516 2.74131 2.05176 2.75596Z" fill="#59ACEA"/>
<path d="M2.40137 2.64272C2.43769 2.63511 2.47461 2.62808 2.51211 2.6228C2.47461 2.62808 2.43769 2.63452 2.40137 2.64272Z" fill="#59ACEA"/>
<path d="M18.5544 13.9919C18.5544 14.115 18.5421 14.2357 18.5181 14.3517C18.5421 14.2357 18.5544 14.1156 18.5544 13.9919Z" fill="#59ACEA"/>
<path d="M17.8375 15.4233C17.7689 15.4749 17.6963 15.5212 17.6201 15.5628C17.6957 15.5212 17.7684 15.4749 17.8375 15.4233Z" fill="#59ACEA"/>
<path d="M18.2963 14.9182C18.2664 14.9674 18.2342 15.0149 18.2002 15.0606C18.2342 15.0149 18.2664 14.9674 18.2963 14.9182Z" fill="#59ACEA"/>
<path d="M18.3625 3.58394C18.1234 3.98647 17.684 4.25659 17.1818 4.25659H2.36113C1.85898 4.25659 1.41953 3.98647 1.18047 3.58394C1.23555 3.47495 1.30176 3.37241 1.37676 3.27808C1.13359 3.58335 0.988281 3.96948 0.988281 4.3896V13.9919C0.988281 14.9787 1.78809 15.7785 2.7748 15.7785H3.27637H7.65625H10.9164H13.0879H13.9193L12.4967 14.3921C11.998 13.9058 12.2729 13.0591 12.9625 12.9589L15.8482 12.5394C16.1219 12.4996 16.3586 12.3279 16.4811 12.0794L17.7713 9.4644C17.9307 9.14155 18.2453 8.98628 18.5553 8.99683V4.3896C18.5547 4.09956 18.4855 3.82651 18.3625 3.58394Z" fill="#59ACEA"/>
<path d="M18.5185 14.3516C18.4886 14.4969 18.4411 14.6357 18.3784 14.7658C18.4417 14.6363 18.4892 14.4975 18.5185 14.3516Z" fill="#59ACEA"/>
<path d="M1.5375 3.10156C1.48008 3.15664 1.42676 3.21523 1.37695 3.27734C1.42676 3.21523 1.48008 3.15664 1.5375 3.10156Z" fill="#59ACEA"/>
<path d="M2.15576 2.71323C2.19092 2.70034 2.22666 2.68862 2.26299 2.67749C2.22666 2.68862 2.19092 2.70034 2.15576 2.71323Z" fill="#59ACEA"/>
<path d="M1.93359 2.81333C1.96523 2.79634 1.99746 2.78052 2.03027 2.76587C1.99805 2.78052 1.96523 2.79634 1.93359 2.81333Z" fill="#59ACEA"/>
<path d="M2.28857 2.67104C2.31787 2.66284 2.34775 2.65522 2.37822 2.64819C2.34775 2.65464 2.31787 2.66226 2.28857 2.67104Z" fill="#59ACEA"/>
<path d="M1.73096 2.93989C1.75967 2.9188 1.78955 2.89888 1.81943 2.88013C1.78955 2.89946 1.75967 2.91938 1.73096 2.93989Z" fill="#59ACEA"/>
<path d="M1.83105 2.87305C1.86387 2.85254 1.89727 2.8332 1.93184 2.81445C1.89727 2.8332 1.86387 2.85254 1.83105 2.87305Z" fill="#59ACEA"/>
<path d="M1.54297 3.09565C1.5998 3.04175 1.65957 2.99136 1.72285 2.94507C1.66016 2.99194 1.5998 3.04175 1.54297 3.09565Z" fill="#59ACEA"/>
<path d="M18.5549 8.99665C18.2455 8.98552 17.9303 9.14138 17.7709 9.46423L16.4806 12.0793C16.3582 12.3271 16.1215 12.4994 15.8478 12.5392L12.9621 12.9588C12.273 13.059 11.9976 13.9062 12.4963 14.392L13.9189 15.7783H15.3931H16.7683C17.7551 15.7783 18.5549 14.9785 18.5549 13.9918V8.99665Z" fill="#222349"/>
<path d="M1.18066 3.58389C1.41973 3.98642 1.85918 4.25654 2.36133 4.25654H17.182C17.6842 4.25654 18.1236 3.98642 18.3627 3.58389C18.068 3.00205 17.465 2.60303 16.7684 2.60303H2.775C2.07832 2.60303 1.4748 3.00205 1.18066 3.58389Z" fill="#222349"/>
</svg>
