<svg width="26" height="20" viewBox="0 0 26 20" fill="none" xmlns="http://www.w3.org/2000/svg">
<path d="M3.27461 19.7084H16.9287C17.5346 19.7108 18.1158 19.4711 18.5465 19.0446C18.9736 18.6163 19.215 18.0362 19.215 17.4303V11.8844C18.4146 11.8844 17.766 11.2364 17.766 10.4354V7.53735H14.868C14.0676 7.53735 13.4189 6.88931 13.4189 6.08833C13.4189 6.06899 13.4236 6.05083 13.4248 6.03149L11.7016 6.02798L9.96309 4.28833C9.61211 3.95786 9.15098 3.77212 8.66875 3.76099H3.25762C2.00195 3.76567 0.988281 4.7852 0.988281 6.03853V17.4303C0.994141 18.6889 2.01602 19.7084 3.27461 19.7084Z" fill="#59ACEA"/>
<path d="M19.215 8.31665V11.8844C20.0148 11.8844 20.6641 11.2364 20.6641 10.4354V7.53735H23.5621C24.3625 7.53735 25.0111 6.88931 25.0111 6.08833C25.0111 5.28735 24.3625 4.63931 23.5621 4.63931H20.6641V1.74126C20.6641 0.940283 20.0148 0.292236 19.215 0.292236C18.4146 0.292236 17.766 0.940283 17.766 1.74126V4.63931H14.868C14.0869 4.63931 13.4553 5.25747 13.4248 6.03149L16.9486 6.03911C18.2014 6.04438 19.215 7.06333 19.215 8.31665Z" fill="#EB5B58"/>
<path d="M14.8681 7.53672H17.7661V10.4348C17.7661 11.2357 18.4147 11.8838 19.2151 11.8838V8.31602C19.2151 7.0627 18.2015 6.04316 16.9481 6.03789L13.4243 6.03027C13.4237 6.04961 13.4185 6.06777 13.4185 6.08711C13.419 6.88867 14.0677 7.53672 14.8681 7.53672Z" fill="#222349"/>
</svg>
