<svg width="24" height="20" viewBox="0 0 24 20" fill="none" xmlns="http://www.w3.org/2000/svg">
<path d="M7.06336 13.483C7.0393 13.4027 7.01688 13.3217 6.99609 13.2402C7.01633 13.3217 7.0393 13.4027 7.06336 13.483Z" fill="#59ACEA"/>
<path d="M6.93652 12.9849C6.95348 13.0658 6.97207 13.1467 6.9923 13.2266C6.97207 13.1467 6.95348 13.0658 6.93652 12.9849Z" fill="#59ACEA"/>
<path d="M15.4902 5.20274C15.424 5.19508 15.3573 5.18852 15.2906 5.1825C15.1605 5.17102 15.0297 5.16227 14.8979 5.15625C15.0297 5.16227 15.1605 5.17102 15.2906 5.1825C15.3573 5.18852 15.424 5.19508 15.4902 5.20274Z" fill="#59ACEA"/>
<path d="M10.7915 5.97658C10.9293 5.91041 11.0693 5.84807 11.2115 5.78955C11.0688 5.84807 10.9288 5.91041 10.7915 5.97658Z" fill="#59ACEA"/>
<path d="M6.81396 11.8086C6.81396 12.0093 6.8249 12.2078 6.84568 12.4041C6.8249 12.2078 6.81396 12.0093 6.81396 11.8086Z" fill="#59ACEA"/>
<path d="M23.0924 18.6543C23.0831 18.6434 22.4908 17.9242 21.8313 16.9727C21.5152 16.5166 21.1854 16.0118 20.8939 15.4972C21.7411 14.3996 22.1868 13.1314 22.1868 11.8091C22.1868 8.62353 19.5935 5.95369 16.1405 5.30127C16.4123 5.35268 16.6786 5.41666 16.9389 5.49213C17.0997 6.02752 17.1861 6.58916 17.1861 7.16775C17.1861 7.56916 17.1424 7.96182 17.0636 8.34408C16.4205 11.4569 13.2749 13.8281 9.4998 13.8281C8.66801 13.8281 7.85043 13.7122 7.06348 13.4831C7.92262 16.3476 10.9299 18.4695 14.5004 18.4695C15.4039 18.4695 16.2914 18.3328 17.1407 18.0631C19.5541 19.4774 22.5679 19.4943 22.6986 19.4943C22.8972 19.4943 23.0782 19.3795 23.1624 19.1996C23.2471 19.0196 23.2198 18.8069 23.0924 18.6543Z" fill="#59ACEA"/>
<path d="M16.1096 5.29455C16.056 5.28471 16.0019 5.27486 15.9478 5.26611C16.0019 5.27541 16.0555 5.28471 16.1096 5.29455Z" fill="#59ACEA"/>
<path d="M15.8948 5.25796C15.8472 5.2503 15.7991 5.24319 15.751 5.23608C15.7991 5.24265 15.8472 5.2503 15.8948 5.25796Z" fill="#59ACEA"/>
<path d="M15.6908 5.22728C15.6426 5.22071 15.5945 5.2147 15.5464 5.20923C15.5945 5.21524 15.6426 5.22071 15.6908 5.22728Z" fill="#59ACEA"/>
<path d="M17.0918 6.13281C17.1016 6.18695 17.1109 6.24109 17.1191 6.29578C17.1109 6.24164 17.1016 6.1875 17.0918 6.13281Z" fill="#EB5B58"/>
<path d="M16.9971 5.69897C17.0135 5.76077 17.0282 5.82311 17.0425 5.886C17.0282 5.82366 17.0129 5.76132 16.9971 5.69897Z" fill="#EB5B58"/>
<path d="M17.0483 5.91284C17.0615 5.97136 17.0735 6.02987 17.0844 6.08893C17.0729 6.02987 17.0609 5.97136 17.0483 5.91284Z" fill="#EB5B58"/>
<path d="M17.1289 6.36011C17.136 6.40933 17.1426 6.458 17.148 6.50722C17.1426 6.458 17.1355 6.40878 17.1289 6.36011Z" fill="#EB5B58"/>
<path d="M6.93659 12.985C6.85784 12.6027 6.81409 12.2101 6.81409 11.8087C6.81409 9.3007 8.4219 7.11266 10.791 5.9768C11.8913 5.44906 13.1557 5.14719 14.4999 5.14719C14.7667 5.14719 15.0303 5.15922 15.2901 5.18273C15.86 5.23359 16.4112 5.33859 16.9378 5.49172C16.9575 5.5568 16.9756 5.62188 16.9931 5.6875C16.5009 3.81555 15.0971 2.24109 13.2087 1.33547C12.1084 0.807734 10.844 0.505859 9.49979 0.505859C9.23292 0.505859 8.96933 0.517891 8.70956 0.541406C4.84151 0.885391 1.81401 3.72531 1.81401 7.1668C1.81401 8.48969 2.25972 9.75734 3.10683 10.8549C2.81534 11.3695 2.48558 11.8748 2.16948 12.3304C1.5094 13.2825 0.917139 14.0011 0.908389 14.0126C0.781514 14.1652 0.754171 14.3779 0.838389 14.5578C0.922608 14.7377 1.10362 14.8526 1.30214 14.8526C1.43284 14.8526 4.44612 14.8356 6.86003 13.4214C6.92784 13.4427 6.99566 13.4635 7.06401 13.4832C7.01425 13.3197 6.97159 13.1534 6.93659 12.985Z" fill="#EB5B58"/>
<path d="M17.1758 6.84619C17.1774 6.87846 17.1802 6.91072 17.1812 6.94299C17.1802 6.91018 17.178 6.87846 17.1758 6.84619Z" fill="#EB5B58"/>
<path d="M17.1567 6.5957C17.1611 6.63781 17.1655 6.68047 17.1688 6.72313C17.1655 6.67992 17.1611 6.63781 17.1567 6.5957Z" fill="#EB5B58"/>
<path d="M8.58789 13.7808C8.67977 13.7901 8.77219 13.7983 8.86461 13.8048C8.77219 13.7988 8.68031 13.7906 8.58789 13.7808Z" fill="#EB5B58"/>
<path d="M17.0635 8.34308C17.1422 7.96081 17.186 7.56815 17.186 7.16675C17.186 7.5687 17.1422 7.96136 17.0635 8.34308Z" fill="#EB5B58"/>
<path d="M9.49967 13.8284C9.40178 13.8284 9.30443 13.8268 9.20654 13.8235C9.30443 13.8262 9.40178 13.8284 9.49967 13.8284Z" fill="#EB5B58"/>
<path d="M9.18039 13.8221C9.08687 13.8189 8.99336 13.8139 8.90039 13.8074C8.99336 13.8139 9.08687 13.8189 9.18039 13.8221Z" fill="#EB5B58"/>
<path d="M8.27539 13.7429C8.36836 13.756 8.46133 13.7675 8.55484 13.7774C8.46133 13.7675 8.36836 13.756 8.27539 13.7429Z" fill="#EB5B58"/>
<path d="M7.9624 13.6934C8.05811 13.7103 8.1549 13.7256 8.25115 13.7393C8.1549 13.7256 8.05865 13.7103 7.9624 13.6934Z" fill="#EB5B58"/>
<path d="M7.06348 13.4832C7.3577 13.5685 7.65574 13.6385 7.95762 13.6921C7.65629 13.6385 7.3577 13.569 7.06348 13.4832Z" fill="#EB5B58"/>
<path d="M16.9382 5.4915C16.4116 5.33838 15.8603 5.23338 15.2905 5.18252C15.0307 5.15955 14.7671 5.14697 14.5002 5.14697C13.156 5.14697 11.8916 5.4483 10.7913 5.97658C8.42227 7.11244 6.81445 9.30049 6.81445 11.8085C6.81445 12.2099 6.8582 12.6025 6.93695 12.9848C6.97195 13.1532 7.01406 13.3195 7.06328 13.4835C7.85078 13.7121 8.66836 13.8286 9.49961 13.8286C13.2741 13.8286 16.4203 11.4574 17.0634 8.34346C17.1422 7.96119 17.1859 7.56854 17.1859 7.16713C17.1859 6.58799 17.099 6.0269 16.9382 5.4915Z" fill="#222349"/>
</svg>
