<svg width="20" height="22" viewBox="0 0 20 22" fill="none" xmlns="http://www.w3.org/2000/svg">
<path d="M8.59375 4.79509C8.61062 4.79462 8.6275 4.79368 8.64391 4.79321C8.6275 4.79415 8.61062 4.79462 8.59375 4.79509Z" fill="#59ACEA"/>
<path d="M13.6787 7.37671C13.7828 7.53796 13.8798 7.70436 13.9679 7.87686C13.8798 7.70436 13.7828 7.53796 13.6787 7.37671Z" fill="#59ACEA"/>
<path d="M8.81295 4.79056H8.85139C9.76826 4.78775 10.6898 4.96072 11.5017 5.38728C12.0079 5.65353 12.4673 5.98916 12.8686 6.38244C12.4669 5.98869 12.0075 5.65353 11.5017 5.38728C10.6898 4.96072 9.76826 4.78775 8.85139 4.79056H8.81295C8.81248 4.79056 8.81248 4.79056 8.81201 4.79056C8.81248 4.79056 8.81248 4.79056 8.81295 4.79056Z" fill="#59ACEA"/>
<path d="M17.1221 18.1528C17.087 17.7173 16.8502 17.399 16.5409 17.1131C15.473 16.1254 14.7479 14.8068 14.6537 13.3556C14.6232 12.8887 14.6185 12.42 14.619 11.9512C14.2876 12.0079 13.9473 12.0389 13.5995 12.0389C10.2802 12.0389 7.58961 9.34825 7.58961 6.02903C7.58961 5.63997 7.62805 5.26028 7.69836 4.89185C6.11399 5.17778 4.67305 6.06138 3.80164 7.43622C3.2518 8.30388 2.92555 9.31732 2.90539 10.3823C2.89039 11.1773 2.9007 11.9728 2.8993 12.7678C2.89742 13.7597 2.67242 14.7501 2.18914 15.6159C1.86196 16.2018 1.44711 16.7147 0.939924 17.1501C0.544299 17.49 0.324455 18.0197 0.408361 18.5343C0.53258 19.2989 1.13586 19.7704 1.94774 19.7709C3.14258 19.7718 4.33742 19.7714 5.53227 19.7714C6.0357 21.0633 7.28914 21.9801 8.75914 21.9801C10.2291 21.9801 11.4821 21.0633 11.986 19.7718C12.3104 19.7718 12.6348 19.7718 12.9591 19.7718C13.8423 19.7718 14.7259 19.7765 15.609 19.7704C16.5451 19.7643 17.1957 19.0673 17.1221 18.1528Z" fill="#59ACEA"/>
<path d="M14.5754 9.84499C14.5698 9.79671 14.5637 9.74843 14.5562 9.70062C14.4831 9.22577 14.3565 8.77202 14.1831 8.34546C14.3565 8.77249 14.4831 9.22624 14.5562 9.70062C14.5637 9.74843 14.5698 9.79671 14.5754 9.84499Z" fill="#59ACEA"/>
<path d="M8.0354 4.84081C8.05228 4.83894 8.06868 4.83659 8.08556 4.83472C8.06868 4.83659 8.05181 4.83894 8.0354 4.84081Z" fill="#59ACEA"/>
<path d="M8.41919 4.80408C8.43607 4.80315 8.45294 4.80221 8.46935 4.80127C8.45294 4.80221 8.43607 4.80315 8.41919 4.80408Z" fill="#59ACEA"/>
<path d="M7.86328 4.86468C7.87969 4.86233 7.89656 4.85999 7.91297 4.85718C7.89656 4.85999 7.87969 4.86233 7.86328 4.86468Z" fill="#59ACEA"/>
<path d="M8.24951 4.81724C8.25129 4.81724 8.25247 4.81724 8.25424 4.81665C8.25247 4.81665 8.25129 4.81724 8.24951 4.81724Z" fill="#59ACEA"/>
<path d="M7.59005 6.02124C7.59005 6.02405 7.59005 6.0264 7.59005 6.02874C7.59005 7.01405 7.82724 7.94405 8.24771 8.76484C7.82724 7.94405 7.59005 7.01405 7.59005 6.02874C7.58958 6.0264 7.59005 6.02405 7.59005 6.02124Z" fill="#EB5B58"/>
<path d="M8.74451 9.57124C8.7117 9.52624 8.67936 9.48077 8.64795 9.4353C8.67936 9.48124 8.7117 9.52671 8.74451 9.57124Z" fill="#EB5B58"/>
<path d="M9.25412 10.1806C9.24803 10.174 9.24193 10.1675 9.23584 10.1614C9.24193 10.1675 9.24803 10.174 9.25412 10.1806Z" fill="#EB5B58"/>
<path d="M13.5998 0.0195312C10.3302 0.0195312 7.67008 2.63094 7.5918 5.88172C7.60023 5.54422 7.63727 5.21375 7.69867 4.89219C8.0643 4.82609 8.43742 4.79188 8.81289 4.79094H8.85133C9.7682 4.78813 10.6898 4.96109 11.5016 5.38766C13.1212 6.23938 14.263 7.80172 14.5565 9.70062C14.6062 10.0222 14.6109 10.3522 14.6165 10.6784C14.6235 11.1027 14.6193 11.5269 14.6193 11.9511C14.3741 11.9928 14.1238 12.0209 13.8693 12.0327C17.0634 11.8916 19.6096 9.25813 19.6096 6.02938C19.6096 2.71016 16.919 0.0195312 13.5998 0.0195312Z" fill="#EB5B58"/>
<path d="M13.822 12.0344C13.7943 12.0354 13.7672 12.0363 13.7395 12.0372C13.7667 12.0363 13.7943 12.0354 13.822 12.0344Z" fill="#EB5B58"/>
<path d="M14.5562 9.70074C14.2627 7.80183 13.1208 6.23902 11.5013 5.38777C10.6894 4.96121 9.76788 4.78824 8.85101 4.79105H8.81257C8.4371 4.79199 8.06397 4.82621 7.69835 4.8923C7.62757 5.26074 7.5896 5.64042 7.5896 6.02949C7.5896 9.34871 10.2802 12.0393 13.5994 12.0393C13.9473 12.0393 14.2871 12.0084 14.619 11.9517C14.6194 11.5275 14.6232 11.1028 14.6162 10.679C14.611 10.3518 14.6058 10.0218 14.5562 9.70074Z" fill="#222349"/>
</svg>
