<svg width="31" height="30" viewBox="0 0 31 30" fill="none" xmlns="http://www.w3.org/2000/svg">
<g clip-path="url(#clip0_1_582)">
<path d="M22.4402 11.362L26.9048 11.9998L27.0938 11.8108C28.1568 10.7714 27.5662 8.95252 26.1016 8.73992L19.8418 7.84229L21.0938 10.3698C21.3536 10.9132 21.8497 11.2675 22.4402 11.362Z" fill="#59AAE8"/>
<path d="M4.32239 12.2836L10.7712 11.3387C11.3618 11.2442 11.8578 10.8899 12.1177 10.3466L14.9996 4.51195C15.3539 3.80329 16.0389 3.4962 16.7003 3.51982L15.4248 0.992264C14.7633 -0.354192 12.8499 -0.354192 12.2122 0.992264L9.33027 6.82691C9.07042 7.3466 8.57436 7.72455 7.98381 7.81904L1.53499 8.76392C0.0704231 8.97652 -0.520128 10.7718 0.542864 11.8112L2.76334 13.9844C2.81058 13.1812 3.37751 12.4253 4.32239 12.2836Z" fill="#59AAE8"/>
<path d="M7.98357 19.9132L5.73947 17.7163C5.73947 17.7872 5.73947 17.8817 5.73947 17.9525L4.62923 24.3541C4.36939 25.8187 5.92845 26.9525 7.22766 26.2439L7.72372 25.984L8.47963 21.4958C8.59774 20.9053 8.40876 20.3147 7.98357 19.9132Z" fill="#59AAE8"/>
<path d="M5.19602 16.37L2.76295 14.0078C2.73932 14.4803 2.90468 14.9763 3.30625 15.3779L5.7157 17.7401C5.73932 17.2204 5.57397 16.7244 5.19602 16.37Z" fill="#E95B58"/>
<path d="M19.6766 7.81905L19.8419 7.84267L18.212 4.53558C17.9049 3.89779 17.3144 3.5907 16.7002 3.54346L18.3301 6.82692C18.5663 7.37023 19.086 7.72456 19.6766 7.81905Z" fill="#E95B58"/>
<path d="M29.8811 15.3543C30.9441 14.315 30.3535 12.4961 28.889 12.2835L26.9283 12L22.4401 16.3701C22.0149 16.7717 21.826 17.3858 21.9205 17.9528L23.0307 24.3543C23.2905 25.8189 21.7315 26.9528 20.4323 26.2441L14.6685 23.2205C14.1488 22.937 13.511 22.937 12.9913 23.2205L7.72362 25.9843L7.39291 27.8976C7.13306 29.3622 8.69212 30.4961 9.99133 29.7874L15.7551 26.7638C16.2748 26.4803 16.9126 26.4803 17.4323 26.7638L23.1961 29.7874C24.5189 30.4724 26.0543 29.3622 25.7945 27.8976L24.7079 21.4961C24.6134 20.9055 24.8024 20.315 25.2275 19.9134L29.8811 15.3543Z" fill="#E95B58"/>
<path d="M14.6692 23.2202L20.433 26.2438C21.7558 26.9288 23.2912 25.8186 23.0314 24.354L21.9212 17.9525C21.8267 17.3619 22.0156 16.7713 22.4408 16.3698L26.9054 12.0233L22.4408 11.3619C21.8503 11.2674 21.3542 10.9131 21.0944 10.3698L19.8424 7.84222L19.6771 7.81859C19.0865 7.7241 18.5904 7.36977 18.3306 6.82647L16.7007 3.543C16.0156 3.49576 15.3306 3.82647 14.9999 4.53513L12.0944 10.3698C11.8345 10.8895 11.3385 11.2674 10.7479 11.3619L4.29911 12.3068C3.37785 12.4485 2.81092 13.2044 2.76367 14.0076L5.19674 16.3698C5.5747 16.7241 5.74005 17.2202 5.71643 17.7162L7.96052 19.9131C8.38572 20.3147 8.5747 20.9288 8.48021 21.4958L7.70068 26.0076L12.992 23.2202C13.5117 22.9603 14.1259 22.9603 14.6692 23.2202Z" fill="#59AAE8"/>
<path d="M14.6692 23.2202L20.433 26.2438C21.7558 26.9288 23.2912 25.8186 23.0314 24.354L21.9212 17.9525C21.8267 17.3619 22.0156 16.7713 22.4408 16.3698L26.9054 12.0233L22.4408 11.3619C21.8503 11.2674 21.3542 10.9131 21.0944 10.3698L19.8424 7.84222L19.6771 7.81859C19.0865 7.7241 18.5904 7.36977 18.3306 6.82647L16.7007 3.543C16.0156 3.49576 15.3306 3.82647 14.9999 4.53513L12.0944 10.3698C11.8345 10.8895 11.3385 11.2674 10.7479 11.3619L4.29911 12.3068C3.37785 12.4485 2.81092 13.2044 2.76367 14.0076L5.19674 16.3698C5.5747 16.7241 5.74005 17.2202 5.71643 17.7162L7.96052 19.9131C8.38572 20.3147 8.5747 20.9288 8.48021 21.4958L7.70068 26.0076L12.992 23.2202C13.5117 22.9603 14.1259 22.9603 14.6692 23.2202Z" fill="#222349"/>
</g>
<defs>
<clipPath id="clip0_1_582">
<rect width="30.4252" height="30" fill="white"/>
</clipPath>
</defs>
</svg>
