<svg width="18" height="26" viewBox="0 0 18 26" fill="none" xmlns="http://www.w3.org/2000/svg">
<path d="M17.0823 18.1275C17.0823 14.8551 15.1804 12.0396 12.4388 10.7307C13.6821 9.72637 14.479 8.19121 14.479 6.46797C14.479 3.4416 12.0263 0.988281 8.9999 0.988281C5.97412 0.988281 3.5208 3.4416 3.5208 6.46738C3.5208 8.19004 4.31768 9.72578 5.56104 10.7301C2.81943 12.0391 0.91748 14.8545 0.91748 18.127C0.91748 19.1594 3.30752 19.7945 6.24893 20.033L7.5415 14.2252C7.60303 13.9492 7.91943 13.7471 8.28975 13.7471H9.71064C10.081 13.7471 10.3974 13.9492 10.4589 14.2252L11.7515 20.033C14.6923 19.7945 17.0823 19.16 17.0823 18.1275ZM11.2054 11.8141L10.5585 12.8289C10.4319 13.0275 10.1665 13.1535 9.87471 13.1535H8.12393C7.83213 13.1535 7.5667 13.0275 7.44014 12.8289L6.79326 11.8141C6.55068 11.4338 6.91807 10.9926 7.47705 10.9926H10.521C11.0806 10.9926 11.448 11.4338 11.2054 11.8141Z" fill="#59ACEA"/>
<path d="M10.5215 10.9924H7.4776C6.91861 10.9924 6.55123 11.4336 6.79381 11.8139L7.44068 12.8288C7.56725 13.0274 7.83268 13.1534 8.12447 13.1534H9.87526C10.1671 13.1534 10.4325 13.0274 10.559 12.8288L11.2059 11.8139C11.4479 11.4336 11.0805 10.9924 10.5215 10.9924Z" fill="#222349"/>
<path d="M6.24827 20.0334L5.62308 22.8424C5.5762 23.0528 5.68812 23.2655 5.9137 23.3944L8.54163 24.8956C8.81233 25.0502 9.18616 25.0502 9.45686 24.8956L12.0854 23.3944C12.311 23.2655 12.4229 23.0528 12.376 22.8424L11.7508 20.0334C9.98303 20.1764 8.01663 20.1764 6.24827 20.0334Z" fill="#EB5B58"/>
<path d="M9.71001 13.7478H8.28911C7.9188 13.7478 7.60239 13.95 7.54087 14.2259L6.24829 20.0337C8.01665 20.1773 9.98306 20.1773 11.7508 20.0337L10.4583 14.2259C10.3973 13.95 10.0809 13.7478 9.71001 13.7478Z" fill="#222349"/>
</svg>
