<svg width="18" height="18" viewBox="0 0 18 18" fill="none" xmlns="http://www.w3.org/2000/svg">
<path d="M9.0017 4.72776C6.63695 4.72776 4.72953 6.63518 4.72953 8.99993C4.72953 11.3647 6.63695 13.2721 9.0017 13.2721C11.3664 13.2721 13.2739 11.3647 13.2739 8.99993C13.2739 6.63518 11.3664 4.72776 9.0017 4.72776ZM9.0017 11.7774C7.47353 11.7774 6.22423 10.5318 6.22423 8.99993C6.22423 7.46805 7.46981 6.22246 9.0017 6.22246C10.5336 6.22246 11.7792 7.46805 11.7792 8.99993C11.7792 10.5318 10.5299 11.7774 9.0017 11.7774V11.7774ZM14.4451 4.55301C14.4451 5.10701 13.9989 5.54948 13.4486 5.54948C12.8946 5.54948 12.4522 5.1033 12.4522 4.55301C12.4522 4.00272 12.8983 3.55654 13.4486 3.55654C13.9989 3.55654 14.4451 4.00272 14.4451 4.55301ZM17.2746 5.56435C17.2114 4.22953 16.9065 3.04715 15.9286 2.07299C14.9545 1.09883 13.7721 0.793945 12.4373 0.727018C11.0616 0.648937 6.93812 0.648937 5.5624 0.727018C4.23129 0.790227 3.04892 1.09512 2.07104 2.06928C1.09316 3.04343 0.791992 4.22581 0.725065 5.56063C0.646984 6.93635 0.646984 11.0598 0.725065 12.4355C0.788274 13.7703 1.09316 14.9527 2.07104 15.9269C3.04892 16.901 4.22758 17.2059 5.5624 17.2728C6.93812 17.3509 11.0616 17.3509 12.4373 17.2728C13.7721 17.2096 14.9545 16.9047 15.9286 15.9269C16.9028 14.9527 17.2077 13.7703 17.2746 12.4355C17.3527 11.0598 17.3527 6.94007 17.2746 5.56435V5.56435ZM15.4973 13.9116C15.2073 14.6404 14.6459 15.2018 13.9134 15.4956C12.8165 15.9306 10.2138 15.8302 9.0017 15.8302C7.78958 15.8302 5.18314 15.9269 4.09 15.4956C3.36124 15.2055 2.7998 14.6441 2.50607 13.9116C2.07104 12.8148 2.17143 10.2121 2.17143 8.99993C2.17143 7.78781 2.07476 5.18138 2.50607 4.08824C2.79608 3.35948 3.35752 2.79804 4.09 2.5043C5.18686 2.06927 7.78958 2.16967 9.0017 2.16967C10.2138 2.16967 12.8203 2.07299 13.9134 2.5043C14.6422 2.79432 15.2036 3.35576 15.4973 4.08824C15.9324 5.1851 15.832 7.78781 15.832 8.99993C15.832 10.2121 15.9324 12.8185 15.4973 13.9116Z" fill="#222349"/>
</svg>
