<svg width="18" height="18" viewBox="0 0 18 18" fill="none" xmlns="http://www.w3.org/2000/svg">
<path d="M4.39716 17.3333H0.941802V6.20606H4.39716V17.3333ZM2.66762 4.6882C1.56271 4.6882 0.666504 3.77302 0.666504 2.66811C0.666504 2.13738 0.877335 1.62839 1.25262 1.25311C1.6279 0.877823 2.13689 0.666992 2.66762 0.666992C3.19835 0.666992 3.70734 0.877823 4.08262 1.25311C4.45791 1.62839 4.66874 2.13738 4.66874 2.66811C4.66874 3.77302 3.77216 4.6882 2.66762 4.6882ZM17.3295 17.3333H13.8815V11.9166C13.8815 10.6257 13.8555 8.97019 12.085 8.97019C10.2885 8.97019 10.0132 10.3727 10.0132 11.8236V17.3333H6.56159V6.20606H9.87558V7.72391H9.92395C10.3853 6.84966 11.5121 5.92704 13.1933 5.92704C16.6903 5.92704 17.3332 8.22986 17.3332 11.2209V17.3333H17.3295Z" fill="#222349"/>
</svg>
