<svg width="179" height="26" viewBox="0 0 179 26" fill="none" xmlns="http://www.w3.org/2000/svg">
<path d="M41.5329 7.40332C39.062 7.40332 36.9349 8.3121 35.1516 10.1297C33.3682 11.9472 32.4873 14.1416 32.4873 16.6906C32.4873 19.2396 33.3897 21.434 35.1731 23.2516C36.9779 25.0691 39.148 25.9779 41.6833 25.9779C42.5857 25.9779 43.4452 25.8671 44.3046 25.6676C45.1426 25.4459 45.8301 25.2021 46.3673 24.9361C46.9044 24.648 47.3986 24.3377 47.8713 23.983C48.344 23.6284 48.6448 23.3846 48.7952 23.2294L49.1175 22.8969L46.6466 19.6165L46.1524 20.1706C45.8516 20.5474 45.293 20.902 44.541 21.2567C43.7675 21.6113 42.951 21.8108 42.0486 21.8108C40.8024 21.8108 39.7711 21.4783 38.9546 20.8134C38.1381 20.1484 37.644 19.3283 37.4506 18.353H50.0199L50.1918 16.3581C50.1918 13.8091 49.3753 11.6812 47.7209 9.97451C46.0665 8.2456 44.0038 7.40332 41.5329 7.40332ZM37.4506 14.8731C37.7299 13.8978 38.2456 13.0998 38.9546 12.5014C39.6636 11.9029 40.5231 11.5926 41.5329 11.5926C42.5428 11.5926 43.4022 11.9029 44.0898 12.5235C44.7773 13.1442 45.2285 13.9199 45.4219 14.8731H37.4506Z" fill="#F4F1E8"/>
<path d="M60.8054 7.40332C59.8601 7.40332 58.9576 7.64714 58.0982 8.11261C57.2388 8.57809 56.6801 8.9549 56.4223 9.24305C56.1645 9.5312 55.9711 9.75285 55.8422 9.95234V7.75797H51.0723V25.6454H55.8422V16.336C55.8422 14.9839 56.1645 13.9643 56.809 13.2328C57.4536 12.5014 58.3131 12.1467 59.3874 12.1467C60.3757 12.1467 61.1922 12.4792 61.8153 13.1442C62.4384 13.8091 62.7607 14.6957 62.7607 15.7818V25.6454H67.5306V15.2277C67.5306 12.8338 66.9075 10.9276 65.6613 9.50903C64.3936 8.09045 62.7822 7.40332 60.8054 7.40332Z" fill="#F4F1E8"/>
<path d="M127.713 7.40332C126.875 7.40332 126.058 7.53631 125.242 7.78013C124.425 8.04612 123.781 8.3121 123.286 8.62242C122.792 8.93273 122.341 9.26521 121.911 9.66419C121.482 10.0632 121.224 10.3292 121.095 10.4843C120.966 10.6395 120.88 10.7725 120.816 10.8611L123.458 13.5875L123.845 13.1663C124.103 12.856 124.576 12.5235 125.22 12.2354C125.865 11.9251 126.574 11.7699 127.369 11.7699C128.314 11.7699 129.045 12.0137 129.582 12.4792C130.119 12.9447 130.377 13.5653 130.377 14.3189L124.876 15.3385C123.265 15.6267 122.019 16.2695 121.116 17.2448C120.214 18.22 119.741 19.4391 119.741 20.902C119.741 22.3206 120.278 23.5176 121.374 24.515C122.448 25.5124 123.867 26.0001 125.585 26.0001C126.488 26.0001 127.347 25.8006 128.185 25.4016C129.023 25.0026 129.56 24.6923 129.797 24.4485C130.054 24.2047 130.248 24.0052 130.377 23.8279V25.6454H135.147V14.4962C135.147 12.457 134.459 10.7503 133.084 9.39821C131.687 8.06828 129.904 7.40332 127.713 7.40332ZM130.377 17.9762C130.377 19.2396 130.054 20.2149 129.41 20.9242C128.765 21.6335 127.906 21.9881 126.832 21.9881C125.306 21.9881 124.533 21.3897 124.533 20.1706C124.533 19.0402 125.177 18.3752 126.488 18.1535L130.377 17.4221V17.9762Z" fill="#F4F1E8"/>
<path d="M142.044 0.088623H137.253V25.6453H142.044V0.088623Z" fill="#F4F1E8"/>
<path d="M149.113 0.088623H144.321V25.6453H149.113V0.088623Z" fill="#F4F1E8"/>
<path d="M159.19 7.40332C156.719 7.40332 154.592 8.3121 152.809 10.1297C151.025 11.9472 150.145 14.1416 150.145 16.6906C150.145 19.2396 151.047 21.434 152.83 23.2516C154.635 25.0691 156.805 25.9779 159.341 25.9779C160.243 25.9779 161.102 25.8671 161.962 25.6676C162.8 25.4459 163.487 25.2021 164.025 24.9361C164.562 24.648 165.056 24.3377 165.529 23.983C166.001 23.6284 166.302 23.3846 166.452 23.2294L166.775 22.8969L164.304 19.6165L163.81 20.1706C163.509 20.5474 162.95 20.902 162.198 21.2567C161.425 21.6113 160.608 21.8108 159.706 21.8108C158.46 21.8108 157.428 21.4783 156.612 20.8134C155.795 20.1484 155.301 19.3283 155.108 18.353H167.677L167.849 16.3581C167.849 13.8091 167.033 11.6812 165.378 9.97451C163.724 8.2456 161.661 7.40332 159.19 7.40332ZM155.108 14.8731C155.387 13.8978 155.903 13.0998 156.612 12.5014C157.321 11.9029 158.18 11.5926 159.19 11.5926C160.2 11.5926 161.059 11.9029 161.747 12.5235C162.435 13.1442 162.886 13.9199 163.079 14.8731H155.108Z" fill="#F4F1E8"/>
<path d="M178.785 21.323C178.635 21.3895 178.42 21.456 178.119 21.5225C177.818 21.589 177.517 21.6112 177.217 21.6112C176.615 21.6112 176.099 21.4117 175.713 21.0127C175.326 20.6137 175.111 20.1482 175.111 19.5941V12.5012H178.635V8.1346H175.111V2.48242H170.857V5.7629C170.857 6.47219 170.663 7.02633 170.277 7.46963C169.89 7.91294 169.439 8.1346 168.901 8.1346H167.312V12.5233H170.32V19.8158C170.32 23.9607 172.146 26.0221 175.798 26.0221C176.98 26.0442 178.054 25.8447 179 25.4901V21.2787L178.785 21.323Z" fill="#F4F1E8"/>
<path d="M28.3615 7.73568L25.4824 17.5993L20.3473 0.088623H18.2201H14.675H0V25.6453H18.5854V20.7246H5.32853V15.0503H15.384V10.1295H5.32853V5.0315H16.2434L22.8181 25.6453H27.7814L33.3033 7.73568H28.3615Z" fill="#F4F1E8"/>
<path d="M117.249 0L112.114 17.5107L109.213 7.64706H109.235H109.213H104.272L101.392 17.5107L96.2573 0H90.585L98.7282 25.5567H103.691L106.742 15.6488L109.815 25.5567H114.778L122.9 0H117.249Z" fill="#F4F1E8"/>
<path d="M90.155 15.9146C89.36 15.5822 88.565 15.294 87.7915 15.0502C87.018 14.8064 86.352 14.5404 85.8148 14.2301C85.2777 13.9198 84.9984 13.543 84.9984 13.0775C84.9984 12.7007 85.1917 12.3682 85.5785 12.08C85.9652 11.7919 86.4809 11.6367 87.1255 11.6367C87.6411 11.6367 88.1568 11.7697 88.651 12.0357C89.1452 12.3017 89.4674 12.5233 89.6179 12.6785C89.7683 12.8558 89.8757 12.9667 89.9616 13.0775L92.4325 10.1738L91.8309 9.48668C91.4442 9.04338 90.7351 8.60007 89.7253 8.1346C88.7154 7.66912 87.6197 7.44747 86.4164 7.44747C84.5257 7.44747 82.9357 8.02377 81.6465 9.19853C80.3574 10.3733 79.7128 11.6589 79.7128 13.0996C79.7128 14.2079 79.9921 15.1167 80.5293 15.8482C81.0664 16.5796 81.7325 17.1116 82.506 17.4441C83.2795 17.7987 84.0745 18.0869 84.8694 18.3307C85.6644 18.5745 86.3305 18.8626 86.8676 19.1951C87.4048 19.5276 87.6841 19.9266 87.6841 20.4142C87.6841 20.9019 87.4907 21.3008 87.104 21.589C86.7602 21.855 86.2875 21.988 85.6429 22.0101C85.6429 22.0101 77.9724 22.0101 77.9509 22.0101C76.8122 22.0101 75.8883 21.0792 75.8453 19.9266C75.8453 19.8379 75.8238 12.5455 75.8238 12.5455H79.3475V8.1346H75.8453V2.48242H71.5911V5.7629C71.5911 6.47219 71.3977 7.02633 71.011 7.46963C70.6242 7.91294 70.173 8.1346 69.6359 8.1346H68.0459V12.5233H71.0539V19.8158C71.0539 23.8055 72.7513 25.8447 76.1246 25.9999V26.0221L86.5668 25.9999C88.4791 25.9334 90.0046 25.4014 91.1434 24.404C92.3681 23.3179 92.9911 21.988 92.9911 20.3699C92.9911 19.2616 92.7118 18.3085 92.1747 17.5549C91.6375 16.7791 90.95 16.2471 90.155 15.9146Z" fill="#F4F1E8"/>
</svg>
