<!-- Generated by IcoMoon.io -->
<svg version="1.1" xmlns="http://www.w3.org/2000/svg" width="494" height="1024" viewBox="0 0 494 1024">
<title></title>
<g id="icomoon-ignore">
</g>
<path d="M70.326 1023.94l353.445 0.025c38.642 0 70.229-32.232 70.229-71.664l-0.099-880.576c0-39.406-31.612-71.664-70.229-71.664l-353.445-0.025c-38.617 0-70.228 32.232-70.228 71.664l0.099 880.577c0 39.405 31.612 71.664 70.228 71.664zM422.143 18.025c29.577 0.026 53.79 24.115 53.79 53.576l0.103 880.823c0 29.46-24.21 53.576-53.787 53.576l-350.42-0.025c-29.577-0.027-53.788-24.116-53.788-53.576l-0.078-880.824c0-29.461 24.211-53.576 53.789-53.576h71.788c2.489 0 4.511 2.014 4.511 4.493v0.026c0 17.222 14.154 31.32 31.444 31.32h132.599c17.292 0 31.446-14.098 31.446-31.32 0-2.479 2.021-4.493 4.509-4.493h74.096z"></path>
</svg>
