<!-- Generated by IcoMoon.io -->
<svg version="1.1" xmlns="http://www.w3.org/2000/svg" width="1024" height="1024" viewBox="0 0 1024 1024">
<title></title>
<g id="icomoon-ignore">
</g>
<path d="M1024 72.259c-148.595-24.022-258.963 4.368-331.104 85.171-72.144 80.804-108.215 199.824-108.215 357.062v445.508h439.318v-445.508h-226.118c-11.847-78.62-1.075-142.497 32.301-191.634 34.457-49.136 90.451-70.43 167.974-63.878l25.843-186.72zM439.319 72.259c-148.592-24.022-258.96 4.368-331.104 85.171s-108.215 199.824-108.215 357.062v445.508h439.318v-445.508h-226.119c-11.845-78.62-1.076-142.497 32.302-191.634 34.457-49.136 90.448-70.43 167.974-63.878l25.842-186.72z"></path>
</svg>
