<?xml version="1.0" encoding="utf-8"?>
<!-- Generator: Adobe Illustrator 25.4.1, SVG Export Plug-In . SVG Version: 6.00 Build 0)  -->
<svg version="1.1" id="Layer_1" xmlns="http://www.w3.org/2000/svg" xmlns:xlink="http://www.w3.org/1999/xlink" x="0px" y="0px"
	 viewBox="0 0 3000 2000" style="enable-background:new 0 0 3000 2000;" xml:space="preserve">
<style type="text/css">
	.st0{fill:#E75B58;}
	.st1{fill:#59A8E6;}
	.st2{fill:#F4F0E6;}
</style>
<g>
	<polygon class="st0" points="1605.48,1015.06 1343.18,1015.06 1349.94,983.81 1323.89,983.81 1314.17,1028.67 1576.47,1028.67 
		1536.32,1068.19 1597.71,1068.19 1610.82,1054.58 1565.33,1054.58 	"/>
	<polygon class="st0" points="1599.59,945.42 1562.56,945.42 1577.16,970.2 1614.18,970.2 	"/>
	<polygon class="st1" points="1577.16,970.2 1352.89,970.2 1349.94,983.81 1585.18,983.81 	"/>
	<polygon class="st1" points="1685.83,993.19 1652.95,931.81 1591.56,931.81 1599.59,945.42 1623.94,945.42 1656.82,1006.81 
		1610.82,1054.58 1626.71,1054.58 	"/>
	<polygon class="st2" points="1623.94,945.42 1599.59,945.42 1614.18,970.2 1577.16,970.2 1585.18,983.81 1349.94,983.81 
		1343.18,1015.06 1605.48,1015.06 1565.33,1054.58 1610.82,1054.58 1656.82,1006.81 	"/>
</g>
</svg>
