<!-- Generated by IcoMoon.io -->
<svg version="1.1" xmlns="http://www.w3.org/2000/svg" width="1024" height="1024" viewBox="0 0 1024 1024">
<title></title>
<g id="icomoon-ignore">
</g>
<path d="M1023.096 395.487c-2.166-6.635-7.9-11.474-14.812-12.482l-331.575-48.187-148.28-300.452c-3.082-6.269-9.462-10.228-16.425-10.228-6.965 0-13.362 3.959-16.423 10.228l-148.302 300.47-331.575 48.188c-6.91 1.008-12.629 5.829-14.81 12.482-2.145 6.617-0.367 13.912 4.637 18.769l239.947 233.88-56.655 330.254c-1.173 6.876 1.65 13.819 7.277 17.925 5.664 4.142 13.16 4.675 19.301 1.393l296.603-155.904 296.565 155.904c2.678 1.413 5.627 2.109 8.545 2.109 3.794 0 7.567-1.172 10.778-3.502 5.642-4.106 8.463-11.049 7.276-17.925l-56.637-330.234 239.948-233.901c4.982-4.894 6.779-12.171 4.618-18.788z"></path>
</svg>
