<svg width="18" height="14" viewBox="0 0 18 14" fill="none" xmlns="http://www.w3.org/2000/svg">
<path d="M15.62 3.60545C15.6306 3.7535 15.6306 3.90158 15.6306 4.04962C15.6306 8.56527 12.1936 13.7683 5.91187 13.7683C3.97658 13.7683 2.17878 13.2078 0.666504 12.2349C0.941472 12.2666 1.20583 12.2772 1.49138 12.2772C3.08823 12.2772 4.55822 11.7379 5.73208 10.8178C4.23039 10.7861 2.97192 9.80261 2.53832 8.44896C2.74985 8.48066 2.96134 8.50182 3.18344 8.50182C3.49012 8.50182 3.79682 8.4595 4.08234 8.38551C2.51719 8.06823 1.3433 6.69345 1.3433 5.03312V4.99084C1.79802 5.24465 2.32683 5.40327 2.88728 5.4244C1.96723 4.81102 1.36446 3.76408 1.36446 2.57963C1.36446 1.94512 1.53363 1.36348 1.82976 0.855862C3.51124 2.92862 6.03876 4.28224 8.87292 4.43032C8.82005 4.17651 8.78831 3.91216 8.78831 3.64777C8.78831 1.76534 10.3112 0.231934 12.2041 0.231934C13.1876 0.231934 14.076 0.64437 14.6999 1.31062C15.4719 1.16257 16.2122 0.877021 16.8679 0.485743C16.614 1.27891 16.0747 1.94516 15.3662 2.36814C16.0536 2.29415 16.7198 2.10375 17.3332 1.83939C16.8679 2.51619 16.2863 3.11896 15.62 3.60545V3.60545Z" fill="#222349"/>
</svg>
