<svg width="18" height="10" viewBox="0 0 18 10" fill="none" xmlns="http://www.w3.org/2000/svg">
<path d="M16.9533 0.721203C17.0678 0.334453 16.9533 0.0498047 16.4026 0.0498047H14.5802C14.1161 0.0498047 13.9026 0.294231 13.7882 0.566503C13.7882 0.566503 12.86 2.82822 11.5481 4.29477C11.1242 4.71865 10.9293 4.85479 10.6973 4.85479C10.5828 4.85479 10.4064 4.71865 10.4064 4.3319V0.721203C10.4064 0.257103 10.2765 0.0498047 9.89282 0.0498047H7.02777C6.73693 0.0498047 6.56367 0.266385 6.56367 0.467495C6.56367 0.906843 7.2196 1.00895 7.28767 2.24655V4.93214C7.28767 5.52 7.18247 5.62829 6.95042 5.62829C6.33162 5.62829 4.82794 3.35729 3.93686 0.758331C3.75741 0.254009 3.58105 0.0498047 3.11386 0.0498047H1.29149C0.7717 0.0498047 0.666504 0.294231 0.666504 0.566503C0.666504 1.04917 1.2853 3.44702 3.54702 6.61528C5.0538 8.77798 7.17628 9.95061 9.10694 9.95061C10.2672 9.95061 10.4095 9.69071 10.4095 9.24208C10.4095 7.17529 10.3043 6.98037 10.886 6.98037C11.1552 6.98037 11.6193 7.1165 12.7022 8.15918C13.9398 9.39678 14.144 9.95061 14.837 9.95061H16.6594C17.1792 9.95061 17.4422 9.69071 17.2906 9.17711C16.944 8.0973 14.6019 5.87581 14.4967 5.7273C14.2275 5.38077 14.3049 5.22607 14.4967 4.91667C14.4998 4.91358 16.7244 1.78245 16.9533 0.721203V0.721203Z" fill="#222349"/>
</svg>
