<svg width="133" height="40" viewBox="0 0 133 40" fill="none" xmlns="http://www.w3.org/2000/svg">
<path d="M114.622 10.3633C113.776 10.3633 113.473 11.0299 113.353 11.5754H115.71C115.71 11.0906 115.529 10.3633 114.622 10.3633Z" fill="#222349"/>
<path d="M87.2363 13.5156C87.7804 13.5156 88.2641 13.2126 88.4454 12.6671C88.4454 12.5459 88.5059 12.4853 88.5059 12.3641V11.6974C88.5059 11.5762 88.5059 11.455 88.4454 11.3944C88.3245 10.9095 87.9013 10.5459 87.2968 10.5459C86.4504 10.5459 85.9668 11.2126 85.9668 12.0611C85.9668 12.8489 86.39 13.5156 87.2363 13.5156Z" fill="#222349"/>
<path d="M83.3058 12.9092C83.3058 12.8485 83.3663 12.7273 83.3663 12.6667V11.9395C82.4595 11.9395 81.4922 12.0607 81.4922 12.8485C81.4922 13.3334 81.8549 13.5758 82.2176 13.5758C82.8222 13.5758 83.1849 13.2728 83.3058 12.9092Z" fill="#222349"/>
<path d="M94.4305 13.5763C95.2164 13.5763 95.7605 12.9096 95.7605 12.0005C95.7605 11.3338 95.3978 10.4854 94.4305 10.4854C93.4632 10.4854 93.04 11.2732 93.04 12.0611C93.1005 12.9096 93.6446 13.5763 94.4305 13.5763Z" fill="#222349"/>
<path d="M77.8045 10.4248C76.8372 10.4248 76.4141 11.2127 76.4141 12.0006C76.4141 12.9097 76.9582 13.5763 77.7441 13.5763C78.53 13.5763 79.0741 12.9097 79.0741 12.0006C79.1345 11.2733 78.7718 10.4248 77.8045 10.4248Z" fill="#222349"/>
<path d="M74.7222 21.1514C73.6944 21.1514 72.8481 21.8786 72.5458 22.9089C72.5458 22.9696 72.5458 23.0302 72.5458 23.0302C72.4854 23.212 72.4854 23.3332 72.4854 23.4544V24.9089C72.4854 25.1514 72.4854 25.3332 72.5458 25.515C72.7876 26.4847 73.634 27.212 74.6617 27.212C76.1126 27.212 77.0194 26.0605 77.0194 24.1211C77.0194 22.6665 76.294 21.1514 74.7222 21.1514Z" fill="#222349"/>
<path d="M58.762 10.4248C57.7948 10.4248 57.3716 11.2127 57.3716 12.0006C57.3716 12.9097 57.9157 13.5763 58.7016 13.5763C59.4875 13.5763 60.0316 12.9097 60.0316 12.0006C60.092 11.2733 59.6689 10.4248 58.762 10.4248Z" fill="#222349"/>
<path d="M112.99 21.0303C111.66 21.0303 110.995 22.1818 110.813 23.2121H114.864C114.864 22.8485 114.743 22.0606 114.259 21.5151C114.018 21.1515 113.534 21.0303 112.99 21.0303Z" fill="#222349"/>
<path d="M127.62 0H5.38045C2.41818 0 0 2.48485 0 5.45455V34.5455C0 37.5758 2.41818 40 5.38045 40H127.62C130.582 40 133 37.5152 133 34.5455V5.45455C133 2.48485 130.582 0 127.62 0ZM114.682 9.87879C116.133 9.87879 116.496 11.0303 116.496 11.8182C116.496 11.9394 116.496 12.0606 116.496 12.1818H113.413C113.413 13.1515 114.138 13.5758 114.924 13.5758C115.529 13.5758 115.891 13.4545 116.133 13.3939L116.254 13.8788C115.952 14 115.468 14.1212 114.743 14.1212C113.352 14.1212 112.566 13.2727 112.566 12.0606C112.566 10.8485 113.352 9.87879 114.682 9.87879ZM107.79 8.12121H108.576V10.6667C108.697 10.4848 108.879 10.2424 109.181 10.1818C109.423 10.0606 109.725 10 110.027 10C110.632 10 111.599 10.303 111.599 11.7576V14.1818H110.813V11.8182C110.813 11.1515 110.571 10.6061 109.785 10.6061C109.241 10.6061 108.879 10.9091 108.697 11.3333C108.637 11.4545 108.637 11.5152 108.637 11.697V14.1212H107.851V8.12121H107.79ZM98.3596 9.93939L98.42 10.6061C98.6618 10.2424 99.1455 9.87879 99.8709 9.87879C100.475 9.87879 101.443 10.1818 101.443 11.6364V14.0606H100.657V11.7576C100.657 11.0909 100.415 10.5455 99.6291 10.5455C99.085 10.5455 98.6618 10.9091 98.5409 11.2727C98.4805 11.3939 98.4805 11.5152 98.4805 11.6364V14.0606H97.6945V11.0909C97.6945 10.6667 97.6945 10.3636 97.6341 10H98.3596V9.93939ZM94.4905 9.87879C95.76 9.87879 96.6064 10.7273 96.6064 11.9394C96.6064 13.4545 95.4577 14.1212 94.3696 14.1212C93.1605 14.1212 92.2536 13.3333 92.2536 12.0606C92.3141 10.6667 93.2814 9.87879 94.4905 9.87879ZM87.115 9.87879C87.78 9.87879 88.2636 10.1818 88.445 10.4849V8.12121H89.2309V12.9697C89.2309 13.3333 89.2309 13.7576 89.2914 14H88.5659L88.5055 13.2727C88.2636 13.697 87.7195 14.0606 86.9941 14.0606C85.9059 14.0606 85.0595 13.2121 85.0595 12C85.12 10.6667 86.0268 9.87879 87.115 9.87879ZM73.815 8.12121H74.6009V14.0606H73.815V8.12121ZM52.4141 8.36364C53.5627 8.36364 54.4091 8.60606 54.9532 9.0303C55.4973 9.51515 55.86 10.1212 55.86 11.0909C55.86 12 55.5577 12.7273 54.9532 13.2727C54.3486 13.8182 53.3814 14.0606 52.2327 14.0606C51.6282 14.0606 51.205 14.0606 50.7818 14V8.48485C51.205 8.42424 51.8095 8.36364 52.4141 8.36364ZM27.9905 10C28.8368 8.90909 30.3482 8.12121 31.6177 8C31.8595 9.45454 31.255 10.8485 30.4691 11.8788C29.6227 12.9697 28.1718 13.8182 26.7814 13.7576C26.5395 12.4242 27.2045 10.9697 27.9905 10ZM35.7891 28.4848C34.7614 30 33.3709 31.9394 31.6177 31.9394C30.0459 31.9394 29.6832 30.9091 27.5673 30.9091C25.4514 30.9091 25.0282 31.9394 23.4564 31.9394C21.7032 31.9394 20.3732 30.1818 19.3455 28.6667C16.5645 24.3636 16.2623 19.3333 17.955 16.6667C19.1641 14.7273 21.0986 13.6364 22.9123 13.6364C24.7864 13.6364 25.935 14.6667 27.4464 14.6667C28.9577 14.6667 29.8645 13.6364 31.9805 13.6364C33.6127 13.6364 35.3055 14.5455 36.5145 16.0606C32.5245 18.303 33.1291 24 37.1795 25.5758C36.7564 26.7879 36.5145 27.3939 35.7891 28.4848ZM58.8223 28.4848L57.6132 24.8485H53.7441L52.535 28.4848H50.7214L54.7114 16.6061H56.7064L60.7568 28.4848H58.8223ZM58.7014 14.1212C57.4923 14.1212 56.5855 13.3333 56.5855 12.0606C56.5855 10.7273 57.5527 9.87879 58.8223 9.87879C60.0918 9.87879 60.9382 10.7273 60.9382 11.9394C60.9382 13.4545 59.7895 14.1212 58.7014 14.1212ZM62.2077 9.93939L62.8123 12C62.9332 12.4242 63.0541 12.8485 63.1145 13.2727C63.2355 12.8485 63.3564 12.4242 63.5377 12L64.2632 9.93939H64.9282L65.5932 11.9394C65.7746 12.4242 65.8955 12.8485 66.0164 13.2727C66.0768 12.8485 66.1977 12.4242 66.3791 11.9394L66.9836 9.87879H67.7695L66.3186 13.9394H65.5932L64.9282 12C64.7468 11.5152 64.6259 11.1515 64.505 10.6667C64.3841 11.1515 64.2632 11.5758 64.0818 12L63.3564 13.9394H62.6309L61.3009 9.87879H62.2077V9.93939ZM68.3741 27.5152C67.6486 28.2424 66.7418 28.6667 65.6536 28.6667C64.6259 28.6667 63.7795 28.303 63.2355 27.6364V31.8788H61.4218V22.7273C61.4218 21.5758 61.4218 20.7273 61.3614 20V19.8788H62.9936L63.0541 21.0303C63.7191 20.1212 64.6864 19.6364 65.8955 19.6364C66.9232 19.6364 67.83 20.0606 68.495 20.8485C69.16 21.6364 69.5227 22.7273 69.5227 24C69.5832 25.5152 69.16 26.6667 68.3741 27.5152ZM69.5227 11.2121C69.4623 11.3333 69.4623 11.4545 69.4623 11.5758V14H68.6764V11.0303C68.6764 10.6061 68.6764 10.303 68.6159 9.93939H69.3414L69.4018 10.6061C69.6436 10.2424 70.1273 9.87879 70.8527 9.87879C71.4573 9.87879 72.4246 10.1818 72.4246 11.6364V14.0606H71.6386V11.7576C71.6386 11.0909 71.3968 10.5455 70.6109 10.5455C70.1273 10.4848 69.7041 10.8485 69.5227 11.2121ZM77.6236 27.5152C76.8982 28.2424 75.9914 28.6667 74.9032 28.6667C73.8755 28.6667 73.0291 28.303 72.485 27.6364V31.8788H70.6714V22.7273C70.6714 21.5758 70.6714 20.7273 70.6109 20V19.8788H72.2432L72.3036 21.0303C72.9686 20.1212 73.9359 19.6364 75.145 19.6364C76.1727 19.6364 77.0796 20.0606 77.7446 20.8485C78.4096 21.6364 78.7723 22.7273 78.7723 24C78.8327 25.5152 78.4095 26.6667 77.6236 27.5152ZM77.7446 14.1212C76.5355 14.1212 75.6286 13.3333 75.6286 12.0606C75.6286 10.7273 76.5959 9.87879 77.8655 9.87879C79.135 9.87879 79.9814 10.7273 79.9814 11.9394C79.9814 13.4545 78.8327 14.1212 77.7446 14.1212ZM80.6464 12.9697C80.6464 12 81.6136 11.4545 83.3064 11.4545V11.3939C83.3064 11.0909 83.1855 10.4849 82.2786 10.4849C81.8555 10.4849 81.4323 10.6061 81.13 10.7879L80.9486 10.303C81.3114 10.1212 81.8555 9.93939 82.3996 9.93939C83.79 9.93939 84.0923 10.7879 84.0923 11.5758V13.0303C84.0923 13.3939 84.0923 13.697 84.1527 14H83.4273L83.3668 13.5152C83.125 13.8182 82.6414 14.1212 81.9764 14.1212C81.13 14.1212 80.6464 13.5758 80.6464 12.9697ZM85.5432 28.6667C84.455 28.6667 83.1855 28.3636 82.5205 27.8788L82.46 27.8182L82.9436 26.303L83.125 26.4242C83.8505 26.9091 84.8177 27.1515 85.7245 27.1515C87.115 27.1515 88.0218 26.4849 88.0218 25.3333C88.0218 24.3636 87.4777 23.7576 85.9664 23.1515C83.8505 22.3636 82.8227 21.2727 82.8227 19.697C82.8227 17.7576 84.3945 16.4242 86.6918 16.4242C88.1427 16.4242 88.9891 16.8485 89.2914 17.0303L89.4123 17.0909L88.9286 18.6061L88.7473 18.4848C88.5659 18.3636 87.78 17.9394 86.6314 17.9394C85.2409 17.9394 84.5759 18.7273 84.5759 19.5758C84.5759 20.5455 85.12 21.0303 86.7523 21.697C88.8682 22.5455 89.775 23.5758 89.7145 25.2121C89.6541 26.7273 88.5659 28.6667 85.5432 28.6667ZM95.095 21.2727H92.9186V25.6364C92.9186 26.6667 93.2209 27.0909 93.8859 27.0909C94.2486 27.0909 94.4905 27.0303 94.7323 26.9697L94.9136 26.9091L94.9741 28.3636L94.9136 28.4848C94.6718 28.5455 94.1882 28.7273 93.5232 28.7273C92.7977 28.7273 92.1932 28.4849 91.77 28.0606C91.3468 27.5758 91.1655 26.8485 91.1655 25.7576V21.3333H89.8959V19.8788H91.1655V18.3636L92.9186 17.8182V19.8788H95.095V21.2727ZM99.3873 28.6667C96.9691 28.6667 95.2764 26.8485 95.2764 24.2424C95.2764 21.5152 97.0295 19.697 99.5082 19.697C100.717 19.697 101.745 20.1212 102.531 20.9091C103.256 21.697 103.68 22.8485 103.68 24.1212C103.68 27.2121 101.443 28.6667 99.3873 28.6667ZM104.224 9.93939H104.889V9.21212L105.675 9.0303V10H106.823V10.5455H105.675V12.7273C105.675 13.2121 105.856 13.5152 106.279 13.5152C106.521 13.5152 106.642 13.5152 106.763 13.4545L106.823 14C106.642 14.0606 106.4 14.1212 106.098 14.1212C105.735 14.1212 105.433 14 105.251 13.8182C105.01 13.5758 104.949 13.2121 104.949 12.7879V10.5455H104.284V9.93939H104.224ZM108.455 21.3333C107.549 21.3333 106.763 22.0606 106.581 23.1515C106.581 23.3333 106.521 23.5758 106.521 23.8182V28.4242H104.707V22.5455C104.707 21.4545 104.707 20.6667 104.647 19.9394V19.8182H106.219L106.279 21.0909C106.763 20.1818 107.609 19.6364 108.516 19.6364C108.697 19.6364 108.818 19.6364 108.939 19.697H109.06V21.3333H108.879C108.758 21.3939 108.637 21.3333 108.455 21.3333ZM116.617 24.4848V24.6061H110.813C110.934 26.9697 112.748 27.2121 113.473 27.2121C114.561 27.2121 115.226 27.0303 115.71 26.7879L115.831 26.7273L116.194 28.0606L116.073 28.1212C115.529 28.3636 114.622 28.6667 113.231 28.6667C110.692 28.6667 109 26.9697 109 24.303C109 21.5758 110.632 19.6364 113.05 19.6364C115.65 19.6364 116.617 21.8182 116.617 23.697C116.677 24.0606 116.677 24.303 116.617 24.4848Z" fill="#222349"/>
<path d="M65.5327 21.1514C64.505 21.1514 63.6586 21.8786 63.3564 22.9089C63.3564 22.9696 63.3564 23.0302 63.3564 23.0302C63.2959 23.212 63.2959 23.3332 63.2959 23.4544V24.9089C63.2959 25.1514 63.2959 25.3332 63.3564 25.515C63.5982 26.4847 64.4445 27.212 65.4723 27.212C66.9232 27.212 67.83 26.0605 67.83 24.1211C67.83 22.6665 67.1045 21.1514 65.5327 21.1514Z" fill="#222349"/>
<path d="M52.3532 13.5152C54.0459 13.5152 55.0132 12.6667 55.0132 11.1515C55.0132 9.81821 54.1668 8.96973 52.4741 8.96973C52.0509 8.96973 51.7487 9.03033 51.5068 9.03033V13.4546C51.7487 13.5152 52.0509 13.5152 52.3532 13.5152Z" fill="#222349"/>
<path d="M99.4475 21.0908C97.8152 21.0908 97.0898 22.6666 97.0293 24.1817C97.0293 25.9999 97.9966 27.2726 99.387 27.2726C100.777 27.2726 101.745 25.9999 101.745 24.1817C101.805 22.6666 101.08 21.0908 99.4475 21.0908Z" fill="#222349"/>
<path d="M55.6788 18.5459C55.5579 19.152 55.3766 19.6974 55.2557 20.1823L54.1675 23.3338H57.2507L56.1625 20.1823C55.9811 19.6368 55.7998 19.0914 55.6788 18.5459Z" fill="#222349"/>
</svg>
