<svg width="51" height="60" viewBox="0 0 51 60" fill="none" xmlns="http://www.w3.org/2000/svg">
<path d="M2.70452 56.8941H0.968253V57.5924H2.57778V58.3184H0.968253V59.9218H0V56.168H2.70452V56.8941Z" fill="#2F3944"/>
<path d="M14.7292 58.0462C14.7292 58.6445 14.5569 59.1201 14.2121 59.4731C13.8674 59.8243 13.3909 60 12.7826 60C12.1759 60 11.7003 59.8243 11.3555 59.4731C11.0108 59.1201 10.8385 58.6445 10.8385 58.0462C10.8385 57.4428 11.0108 56.9663 11.3555 56.6167C11.7003 56.2655 12.1759 56.0898 12.7826 56.0898C13.3875 56.0898 13.8632 56.2655 14.2096 56.6167C14.556 56.9663 14.7292 57.4428 14.7292 58.0462ZM13.4391 58.9966C13.5337 58.8823 13.6038 58.7478 13.6494 58.5932C13.6951 58.4369 13.7179 58.2537 13.7179 58.0436C13.7179 57.8184 13.6917 57.6268 13.6393 57.4688C13.5869 57.3109 13.5185 57.1831 13.434 57.0856C13.3478 56.9848 13.2481 56.9117 13.1349 56.8663C13.0234 56.8209 12.9068 56.7983 12.7851 56.7983C12.6617 56.7983 12.5452 56.8201 12.4353 56.8638C12.3272 56.9075 12.2275 56.9798 12.1362 57.0806C12.0517 57.1747 11.9824 57.305 11.9284 57.4714C11.876 57.6361 11.8498 57.8277 11.8498 58.0462C11.8498 58.2697 11.8751 58.4604 11.9258 58.6184C11.9782 58.7747 12.0467 58.9025 12.1312 59.0016C12.2156 59.1008 12.3145 59.1739 12.4277 59.221C12.5409 59.268 12.6601 59.2915 12.7851 59.2915C12.9101 59.2915 13.0293 59.268 13.1425 59.221C13.2557 59.1722 13.3546 59.0974 13.4391 58.9966Z" fill="#2F3944"/>
<path d="M25.2736 57.3176C25.2736 57.2235 25.2542 57.1428 25.2153 57.0756C25.1765 57.0083 25.1097 56.9554 25.0151 56.9167C24.9492 56.8898 24.8723 56.8739 24.7844 56.8688C24.6966 56.8621 24.5943 56.8588 24.4778 56.8588H24.1254V57.8697H24.4245C24.58 57.8697 24.7101 57.8621 24.8149 57.847C24.9196 57.8319 25.0075 57.7974 25.0785 57.7436C25.1461 57.6915 25.1951 57.6344 25.2255 57.5722C25.2576 57.5083 25.2736 57.4235 25.2736 57.3176ZM26.7919 59.9218H25.6032L24.5741 58.5453H24.1254V59.9218H23.1572V56.168H24.7895C25.0126 56.168 25.2044 56.1806 25.3649 56.2058C25.5254 56.231 25.6758 56.2856 25.8161 56.3697C25.958 56.4537 26.0704 56.563 26.1532 56.6974C26.2377 56.8302 26.2799 56.9974 26.2799 57.1991C26.2799 57.4764 26.2149 57.7025 26.0847 57.8773C25.9563 58.052 25.7721 58.1974 25.5322 58.3134L26.7919 59.9218Z" fill="#2F3944"/>
<path d="M38.2058 58.563C38.2058 59.0268 38.0638 59.3823 37.7799 59.6294C37.496 59.8764 37.0778 60 36.5253 60C35.9727 60 35.5545 59.8764 35.2706 59.6294C34.9884 59.3823 34.8473 59.0277 34.8473 58.5655V56.168H35.8257V58.51C35.8257 58.7705 35.8806 58.9647 35.9904 59.0924C36.1003 59.2201 36.2785 59.284 36.5253 59.284C36.7686 59.284 36.946 59.2226 37.0575 59.0999C37.1708 58.9773 37.2274 58.7806 37.2274 58.51V56.168H38.2058V58.563Z" fill="#2F3944"/>
<path d="M50.7577 59.9218H49.7894V57.4083L49.0898 59.0394H48.4181L47.7186 57.4083V59.9218H46.801V56.168H47.9315L48.7806 58.0512L49.6272 56.168H50.7577V59.9218Z" fill="#2F3944"/>
<path fill-rule="evenodd" clip-rule="evenodd" d="M50.7577 0H0V50.8314H50.7577V0ZM41.5455 50.8314H50.7577L37.9952 16.3044H27.7389L14.9765 50.8314H23.9566L26.3466 43.8518H39.1554L41.5455 50.8314ZM32.751 25.139L36.9974 37.5215H28.5046L32.751 25.139Z" fill="#2F3944"/>
</svg>
