<svg width="100" height="75" viewBox="0 0 100 75" fill="none" xmlns="http://www.w3.org/2000/svg">
<path d="M8.62061 60.8335C21.1679 48.6823 25.7569 44.4872 26.483 43.9086C27.4996 43.4746 30.3169 42.867 33.4538 43.9086C36.5906 44.9501 45.2168 55.0472 49.1378 59.9656" stroke="black" stroke-width="2"/>
<path d="M36.207 45.8334L55.8047 27.3254C58.4771 24.9418 65.2473 21.6048 70.9484 27.3254C76.6496 33.0461 85.7952 42.0477 89.6553 45.8334" stroke="black" stroke-width="2"/>
<path d="M31.0342 65.8333C41.7451 61.6666 68.4646 53.3333 89.6549 53.3333" stroke="black" stroke-width="2"/>
<rect x="1" y="1" width="98" height="73" rx="2" stroke="black" stroke-width="2"/>
<rect x="8.75879" y="9.3335" width="80.7586" height="56.3333" stroke="black" stroke-width="2"/>
<path d="M31.7589 25.8334C31.7589 28.9313 29.1512 31.5001 25.8624 31.5001C22.5736 31.5001 19.9658 28.9313 19.9658 25.8334C19.9658 22.7355 22.5736 20.1667 25.8624 20.1667C29.1512 20.1667 31.7589 22.7355 31.7589 25.8334Z" stroke="black" stroke-width="2"/>
</svg>
