<svg width="80" height="40" viewBox="0 0 80 40" fill="none" xmlns="http://www.w3.org/2000/svg">
<g clip-path="url(#clip0_1673_123)">
<path d="M79.375 0H0V39.6875H79.375V0Z" fill="#DDDDDD"/>
<path d="M25.1035 28.6552C29.6205 24.1299 31.2726 22.5676 31.534 22.3521C31.9 22.1905 32.9142 21.9642 34.0434 22.3521C35.1727 22.74 38.2782 26.5003 39.6897 28.332" stroke="#808080"/>
<path d="M35.0342 23.069L42.0894 16.1763C43.0514 15.2886 45.4887 14.0459 47.5411 16.1763C49.5935 18.3068 52.8859 21.6591 54.2756 23.069" stroke="#808080"/>
<path d="M33.1724 30.5172C37.0283 28.9655 46.6473 25.8621 54.2758 25.8621" stroke="#808080"/>
<rect x="22.5" y="6.5" width="35" height="26.931" rx="2.5" stroke="#808080"/>
<rect x="25.293" y="9.60352" width="28.7931" height="20.7241" stroke="#808080"/>
<circle cx="31.3104" cy="15.6207" r="1.98276" stroke="#808080"/>
</g>
<defs>
<clipPath id="clip0_1673_123">
<rect width="79.375" height="39.6875" fill="white"/>
</clipPath>
</defs>
</svg>
