<svg xmlns="http://www.w3.org/2000/svg" fill="none" viewBox="0 0 80 40"><g clip-path="url(#clip0_1673_123)"><path fill="#DDD" d="M79.375 0H0v39.688h79.375V0z"/><path stroke="gray" d="M25.104 28.655c4.517-4.525 6.169-6.087 6.43-6.303.366-.162 1.38-.388 2.51 0 1.129.388 4.234 4.148 5.646 5.98"/><path stroke="gray" d="M35.034 23.069l7.055-6.893c.962-.887 3.4-2.13 5.452 0a1040.25 1040.25 0 0 0 6.735 6.893M33.172 30.517c3.856-1.552 13.475-4.655 21.104-4.655"/><rect width="35" height="26.931" x="22.5" y="6.5" stroke="gray" rx="2.5"/><path stroke="gray" d="M25.293 9.604h28.793v20.724H25.293z"/><circle cx="31.31" cy="15.621" r="1.983" stroke="gray"/></g><defs><clipPath id="clip0_1673_123"><path fill="#fff" d="M0 0h79.375v39.688H0z"/></clipPath></defs></svg>