<svg width="133" height="40" viewBox="0 0 133 40" fill="none" xmlns="http://www.w3.org/2000/svg">
<path d="M98.2996 18.0605H95.5791V22.4848H98.2996C99.5087 22.4848 100.476 21.4545 100.476 20.2424C100.476 19.0302 99.5087 18.0605 98.2996 18.0605Z" fill="#222349"/>
<path d="M72.6062 22.3027C71.3971 22.3027 70.188 23.333 70.188 25.03C70.188 26.6664 71.3366 27.6967 72.6062 27.6967C73.7548 27.6967 74.9639 26.727 74.9639 25.03C74.9034 23.333 73.7548 22.3027 72.6062 22.3027Z" fill="#222349"/>
<path d="M62.9932 22.3027C61.6027 22.3027 60.5146 23.4543 60.4541 24.9694C60.4541 26.5452 61.5423 27.6967 62.9327 27.6967C64.2023 27.6967 65.4114 26.6664 65.4114 25.03C65.4114 23.333 64.2627 22.3027 62.9932 22.3027Z" fill="#222349"/>
<path d="M85.1806 22.2422C83.9111 22.2422 82.702 23.5755 82.8834 24.8482L86.8129 23.2119C86.5711 22.727 85.9665 22.2422 85.1806 22.2422Z" fill="#222349"/>
<path d="M63.5382 10.7271C64.6868 10.7271 65.7145 9.7574 65.7145 8.48467C65.7145 7.21194 64.7473 6.24225 63.5382 6.18164C62.3291 6.18164 61.3618 7.21194 61.3618 8.48467C61.3618 9.7574 62.3895 10.7271 63.5382 10.7271Z" fill="#222349"/>
<path d="M127.62 0H5.38045C2.41818 0 0 2.48485 0 5.45455V34.5455C0 37.5758 2.41818 40 5.38045 40H127.62C130.582 40 133 37.5152 133 34.5455V5.45455C133 2.48485 130.582 0 127.62 0ZM63.5377 5.33333C65.2909 5.33333 66.6209 6.84848 66.6209 8.48485C66.6209 10.0606 65.3514 11.5758 63.5377 11.6364C61.6636 11.6364 60.4545 10.0606 60.4545 8.48485C60.4545 6.84848 61.7845 5.33333 63.5377 5.33333ZM52.8373 5.51515H53.7441V11.4545H52.8373V5.51515ZM42.2577 5.51515H45.6432V6.42424H43.1645V8.06061H45.3409V8.9697H43.1645V10.6061H45.6432V11.5152H42.2577C42.2577 9.45455 42.2577 7.51515 42.2577 5.51515ZM38.4491 5.33333C39.8395 5.33333 40.565 6.18182 40.565 6.18182L39.9605 6.78788C39.9605 6.78788 39.4164 6.18182 38.4491 6.18182C37.24 6.18182 36.2123 7.15152 36.2123 8.48485C36.2123 9.81818 37.24 10.7273 38.4491 10.7273C39.3559 10.7273 40.3836 10.2424 40.4441 9.0303H38.4491V8.18182H41.2905C41.2905 8.18182 41.3509 8.36364 41.3509 8.78788C41.3509 10.4848 40.1418 11.6364 38.5095 11.6364C36.6355 11.6364 35.3659 10.0606 35.3659 8.48485C35.3055 6.84848 36.6959 5.33333 38.4491 5.33333ZM24.3632 19.6364L21.7636 22.303L18.7409 19.3333L12.635 13.0909C14.1464 13.9394 22.4891 18.6061 24.3632 19.6364ZM11.3655 31.7576C11.3655 31.2727 11.3655 27.4545 11.305 23.4545C11.305 19.0909 11.2445 14.4848 11.2445 13.8182C11.2445 13.3939 11.3655 13.1515 11.6073 13.0303L21.28 22.7879L20.9777 23.1515L11.6677 32.6061C11.4259 32.4242 11.3655 32.0606 11.3655 31.7576ZM13.0582 32.1212L21.7032 23.1515L24.3027 25.8182C20.3127 28.0606 14.9323 31.0303 13.0582 32.1212ZM29.0182 23.2121C28.8973 23.2727 28.2927 23.6364 27.265 24.1818L24.8468 25.5152L22.0659 22.7273L24.7864 19.9394C26.2373 20.7273 27.4464 21.4545 28.2323 21.8182L28.9577 22.2424C29.1391 22.3636 29.3809 22.5455 29.3809 22.7273C29.4414 22.9091 29.26 23.0909 29.0182 23.2121ZM41.8345 29.3939C37.7236 29.3939 34.8823 26 34.8823 22.4848C34.8823 18.9091 37.8445 15.6364 41.7136 15.6364C44.7364 15.6364 46.4291 17.5152 46.4291 17.5152L45.1595 18.9091C45.1595 18.9091 43.9505 17.5758 41.8345 17.5758C39.1141 17.5758 36.9377 19.7576 36.9377 22.6061C36.9377 25.5152 39.235 27.5758 41.8345 27.5758C43.89 27.5758 46.0059 26.4242 46.2477 23.8182H41.8345V21.9394H48.0614C48.0614 21.9394 48.1823 22.4242 48.1823 23.1515C48.1218 26.9091 45.4618 29.3939 41.8345 29.3939ZM48.8473 11.4545H48.0009V6.36364H46.55V5.51515C47.8195 5.51515 49.0286 5.51515 50.2982 5.51515V6.42424H48.8473V11.4545ZM53.3814 29.4545C50.7214 29.4545 48.9682 27.3939 48.9682 24.9697C48.9682 22.6061 50.7818 20.5455 53.3814 20.5455C55.4973 20.5455 57.7945 22.0606 57.7341 24.9697C57.7341 27.5758 55.7391 29.4545 53.3814 29.4545ZM58.2177 6.42424H56.7668V11.5152H55.9205V6.42424H54.4695V5.51515C55.7391 5.51515 56.9482 5.51515 58.2177 5.51515V6.42424ZM62.9936 29.4545C60.3336 29.4545 58.5805 27.3939 58.5805 24.9697C58.5805 22.6061 60.3941 20.5455 62.9936 20.5455C65.1095 20.5455 67.3464 22.0606 67.3464 24.9697C67.3464 27.5758 65.4118 29.4545 62.9936 29.4545ZM67.5277 5.51515H68.3741L71.155 9.81818V5.51515H72.0618V11.4545H71.155L68.3741 7.15152V11.4545H67.5277V5.51515ZM76.5959 28.7879C76.5959 31.9394 74.8427 33.3939 72.485 33.3939C70.3691 33.3939 69.16 32.0606 68.5555 30.7879L70.2482 30.0606C70.49 30.6061 71.155 31.6364 72.485 31.6364C73.8755 31.6364 74.7823 30.7273 74.7823 29.2121V28.3636C74.2986 28.9091 73.6336 29.4545 72.3641 29.4545C70.3691 29.4545 68.1927 27.697 68.1927 25.0303C68.1927 22.6667 70.0668 20.6061 72.3641 20.6061C73.3918 20.6061 74.1777 21.0303 74.7218 21.6364V20.9091H76.5355V28.7879H76.5959ZM79.9814 29.1515H78.0468V16.1212H79.9814V29.1515ZM85.3618 27.697C86.45 27.697 87.115 27.0909 87.4777 26.4848L88.9891 27.5152C88.3241 28.4242 87.1755 29.4545 85.3014 29.4545C83.0646 29.4545 81.0091 27.8182 81.0091 25.0303C81.0091 22.3636 82.8832 20.6061 85.0595 20.6061C86.8127 20.6061 88.1427 21.8182 88.6868 23.2121L88.9891 23.9394L83.125 26.4242C83.5482 27.0303 84.1527 27.697 85.3618 27.697ZM98.2991 24.4242H95.5786V29.1515H93.6441V24.4242V16.1212H95.5786H98.2991C100.536 16.1212 102.41 18 102.41 20.303C102.41 22.5455 100.536 24.4242 98.2991 24.4242ZM105.735 29.1515H103.8V16.1212H105.735V29.1515ZM115.529 24.4848V29.1515H113.594V28.1212C113.171 28.6667 112.627 29.0909 111.901 29.2727C110.692 29.6364 109.181 29.4545 108.274 28.4848C107.67 27.8182 107.488 26.7879 107.609 25.9394C107.79 24.3636 109.06 23.3939 110.571 23.2727C111.539 23.1515 112.566 23.3333 113.534 23.6364C113.292 21.5152 110.148 21.0303 109 23.0303L107.428 22C109.785 18.4848 115.831 19.6364 115.529 24.4848ZM119.942 33.3939H117.826L119.821 28.7879L116.254 20.5455H118.37L120.909 26.3636L123.448 20.5455H125.564L119.942 33.3939Z" fill="#222349"/>
<path d="M53.3809 22.3027C51.9904 22.3027 50.9023 23.4543 50.8418 24.9694C50.8418 26.5452 51.93 27.6967 53.3204 27.6967C54.59 27.6967 55.7991 26.6664 55.7991 25.03C55.7991 23.333 54.59 22.3027 53.3809 22.3027Z" fill="#222349"/>
<path d="M111.478 27.5152C112.506 27.2122 113.352 26.4243 113.594 25.3334C113.05 25.1516 112.566 25.0304 111.962 24.9698C108.697 24.4849 109.241 28.1819 111.478 27.5152Z" fill="#222349"/>
</svg>
