<!-- Generated by IcoMoon.io -->
<svg version="1.1" xmlns="http://www.w3.org/2000/svg" width="7050" height="1024" viewBox="0 0 7050 1024">
<title></title>
<g id="icomoon-ignore">
</g>
<path d="M1635.757 291.577c-97.315 0-181.090 35.792-251.325 107.377-70.239 71.582-104.932 158.007-104.932 258.399s35.541 186.817 105.779 258.402c71.081 71.582 156.55 107.374 256.402 107.374 35.541 0 69.392-4.364 103.239-12.221 33.004-8.732 60.081-18.334 81.239-28.81 21.153-11.347 40.617-23.568 59.234-37.537 18.617-13.966 30.464-23.568 36.387-29.68l12.694-13.095-97.315-129.197-19.464 21.823c-11.847 14.84-33.847 28.806-63.464 42.776-30.464 13.966-62.622 21.823-98.162 21.823-49.081 0-89.698-13.095-121.856-39.282-32.158-26.191-51.617-58.49-59.234-96.902h495.037l6.77-78.568c0-100.391-32.158-184.198-97.315-251.415-65.158-68.092-146.397-101.265-243.712-101.265zM1474.977 585.771c11-38.412 31.311-69.841 59.234-93.408 27.924-23.572 61.775-35.793 101.545-35.793 39.775 0 73.622 12.221 100.703 36.663 27.077 24.446 44.847 54.997 52.464 92.538h-313.947z"></path>
<path d="M2394.797 291.577c-37.23 0-72.775 9.603-106.622 27.935s-55.851 33.173-66.005 44.522c-10.153 11.349-17.77 20.078-22.847 27.935v-86.424h-187.861v704.49h187.861v-366.647c0-53.252 12.694-93.408 38.077-122.218 25.387-28.806 59.238-42.776 101.549-42.776 38.924 0 71.081 13.095 95.622 39.286 24.541 26.187 37.234 61.105 37.234 103.881v388.474h187.861v-410.297c0-94.283-24.541-169.358-73.622-225.228-49.928-55.87-113.392-82.933-191.248-82.933z"></path>
<path d="M5029.927 291.577c-33.004 0-65.182 5.238-97.319 14.841-32.177 10.476-57.541 20.951-77.036 33.173-19.456 12.221-37.218 25.316-54.154 41.030-16.896 15.715-27.057 26.191-32.138 32.3-5.081 6.112-8.468 11.351-10.988 14.84l104.054 107.378 15.242-16.589c10.161-12.221 28.79-25.316 54.154-36.663 25.403-12.221 53.327-18.334 84.638-18.334 37.218 0 66.009 9.602 87.158 27.936s31.311 42.776 31.311 72.456l-216.655 40.157c-63.449 11.351-112.522 36.667-148.086 75.079-35.525 38.408-54.154 86.422-54.154 144.037 0 55.871 21.15 103.014 64.315 142.297 42.299 39.282 98.186 58.49 165.849 58.49 35.564 0 69.396-7.857 102.4-23.572s54.154-27.936 63.488-37.537c10.122-9.602 17.762-17.459 22.843-24.442v71.582h187.865v-439.107c0-80.313-27.097-147.531-81.25-200.782-55.020-52.379-125.243-78.568-211.535-78.568zM5134.848 707.986c0 49.759-12.721 88.17-38.085 116.106-25.403 27.936-59.234 41.901-101.534 41.901-60.101 0-90.545-23.568-90.545-71.582 0-44.52 25.364-70.711 76.997-79.443l153.167-28.806v21.823z"></path>
<path d="M5594.348 3.49h-188.692v1006.54h188.692v-1006.54z"></path>
<path d="M5872.758 3.49h-188.731v1006.54h188.731v-1006.54z"></path>
<path d="M6269.637 291.577c-97.319 0-181.090 35.792-251.313 107.377-70.262 71.582-104.921 158.007-104.921 258.399s35.525 186.817 105.748 258.402c71.089 71.582 156.554 107.374 256.433 107.374 35.525 0 69.356-4.364 103.227-12.221 33.004-8.732 60.062-18.334 81.25-28.81 21.15-11.347 40.606-23.568 59.234-37.537 18.59-13.966 30.444-23.568 36.352-29.68l12.721-13.095-97.319-129.197-19.456 21.823c-11.855 14.84-33.871 28.806-63.488 42.776-30.444 13.966-62.622 21.823-98.146 21.823-49.073 0-89.718-13.095-121.856-39.282-32.177-26.191-51.633-58.49-59.234-96.902h495.025l6.774-78.568c0-100.391-32.138-184.198-97.319-251.415-65.142-68.092-146.393-101.265-243.712-101.265zM6108.869 585.771c10.988-38.412 31.311-69.841 59.234-93.408 27.924-23.572 61.755-35.793 101.534-35.793s73.61 12.221 100.706 36.663c27.097 24.446 44.859 54.997 52.46 92.538h-313.935z"></path>
<path d="M7041.378 839.798c-5.908 2.619-14.375 5.238-26.23 7.857s-23.71 3.493-35.525 3.493c-23.71 0-44.032-7.857-59.234-23.572-15.242-15.714-23.71-34.048-23.71-55.871v-279.351h138.791v-171.977h-138.791v-222.609h-167.542v129.2c0 27.935-7.641 49.76-22.843 67.219-15.242 17.46-33.004 26.19-54.193 26.19h-62.582v172.847h118.469v287.212c0 163.245 71.916 244.433 215.749 244.433 46.553 0.87 88.852-6.987 126.11-20.953v-165.864l-8.468 1.745z"></path>
<path d="M1117.007 304.667l-113.392 388.475-202.244-689.651h-801.371v1006.54h731.979v-193.8h-522.117v-223.48h396.031v-193.804h-396.031v-200.783h429.878l258.942 811.867h195.478l217.478-705.363h-194.631z"></path>
<path d="M4617.807 0l-202.24 689.652-114.255-388.476h-194.599l-113.428 388.476-202.228-689.652h-223.401l320.717 1006.541h195.458l120.162-390.219 121.029 390.219h195.466l319.882-1006.541h-222.562z"></path>
<path d="M3550.72 626.79c-31.311-13.091-62.622-24.442-93.086-34.044s-56.694-20.078-77.852-32.299c-21.153-12.221-32.154-27.061-32.154-45.395 0-14.84 7.613-27.936 22.847-39.286 15.23-11.347 35.541-17.459 60.928-17.459 20.307 0 40.617 5.238 60.081 15.714s32.154 19.204 38.081 25.316c5.923 6.983 10.153 11.351 13.536 15.714l97.315-114.361-23.694-27.062c-15.23-17.459-43.158-34.919-82.928-53.251-39.775-18.333-82.928-27.062-130.32-27.062-74.464 0-137.086 22.697-187.861 68.965-50.771 46.268-76.158 96.901-76.158 153.642 0 43.65 11 79.443 32.158 108.253 21.153 28.806 47.388 49.759 77.852 62.854 30.464 13.966 61.775 25.316 93.082 34.918 31.311 9.602 57.545 20.949 78.698 34.044 21.157 13.095 32.158 28.81 32.158 48.014 0 19.208-7.617 34.918-22.847 46.269-13.54 10.476-32.158 15.714-57.545 16.585 0 0-302.1 0-302.946 0-44.847 0-81.235-36.663-82.928-82.058 0-3.493-0.847-290.702-0.847-290.702h138.78v-173.722h-137.933v-222.609h-167.55v129.2c0 27.935-7.617 49.76-22.847 67.219-15.234 17.46-33.004 26.19-54.158 26.19h-62.622v172.847h118.469v287.212c0 157.133 66.851 237.446 199.708 243.558v0.874l411.262-0.874c75.315-2.619 135.396-23.572 180.248-62.854 48.234-42.776 72.771-95.153 72.771-158.881 0-43.65-11-81.187-32.154-110.868-21.157-30.555-48.234-51.507-79.545-64.603z"></path>
</svg>
