<svg xmlns="http://www.w3.org/2000/svg" fill="none" viewBox="0 0 220 456"><path fill="#fff" fill-rule="evenodd" d="M31.32 455.989l157.404.011C205.933 456 220 441.646 220 424.085l-.044-392.159c0-17.55-14.078-31.915-31.276-31.915L31.276 0C14.078 0 0 14.354 0 31.915l.044 392.159c0 17.549 14.078 31.915 31.276 31.915zM187.999 8.012c13.172.011 23.955 10.74 23.955 23.86L212 424.14c0 13.12-10.782 23.86-23.954 23.86l-156.057-.011c-13.172-.012-23.954-10.74-23.954-23.86L8 31.86C8 18.74 18.782 8 31.954 8h31.97c1.11 0 2.01.897 2.01 2v.012c0 7.67 6.303 13.948 14.003 13.948h59.052c7.701 0 14.004-6.278 14.004-13.948 0-1.104.9-2 2.008-2h32.998z" clip-rule="evenodd"/></svg>