<svg width="220" height="456" viewBox="0 0 220 456" fill="none" xmlns="http://www.w3.org/2000/svg">
<path fill-rule="evenodd" clip-rule="evenodd" d="M31.3199 455.989L188.724 456C205.933 456 220 441.646 220 424.085L219.956 31.9262C219.956 14.3769 205.878 0.0112495 188.68 0.0112495L31.2758 0C14.078 0 0 14.3544 0 31.9149L0.0440969 424.074C0.0440969 441.623 14.1221 455.989 31.3199 455.989ZM187.999 8.01159C201.171 8.02308 211.954 18.7514 211.954 31.8715L212 424.14C212 437.26 201.218 448 188.046 448L31.9891 447.989C18.817 447.977 8.03463 437.249 8.03463 424.129L8 31.86C8 18.7399 18.7824 8.00009 31.9545 8.00009L63.9248 8C65.0331 8 65.9336 8.8969 65.9336 10.0008V10.0123C65.9336 17.682 72.2368 23.9603 79.9368 23.9603L138.989 23.9604C146.69 23.9604 152.993 17.682 152.993 10.0124C152.993 8.90849 153.893 8.01159 155.001 8.01159H187.999Z" fill="white"/>
</svg>
